<?xml version="1.0" encoding="UTF-8" standalone="no"?>
<svg
   xmlns:dc="http://purl.org/dc/elements/1.1/"
   xmlns:cc="http://creativecommons.org/ns#"
   xmlns:rdf="http://www.w3.org/1999/02/22-rdf-syntax-ns#"
   xmlns:svg="http://www.w3.org/2000/svg"
   xmlns="http://www.w3.org/2000/svg"
   xmlns:sodipodi="http://sodipodi.sourceforge.net/DTD/sodipodi-0.dtd"
   xmlns:inkscape="http://www.inkscape.org/namespaces/inkscape"
   height="128"
   width="128"
   id="svg2"
   version="1.1"
   inkscape:version="0.48.3.1 r9886"
   sodipodi:docname="headphones.svg">
  <metadata
     id="metadata10">
    <rdf:RDF>
      <cc:Work
         rdf:about="">
        <dc:format>image/svg+xml</dc:format>
        <dc:type
           rdf:resource="http://purl.org/dc/dcmitype/StillImage" />
        <dc:title></dc:title>
      </cc:Work>
    </rdf:RDF>
  </metadata>
  <defs
     id="defs8" />
  <sodipodi:namedview
     pagecolor="#c8c8c8"
     bordercolor="#666666"
     borderopacity="1"
     objecttolerance="10"
     gridtolerance="10"
     guidetolerance="10"
     inkscape:pageopacity="1"
     inkscape:pageshadow="2"
     inkscape:window-width="1154"
     inkscape:window-height="879"
     id="namedview6"
     showgrid="false"
     inkscape:snap-smooth-nodes="true"
     inkscape:snap-to-guides="false"
     showguides="true"
     inkscape:guide-bbox="true"
     inkscape:snap-page="true"
     inkscape:zoom="4"
     inkscape:cx="61.992884"
     inkscape:cy="64.74654"
     inkscape:window-x="7"
     inkscape:window-y="0"
     inkscape:window-maximized="0"
     inkscape:current-layer="svg2" />
  <path
     transform="matrix(1.0002814,0,0,0.9968321,-0.01622748,0.2027456)"
     style="fill:#ffffff;fill-opacity:1;stroke:none"
     d="m 63.9375,4.8125 c -13.966685,0 -27.120949,5.508044 -37,15.4375 -9.323427,9.370989 -17.6022362,22.850262 -15.25,38.78125 L 11.875,60.3125 C 9.4114878,61.288511 7.1031126,62.7169 5.34375,64.53125 2.7258109,67.231 -0.80481096,72.653137 0.1875,79.34375 l 4,26.96875 c 0.3587295,2.41871 1.3283659,7.48461 5.28125,11.4375 3.411652,3.41164 8.710348,5.4375 13.3125,5.4375 l 20.1875,0 a 11.957698,11.957698 0 0 0 11.875,-13.28125 L 48.96875,57 c 0.04977,-4.379013 1.161707,-7.036707 4.40625,-10.28125 3.307595,-3.307595 6.006081,-4.4375 10.625,-4.4375 4.618917,0 7.317404,1.129904 10.625,4.4375 3.73279,3.732789 4.85707,6.320894 4.53125,9.25 l -6,53.9375 a 11.957698,11.957698 0 0 0 11.875,13.28125 l 20.3125,0 c 4.68336,0 9.73723,-2.17892 12.96875,-5.3125 4.01008,-3.88857 5.12743,-9.05045 5.5,-11.5625 l 4,-26.96875 c 0.9965,-6.718903 -2.65399,-12.396479 -5.5,-15.15625 -1.675,-1.624248 -3.83585,-2.96602 -6.1875,-3.90625 l 0.1875,-1.25 C 118.68287,42.977486 110.29152,29.510279 101,20.21875 91.084891,10.303639 77.904185,4.8125 63.9375,4.8125 z"
     id="path3759" />
  <path
     d="m 109.34844,70.83317 c 1.7738,0 3.32588,0.645021 4.65623,1.935062 1.33035,1.290036 2.27942,2.923522 1.99553,4.837645 l -4,26.969853 c -0.27206,1.83437 -0.66518,3.42668 -1.99553,4.71672 -1.33035,1.29003 -2.88243,1.93505 -4.65623,1.93505 l -20.318099,0 6,-53.939725 C 91.850396,49.915521 88.389792,43.520642 83.108693,38.239544 77.827601,32.958453 71.458037,30.317907 64.000002,30.317907 c -7.458036,0 -13.8276,2.640546 -19.108691,7.921637 -5.281098,5.281098 -7.921647,11.630508 -7.921647,19.048231 l 6,53.939725 -20.19716,0 c -1.935061,0 -3.547609,-0.64502 -4.837645,-1.93505 -1.290037,-1.29004 -1.662992,-2.88235 -1.935055,-4.71672 l -4,-26.969853 c -0.272062,-1.834366 0.645018,-3.446823 1.935055,-4.777174 1.290036,-1.330355 2.902584,-1.995533 4.837645,-1.995533 l 6.772697,0 -2,-13.545395 C 21.919963,46.280527 27.495946,36.626997 35.397437,28.685198 43.29892,20.7434 52.812951,16.772501 63.939531,16.772501 c 11.12658,0 20.660769,3.970899 28.602566,11.912697 7.941793,7.941799 13.566253,17.403527 11.912693,28.602577 l -2,13.545395 z"
     id="path4"
     inkscape:connector-curvature="0"
     sodipodi:nodetypes="sssssscssssscsssssscssssscs"
     style="fill:#262729;fill-opacity:1;stroke:none" />
</svg>
