<?xml version="1.0" encoding="UTF-8" standalone="no"?>
<!-- Created with Inkscape (http://www.inkscape.org/) -->

<svg
   xmlns:dc="http://purl.org/dc/elements/1.1/"
   xmlns:cc="http://creativecommons.org/ns#"
   xmlns:rdf="http://www.w3.org/1999/02/22-rdf-syntax-ns#"
   xmlns:svg="http://www.w3.org/2000/svg"
   xmlns="http://www.w3.org/2000/svg"
   xmlns:sodipodi="http://sodipodi.sourceforge.net/DTD/sodipodi-0.dtd"
   xmlns:inkscape="http://www.inkscape.org/namespaces/inkscape"
   width="127.99999"
   height="121.1792"
   id="svg2220"
   sodipodi:version="0.32"
   inkscape:version="0.48.3.1 r9886"
   version="1.0"
   sodipodi:docname="audio-headset.svg"
   inkscape:output_extension="org.inkscape.output.svg.inkscape">
  <defs
     id="defs2222" />
  <sodipodi:namedview
     id="base"
     pagecolor="#c8c8c8"
     bordercolor="#666666"
     borderopacity="1.0"
     gridtolerance="10000"
     guidetolerance="10"
     objecttolerance="10"
     inkscape:pageopacity="1"
     inkscape:pageshadow="2"
     inkscape:zoom="3.959798"
     inkscape:cx="40.161546"
     inkscape:cy="61.359244"
     inkscape:document-units="px"
     inkscape:current-layer="layer1"
     inkscape:window-width="991"
     inkscape:window-height="675"
     inkscape:window-x="49"
     inkscape:window-y="96"
     showgrid="false"
     fit-margin-top="0"
     fit-margin-left="0"
     fit-margin-right="0"
     fit-margin-bottom="0"
     inkscape:snap-page="true"
     inkscape:snap-nodes="true"
     inkscape:snap-bbox="true"
     inkscape:bbox-paths="false"
     inkscape:window-maximized="0" />
  <metadata
     id="metadata2225">
    <rdf:RDF>
      <cc:Work
         rdf:about="">
        <dc:format>image/svg+xml</dc:format>
        <dc:type
           rdf:resource="http://purl.org/dc/dcmitype/StillImage" />
        <dc:title />
        <dc:date>2007-11-01</dc:date>
        <dc:creator>
          <cc:Agent>
            <dc:title>Gamma-aspirin</dc:title>
          </cc:Agent>
        </dc:creator>
        <dc:rights>
          <cc:Agent>
            <dc:title>cc-by-sa/GFDL</dc:title>
          </cc:Agent>
        </dc:rights>
        <dc:description>autotraced by Inkscape</dc:description>
        <cc:license
           rdf:resource="http://creativecommons.org/licenses/GPL/2.0/" />
      </cc:Work>
      <cc:License
         rdf:about="http://creativecommons.org/licenses/GPL/2.0/">
        <cc:permits
           rdf:resource="http://web.resource.org/cc/Reproduction" />
        <cc:permits
           rdf:resource="http://web.resource.org/cc/Distribution" />
        <cc:requires
           rdf:resource="http://web.resource.org/cc/Notice" />
        <cc:permits
           rdf:resource="http://web.resource.org/cc/DerivativeWorks" />
        <cc:requires
           rdf:resource="http://web.resource.org/cc/ShareAlike" />
        <cc:requires
           rdf:resource="http://web.resource.org/cc/SourceCode" />
      </cc:License>
    </rdf:RDF>
  </metadata>
  <g
     inkscape:label="Layer 1"
     inkscape:groupmode="layer"
     id="layer1"
     transform="translate(-121.85713,-594.51146)">
    <path
       sodipodi:type="inkscape:offset"
       inkscape:radius="9.0668955"
       inkscape:original="M 186.59375 602.125 C 183.21934 602.07628 179.87977 602.16878 177.96875 602.4375 C 171.03335 603.41274 165.94154 604.89185 160.65625 607.4375 C 151.92239 611.64412 145.31567 617.49567 139.71875 625.96875 C 135.03274 633.06286 130.9096 643.56076 130.125 650.40625 C 129.98146 651.65852 129.84463 659.95876 129.84375 669.5625 L 129.84375 686.5 L 134.8125 686.5 L 139.75 686.5 L 139.8125 668.4375 L 139.90625 650.34375 L 140.59375 647.96875 C 142.1525 642.60639 145.04355 636.28845 147.90625 631.9375 C 154.52296 621.88086 164.12974 615.20482 175.25 612.9375 C 183.6585 611.22309 193.24885 611.6451 200.75 614.0625 C 208.92379 616.69666 215.64591 621.38428 221.4375 628.5 C 225.58741 633.59873 230.24631 643.31232 231.53125 649.53125 C 231.8695 651.16833 231.9375 654.08526 231.9375 669 L 231.9375 686.5 L 236.90625 686.5 L 241.84375 686.5 L 241.78125 668.03125 C 241.68127 647.71462 241.70289 648.44224 239.96875 642.96875 C 236.0959 630.7449 230.06227 621.26431 221.6875 614.25 C 214.21842 607.99425 205.79134 604.2697 195.5 602.6875 C 193.37294 602.36048 189.96816 602.17372 186.59375 602.125 z M 146.375 657.28125 L 146.375 682.6875 L 146.375 708.125 L 153.53125 708.03125 C 160.37769 707.95684 160.74345 707.94434 161.75 707.40625 C 163.11873 706.67453 164.27815 705.25202 164.625 703.875 C 164.81253 703.13032 164.90625 696.34377 164.90625 682.75 C 164.90625 661.09559 164.90477 661.30022 163.53125 659.5 C 163.17756 659.03643 162.35804 658.39493 161.6875 658.0625 C 160.50602 657.47675 160.23433 657.4546 153.40625 657.375 L 146.375 657.28125 z M 219.25 657.3125 C 215.74951 657.3125 212.34906 657.44521 211.65625 657.59375 C 210.1563 657.91535 208.56294 659.19914 207.75 660.71875 L 207.1875 661.75 L 207.09375 682.4375 C 207.0164 705.50604 206.97919 704.61588 208.78125 706.375 C 209.30381 706.88511 210.1617 707.48368 210.71875 707.6875 C 211.50905 707.97656 213.25736 708.0486 218.65625 708.0625 L 225.59375 708.09375 L 225.59375 682.71875 L 225.59375 657.3125 L 219.25 657.3125 z "
       style="fill:#ffffff"
       id="path2985"
       d="m 186.71875,593.0625 c -3.6264,-0.0524 -6.93074,-0.0253 -10,0.40625 -7.58124,1.06606 -13.90064,2.87476 -20,5.8125 -10.08493,4.85736 -18.21511,12.07829 -24.5625,21.6875 -5.60518,8.48563 -9.95687,19.03244 -11.03125,28.40625 -0.29274,2.55396 -0.19684,3.85231 -0.25,7.34375 -0.0532,3.49144 -0.0933,7.99906 -0.0937,12.84375 l 0,16.9375 a 9.0678022,9.0678022 0 0 0 9.0625,9.0625 l 4.96875,0 2.5,0 0,12.5625 a 9.0678022,9.0678022 0 0 0 9.1875,9.0625 l 7.125,-0.0937 c 0.0156,-1.7e-4 0.0157,1.7e-4 0.0312,0 3.39624,-0.0367 5.15174,-0.0306 6.84375,-0.15625 1.69973,-0.12622 4.65103,-1.0607 5.53125,-1.53125 3.80003,-2.03149 6.22045,-4.72886 7.375,-9.3125 0.39981,-1.58763 0.27911,-1.66371 0.3125,-2.125 0.0334,-0.46129 0.0738,-0.92807 0.0937,-1.46875 0.0399,-1.08135 0.0698,-2.46654 0.0937,-4.25 0.0479,-3.56692 0.0625,-8.68228 0.0625,-15.5 0,-10.82741 0.0244,-16.0766 -0.1875,-19.625 -0.10597,-1.7742 -0.23292,-3.28633 -0.875,-5.1875 -0.64208,-1.90117 -1.86359,-3.55393 -2.15625,-3.9375 -2.00379,-2.62631 -2.83583,-2.97409 -5.03125,-4.0625 -0.79779,-0.39553 -3.56162,-1.29223 -5.3125,-1.4375 -1.74297,-0.14462 -3.48325,-0.14814 -6.875,-0.1875 l -0.0312,0 -3.34375,-0.0312 c 1.4067,-3.9832 3.46362,-8.56493 5.3125,-11.375 5.4145,-8.22941 12.88569,-13.31825 21.59375,-15.09375 6.80076,-1.38661 15.25934,-0.94483 20.90625,0.875 6.56612,2.11606 11.58351,5.56749 16.4375,11.53125 2.20955,2.71474 5.37697,9.42028 7.03125,14.03125 l -2.1875,0 c -1.86483,0 -3.67373,0.0367 -5.1875,0.0937 -1.51377,0.057 -1.53417,-0.22068 -4.3125,0.375 -5.02208,1.07677 -7.83743,3.70035 -9.96875,7.65625 -0.0115,0.0214 -0.0198,0.0411 -0.0312,0.0625 l -0.53125,0.96875 a 9.0678022,9.0678022 0 0 0 -1.09375,4.3125 l -0.0937,20.6875 c -0.0387,11.529 -0.1135,16.85781 0.15625,20.625 0.13487,1.88359 0.29753,3.72838 1.375,6 1.07747,2.27162 2.68684,3.66007 2.875,3.84375 1.53504,1.49847 2.04077,2.17257 5.15625,3.3125 4.38521,1.60393 5.55674,0.92341 11.03125,0.9375 l 6.9375,0.0312 a 9.0678022,9.0678022 0 0 0 9.09375,-9.0625 l 0,-12.53125 2.25,0 4.9375,0 a 9.0678022,9.0678022 0 0 0 9.0625,-9.09375 L 250.84375,668 c -0.05,-10.15563 -0.0392,-15.00511 -0.3125,-18.71875 -0.2733,-3.71364 -1.07084,-6.42569 -1.90625,-9.0625 -4.28409,-13.52186 -11.31054,-24.68612 -21.125,-32.90625 -8.68461,-7.27382 -18.95614,-11.79977 -30.625,-13.59375 -3.05093,-0.46906 -6.53543,-0.60397 -10.15625,-0.65625 z"
       transform="matrix(0.97589493,0,0,0.97415301,4.4931347,16.884971)" />
    <path
       style="fill:#262729;fill-opacity:1"
       d="m 147.06686,681.97208 0,-24.75911 6.92024,0.0801 c 6.70614,0.0775 6.9573,0.0982 8.11768,0.66888 0.65856,0.32384 1.48162,0.9583 1.82899,1.40988 1.349,1.7537 1.33769,1.56237 1.33769,22.65708 0,13.24241 -0.0872,19.85292 -0.2714,20.57835 -0.34065,1.34142 -1.46332,2.71013 -2.8076,3.42293 -0.98857,0.52418 -1.35649,0.55264 -8.08066,0.62513 l -7.04494,0.0759 0,-24.75913 z m 63.2201,24.33503 c -0.54711,-0.19857 -1.41466,-0.76758 -1.92788,-1.26451 -1.76989,-1.71366 -1.71019,-0.86124 -1.63422,-23.33354 l 0.0679,-20.13389 0.5525,-1.02433 c 0.79842,-1.48034 2.3784,-2.72783 3.85157,-3.04112 0.68044,-0.14469 4.01568,-0.26186 7.45366,-0.26186 l 6.22219,0 0,24.72754 0,24.72756 -6.79557,-0.0174 c -5.30247,-0.0136 -7.01411,-0.0968 -7.7903,-0.37842 z m -79.42764,-37.1282 c 8.7e-4,-9.35552 0.10978,-17.43799 0.25076,-18.65788 0.77059,-6.66857 4.81927,-16.90096 9.42161,-23.81171 5.49696,-8.25408 11.99412,-13.95592 20.57201,-18.05381 5.19091,-2.47985 10.19918,-3.91105 17.01073,-4.86109 3.7538,-0.52354 13.04441,-0.39051 17.22257,0.24663 10.10755,1.54132 18.38806,5.16591 25.72376,11.25998 8.22522,6.833 14.15263,16.06785 17.95633,27.97575 1.70317,5.33202 1.65262,4.62696 1.7508,24.41847 l 0.0892,17.98929 -4.87493,0 -4.87494,0 0,-17.07244 c 0,-14.52924 -0.0582,-17.35158 -0.39036,-18.94634 -1.262,-6.0582 -5.84134,-15.51673 -9.91714,-20.48369 -5.68816,-6.9318 -12.29388,-11.50606 -20.3217,-14.07213 -7.36719,-2.35493 -16.79129,-2.76793 -25.04963,-1.09784 -10.92167,2.20871 -20.35739,8.71151 -26.85594,18.50822 -2.81157,4.23848 -5.63703,10.39517 -7.16795,15.61894 l -0.67655,2.30852 -0.0834,17.61839 -0.0834,17.61837 -4.85199,0 -4.852,0 0.002,-16.50563 z"
       id="path2231"
       inkscape:connector-curvature="0" />
  </g>
</svg>
