<?xml version="1.0" encoding="UTF-8" standalone="no"?>
<svg
   xmlns:dc="http://purl.org/dc/elements/1.1/"
   xmlns:cc="http://creativecommons.org/ns#"
   xmlns:rdf="http://www.w3.org/1999/02/22-rdf-syntax-ns#"
   xmlns:svg="http://www.w3.org/2000/svg"
   xmlns="http://www.w3.org/2000/svg"
   xmlns:sodipodi="http://sodipodi.sourceforge.net/DTD/sodipodi-0.dtd"
   xmlns:inkscape="http://www.inkscape.org/namespaces/inkscape"
   width="48"
   height="48"
   id="svg2"
   version="1.1"
   inkscape:version="0.48.3.1 r9886"
   sodipodi:docname="camera-web.svg">
  <metadata
     id="metadata20">
    <rdf:RDF>
      <cc:Work
         rdf:about="">
        <dc:format>image/svg+xml</dc:format>
        <dc:type
           rdf:resource="http://purl.org/dc/dcmitype/StillImage" />
        <dc:title />
      </cc:Work>
    </rdf:RDF>
  </metadata>
  <defs
     id="defs18" />
  <sodipodi:namedview
     pagecolor="#dddddd"
     bordercolor="#666666"
     borderopacity="1"
     objecttolerance="10"
     gridtolerance="10"
     guidetolerance="10"
     inkscape:pageopacity="1"
     inkscape:pageshadow="2"
     inkscape:window-width="1598"
     inkscape:window-height="879"
     id="namedview16"
     showgrid="false"
     inkscape:zoom="16"
     inkscape:cx="5.915411"
     inkscape:cy="28.674749"
     inkscape:window-x="0"
     inkscape:window-y="0"
     inkscape:window-maximized="1"
     inkscape:current-layer="svg2" />
  <path
     sodipodi:type="arc"
     style="fill:#262729;fill-opacity:1;stroke:#ffffff;stroke-width:4.35492945;stroke-linejoin:round;stroke-miterlimit:4;stroke-opacity:1;stroke-dasharray:none"
     id="path3906"
     sodipodi:cx="23.953241"
     sodipodi:cy="23.95837"
     sodipodi:rx="23.953241"
     sodipodi:ry="23.953241"
     d="m 47.906483,23.95837 a 23.953241,23.953241 0 1 1 -47.906483,0 23.953241,23.953241 0 1 1 47.906483,0 z"
     transform="matrix(0.91845968,0,0,0.91845968,1.9999136,1.995203)" />
  <path
     d="m 24,14.999776 c 4.970578,0 9.000224,4.030463 9.000224,9.000224 0,4.970578 -4.029646,9.000224 -9.000224,9.000224 -4.970578,0 -9.000224,-4.029646 -9.000224,-9.000224 0,-4.969761 4.029646,-9.000224 9.000224,-9.000224 z"
     id="path6"
     inkscape:connector-curvature="0"
     style="fill:#2a6d7d;fill-opacity:1;stroke:#f2f2f2;stroke-width:6;stroke-linejoin:round;stroke-miterlimit:4;stroke-opacity:1;stroke-dasharray:none" />
  <path
     sodipodi:type="arc"
     style="fill:#e04613;fill-opacity:1;stroke:none"
     id="path3753"
     sodipodi:cx="24"
     sodipodi:cy="6.9374995"
     sodipodi:rx="1.625"
     sodipodi:ry="1.625"
     d="m 25.625,6.9374995 a 1.625,1.625 0 1 1 -3.25,0 1.625,1.625 0 1 1 3.25,0 z"
     transform="matrix(1.2307692,0,0,1.2307692,-5.5384608,-0.53846069)" />
</svg>
