<?xml version="1.0" encoding="UTF-8" standalone="no"?>
<!-- Created with Inkscape (http://www.inkscape.org/) -->

<svg
   xmlns:dc="http://purl.org/dc/elements/1.1/"
   xmlns:cc="http://creativecommons.org/ns#"
   xmlns:rdf="http://www.w3.org/1999/02/22-rdf-syntax-ns#"
   xmlns:svg="http://www.w3.org/2000/svg"
   xmlns="http://www.w3.org/2000/svg"
   xmlns:sodipodi="http://sodipodi.sourceforge.net/DTD/sodipodi-0.dtd"
   xmlns:inkscape="http://www.inkscape.org/namespaces/inkscape"
   width="128"
   height="128"
   id="svg2"
   sodipodi:version="0.32"
   inkscape:version="0.48.3.1 r9886"
   version="1.0"
   sodipodi:docname="drive-harddisk-ieee1394.svg"
   inkscape:output_extension="org.inkscape.output.svg.inkscape">
  <defs
     id="defs4" />
  <sodipodi:namedview
     id="base"
     pagecolor="#c0c0c0"
     bordercolor="#000000"
     borderopacity="1"
     inkscape:pageopacity="1"
     inkscape:pageshadow="2"
     inkscape:zoom="5.6"
     inkscape:cx="78.912969"
     inkscape:cy="66.180253"
     inkscape:document-units="px"
     inkscape:current-layer="g10852"
     width="128px"
     height="128px"
     showgrid="true"
     inkscape:window-width="1598"
     inkscape:window-height="879"
     inkscape:window-x="0"
     inkscape:window-y="0"
     inkscape:window-maximized="1" />
  <metadata
     id="metadata7">
    <rdf:RDF>
      <cc:Work
         rdf:about="">
        <dc:format>image/svg+xml</dc:format>
        <dc:type
           rdf:resource="http://purl.org/dc/dcmitype/StillImage" />
        <dc:title></dc:title>
      </cc:Work>
    </rdf:RDF>
  </metadata>
  <g
     inkscape:label="Ebene 1"
     inkscape:groupmode="layer"
     id="layer1">
    <path
       style="fill:#ffffff;fill-opacity:1"
       d="m -0.06099764,90.2758 c 0,-35.305426 1.61146794,-43.140933 20.52972864,-57.004183 12.623251,-7.092722 36.434375,-5.685556 59.623965,-5.667904 l 47.846304,0 0,14.498851 c -0.20054,28.069183 -3.79972,39.957861 -21.13138,52.502094 -7.443908,5.085585 -24.591328,5.624352 -59.568786,5.37505 -28.281857,-0.201582 -47.29983164,0 -47.29983164,0 z"
       id="path10790"
       sodipodi:nodetypes="ccccccscc"
       inkscape:connector-curvature="0" />
    <g
       id="g10792"
       transform="matrix(0.90691998,0,0,0.9038385,6.3821444,6.154336)">
      <path
         sodipodi:nodetypes="cccccssscc"
         id="path2244"
         d="M 1.7839012,77.592373 C 1.8137905,61.693738 9.8852784,49.507217 24.708043,42.965086 31.056319,38.863052 60.73419,39.960843 78.156941,39.862905 l 47.121869,-0.264305 0,6.657707 c -0.29323,7.77459 -1.13287,11.650518 -3.8869,16.857277 -3.88973,7.353955 -10.4795,13.850118 -19.28636,17.202795 -6.993467,2.662335 -22.044491,3.381301 -53.399439,3.229475 -25.353254,-0.122761 -46.9222098,0 -46.9222098,0 z"
         style="fill:#e04613;fill-opacity:1"
         inkscape:connector-curvature="0" />
      <path
         id="path2242"
         d="m 1.7839012,91.39187 0,-3.587117 44.6701058,0 c 40.530032,0 45.197404,-0.151685 50.296616,-1.634594 13.079067,-3.803548 22.736927,-12.235827 27.172847,-24.622816 l 1.35534,-3.784687 -0.78458,5.372693 c -2.06767,14.1592 -14.99322,27.714977 -31.074379,30.849375 -3.296919,0.642609 -20.405257,0.994262 -48.371386,0.994262 l -43.2645638,0 z"
         style="fill:#262729;fill-opacity:1"
         inkscape:connector-curvature="0"
         sodipodi:nodetypes="ccssscssscc" />
      <path
         sodipodi:nodetypes="cccccssscc"
         id="path2237"
         d="M 1.7839012,71.102557 C 1.8137902,55.203921 10.403448,42.92963 25.226213,36.3875 34.735609,32.285466 61.252358,33.383256 78.67511,33.285319 l 46.6037,-0.264305 0,8.80805 c -0.29324,7.77459 -0.61516,9.500174 -3.36918,14.706933 -3.88974,7.353956 -10.4795,13.850118 -19.28637,17.202796 -6.993468,2.662334 -22.044491,3.425184 -53.39944,3.27336 -25.352794,-0.122763 -47.4399188,0 -47.4399188,0 z"
         style="fill:#262729;fill-opacity:1"
         inkscape:connector-curvature="0" />
    </g>
    <g
       id="g10852"
       transform="translate(5.9162262,0.17857105)"
       style="fill:#f08615;fill-opacity:1">
      <path
         inkscape:connector-curvature="0"
         id="path2508"
         d="m 35.709317,56.305985 50.551012,0.0023"
         style="fill:#f08615;fill-rule:evenodd;stroke:#6c9eab;stroke-width:1.21025549999999993px;stroke-linecap:butt;stroke-linejoin:miter;stroke-opacity:1;fill-opacity:1" />
      <path
         transform="matrix(-4.7833242e-5,1.0829026,-1.0761923,-4.8131494e-5,113.4434,68.775674)"
         d="m -5.5558395,76.60849 c 0,3.347351 -2.7135641,6.060915 -6.0609155,6.060915 -3.34735,0 -6.060915,-2.713564 -6.060915,-6.060915 0,-3.347351 2.713565,-6.060915 6.060915,-6.060915 3.3473514,0 6.0609155,2.713564 6.0609155,6.060915 z"
         sodipodi:ry="6.060915"
         sodipodi:rx="6.060915"
         sodipodi:cy="76.60849"
         sodipodi:cx="-11.616755"
         id="path2510"
         style="fill:#6c9eab;fill-opacity:1;stroke:none"
         sodipodi:type="arc" />
      <path
         inkscape:connector-curvature="0"
         sodipodi:nodetypes="cccc"
         id="path3481"
         d="m 78.045139,49.684822 -5.64e-4,12.753237 13.647194,-5.741385 -13.64663,-7.011852 z"
         style="fill:#6c9eab;fill-rule:evenodd;stroke:none;fill-opacity:1" />
      <path
         inkscape:connector-curvature="0"
         sodipodi:nodetypes="ccc"
         id="path4452"
         d="m 46.937373,56.579961 c -0.340768,3.081838 0.620559,8.178093 5.343033,8.178304 l 15.908677,-0.02986"
         style="fill:#262729;stroke:#6c9eab;stroke-width:1.21025549999999993px;stroke-linecap:butt;stroke-linejoin:miter;stroke-opacity:1;fill-opacity:1" />
      <path
         inkscape:connector-curvature="0"
         sodipodi:nodetypes="ccc"
         id="path4454"
         d="m 41.197706,55.993826 c -0.324455,-4.092281 2.703848,-9.376684 5.340166,-9.252169 l 14.749167,0.0355"
         style="fill:#262729;stroke:#6c9eab;stroke-width:1.21025549999999993px;stroke-linecap:butt;stroke-linejoin:miter;stroke-opacity:1;fill-opacity:1" />
      <rect
         transform="matrix(-4.4171322e-5,1,-1,-4.4723877e-5,0,0)"
         ry="0"
         rx="0"
         y="-71.412781"
         x="61.144024"
         height="7.2538257"
         width="7.2990546"
         id="rect4456"
         style="fill:#6c9eab;fill-opacity:1;stroke:none" />
      <path
         transform="matrix(-6.3777658e-5,1.4438703,-1.4349232,-6.4175328e-5,122.7055,78.068062)"
         d="m -18.928572,41.125 c 0,1.479334 -1.199237,2.678571 -2.678571,2.678571 -1.479335,0 -2.678572,-1.199237 -2.678572,-2.678571 0,-1.479334 1.199237,-2.678571 2.678572,-2.678571 1.479334,0 2.678571,1.199237 2.678571,2.678571 z"
         sodipodi:ry="2.6785715"
         sodipodi:rx="2.6785715"
         sodipodi:cy="41.125"
         sodipodi:cx="-21.607143"
         id="path4458"
         style="fill:#6c9eab;fill-opacity:1;stroke:none"
         sodipodi:type="arc" />
    </g>
  </g>
</svg>
