<?xml version="1.0" encoding="UTF-8" standalone="no"?>
<svg
   xmlns:dc="http://purl.org/dc/elements/1.1/"
   xmlns:cc="http://creativecommons.org/ns#"
   xmlns:rdf="http://www.w3.org/1999/02/22-rdf-syntax-ns#"
   xmlns:svg="http://www.w3.org/2000/svg"
   xmlns="http://www.w3.org/2000/svg"
   xmlns:sodipodi="http://sodipodi.sourceforge.net/DTD/sodipodi-0.dtd"
   xmlns:inkscape="http://www.inkscape.org/namespaces/inkscape"
   width="48"
   height="48"
   id="Mano"
   version="1.0"
   inkscape:version="0.48.3.1 r9886"
   sodipodi:docname="input-touchpad.svg">
  <defs
     id="defs10" />
  <sodipodi:namedview
     pagecolor="#d8d8d8"
     bordercolor="#666666"
     borderopacity="1"
     objecttolerance="10"
     gridtolerance="10"
     guidetolerance="10"
     inkscape:pageopacity="1"
     inkscape:pageshadow="2"
     inkscape:window-width="1152"
     inkscape:window-height="776"
     id="namedview8"
     showgrid="false"
     inkscape:zoom="24.273047"
     inkscape:cx="20.847459"
     inkscape:cy="-5.2478461"
     inkscape:window-x="0"
     inkscape:window-y="0"
     inkscape:window-maximized="0"
     inkscape:current-layer="g4" />
  <metadata
     id="Metadata">
    <rdf:RDF>
      <cc:Work
         rdf:about="">
        <dc:format>image/svg+xml</dc:format>
        <dc:type
           rdf:resource="http://purl.org/dc/dcmitype/StillImage" />
      </cc:Work>
    </rdf:RDF>
  </metadata>
  <g
     id="g4"
     transform="translate(0,-392)">
    <path
       style="fill:#ffffff;fill-opacity:1;fill-rule:evenodd;stroke:none"
       d="m 4.9999999,411.63636 6.7058821,0 0,2.18182 2.235294,0 0,-19.63636 2.235295,0 0,-2.18182 4.470588,0 0,2.18182 2.235294,0 0,8.72727 4.470589,0 0,2.18182 6.705882,0 0,2.18182 4.470588,0 0,2.18181 2.235293,0 0,2.18182 2.235295,0 0,15.27273 -2.235295,0 0,6.54546 -2.235293,0 0,6.54545 -22.352942,0 0,-6.54545 -2.235294,0 0,-4.36364 -2.235294,0 0,-4.36364 -2.2352938,0 0,-4.36363 -2.2352941,0 0,-2.18182 -2.2352942,0 0,-6.54546 z"
       id="NigraBordero"
       inkscape:connector-curvature="0" />
    <path
       style="fill:#262729;fill-opacity:1;fill-rule:evenodd;stroke:none"
       d="m 7.2352941,413.81818 4.4705879,0 0,2.18181 2.235294,0 c 0,0 0,6.54546 0,6.54546 l 2.235295,0 0,-28.36363 4.470588,0 0,19.63636 2.235294,0 0,-8.72727 4.470589,0 0,8.72727 2.235294,0 0,-6.54545 4.470588,0 0,8.72726 2.235293,0 0,-6.54545 2.235295,0 0,2.18182 2.235293,0 0,15.27273 -2.235293,0 0,6.54546 -2.235295,0 0,4.36362 -17.882353,0 0,-4.36362 -2.235294,0 0,-4.36364 -2.235294,0 0,-4.36364 -2.235294,0 0,-4.36363 -2.2352937,0 0,-2.18182 -2.2352941,0 0,-4.36364 z"
       id="BlankaIntero"
       inkscape:connector-curvature="0" />
  </g>
</svg>
