<?xml version="1.0" encoding="UTF-8" standalone="no"?>
<!-- Created with Inkscape (http://www.inkscape.org/) -->

<svg
   xmlns:dc="http://purl.org/dc/elements/1.1/"
   xmlns:cc="http://creativecommons.org/ns#"
   xmlns:rdf="http://www.w3.org/1999/02/22-rdf-syntax-ns#"
   xmlns:svg="http://www.w3.org/2000/svg"
   xmlns="http://www.w3.org/2000/svg"
   xmlns:sodipodi="http://sodipodi.sourceforge.net/DTD/sodipodi-0.dtd"
   xmlns:inkscape="http://www.inkscape.org/namespaces/inkscape"
   width="48px"
   height="48px"
   id="svg5498"
   sodipodi:version="0.32"
   inkscape:version="0.48.3.1 r9886"
   sodipodi:docname="input-gaming.svg"
   version="1.1">
  <defs
     id="defs5500" />
  <sodipodi:namedview
     id="base"
     pagecolor="#c8c8c8"
     bordercolor="#666666"
     borderopacity="1.0"
     inkscape:pageopacity="1"
     inkscape:pageshadow="2"
     inkscape:zoom="15.25"
     inkscape:cx="21.57377"
     inkscape:cy="26.622951"
     inkscape:current-layer="layer2"
     showgrid="true"
     inkscape:grid-bbox="true"
     inkscape:document-units="px"
     inkscape:window-width="1274"
     inkscape:window-height="879"
     inkscape:window-x="0"
     inkscape:window-y="0"
     showguides="true"
     inkscape:guide-bbox="true"
     inkscape:grid-points="true"
     inkscape:window-maximized="0">
    <sodipodi:guide
       orientation="vertical"
       position="24.016393"
       id="guide2766" />
  </sodipodi:namedview>
  <metadata
     id="metadata5503">
    <rdf:RDF>
      <cc:Work
         rdf:about="">
        <dc:format>image/svg+xml</dc:format>
        <dc:type
           rdf:resource="http://purl.org/dc/dcmitype/StillImage" />
        <dc:title></dc:title>
        <dc:creator>
          <cc:Agent>
            <dc:title>Luca Ferretti &lt;elle.uca@libero.it&gt;</dc:title>
          </cc:Agent>
        </dc:creator>
        <dc:subject>
          <rdf:Bag>
            <rdf:li>mouse input device</rdf:li>
          </rdf:Bag>
        </dc:subject>
        <dc:description>A stylized mouse</dc:description>
        <cc:license
           rdf:resource="http://creativecommons.org/licenses/LGPL/2.1/" />
      </cc:Work>
      <cc:License
         rdf:about="http://creativecommons.org/licenses/LGPL/2.1/">
        <cc:permits
           rdf:resource="http://web.resource.org/cc/Reproduction" />
        <cc:permits
           rdf:resource="http://web.resource.org/cc/Distribution" />
        <cc:requires
           rdf:resource="http://web.resource.org/cc/Notice" />
        <cc:permits
           rdf:resource="http://web.resource.org/cc/DerivativeWorks" />
        <cc:requires
           rdf:resource="http://web.resource.org/cc/ShareAlike" />
        <cc:requires
           rdf:resource="http://web.resource.org/cc/SourceCode" />
      </cc:License>
    </rdf:RDF>
  </metadata>
  <g
     id="layer1"
     inkscape:label="Layer 1"
     inkscape:groupmode="layer"
     style="display:none">
    <path
       sodipodi:type="arc"
       style="fill:black;fill-opacity:1;fill-rule:evenodd;stroke:none;stroke-width:1px;stroke-linecap:butt;stroke-linejoin:miter;stroke-opacity:1"
       id="path5587"
       sodipodi:cx="23.641304"
       sodipodi:cy="21.717392"
       sodipodi:rx="13.532609"
       sodipodi:ry="11.673913"
       d="M 37.173913 21.717392 A 13.532609 11.673913 0 1 1  10.108695,21.717392 A 13.532609 11.673913 0 1 1  37.173913 21.717392 z" />
    <path
       d="M 37.173913 21.717392 A 13.532609 11.673913 0 1 1  10.108695,21.717392 A 13.532609 11.673913 0 1 1  37.173913 21.717392 z"
       sodipodi:ry="11.673913"
       sodipodi:rx="13.532609"
       sodipodi:cy="21.717392"
       sodipodi:cx="23.641304"
       id="path6474"
       style="fill:black;fill-opacity:1;fill-rule:evenodd;stroke:none;stroke-width:1px;stroke-linecap:butt;stroke-linejoin:miter;stroke-opacity:1"
       sodipodi:type="arc"
       transform="translate(0,11.6087)" />
    <rect
       style="fill:black;fill-opacity:1;fill-rule:evenodd;stroke:none;stroke-width:1px;stroke-linecap:butt;stroke-linejoin:miter;stroke-opacity:1"
       id="rect6476"
       width="27.173914"
       height="12.043478"
       x="10"
       y="22"
       rx="0"
       ry="0" />
    <path
       sodipodi:type="arc"
       style="fill:white;fill-opacity:1;fill-rule:evenodd;stroke:none;stroke-width:1px;stroke-linecap:butt;stroke-linejoin:miter;stroke-opacity:1"
       id="path7363"
       sodipodi:cx="23.086956"
       sodipodi:cy="22.043478"
       sodipodi:rx="8.73913"
       sodipodi:ry="8.73913"
       d="M 14.347826,22.043478 A 8.73913,8.73913 0 0 1 23.086956,13.304348 L 23.086956,22.043478 z"
       sodipodi:start="3.1415927"
       sodipodi:end="4.712389"
       transform="translate(-1.086956,0)" />
    <path
       sodipodi:end="4.712389"
       sodipodi:start="3.1415927"
       d="M 14.347826,22.043478 A 8.73913,8.73913 0 0 1 23.086956,13.304348 L 23.086956,22.043478 z"
       sodipodi:ry="8.73913"
       sodipodi:rx="8.73913"
       sodipodi:cy="22.043478"
       sodipodi:cx="23.086956"
       id="path8250"
       style="fill:white;fill-opacity:1;fill-rule:evenodd;stroke:none;stroke-width:1px;stroke-linecap:butt;stroke-linejoin:miter;stroke-opacity:1"
       sodipodi:type="arc"
       transform="matrix(-1,0,0,1,48.34783,0)" />
    <path
       style="fill:white;fill-opacity:1;fill-rule:evenodd;stroke:none;stroke-width:1px;stroke-linecap:butt;stroke-linejoin:miter;stroke-opacity:1"
       d="M 13,24 L 34,24 L 34,34 C 34,34 33.863828,41 24,41 C 14.055145,41 13,34 13,34 L 13,24"
       id="path8252"
       sodipodi:nodetypes="ccczcc" />
  </g>
  <g
     inkscape:groupmode="layer"
     id="layer2"
     inkscape:label="new"
     style="display:inline">
    <path
       sodipodi:nodetypes="zcczccz"
       id="path4555"
       d="m 3.6182511,24.06592 c 0,10.476191 9.2791659,10.49237 9.2791659,10.49237 l 22.482238,0 c 0,0 9.223406,0.115063 9.223406,-10.459784 0,-10.477902 -9.223406,-10.524954 -9.223406,-10.524954 l -22.482238,0 c 0,0 -9.2791659,-0.08158 -9.2791659,10.492368 z"
       style="fill:#ffffff;fill-opacity:1;fill-rule:evenodd;stroke:#ffffff;stroke-width:7.0151906;stroke-linecap:butt;stroke-linejoin:miter;stroke-miterlimit:4;stroke-opacity:1;stroke-dasharray:none"
       inkscape:connector-curvature="0" />
    <path
       style="fill:#262729;fill-opacity:1;fill-rule:evenodd;stroke:none"
       d="m 4.0000002,23.999984 c 0,9.984546 9.0562008,9.999967 9.0562008,9.999967 l 21.942021,0 c 0,0 9.001778,0.109663 9.001778,-9.968911 0,-9.986178 -9.001778,-10.031022 -9.001778,-10.031022 l -21.942021,0 c 0,0 -9.0562008,-0.07775 -9.0562008,9.999966 z"
       id="path1875"
       sodipodi:nodetypes="zcczccz"
       inkscape:connector-curvature="0" />
    <g
       id="g3179"
       transform="matrix(0.24,0,0,0.24,-0.17147496,27.84)"
       style="fill:#c0c0c0;fill-opacity:1">
      <path
         inkscape:connector-curvature="0"
         id="path4483"
         d="m 54.881146,-41.000001 0,50.0000001 16.666666,0 0,-50.0000001 -16.666666,0 z"
         style="fill:#c0c0c0;fill-opacity:1;fill-rule:evenodd;stroke:none" />
      <path
         inkscape:connector-curvature="0"
         id="path4485"
         d="m 38.214479,-24.333335 0,16.6666679 50,0 0,-16.6666679 -50,0 z"
         style="fill:#c0c0c0;fill-opacity:1;fill-rule:evenodd;stroke:none" />
    </g>
    <path
       sodipodi:type="arc"
       style="fill:#e04613;fill-opacity:1;stroke:none"
       id="path3953"
       sodipodi:cx="29.770493"
       sodipodi:cy="18.426229"
       sodipodi:rx="1.7704918"
       sodipodi:ry="1.7704918"
       d="m 31.540984,18.426229 a 1.7704918,1.7704918 0 1 1 -3.540983,0 1.7704918,1.7704918 0 1 1 3.540983,0 z"
       transform="matrix(-1.1296296,0,0,-1.1296296,71.629629,44.814814)" />
    <path
       sodipodi:type="arc"
       style="fill:#6c9eab;fill-opacity:1;stroke:none;display:inline"
       id="path3953-0"
       sodipodi:cx="29.770493"
       sodipodi:cy="18.426229"
       sodipodi:rx="1.7704918"
       sodipodi:ry="1.7704918"
       d="m 31.540984,18.426229 a 1.7704918,1.7704918 0 1 1 -3.540983,0 1.7704918,1.7704918 0 1 1 3.540983,0 z"
       transform="matrix(-1.1296296,0,0,-1.1296296,63.62963,44.814814)" />
    <path
       sodipodi:type="arc"
       style="fill:#e04613;fill-opacity:1;stroke:none;display:inline"
       id="path3953-9"
       sodipodi:cx="29.770493"
       sodipodi:cy="18.426229"
       sodipodi:rx="1.7704918"
       sodipodi:ry="1.7704918"
       d="m 31.540984,18.426229 a 1.7704918,1.7704918 0 1 1 -3.540983,0 1.7704918,1.7704918 0 1 1 3.540983,0 z"
       transform="matrix(0,-1.1296296,1.1296296,0,13.185185,61.62963)" />
    <path
       sodipodi:type="arc"
       style="fill:#6c9eab;fill-opacity:1;stroke:none;display:inline"
       id="path3953-0-2"
       sodipodi:cx="29.770493"
       sodipodi:cy="18.426229"
       sodipodi:rx="1.7704918"
       sodipodi:ry="1.7704918"
       d="m 31.540984,18.426229 a 1.7704918,1.7704918 0 1 1 -3.540983,0 1.7704918,1.7704918 0 1 1 3.540983,0 z"
       transform="matrix(0,-1.1296296,1.1296296,0,13.185185,53.629629)" />
  </g>
</svg>
