<?xml version="1.0" encoding="UTF-8" standalone="no"?>
<!-- Created with Inkscape (http://www.inkscape.org/) -->

<svg
   xmlns:dc="http://purl.org/dc/elements/1.1/"
   xmlns:cc="http://creativecommons.org/ns#"
   xmlns:rdf="http://www.w3.org/1999/02/22-rdf-syntax-ns#"
   xmlns:svg="http://www.w3.org/2000/svg"
   xmlns="http://www.w3.org/2000/svg"
   xmlns:sodipodi="http://sodipodi.sourceforge.net/DTD/sodipodi-0.dtd"
   xmlns:inkscape="http://www.inkscape.org/namespaces/inkscape"
   width="128"
   height="128"
   id="svg2"
   sodipodi:version="0.32"
   inkscape:version="0.48.3.1 r9886"
   version="1.0"
   sodipodi:docname="media-optical.svg"
   inkscape:output_extension="org.inkscape.output.svg.inkscape">
  <defs
     id="defs4" />
  <sodipodi:namedview
     id="base"
     pagecolor="#c8c8c8"
     bordercolor="#000000"
     borderopacity="1"
     inkscape:pageopacity="1"
     inkscape:pageshadow="2"
     inkscape:zoom="2.8284271"
     inkscape:cx="70.780326"
     inkscape:cy="70.362476"
     inkscape:document-units="px"
     inkscape:current-layer="layer1"
     width="128px"
     height="128px"
     showgrid="true"
     inkscape:window-width="1598"
     inkscape:window-height="879"
     inkscape:window-x="0"
     inkscape:window-y="0"
     inkscape:snap-center="true"
     inkscape:snap-object-midpoints="true"
     inkscape:object-nodes="false"
     inkscape:snap-smooth-nodes="true"
     inkscape:window-maximized="1" />
  <metadata
     id="metadata7">
    <rdf:RDF>
      <cc:Work
         rdf:about="">
        <dc:format>image/svg+xml</dc:format>
        <dc:type
           rdf:resource="http://purl.org/dc/dcmitype/StillImage" />
        <dc:title></dc:title>
      </cc:Work>
    </rdf:RDF>
  </metadata>
  <g
     inkscape:label="Ebene 1"
     inkscape:groupmode="layer"
     id="layer1">
    <path
       sodipodi:type="arc"
       style="opacity:1;fill:#ffffff;fill-opacity:1;fill-rule:nonzero;stroke:none;stroke-width:5.99999905;stroke-linejoin:miter;stroke-miterlimit:4;stroke-dasharray:none;stroke-opacity:1"
       id="path2161"
       sodipodi:cx="59.017857"
       sodipodi:cy="66.125"
       sodipodi:rx="44.375"
       sodipodi:ry="44.375"
       d="M 103.39286 66.125 A 44.375 44.375 0 1 1  14.642857,66.125 A 44.375 44.375 0 1 1  103.39286 66.125 z"
       transform="matrix(1.4422535,0,0,1.4422535,-21.11871,-31.369013)" />
    <path
       sodipodi:type="arc"
       style="fill:#262729;fill-opacity:1;fill-rule:nonzero;stroke:none"
       id="path5993"
       sodipodi:cx="106.69736"
       sodipodi:cy="106.15545"
       sodipodi:rx="46.593285"
       sodipodi:ry="46.593285"
       d="m 153.29064,106.15545 a 46.593285,46.593285 0 1 1 -93.186567,0 46.593285,46.593285 0 1 1 93.186567,0 z"
       transform="matrix(1.100271,0,0,1.100271,-53.396008,-52.799762)" />
    <path
       inkscape:transform-center-x="30.999998"
       inkscape:transform-center-y="-0.020639338"
       sodipodi:type="arc"
       style="fill:#808080;fill-opacity:1;fill-rule:nonzero;stroke:none"
       id="path3021"
       sodipodi:cx="178.4182"
       sodipodi:cy="122.31789"
       sodipodi:rx="24.36993"
       sodipodi:ry="24.36993"
       d="m 202.78813,122.31789 a 24.36993,24.36993 0 1 1 -48.73986,0 24.36993,24.36993 0 1 1 48.73986,0 z"
       transform="matrix(-0.00239215,0.61550799,0.61550799,0.00239215,-41.860829,-46.131067)" />
    <path
       inkscape:transform-center-y="29.468416"
       sodipodi:type="arc"
       style="fill:#808080;fill-opacity:1;fill-rule:nonzero;stroke:none"
       id="path2999"
       sodipodi:cx="178.4182"
       sodipodi:cy="122.31789"
       sodipodi:rx="24.36993"
       sodipodi:ry="24.36993"
       d="m 202.78813,122.31789 a 24.36993,24.36993 0 1 1 -48.73986,0 24.36993,24.36993 0 1 1 48.73986,0 z"
       transform="matrix(0.58510248,0.19054209,0.19054209,-0.58510248,-73.298792,131.0487)"
       inkscape:transform-center-x="9.5965638" />
    <path
       transform="matrix(0.36191857,-0.49781242,-0.49781242,-0.36191857,85.385893,215.32594)"
       d="m 202.78813,122.31789 a 24.36993,24.36993 0 1 1 -48.73986,0 24.36993,24.36993 0 1 1 48.73986,0 z"
       sodipodi:ry="24.36993"
       sodipodi:rx="24.36993"
       sodipodi:cy="122.31789"
       sodipodi:cx="178.4182"
       id="path3015"
       style="fill:#808080;fill-opacity:1;fill-rule:nonzero;stroke:none"
       sodipodi:type="arc"
       inkscape:transform-center-y="18.23674"
       inkscape:transform-center-x="-25.065616" />
    <path
       inkscape:transform-center-x="-25.089889"
       inkscape:transform-center-y="-18.203359"
       sodipodi:type="arc"
       style="fill:#808080;fill-opacity:1;fill-rule:nonzero;stroke:none"
       id="path3017"
       sodipodi:cx="178.4182"
       sodipodi:cy="122.31789"
       sodipodi:rx="24.36993"
       sodipodi:ry="24.36993"
       d="m 202.78813,122.31789 a 24.36993,24.36993 0 1 1 -48.73986,0 24.36993,24.36993 0 1 1 48.73986,0 z"
       transform="matrix(-0.36204957,-0.49771731,-0.49771731,0.36204957,214.56762,90.312047)" />
    <path
       transform="matrix(-0.58574301,0.18910561,0.18910561,0.58574301,135.81631,-70.87585)"
       d="m 202.78813,122.31789 a 24.36993,24.36993 0 1 1 -48.73986,0 24.36993,24.36993 0 1 1 48.73986,0 z"
       sodipodi:ry="24.36993"
       sodipodi:rx="24.36993"
       sodipodi:cy="122.31789"
       sodipodi:cx="178.4182"
       id="path3019"
       style="fill:#808080;fill-opacity:1;fill-rule:nonzero;stroke:none"
       sodipodi:type="arc"
       inkscape:transform-center-y="-29.489122"
       inkscape:transform-center-x="9.5599057" />
    <path
       sodipodi:type="arc"
       style="opacity:1;fill:#e04613;fill-opacity:1;fill-rule:nonzero;stroke:#ffffff;stroke-width:1.22929931000000003;stroke-linejoin:miter;stroke-miterlimit:4;stroke-dasharray:none;stroke-opacity:1"
       id="path5997"
       sodipodi:cx="178.4182"
       sodipodi:cy="122.31789"
       sodipodi:rx="24.36993"
       sodipodi:ry="24.36993"
       d="M 202.78813 122.31789 A 24.36993 24.36993 0 1 1  154.04827,122.31789 A 24.36993 24.36993 0 1 1  202.78813 122.31789 z"
       transform="matrix(0.8134715,0,0,0.8134715,-81.138122,-35.502114)" />
    <path
       sodipodi:type="arc"
       style="opacity:1;fill:#ffffff;fill-opacity:1;fill-rule:nonzero;stroke:none;stroke-width:2;stroke-linejoin:miter;stroke-miterlimit:4;stroke-dasharray:none;stroke-opacity:1"
       id="path5999"
       sodipodi:cx="72.73098"
       sodipodi:cy="73.199226"
       sodipodi:rx="14.647212"
       sodipodi:ry="14.647212"
       d="M 87.378192 73.199226 A 14.647212 14.647212 0 1 1  58.083768,73.199226 A 14.647212 14.647212 0 1 1  87.378192 73.199226 z"
       transform="matrix(0.9827586,0,0,0.9827586,-7.4769938,-7.937167)" />
    <path
       style="fill:#ffffff"
       id="path585"
       d="m 47.445816,90.998313 c 3.091978,0 6.183957,0 9.275936,0 1.539553,0 3.077819,0 4.617372,0 0.08496,0 0.171204,-0.0115 0.257451,-0.003 0.10298,0.0102 0.133873,0.13837 0.169917,0.22292 0.11714,0.26649 0.187938,0.55218 0.272897,0.8302 0.208535,0.68413 0.474996,1.35418 0.714425,2.02935 0.244578,0.69183 0.4544,1.39006 0.662934,2.09085 0.09526,0.32029 0.17378,0.63418 0.198237,0.96472 0.0039,0.0423 0.03991,0.0871 0.0708,0.0871 0.0206,-0.0602 0.04634,-0.11787 0.07466,-0.17424 0.06951,-0.1358 0.15447,-0.2652 0.242003,-0.38947 0.17764,-0.24855 0.375878,-0.48044 0.563816,-0.72386 0.21111,-0.27289 0.411921,-0.55474 0.626892,-0.82506 0.464698,-0.58037 0.953853,-1.13896 1.432711,-1.70779 0.49173,-0.58165 0.98346,-1.16329 1.475191,-1.74494 0.105555,-0.12555 0.216258,-0.24726 0.315376,-0.37794 0.07852,-0.10121 0.157046,-0.22164 0.28577,-0.26264 0.23428,-0.073 0.508465,-0.0371 0.747894,-0.0269 0.71185,0.0307 1.428849,0.006 2.141987,0.006 0.762053,0 1.522819,0 2.284872,0 0.762053,0 1.524106,0.001 2.284871,0.004 0.374591,0.001 0.750468,-0.0102 1.125058,0.0192 0.344984,0.0282 0.686106,0.0692 1.027227,0.1294 1.256359,0.21651 2.541036,0.67517 3.470432,1.57326 0.436378,0.42407 0.795521,0.94422 0.956427,1.53483 0.151896,0.55218 0.122289,1.13511 -0.03862,1.6796 -0.324388,1.10052 -1.121197,2.05242 -2.066039,2.68659 -0.588274,0.39332 -1.179123,0.75589 -1.830472,1.03646 -0.642339,0.27417 -1.310423,0.485557 -1.992666,0.631607 -1.440435,0.31004 -2.915625,0.25367 -4.379231,0.25367 -1.141792,0 -2.283584,0 -3.427951,0 0.03089,-0.34463 0.148034,-0.681577 0.229131,-1.017237 0.08625,-0.36769 0.175066,-0.73667 0.262599,-1.10436 0.177641,-0.74563 0.355281,-1.49127 0.534209,-2.2369 0.100406,-0.42407 0.195663,-0.84941 0.292206,-1.27604 0.04505,-0.2037 0.09397,-0.40356 0.148034,-0.60599 0.02961,-0.10633 0.05407,-0.26263 0.128725,-0.34975 0.03604,-0.0448 0.123577,-0.05 0.176354,-0.0551 0.115853,-0.0128 0.23428,-0.0128 0.350133,-0.0102 0.274185,0.006 0.547082,0.0128 0.821266,0.0128 0.781362,0 1.567873,0 2.351809,0 -0.04763,0.36513 -0.154469,0.71745 -0.242003,1.07361 -0.09397,0.37922 -0.181502,0.76357 -0.27161,1.14664 -0.185364,0.77382 -0.377165,1.54764 -0.539358,2.32786 0.702839,0 1.404391,0.0256 2.099508,-0.0717 0.353994,-0.05 0.724722,-0.14989 1.063269,-0.26263 0.312803,-0.10122 0.616594,-0.22933 0.901077,-0.38948 0.867607,-0.4894 1.56401,-1.34009 1.605202,-2.3663 0.01674,-0.43431 -0.101693,-0.87119 -0.375877,-1.21454 -0.335973,-0.42534 -0.856023,-0.65595 -1.368349,-0.79944 -1.278241,-0.36129 -2.656888,-0.22933 -3.971172,-0.22292 -0.381026,0.001 -0.760765,0.003 -1.143079,0.005 -0.18279,0 -0.36558,0.001 -0.549657,0.001 -0.186651,0.001 -0.396473,-0.0243 -0.58055,0.006 -0.157045,0.0256 -0.265174,0.21267 -0.363005,0.32157 -0.133874,0.1499 -0.266461,0.29723 -0.400336,0.44712 -0.25745,0.28698 -0.513613,0.57268 -0.77235,0.85838 -1.027227,1.1428 -2.044157,2.29456 -3.066234,3.44248 -0.80582,0.90578 -1.603917,1.817957 -2.417459,2.717327 -0.491731,0.54322 -1.00277,1.0749 -1.470042,1.63989 -0.04505,0.0551 -0.111991,0.11787 -0.137736,0.18705 -0.0013,0.004 -0.0013,0.005 -0.0013,0.009 -0.05149,0 -0.05664,0.0154 -0.06822,-0.041 -0.01802,-0.0807 -0.03862,-0.16015 -0.06436,-0.23958 -0.05149,-0.17039 -0.11714,-0.33695 -0.18279,-0.5035 -0.272897,-0.69567 -0.507177,-1.40927 -0.758191,-2.111347 -0.514901,-1.45027 -1.031089,-2.90182 -1.54599,-4.35209 -0.159619,-0.44713 -0.3231,-0.89425 -0.481432,-1.3401 -0.07981,-0.21651 -0.157044,-0.43175 -0.235567,-0.64826 -0.04119,-0.11531 -0.100405,-0.45994 -0.272897,-0.45994 0,0.20371 0.05664,0.38691 0.119715,0.58165 0.0811,0.26135 0.12615,0.52271 0.150607,0.7956 0.06308,0.67261 -0.0051,1.36187 -0.270322,1.98964 -0.494305,1.16585 -1.578171,2.0601 -2.64659,2.69299 -1.126345,0.66621 -2.391714,1.077457 -3.680253,1.282437 -0.69769,0.11146 -1.394093,0.14862 -2.09822,0.14478 -0.753042,-0.001 -1.504797,-0.005 -2.25784,-0.005 -0.767202,0 -1.530542,0 -2.296457,0 -0.184077,0 -0.366866,0 -0.550943,0 0,-0.17168 0.07852,-0.35745 0.122289,-0.524 0.09526,-0.357437 0.175066,-0.720007 0.260024,-1.080017 0.357856,-1.48742 0.71185,-2.97613 1.072281,-4.46227 0.03862,-0.16399 0.07852,-0.3267 0.118427,-0.48941 0.01416,-0.0602 -0.0013,-0.0884 0.06694,-0.0884 0.04763,0 0.09139,0 0.137736,0 0.09268,0 0.184077,0 0.275472,0 0.369441,0 0.737595,0 1.105749,0 0.720861,0 1.441722,0 2.162583,0 -0.361717,1.51433 -0.722148,3.03251 -1.082578,4.54684 0.727297,0 1.462317,0.0371 2.179317,-0.082 0.36043,-0.0576 0.713137,-0.16015 1.056834,-0.27673 0.280621,-0.0948 0.554805,-0.19474 0.812255,-0.33823 0.96029,-0.53424 1.744226,-1.5707 1.621938,-2.71093 -0.135162,-1.26835 -1.482914,-1.74622 -2.584802,-1.86409 -0.666796,-0.073 -1.340029,-0.0551 -2.0094,-0.0538 -0.765915,0.003 -1.530542,0 -2.296457,0 -0.292206,0 -0.584413,0 -0.876619,0 -0.06179,0 -0.123576,0 -0.184077,0 -0.05149,0 -0.185364,0.0269 -0.185364,-0.0282 0,-0.13708 0.06436,-0.29338 0.09783,-0.42534 0.137745,-0.55726 0.275481,-1.11329 0.413217,-1.67059"
       inkscape:connector-curvature="0" />
  </g>
</svg>
