<?xml version="1.0" encoding="UTF-8" standalone="no"?>
<!-- Created with Inkscape (http://www.inkscape.org/) -->

<svg
   xmlns:dc="http://purl.org/dc/elements/1.1/"
   xmlns:cc="http://creativecommons.org/ns#"
   xmlns:rdf="http://www.w3.org/1999/02/22-rdf-syntax-ns#"
   xmlns:svg="http://www.w3.org/2000/svg"
   xmlns="http://www.w3.org/2000/svg"
   version="1.0"
   width="128"
   height="128"
   id="svg2">
  <defs
     id="defs4" />
  <metadata
     id="metadata7">
    <rdf:RDF>
      <cc:Work
         rdf:about="">
        <dc:format>image/svg+xml</dc:format>
        <dc:type
           rdf:resource="http://purl.org/dc/dcmitype/StillImage" />
        <dc:title></dc:title>
      </cc:Work>
    </rdf:RDF>
  </metadata>
  <g
     id="layer1">
    <path
       d="m 103.39286,66.125 a 44.375,44.375 0 1 1 -88.750003,0 44.375,44.375 0 1 1 88.750003,0 z"
       transform="matrix(1.4422535,0,0,1.4422535,-20.957997,-31.529727)"
       id="path2161"
       style="fill:#ffffff;fill-opacity:1;fill-rule:nonzero;stroke:none" />
    <path
       d="m 153.29064,106.15545 a 46.593285,46.593285 0 1 1 -93.186567,0 46.593285,46.593285 0 1 1 93.186567,0 z"
       transform="matrix(1.100271,0,0,1.100271,-53.396008,-52.799762)"
       id="path5993"
       style="fill:#262729;fill-opacity:1;fill-rule:nonzero;stroke:none" />
    <path
       d="m 202.78813,122.31789 a 24.36993,24.36993 0 1 1 -48.73986,0 24.36993,24.36993 0 1 1 48.73986,0 z"
       transform="matrix(0.8134715,0,0,0.8134715,-81.138122,-35.502114)"
       id="path5997"
       style="fill:#6c9eab;fill-opacity:1;fill-rule:nonzero;stroke:#ffffff;stroke-width:1.22929931;stroke-linejoin:miter;stroke-miterlimit:4;stroke-opacity:1;stroke-dasharray:none" />
    <path
       d="m 87.378192,73.199226 a 14.647212,14.647212 0 1 1 -29.294424,0 14.647212,14.647212 0 1 1 29.294424,0 z"
       transform="matrix(0.9827586,0,0,0.9827586,-7.4769938,-7.937167)"
       id="path5999"
       style="fill:#ffffff;fill-opacity:1;fill-rule:nonzero;stroke:none" />
    <path
       d="m 39.579102,86.815816 0,1.456055 c -0.464853,-0.432934 -0.961597,-0.756502 -1.490235,-0.970703 -0.524095,-0.214184 -1.082363,-0.32128 -1.674805,-0.321289 -1.166671,9e-6 -2.059899,0.357756 -2.679687,1.073242 -0.619794,0.710945 -0.92969,1.740892 -0.929687,3.089844 -3e-6,1.344405 0.309893,2.374351 0.929687,3.089844 0.619788,0.710938 1.513016,1.066407 2.679687,1.066406 0.592442,10e-7 1.15071,-0.107095 1.674805,-0.321289 0.528638,-0.214191 1.025382,-0.537759 1.490235,-0.970703 l 0,1.442382 c -0.483082,0.328126 -0.995777,0.574219 -1.538086,0.738282 -0.537768,0.164062 -1.107429,0.246093 -1.708985,0.246093 -1.544926,0 -2.761722,-0.471679 -3.65039,-1.415039 -0.888673,-0.947914 -1.333009,-2.239905 -1.333008,-3.875976 -1e-6,-1.640618 0.444335,-2.932609 1.333008,-3.875977 0.888668,-0.947906 2.105464,-1.421864 3.65039,-1.421875 0.610671,1.1e-5 1.184889,0.08204 1.722657,0.246094 0.542309,0.159515 1.050447,0.401051 1.524414,0.724609 m 3.527343,0.348633 0,7.936524 1.667969,0 c 1.408197,10e-7 2.438144,-0.319009 3.089844,-0.957032 0.656242,-0.638018 0.984366,-1.645178 0.984375,-3.021484 -9e-6,-1.367181 -0.328133,-2.367506 -0.984375,-3.000977 -0.6517,-0.638012 -1.681647,-0.957022 -3.089844,-0.957031 l -1.667969,0 m -1.380859,-1.134765 2.836914,0 c 1.977858,1e-5 3.429354,0.412444 4.354492,1.237304 0.925121,0.820321 1.387686,2.105476 1.387696,3.855469 -10e-6,1.759118 -0.464854,3.051109 -1.394532,3.875977 -0.929695,0.82487 -2.378912,1.237304 -4.347656,1.237304 l -2.836914,0 0,-10.206054 m 10.083008,5.810546 3.68457,0 0,1.121094 -3.68457,0 0,-1.121094 m 10.588867,-0.389648 c 0.296217,0.100265 0.583326,0.314458 0.861328,0.642578 0.282545,0.328129 0.565097,0.7793 0.847656,1.353516 l 1.401367,2.789062 -1.483398,0 -1.305664,-2.618164 c -0.337246,-0.68359 -0.66537,-1.13704 -0.984375,-1.360351 -0.314458,-0.223303 -0.745122,-0.334957 -1.291992,-0.334961 l -1.503906,0 0,4.313476 -1.38086,0 0,-10.206054 3.117188,0 c 1.166661,1e-5 2.037103,0.243825 2.611328,0.731445 0.574211,0.487639 0.86132,1.223641 0.861328,2.208008 -8e-6,0.642584 -0.150399,1.175787 -0.451172,1.599609 -0.296231,0.423833 -0.729173,0.717778 -1.298828,0.881836 m -3.458984,-4.286133 0,3.623047 1.736328,0 c 0.665359,6e-6 1.166661,-0.152664 1.503906,-0.458008 0.34179,-0.309889 0.512689,-0.763339 0.512695,-1.360351 -6e-6,-0.596998 -0.170905,-1.04589 -0.512695,-1.34668 -0.337245,-0.30533 -0.838547,-0.457999 -1.503906,-0.458008 l -1.736328,0"
       transform="translate(15.571777,5.0507627)"
       id="flowRoot6001"
       style="fill:#ffffff;fill-opacity:1" />
  </g>
</svg>
