<?xml version="1.0" encoding="UTF-8" standalone="no"?>
<!-- Created with Inkscape (http://www.inkscape.org/) -->

<svg
   xmlns:dc="http://purl.org/dc/elements/1.1/"
   xmlns:cc="http://creativecommons.org/ns#"
   xmlns:rdf="http://www.w3.org/1999/02/22-rdf-syntax-ns#"
   xmlns:svg="http://www.w3.org/2000/svg"
   xmlns="http://www.w3.org/2000/svg"
   xmlns:sodipodi="http://sodipodi.sourceforge.net/DTD/sodipodi-0.dtd"
   xmlns:inkscape="http://www.inkscape.org/namespaces/inkscape"
   width="128"
   height="128"
   id="svg2"
   sodipodi:version="0.32"
   inkscape:version="0.48.3.1 r9886"
   version="1.0"
   sodipodi:docname="media-optical.svg"
   inkscape:output_extension="org.inkscape.output.svg.inkscape">
  <defs
     id="defs4" />
  <sodipodi:namedview
     id="base"
     pagecolor="#ffffff"
     bordercolor="#000000"
     borderopacity="1"
     inkscape:pageopacity="0.0"
     inkscape:pageshadow="2"
     inkscape:zoom="3.959798"
     inkscape:cx="58.025809"
     inkscape:cy="66.230854"
     inkscape:document-units="px"
     inkscape:current-layer="layer1"
     width="128px"
     height="128px"
     showgrid="true"
     inkscape:window-width="1598"
     inkscape:window-height="879"
     inkscape:window-x="0"
     inkscape:window-y="0"
     inkscape:snap-center="false"
     inkscape:snap-nodes="true"
     inkscape:snap-object-midpoints="true"
     inkscape:window-maximized="1" />
  <metadata
     id="metadata7">
    <rdf:RDF>
      <cc:Work
         rdf:about="">
        <dc:format>image/svg+xml</dc:format>
        <dc:type
           rdf:resource="http://purl.org/dc/dcmitype/StillImage" />
        <dc:title></dc:title>
      </cc:Work>
    </rdf:RDF>
  </metadata>
  <g
     inkscape:label="Ebene 1"
     inkscape:groupmode="layer"
     id="layer1">
    <path
       sodipodi:type="arc"
       style="opacity:1;fill:#ffffff;fill-opacity:1;fill-rule:nonzero;stroke:none;stroke-width:5.99999905;stroke-linejoin:miter;stroke-miterlimit:4;stroke-dasharray:none;stroke-opacity:1"
       id="path2161"
       sodipodi:cx="59.017857"
       sodipodi:cy="66.125"
       sodipodi:rx="44.375"
       sodipodi:ry="44.375"
       d="M 103.39286 66.125 A 44.375 44.375 0 1 1  14.642857,66.125 A 44.375 44.375 0 1 1  103.39286 66.125 z"
       transform="matrix(1.4422535,0,0,1.4422535,-21.11871,-31.369013)" />
    <path
       sodipodi:type="arc"
       style="opacity:1;fill:#262729;fill-opacity:1;fill-rule:nonzero;stroke:none;stroke-width:2.49999928;stroke-linejoin:miter;stroke-miterlimit:4;stroke-dasharray:none;stroke-opacity:1"
       id="path5993"
       sodipodi:cx="106.69736"
       sodipodi:cy="106.15545"
       sodipodi:rx="46.593285"
       sodipodi:ry="46.593285"
       d="M 153.29064 106.15545 A 46.593285 46.593285 0 1 1  60.104073,106.15545 A 46.593285 46.593285 0 1 1  153.29064 106.15545 z"
       transform="matrix(1.100271,0,0,1.100271,-53.396008,-52.799762)" />
    <path
       sodipodi:type="arc"
       style="fill:#262729;fill-opacity:1;fill-rule:nonzero;stroke:#ffffff;stroke-width:1.56153619;stroke-linejoin:miter;stroke-miterlimit:4;stroke-opacity:1;stroke-dasharray:none"
       id="path5997"
       sodipodi:cx="178.4182"
       sodipodi:cy="122.31789"
       sodipodi:rx="24.36993"
       sodipodi:ry="24.36993"
       d="m 202.78813,122.31789 a 24.36993,24.36993 0 1 1 -48.73986,0 24.36993,24.36993 0 1 1 48.73986,0 z"
       transform="matrix(0.640395,0,0,0.640395,-50.258124,-14.331762)" />
    <path
       sodipodi:type="arc"
       style="fill:#ffffff;fill-opacity:1;fill-rule:nonzero;stroke:none"
       id="path5999"
       sodipodi:cx="72.73098"
       sodipodi:cy="73.199226"
       sodipodi:rx="14.647212"
       sodipodi:ry="14.647212"
       d="m 87.378192,73.199226 a 14.647212,14.647212 0 1 1 -29.294424,0 14.647212,14.647212 0 1 1 29.294424,0 z"
       transform="matrix(0.40963427,0,0,0.40963427,34.2069,34.015091)" />
    <path
       style="fill:#ffffff;fill-opacity:1;fill-rule:evenodd;stroke:none"
       d="m 64,20 c -2.506187,0 -4.952003,0.222499 -7.029376,0.590327 C 54.89325,20.958155 50.674149,43.003581 51.25,45.09375 c 0.06035,0.219066 0.119842,0.600524 0.53125,0.59375 C 55.274136,43.353481 59.483739,42 64,42 c 4.516261,0 8.725864,1.353481 12.21875,3.6875 0.444891,-0.0044 0.470896,-0.374684 0.53125,-0.59375 C 77.325851,43.003581 72.665137,20.889275 70.80857,20.555887 68.952003,20.222499 66.506187,20 64,20 z"
       id="path2986"
       inkscape:connector-curvature="0"
       inkscape:transform-center-y="-31.156252"
       sodipodi:nodetypes="scccscscs" />
    <path
       style="fill:#ffffff;fill-opacity:1;fill-rule:evenodd;stroke:none"
       d="m 102.10174,86.002042 c 1.2531,-2.170422 2.28331,-4.39981 3.00345,-6.382782 0.72014,-1.982973 -16.262208,-16.659534 -18.360273,-17.205917 -0.219891,-0.05727 -0.57999,-0.196476 -0.779827,0.163201 0.274877,4.191937 -0.657776,8.514301 -2.915906,12.425498 -2.258131,3.911197 -5.535081,6.880079 -9.302844,8.737998 -0.218635,0.387487 0.08904,0.59515 0.248577,0.756951 1.522214,1.543786 23.004122,8.564642 24.221128,7.123502 1.217006,-1.44114 2.632605,-3.44803 3.885695,-5.618451 z"
       id="path2986-4"
       inkscape:connector-curvature="0"
       inkscape:transform-center-y="13.0763"
       sodipodi:nodetypes="scccscscs"
       inkscape:transform-center-x="-25.401247" />
    <path
       style="fill:#ffffff;fill-opacity:1;fill-rule:evenodd;stroke:none"
       d="m 25.891426,85.998098 c 1.253094,2.170421 2.668692,4.177311 4.025926,5.792454 1.357236,1.615145 22.558685,-5.753719 24.080899,-7.297505 0.159542,-0.161798 0.460148,-0.404049 0.248578,-0.756951 -3.767763,-1.857919 -7.044713,-4.826802 -9.302844,-8.737998 -2.25813,-3.911197 -3.190783,-8.233561 -2.915906,-12.425498 -0.226256,-0.383087 -0.559934,-0.220466 -0.779828,-0.163201 -2.098065,0.546383 -18.919258,15.639832 -18.279697,17.414361 0.639561,1.774528 1.669779,4.003916 2.922872,6.174338 z"
       id="path2986-8"
       inkscape:connector-curvature="0"
       inkscape:transform-center-y="13.173136"
       sodipodi:nodetypes="scccscscs"
       inkscape:transform-center-x="25.362477" />
    <rect
       style="fill:#ffffff;fill-opacity:1;stroke:none"
       id="rect3812"
       width="2"
       height="5"
       x="-65"
       y="-73"
       inkscape:transform-center-y="6.4999992"
       transform="scale(-1,-1)" />
    <rect
       style="fill:#ffffff;fill-opacity:1;stroke:none"
       id="rect3812-1"
       width="2"
       height="5"
       x="86.425621"
       y="-32.425625"
       inkscape:transform-center-y="-3.2500048"
       transform="matrix(0.5,0.8660254,-0.8660254,0.5,0,0)"
       inkscape:transform-center-x="-5.6291617" />
    <rect
       style="fill:#ffffff;fill-opacity:1;stroke:none"
       id="rect3812-5"
       width="2"
       height="5"
       x="-24.425627"
       y="78.425621"
       inkscape:transform-center-y="-3.2500026"
       transform="matrix(0.5,-0.8660254,0.8660254,0.5,0,0)"
       inkscape:transform-center-x="5.6291701" />
  </g>
</svg>
