<?xml version="1.0" encoding="UTF-8" standalone="no"?>
<!-- Created with Inkscape (http://www.inkscape.org/) -->

<svg
   xmlns:dc="http://purl.org/dc/elements/1.1/"
   xmlns:cc="http://creativecommons.org/ns#"
   xmlns:rdf="http://www.w3.org/1999/02/22-rdf-syntax-ns#"
   xmlns:svg="http://www.w3.org/2000/svg"
   xmlns="http://www.w3.org/2000/svg"
   version="1.0"
   width="48"
   height="48"
   id="svg2">
  <defs
     id="defs4" />
  <metadata
     id="metadata7">
    <rdf:RDF>
      <cc:Work
         rdf:about="">
        <dc:format>image/svg+xml</dc:format>
        <dc:type
           rdf:resource="http://purl.org/dc/dcmitype/StillImage" />
        <dc:title></dc:title>
        <dc:date>December 2008</dc:date>
        <dc:creator>
          <cc:Agent>
            <dc:title>Luca Ferretti &lt;elle.uca@libero.it&gt;</dc:title>
          </cc:Agent>
        </dc:creator>
        <dc:subject>
          <rdf:Bag>
            <rdf:li>network</rdf:li>
            <rdf:li>wireless</rdf:li>
            <rdf:li>antenna</rdf:li>
          </rdf:Bag>
        </dc:subject>
        <dc:description>An antenna with EM waves</dc:description>
      </cc:Work>
    </rdf:RDF>
  </metadata>
  <g
     id="layer1">
    <rect
       width="48"
       height="48"
       x="0"
       y="0"
       id="rect3169"
       style="fill:none;stroke:none" />
    <path
       d="M 20,34 32,41 24,23 16,41"
       id="path3201"
       style="fill:none;stroke:#ffffff;stroke-width:12;stroke-linecap:round;stroke-linejoin:round;stroke-miterlimit:4;stroke-opacity:1;stroke-dasharray:none" />
    <path
       d="m 36.349644,11.405586 a 14,14 0 0 1 0.143788,12.912179"
       transform="matrix(-1,0,0,1,51.849644,0.1394818)"
       id="path3199"
       style="fill:none;stroke:#ffffff;stroke-width:11;stroke-linecap:round;stroke-linejoin:round;stroke-miterlimit:4;stroke-opacity:1;stroke-dasharray:none" />
    <path
       d="M 39.064398,6.4214032 A 19,19 0 0 1 39.24004,29.346418"
       transform="matrix(-1,0,0,1,49.122899,-0.4214032)"
       id="path3177"
       style="fill:none;stroke:#ffffff;stroke-width:12;stroke-linecap:round;stroke-linejoin:round;stroke-miterlimit:4;stroke-opacity:1;stroke-dasharray:none" />
    <path
       d="M 39.064398,6.4214032 A 19,19 0 0 1 39.24004,29.346418"
       transform="translate(-1.0658982,-0.4214032)"
       id="path3175"
       style="fill:none;stroke:#ffffff;stroke-width:12;stroke-linecap:round;stroke-linejoin:round;stroke-miterlimit:4;stroke-opacity:1;stroke-dasharray:none" />
    <path
       d="m 36.349644,11.405586 a 14,14 0 0 1 0.143788,12.912179"
       transform="translate(-3.600083,0.1394818)"
       id="path3173"
       style="fill:none;stroke:#ffffff;stroke-width:11;stroke-linecap:round;stroke-linejoin:round;stroke-miterlimit:4;stroke-opacity:1;stroke-dasharray:none" />
    <path
       d="m 29,24 a 5,5 0 1 1 -10,0 5,5 0 1 1 10,0 z"
       transform="translate(0,-6)"
       id="path3171"
       style="fill:#ffffff;fill-opacity:1;stroke:#ffffff;stroke-width:8;stroke-linecap:round;stroke-linejoin:round;stroke-miterlimit:4;stroke-opacity:1;stroke-dasharray:none" />
    <path
       d="m 29,24 a 5,5 0 1 1 -10,0 5,5 0 1 1 10,0 z"
       transform="translate(0,-6)"
       id="path2385"
       style="fill:#262729;fill-opacity:1;stroke:none" />
    <path
       d="M 20,34 32,41 24,23 16,41"
       id="path3157"
       style="fill:none;stroke:#262729;stroke-width:4;stroke-linecap:round;stroke-linejoin:round;stroke-miterlimit:4;stroke-opacity:1;stroke-dasharray:none" />
    <path
       d="m 36.349644,11.405586 a 14,14 0 0 1 0.143788,12.912179"
       transform="translate(-3.600083,0.1394818)"
       id="path3159"
       style="fill:none;stroke:#2a6d7d;stroke-width:3;stroke-linecap:round;stroke-linejoin:round;stroke-miterlimit:4;stroke-opacity:1;stroke-dasharray:none" />
    <path
       d="m 36.429757,11.557862 a 14,14 0 0 1 0.09989,12.687778"
       transform="matrix(-1,0,0,1,51.600083,0.1394818)"
       id="path3163"
       style="fill:none;stroke:#2a6d7d;stroke-width:3;stroke-linecap:round;stroke-linejoin:round;stroke-miterlimit:4;stroke-opacity:1;stroke-dasharray:none" />
    <path
       d="M 39.064398,6.4214032 A 19,19 0 0 1 39.24004,29.346418"
       transform="translate(-1.0658982,-0.4214032)"
       id="path3165"
       style="fill:none;stroke:#6c9eab;stroke-width:4;stroke-linecap:round;stroke-linejoin:round;stroke-miterlimit:4;stroke-opacity:1;stroke-dasharray:none" />
    <path
       d="M 39.064398,6.4214032 A 19,19 0 0 1 39.24004,29.346418"
       transform="matrix(-1,0,0,1,49.24004,-0.3464176)"
       id="path3167"
       style="fill:none;stroke:#6c9eab;stroke-width:4;stroke-linecap:round;stroke-linejoin:round;stroke-miterlimit:4;stroke-opacity:1;stroke-dasharray:none" />
  </g>
</svg>
