<?xml version="1.0" encoding="UTF-8" standalone="no"?>
<!-- Created with Inkscape (http://www.inkscape.org/) -->

<svg
   xmlns:dc="http://purl.org/dc/elements/1.1/"
   xmlns:cc="http://creativecommons.org/ns#"
   xmlns:rdf="http://www.w3.org/1999/02/22-rdf-syntax-ns#"
   xmlns:svg="http://www.w3.org/2000/svg"
   xmlns="http://www.w3.org/2000/svg"
   xmlns:sodipodi="http://sodipodi.sourceforge.net/DTD/sodipodi-0.dtd"
   xmlns:inkscape="http://www.inkscape.org/namespaces/inkscape"
   version="1.0"
   width="390"
   height="390"
   id="svg2"
   inkscape:version="0.48.3.1 r9886"
   sodipodi:docname="Inkscape.logo.svg">
  <metadata
     id="metadata15">
    <rdf:RDF>
      <cc:Work
         rdf:about="">
        <dc:format>image/svg+xml</dc:format>
        <dc:type
           rdf:resource="http://purl.org/dc/dcmitype/StillImage" />
      </cc:Work>
    </rdf:RDF>
  </metadata>
  <defs
     id="defs13" />
  <sodipodi:namedview
     pagecolor="#ffffff"
     bordercolor="#666666"
     borderopacity="1"
     objecttolerance="10"
     gridtolerance="10"
     guidetolerance="10"
     inkscape:pageopacity="0"
     inkscape:pageshadow="2"
     inkscape:window-width="973"
     inkscape:window-height="732"
     id="namedview11"
     showgrid="false"
     inkscape:zoom="1.2102564"
     inkscape:cx="177.49255"
     inkscape:cy="195"
     inkscape:window-x="0"
     inkscape:window-y="0"
     inkscape:window-maximized="0"
     inkscape:current-layer="inkscape-logo" />
  <g
     id="inkscape-logo">
    <path
       sodipodi:type="inkscape:offset"
       inkscape:radius="4.3359876"
       inkscape:original="M 193.625 15.5 C 182.3725 15.4775 171.23125 19.57875 163.15625 27.84375 L 28.8125 165.3125 C -16.5775 221.5225 59.70625 214.96625 92.40625 231.15625 C 104.13625 243.14625 47.42625 252 59.15625 264 C 70.88625 275.99 130.09375 287.10375 141.84375 299.09375 C 153.57375 311.08375 117.8325 323.79125 129.5625 335.78125 C 141.2925 347.77125 168.42 336.41375 173.5 364.09375 C 177.12 383.87375 222.39125 372.60625 244.53125 356.40625 C 256.26125 344.40625 222.11375 345.52125 233.84375 333.53125 C 263.01375 303.70125 290.145 322.7025 300.125 292.8125 C 305.055 278.0425 257.1875 270.0525 268.9375 258.0625 C 302.6875 238.3525 419.35 225.50625 364 170.15625 L 224.75 27.84375 C 216.235 19.66875 204.8775 15.5225 193.625 15.5 z M 342.125 276.375 C 331.2 276.75125 320.43875 282.3475 317.46875 292.8125 C 317.46875 299.6325 367.71875 304.0875 367.71875 291.1875 C 364.13875 280.8275 353.05 275.99875 342.125 276.375 z M 109.6875 305.96875 C 94.459832 306.77772 78.1 317.80812 91.09375 329.0625 C 102.99375 339.3525 121.365 326.485 126.875 312.125 C 123.27187 307.3375 116.60917 305.60104 109.6875 305.96875 z M 311.15625 306.8125 C 295.81625 320.5725 312.88 334.54625 328 325.65625 C 331.37 322.23625 327.90625 310.2325 311.15625 306.8125 z "
       style="stroke:#ffffff;stroke-width:13;stroke-linecap:round;stroke-linejoin:round;stroke-miterlimit:4;stroke-opacity:1;stroke-dasharray:none;fill:#262729;fill-opacity:1"
       id="path3948"
       d="m 193.625,11.15625 c -12.31179,-0.02462 -24.59536,4.478118 -33.5625,13.65625 L 25.71875,162.28125 a 4.3364212,4.3364212 0 0 0 -0.28125,0.3125 C 13.742926,177.07606 9.0989268,188.20142 10.71875,197.75 c 1.619823,9.54858 9.574226,15.51334 18.90625,19.46875 18.260295,7.73968 44.653222,10.3407 59.78125,17.375 -0.119359,0.17686 -0.387458,0.71309 -1.5625,1.625 -2.764669,2.14558 -8.25238,4.8001 -13.875,7.40625 -5.62262,2.60615 -11.359474,5.17415 -15.5625,8.4375 -2.101513,1.63167 -4.046957,3.48522 -4.875,6.375 -0.828043,2.88978 0.361449,6.374 2.53125,8.59375 3.973465,4.06154 10.141718,6.85212 17.71875,9.84375 7.577032,2.99163 16.506505,5.89326 25.375,8.78125 8.86849,2.88799 17.68162,5.7858 24.875,8.625 7.19338,2.8392 12.82099,5.90722 14.71875,7.84375 0.94751,0.96851 1.10344,1.49201 1.15625,1.96875 0.0528,0.47674 -0.051,1.15477 -0.5625,2.1875 -1.02298,2.06545 -3.74859,5.03781 -6.75,8.125 -1.42533,1.46607 -2.92632,2.96842 -4.3125,4.5625 1.00029,-1.71453 1.95627,-3.45698 2.65625,-5.28125 a 4.3364212,4.3364212 0 0 0 -0.59375,-4.15625 c -4.84456,-6.43699 -13.08401,-8.32014 -20.875,-7.90625 -8.57422,0.45551 -17.167057,3.48555 -22.6875,8.875 -2.760222,2.69472 -4.837038,6.28859 -4.75,10.40625 0.08704,4.11766 2.365002,8.09962 6.21875,11.4375 7.461472,6.45198 17.43872,5.5633 25.21875,1.28125 4.37808,-2.40965 8.26687,-5.8594 11.46875,-9.84375 -0.1941,0.34199 -0.48049,0.61388 -0.65625,0.96875 -1.00644,2.03204 -1.6586,4.40876 -1.375,6.96875 0.2836,2.55999 1.57751,5.06476 3.5625,7.09375 7.51206,7.67857 18.32612,7.50368 26.5625,9.46875 4.11819,0.98254 7.5811,2.31761 10.25,4.65625 2.6689,2.33864 4.83193,5.74319 5.96875,11.9375 1.20623,6.59095 6.46199,11.05131 12.5625,12.8125 6.10051,1.76119 13.30601,1.59262 20.96875,0.34375 15.32547,-2.49775 32.49249,-9.47621 44.3125,-18.125 a 4.3364212,4.3364212 0 0 0 0.53125,-0.46875 c 1.82207,-1.86401 3.15456,-3.8206 3.59375,-6.1875 0.43919,-2.3669 -0.39359,-4.84454 -1.625,-6.4375 -2.46283,-3.18592 -5.69758,-4.38989 -8.5,-5.75 -2.67203,-1.29683 -4.74479,-2.65508 -5.1875,-3.09375 0.057,-0.12844 0.10929,-0.46385 1.03125,-1.40625 13.79342,-14.10551 26.41289,-16.4115 38.21875,-19.15625 5.90293,-1.37237 11.67499,-2.77654 16.875,-6.1875 5.20001,-3.41096 9.49313,-8.86806 12.21875,-17.03125 0.96843,-2.90137 0.55943,-6.05927 -0.65625,-8.53125 -1.21568,-2.47198 -3.04007,-4.4162 -5.125,-6.15625 -4.16986,-3.4801 -9.50785,-6.2411 -14.4375,-8.90625 -4.92965,-2.66515 -9.484,-5.33165 -11.46875,-7.25 -0.99237,-0.95918 -1.16341,-1.55715 -1.15625,-1.5 0.003,0.022 0.24503,-0.25237 0.25,-0.28125 7.74807,-4.39887 20.97682,-8.91178 35.5,-13.65625 14.81011,-4.8382 30.96871,-10.04757 44.59375,-16.53125 13.62504,-6.48368 25.10676,-14.1386 29.53125,-25.3125 2.21224,-5.58695 2.34338,-11.97137 0,-18.5 -2.33981,-6.51869 -6.98865,-13.23235 -14.1875,-20.4375 l -0.0312,-0.0312 L 227.84375,24.8125 A 4.3364212,4.3364212 0 0 0 227.75,24.71875 c -9.37614,-9.001755 -21.81321,-13.537882 -34.125,-13.5625 z m 148.34375,260.875 c -12.3052,0.42378 -25.04604,6.87292 -28.65625,19.59375 a 4.3364212,4.3364212 0 0 0 -0.1875,1.1875 c 0,1.7574 0.83635,3.22168 1.6875,4.15625 0.85115,0.93457 1.78726,1.53747 2.75,2.0625 1.92548,1.05005 4.14644,1.79583 6.71875,2.4375 5.14461,1.28334 11.62299,2.06515 18.1875,2.25 6.56451,0.18485 13.11538,-0.20465 18.53125,-1.6875 2.70794,-0.74143 5.1931,-1.7354 7.28125,-3.40625 2.08815,-1.67085 3.78125,-4.41748 3.78125,-7.4375 a 4.3364212,4.3364212 0 0 0 -0.25,-1.40625 c -4.34689,-12.57926 -17.54251,-18.17365 -29.84375,-17.75 z m -30.8125,30.4375 a 4.3364212,4.3364212 0 0 0 -2.90625,1.125 c -4.40399,3.95039 -6.9162,8.34464 -7.375,12.78125 -0.4588,4.43661 1.30634,8.61972 4.25,11.46875 5.88731,5.69806 16.03248,6.87182 25.0625,1.5625 a 4.3364212,4.3364212 0 0 0 0.90625,-0.71875 c 1.99319,-2.02276 2.54732,-4.67732 2.375,-7.21875 -0.17232,-2.54143 -1.0879,-5.1477 -2.71875,-7.625 -3.2617,-4.95459 -9.42692,-9.38405 -18.71875,-11.28125 a 4.3364212,4.3364212 0 0 0 -0.875,-0.0937 z"
       transform="translate(-1.6981136,-0.07262777)" />
    <path
       d="m 129.30189,238.52737 c 3.59,2.23 57.89,13.26 71.16,15.46 4.6,0.97 1.34,5.71 -5,8.91 -14.3,3.8 -83.66,-24.37 -66.16,-24.37 z"
       id="path7"
       inkscape:connector-curvature="0"
       style="fill:#ffffff" />
    <path
       d="m 214.93189,37.397372 53.15,53.98 c 5.04,5.15 4.97,15.129998 2.15,17.999998 l -26.39,-21.109998 -5.19,31.259998 -22.05,-11.64 -35.31,22.31 -11.69,-47.029998 -18.97,32.819998 -29,0 c -11.82,0 -13.21,-15 -2.47,-25.739998 18.76,-20.25 40.29,-40.89 51.99,-52.85 11.76,-12.02 32.25,-11.68 43.78,0 z"
       id="path9"
       inkscape:connector-curvature="0"
       style="fill:#ffffff" />
  </g>
</svg>
