<?xml version="1.0" encoding="UTF-8" standalone="no"?>
<svg
   xmlns:dc="http://purl.org/dc/elements/1.1/"
   xmlns:cc="http://creativecommons.org/ns#"
   xmlns:rdf="http://www.w3.org/1999/02/22-rdf-syntax-ns#"
   xmlns:svg="http://www.w3.org/2000/svg"
   xmlns="http://www.w3.org/2000/svg"
   xmlns:sodipodi="http://sodipodi.sourceforge.net/DTD/sodipodi-0.dtd"
   xmlns:inkscape="http://www.inkscape.org/namespaces/inkscape"
   version="1.1"
   width="128"
   height="128"
   id="LO"
   inkscape:version="0.48.3.1 r9886"
   sodipodi:docname="libreoffice-base.svg">
  <metadata
     id="metadata9">
    <rdf:RDF>
      <cc:Work
         rdf:about="">
        <dc:format>image/svg+xml</dc:format>
        <dc:type
           rdf:resource="http://purl.org/dc/dcmitype/StillImage" />
        <dc:title />
      </cc:Work>
    </rdf:RDF>
  </metadata>
  <defs
     id="defs7" />
  <sodipodi:namedview
     pagecolor="#c8c8c8"
     bordercolor="#666666"
     borderopacity="1"
     objecttolerance="10"
     gridtolerance="10"
     guidetolerance="10"
     inkscape:pageopacity="1"
     inkscape:pageshadow="2"
     inkscape:window-width="1598"
     inkscape:window-height="879"
     id="namedview5"
     showgrid="false"
     fit-margin-top="0"
     fit-margin-left="0"
     fit-margin-right="0"
     fit-margin-bottom="0"
     inkscape:zoom="4"
     inkscape:cx="52.708109"
     inkscape:cy="99.776624"
     inkscape:window-x="0"
     inkscape:window-y="0"
     inkscape:window-maximized="1"
     inkscape:current-layer="LO" />
  <path
     d="m 70.691957,4 -55.925603,0 0,120 98.467296,0 0,-77.465138 L 70.691957,4 z"
     id="sheet"
     style="fill:#262729;fill-opacity:1;stroke:#ffffff;stroke-width:7.99999952;stroke-linejoin:round;stroke-miterlimit:4;stroke-dasharray:none"
     inkscape:connector-curvature="0" />
  <path
     d="M 113.23365,30.309756 113.23365,4 86.943842,4 113.23365,30.309756 z"
     id="corner"
     style="fill:#b3b3b3;stroke:#b3b3b3;stroke-width:7.99999952000000025;stroke-linejoin:round;stroke-miterlimit:4;stroke-dasharray:none;fill-opacity:1;stroke-opacity:1"
     inkscape:connector-curvature="0" />
  <rect
     style="fill:#f9f9f9;fill-opacity:1;stroke:none"
     id="rect3011"
     width="64.885567"
     height="54.626965"
     x="25.314919"
     y="58.066868"
     ry="10.258584"
     rx="30.647528" />
  <path
     style="font-size:medium;font-style:normal;font-variant:normal;font-weight:normal;font-stretch:normal;text-indent:0pt;text-align:start;text-decoration:none;line-height:normal;letter-spacing:normal;word-spacing:normal;text-transform:none;direction:ltr;text-anchor:start;color:#000000;fill:#cccccc;fill-opacity:1;fill-rule:nonzero;stroke:none;stroke-width:2.16810346;marker:none;visibility:visible;display:inline;overflow:visible;font-family:Sans"
     d="m 57.999999,56.706867 c -9.069517,0 -16.677967,0.895374 -23.122277,2.505862 -3.075509,0.768578 -5.661094,1.88663 -7.517588,3.075377 -1.894745,1.213186 -3.294769,2.890956 -3.303184,5.011725 C 24.00468,80.460281 24,92.950961 24,103.40703 c 0,2.13248 1.463524,3.79716 3.360135,5.01173 1.884618,1.20678 4.379781,2.19944 7.403684,3.01843 C 40.814424,113.07589 48.987521,114 58,114 c 9.012478,0 17.185576,-0.92411 23.236181,-2.56281 3.020077,-0.81795 5.565672,-1.80502 7.460637,-3.01843 C 90.603779,107.19768 92,105.50938 92,103.40703 L 92,67.24288 C 92,65.086713 90.506985,63.483653 88.639866,62.288106 86.774583,61.093732 84.271245,60.034722 81.236181,59.212729 75.185338,57.573873 67.009118,56.706867 58,56.706867 z m 0,3.701841 c 8.735979,-0.01385 16.615641,1.047369 22.211056,2.562815 2.782209,0.753537 5.002033,1.681406 6.378559,2.562814 0.691497,0.442817 1.173633,0.88013 1.423786,1.19598 0.250152,0.31585 0.284864,0.45449 0.284756,0.455611 -0.03324,0.349088 -0.268648,0.740697 -0.683416,1.139029 -0.414768,0.398331 -1.01279,0.72598 -1.537689,1.025125 -1.661995,0.947043 -3.741941,1.671893 -5.638191,2.164154 -6.546569,1.699296 -13.139539,2.397491 -19.477387,2.562815 -0.01913,3.06e-4 -0.03781,-3e-4 -0.05695,0 -8.7903,0.137685 -17.507162,-0.522299 -25.457287,-2.562815 -1.800308,-0.469371 -3.293589,-1.047076 -4.840871,-1.822445 -0.68494,-0.343245 -1.495984,-0.782959 -2.050251,-1.252932 -0.554268,-0.469972 -0.824035,-0.923651 -0.854271,-1.252931 -0.0026,-0.02684 0.0368,-0.144428 0.284756,-0.455611 0.247961,-0.311185 0.728611,-0.750868 1.423786,-1.19598 1.423618,-0.911651 3.573348,-1.9488 6.321609,-2.562814 C 43.624464,61.208204 51.373247,60.420974 58,60.408708 z m 30.298157,11.788945 0,6.435512 c 0,0.326715 -0.07957,0.774457 -0.113902,0.911222 -0.0591,0.239149 -0.509847,0.982841 -1.651591,1.651591 -2.014898,1.180165 -4.313679,1.888841 -6.378559,2.448911 -0.01604,0.0043 -0.0409,-0.0043 -0.05695,0 -7.381035,1.794428 -15.080434,2.496018 -22.097153,2.505864 -7.606853,-0.05843 -15.626663,-0.768255 -22.268006,-2.505864 -2.912678,-0.918547 -5.597407,-1.750216 -7.403686,-3.417085 -0.351426,-0.327969 -0.454024,-0.535356 -0.512563,-0.740368 -0.01549,-0.05409 -0.05695,-0.350357 -0.05695,-0.854271 l 0,-6.207706 c 2.278523,1.32755 4.918527,2.367935 7.118928,2.904522 8.891684,2.062594 17.734111,2.696924 26.197655,2.448912 6.800494,-0.214795 13.719261,-0.626545 20.160804,-2.448912 2.396739,-0.678105 4.857465,-1.714368 7.061976,-3.132328 z M 27.758793,84.385258 c 2.550708,1.530958 5.391469,2.561781 7.916248,3.18928 7.783034,1.766627 14.707155,2.320092 22.324958,2.335009 7.626775,-0.156366 15.157833,-0.494991 22.324959,-2.335009 2.5562,-0.666824 5.331884,-1.656635 7.460636,-2.733668 0.205658,-0.104007 0.310487,-0.215375 0.512562,-0.341709 l 0,6.207706 c 0,0.326711 -0.07161,0.68572 -0.113902,0.854271 -0.05129,0.207521 -0.496252,0.93042 -1.651591,1.651591 -2.667771,1.565105 -5.960738,2.494232 -8.884423,3.132328 -0.01713,0.0037 -0.0399,-0.0037 -0.05695,0 -6.854836,1.326392 -13.124686,1.87005 -19.59129,1.879398 -3.263568,0 -6.407703,-0.124456 -9.340033,-0.398661 -0.0198,-0.0024 -0.03718,0.0024 -0.05695,0 -6.719424,-0.820815 -12.536845,-1.423131 -17.99665,-3.929648 -0.832591,-0.385806 -1.700624,-1.012783 -2.335008,-1.59464 -0.298461,-0.273747 -0.422,-0.509884 -0.512563,-0.79732 0.0088,0.02752 8.69e-4,0.0052 0,-0.113902 -0.01786,-2.32228 -0.0054,-4.668397 0,-7.005026 z m 0,11.959799 c 0.699027,0.426526 1.368931,1.023751 2.050252,1.309883 6.016856,2.49496 12.918795,3.40728 18.45226,3.8727 3.338536,0.27418 6.642075,0.3996 9.738694,0.39865 7.649181,-0.12351 15.155659,-0.54845 22.324959,-2.335002 a 1.2186329,1.2186329 0 0 0 0.05695,0 c 2.791361,-0.757997 5.457594,-1.655049 7.916247,-3.075377 l 0,6.264659 0,0.62646 c 0,0.22394 -0.351892,0.95387 -1.708542,1.82245 -1.353605,0.86679 -3.585777,1.74944 -6.378559,2.50586 -5.586492,1.51294 -13.477404,2.56281 -22.211056,2.56281 -8.733727,0 -16.624661,-1.0498 -22.211055,-2.56281 -2.792788,-0.75631 -5.024874,-1.63906 -6.37856,-2.50586 -1.345168,-0.86131 -1.651591,-1.54521 -1.651591,-1.82245 l 0,-7.061973 z"
     id="path4519"
     inkscape:connector-curvature="0" />
  <path
     style="fill:#666666;fill-opacity:1;stroke:none"
     d="m 27.75,96.34375 0,7.0625 c 0,0.27724 0.311082,0.95119 1.65625,1.8125 1.353686,0.8668 3.582212,1.77494 6.375,2.53125 5.586394,1.51301 13.485023,2.5625 22.21875,2.5625 8.733652,0 16.632258,-1.04956 22.21875,-2.5625 2.792782,-0.75642 5.021395,-1.66446 6.375,-2.53125 1.35665,-0.86858 1.71875,-1.58856 1.71875,-1.8125 l 0,-6.875 c -2.458653,1.420328 -5.146139,2.304503 -10.15772,3.57678 C 73.1432,101.3803 65.649181,101.81399 58,101.9375 c -3.096619,9.5e-4 -6.411464,-0.13207 -9.75,-0.40625 -5.533465,-0.46542 -12.420644,-1.38004 -18.4375,-3.875 -0.681321,-0.286132 -1.363473,-0.885974 -2.0625,-1.3125 z"
     id="rect2986"
     inkscape:connector-curvature="0"
     sodipodi:nodetypes="csccsccccccccc" />
  <path
     inkscape:connector-curvature="0"
     id="path2993"
     d="m 27.75,84.375 c -0.005,2.336629 -0.0179,4.67772 0.0363,6.045078 0.0542,1.367358 0.19644,1.618675 0.4949,1.892422 0.63438,0.581857 1.47991,1.207944 2.3125,1.59375 5.45981,2.506517 11.28058,3.085435 16.1377,3.632945 4.85713,0.54751 8.00498,0.679555 11.26855,0.679555 6.4666,-0.0093 12.73891,-0.548608 17.65942,-1.530852 4.920515,-0.982244 8.204059,-1.904043 10.87183,-3.469148 1.155339,-0.721171 1.60496,-1.448729 1.65625,-1.65625 l 0.125,-7.0625 c -0.202075,0.126334 -0.325592,0.239743 -0.53125,0.34375 -2.128752,1.077033 -4.91255,2.051926 -7.46875,2.71875 -7.16713,1.840018 -14.68573,2.187384 -22.3125,2.34375 -7.6178,-0.01492 -14.52947,-0.577123 -22.3125,-2.34375 -2.52478,-0.627499 -5.38679,-1.656542 -7.9375,-3.1875 z"
     style="fill:#b3b3b3;fill-opacity:1;stroke:none"
     sodipodi:nodetypes="ccsccccccccccccc" />
</svg>
