<?xml version="1.0" encoding="UTF-8" standalone="no"?>
<svg
   xmlns:dc="http://purl.org/dc/elements/1.1/"
   xmlns:cc="http://creativecommons.org/ns#"
   xmlns:rdf="http://www.w3.org/1999/02/22-rdf-syntax-ns#"
   xmlns:svg="http://www.w3.org/2000/svg"
   xmlns="http://www.w3.org/2000/svg"
   xmlns:sodipodi="http://sodipodi.sourceforge.net/DTD/sodipodi-0.dtd"
   xmlns:inkscape="http://www.inkscape.org/namespaces/inkscape"
   version="1.1"
   width="128"
   height="128"
   id="LO"
   inkscape:version="0.48.3.1 r9886"
   sodipodi:docname="libreoffice-writer.svg">
  <metadata
     id="metadata9">
    <rdf:RDF>
      <cc:Work
         rdf:about="">
        <dc:format>image/svg+xml</dc:format>
        <dc:type
           rdf:resource="http://purl.org/dc/dcmitype/StillImage" />
        <dc:title />
      </cc:Work>
    </rdf:RDF>
  </metadata>
  <defs
     id="defs7" />
  <sodipodi:namedview
     pagecolor="#c8c8c8"
     bordercolor="#666666"
     borderopacity="1"
     objecttolerance="10"
     gridtolerance="10"
     guidetolerance="10"
     inkscape:pageopacity="1"
     inkscape:pageshadow="2"
     inkscape:window-width="1598"
     inkscape:window-height="879"
     id="namedview5"
     showgrid="false"
     fit-margin-top="0"
     fit-margin-left="0"
     fit-margin-right="0"
     fit-margin-bottom="0"
     inkscape:zoom="7.1515151"
     inkscape:cx="48.516913"
     inkscape:cy="86.459244"
     inkscape:window-x="0"
     inkscape:window-y="0"
     inkscape:window-maximized="1"
     inkscape:current-layer="LO" />
  <path
     d="m 70.691957,4 -55.925603,0 0,120 98.467296,0 0,-77.465138 L 70.691957,4 z"
     id="sheet"
     style="fill:#262729;fill-opacity:1;stroke:#ffffff;stroke-width:7.99999952;stroke-linejoin:round;stroke-miterlimit:4;stroke-dasharray:none"
     inkscape:connector-curvature="0" />
  <path
     d="M 113.23365,30.309756 113.23365,4 86.943842,4 113.23365,30.309756 z"
     id="corner"
     style="fill:#6c9eab;stroke:#6c9eab;stroke-width:7.99999952000000025;stroke-linejoin:round;stroke-miterlimit:4;stroke-dasharray:none;fill-opacity:1;stroke-opacity:1"
     inkscape:connector-curvature="0" />
  <path
     inkscape:connector-curvature="0"
     style="fill:#6c9eab;fill-opacity:1;fill-rule:evenodd;stroke:none"
     d="m 82.038161,28.760138 c -0.492684,0.07954 -1.001136,0.312315 -1.348368,0.703493 -8.805617,9.920318 -18.223871,22.523137 -26.908599,38.457602 L 53.0777,67.452239 36.428375,92.426232 l 1.172486,0.82074 c -1.634991,0.326985 -2.748346,1.838481 -2.638096,3.458839 l -0.05863,-0.05863 C 29.714855,101.297 28.231014,106.45787 24,114 c 3.000791,-3.5296 11.51663,-4.81729 13.542238,-7.85568 1.15206,-1.72807 -0.436116,-3.42607 1.817355,-6.507286 l -0.05863,-0.0586 c 1.538455,-0.52122 2.496132,-2.11676 2.1691,-3.751963 L 42.759812,96.647186 59.409138,71.61457 58.705645,71.145576 C 70.025262,56.984098 77.995519,43.4879 83.796885,31.574109 c 0.45768,-0.939903 0.08135,-2.232098 -0.527614,-2.638096 -0.304489,-0.203001 -0.738436,-0.255415 -1.231108,-0.175876 z"
     id="path5497" />
  <path
     id="path2984"
     d="M 53.0777,67.452239 36.428375,92.426232 42.759812,96.647186 59.409138,71.61457 z"
     style="fill:#cccccc;fill-opacity:1;fill-rule:evenodd;stroke:none"
     inkscape:connector-curvature="0"
     sodipodi:nodetypes="ccccc" />
  <path
     id="path2986"
     d="m 37.600861,93.246972 c -1.634991,0.326985 -2.748346,1.838481 -2.638096,3.458839 l -0.05863,-0.05863 C 29.714855,101.297 28.231014,106.45787 24,114 c 3.000791,-3.5296 11.51663,-4.81729 13.542238,-7.85568 1.15206,-1.72807 -0.436116,-3.42607 1.817355,-6.507286 l -0.05863,-0.0586 c 1.538455,-0.52122 2.496132,-2.11676 2.1691,-3.751963 z"
     style="fill:#f08615;fill-opacity:1;fill-rule:evenodd;stroke:none"
     inkscape:connector-curvature="0"
     sodipodi:nodetypes="ccccscccc" />
</svg>
