<?xml version="1.0" encoding="UTF-8" standalone="no"?>
<!-- Created with Inkscape (http://www.inkscape.org/) -->

<svg
   xmlns:dc="http://purl.org/dc/elements/1.1/"
   xmlns:cc="http://creativecommons.org/ns#"
   xmlns:rdf="http://www.w3.org/1999/02/22-rdf-syntax-ns#"
   xmlns:svg="http://www.w3.org/2000/svg"
   xmlns="http://www.w3.org/2000/svg"
   xmlns:sodipodi="http://sodipodi.sourceforge.net/DTD/sodipodi-0.dtd"
   xmlns:inkscape="http://www.inkscape.org/namespaces/inkscape"
   version="1.1"
   width="48"
   height="48"
   id="svg3304"
   inkscape:version="0.48.3.1 r9886"
   sodipodi:docname="system-firewall.svg">
  <sodipodi:namedview
     pagecolor="#c8c8c8"
     bordercolor="#666666"
     borderopacity="1"
     objecttolerance="10"
     gridtolerance="10"
     guidetolerance="10"
     inkscape:pageopacity="1"
     inkscape:pageshadow="2"
     inkscape:window-width="1260"
     inkscape:window-height="643"
     id="namedview30"
     showgrid="false"
     inkscape:snap-page="true"
     inkscape:zoom="6.9532167"
     inkscape:cx="42.027882"
     inkscape:cy="24"
     inkscape:window-x="0"
     inkscape:window-y="0"
     inkscape:window-maximized="0"
     inkscape:current-layer="layer1" />
  <defs
     id="defs3306" />
  <metadata
     id="metadata3309">
    <rdf:RDF>
      <cc:Work
         rdf:about="">
        <dc:format>image/svg+xml</dc:format>
        <dc:type
           rdf:resource="http://purl.org/dc/dcmitype/StillImage" />
        <dc:title />
      </cc:Work>
    </rdf:RDF>
  </metadata>
  <g
     id="layer1">
    <path
       d="M 2.9358889,3.7036092 A 2.927244,2.9272377 0 0 0 1.276557e-5,6.6394791 l 0,5.9246379 A 2.927244,2.9272377 0 0 0 2.9358889,15.499987 l 13.5420591,0 a 2.927244,2.9272377 0 0 0 2.935877,-2.93587 l 0,-5.9246379 A 2.927244,2.9272377 0 0 0 16.477948,3.7036092 l -13.5420591,0 z"
       id="path2416"
       style="fill:#ffffff;fill-opacity:1;fill-rule:nonzero;stroke:none;stroke-width:4;marker:none;visibility:visible;display:inline;overflow:visible;enable-background:accumulate"
       inkscape:connector-curvature="0" />
    <path
       d="m 20.628938,3.7036092 a 2.927244,2.9272377 0 0 0 -2.935875,2.9358699 l 0,5.9246379 a 2.927244,2.9272377 0 0 0 2.935875,2.93587 l 13.54206,0 a 2.927244,2.9272377 0 0 0 2.935877,-2.93587 l 0,-5.9246379 A 2.927244,2.9272377 0 0 0 34.170998,3.7036092 l -13.54206,0 z"
       id="path2418"
       style="fill:#ffffff;fill-opacity:1;fill-rule:nonzero;stroke:none;stroke-width:4;marker:none;visibility:visible;display:inline;overflow:visible;enable-background:accumulate"
       inkscape:connector-curvature="0" />
    <path
       d="m 37.556513,3.7035973 a 2.9071942,2.9071879 0 0 0 -2.909426,2.9094206 l 0,5.9246381 a 2.9071942,2.9071879 0 0 0 2.909426,2.909421 l 13.54206,0 a 2.9071942,2.9071879 0 0 0 2.909426,-2.909421 l 0,-5.9246381 A 2.9071942,2.9071879 0 0 0 51.098573,3.7035973 l -13.54206,0 z"
       id="path2420"
       style="fill:#ffffff;fill-opacity:1;fill-rule:nonzero;stroke:none;stroke-width:4;marker:none;visibility:visible;display:inline;overflow:visible;enable-background:accumulate"
       inkscape:connector-curvature="0" />
    <path
       d="m 31.469201,13.689537 a 2.7361769,2.7361769 0 0 0 -2.459783,2.724276 l 0,5.924638 a 2.7361769,2.7361769 0 0 0 2.724276,2.724276 l 13.54203,0 A 2.7361769,2.7361769 0 0 0 48,22.338451 l 0,-5.924638 a 2.7361769,2.7361769 0 0 0 -2.724276,-2.724276 l -13.54203,0 a 2.7361769,2.7361769 0 0 0 -0.264493,0 z"
       id="path2422"
       style="fill:#ffffff;fill-opacity:1;fill-rule:nonzero;stroke:none;stroke-width:4;marker:none;visibility:visible;display:inline;overflow:visible;enable-background:accumulate"
       inkscape:connector-curvature="0" />
    <path
       d="M 11.6875,11.78125 A 3.2328114,3.2328114 0 0 0 8.78125,15 l 0,7 A 3.2328114,3.2328114 0 0 0 12,25.21875 l 16,0 A 3.2328114,3.2328114 0 0 0 31.21875,22 l 0,-7 A 3.2328114,3.2328114 0 0 0 28,11.78125 l -16,0 a 3.2328114,3.2328114 0 0 0 -0.3125,0 z"
       transform="matrix(0.8463769,0,0,0.8463769,3.7013564,3.7181591)"
       id="path2424"
       style="fill:#ffffff;fill-opacity:1;fill-rule:nonzero;stroke:none;stroke-width:4;marker:none;visibility:visible;display:inline;overflow:visible;enable-background:accumulate" />
    <path
       d="M -8,11.75 A 3.2391194,3.2391194 0 0 0 -11.25,15 l 0,7 A 3.2391194,3.2391194 0 0 0 -8,25.25 l 16,0 A 3.2391194,3.2391194 0 0 0 11.25,22 l 0,-7 A 3.2391194,3.2391194 0 0 0 8,11.75 l -16,0 z"
       transform="matrix(0.8463769,0,0,0.8463769,3.7013564,3.7181591)"
       id="path2426"
       style="fill:#ffffff;fill-opacity:1;fill-rule:nonzero;stroke:none;stroke-width:4;marker:none;visibility:visible;display:inline;overflow:visible;enable-background:accumulate" />
    <path
       d="M 1.5869567,23.951857 A 1.7854077,1.7854077 0 0 0 0,25.723959 l 0,5.924638 a 1.7854077,1.7854077 0 0 0 1.7721016,1.772101 l 13.5420304,0 a 1.7854077,1.7854077 0 0 0 1.772102,-1.772101 l 0,-5.924638 a 1.7854077,1.7854077 0 0 0 -1.772102,-1.772102 l -13.5420304,0 a 1.7854077,1.7854077 0 0 0 -0.1851449,0 z"
       id="path2428"
       style="fill:#ffffff;fill-opacity:1;fill-rule:nonzero;stroke:none;stroke-width:4;marker:none;visibility:visible;display:inline;overflow:visible;enable-background:accumulate"
       inkscape:connector-curvature="0" />
    <path
       d="M 20,21.46875 A 4.5179913,4.5179913 0 0 0 15.46875,26 l 0,7 A 4.5179913,4.5179913 0 0 0 20,37.53125 l 16,0 A 4.5179913,4.5179913 0 0 0 40.53125,33 l 0,-7 A 4.5179913,4.5179913 0 0 0 36,21.46875 l -16,0 z"
       transform="matrix(0.8463769,0,0,0.8463769,3.7013564,3.7181591)"
       id="path2436"
       style="fill:#ffffff;fill-opacity:1;fill-rule:nonzero;stroke:none;stroke-width:4;marker:none;visibility:visible;display:inline;overflow:visible;enable-background:accumulate" />
    <path
       d="M 40,23.15625 A 2.8287099,2.8287099 0 0 0 37.15625,26 l 0,7 A 2.8287099,2.8287099 0 0 0 40,35.84375 l 16,0 A 2.8287099,2.8287099 0 0 0 58.84375,33 l 0,-7 A 2.8287099,2.8287099 0 0 0 56,23.15625 l -16,0 z"
       transform="matrix(0.8463769,0,0,0.8463769,3.7013564,3.7181591)"
       id="path2438"
       style="fill:#ffffff;fill-opacity:1;fill-rule:nonzero;stroke:none;stroke-width:4;marker:none;visibility:visible;display:inline;overflow:visible;enable-background:accumulate" />
    <path
       d="m 30.860868,31.898212 a 3.2894633,3.2894633 0 0 0 -2.962319,3.279711 l 0,5.924638 a 3.2894633,3.2894633 0 0 0 3.27971,3.279711 l 13.542031,0 A 3.2894633,3.2894633 0 0 0 48,41.102561 l 0,-5.924638 a 3.2894633,3.2894633 0 0 0 -3.27971,-3.279711 l -13.542031,0 a 3.2894633,3.2894633 0 0 0 -0.317391,0 z"
       id="path2434"
       style="fill:#ffffff;fill-opacity:1;fill-rule:nonzero;stroke:none;stroke-width:4;marker:none;visibility:visible;display:inline;overflow:visible;enable-background:accumulate"
       inkscape:connector-curvature="0" />
    <path
       d="m 13.593386,33.009082 a 2.7361769,2.7361769 0 0 0 -2.459782,2.724276 l 0,5.924638 a 2.7361769,2.7361769 0 0 0 2.724275,2.724276 l 13.542031,0 a 2.7361769,2.7361769 0 0 0 2.724275,-2.724276 l 0,-5.924638 A 2.7361769,2.7361769 0 0 0 27.39991,33.009082 l -13.542031,0 a 2.7361769,2.7361769 0 0 0 -0.264493,0 z"
       id="path2432"
       style="fill:#ffffff;fill-opacity:1;fill-rule:nonzero;stroke:none;stroke-width:4;marker:none;visibility:visible;display:inline;overflow:visible;enable-background:accumulate"
       inkscape:connector-curvature="0" />
    <path
       d="m -3.3341516,31.886119 a 2.5708598,2.9057924 0 0 0 -2.3010872,2.899825 l 0,6.696503 a 2.5708598,2.9057924 0 0 0 2.56558,2.899825 l 13.5420308,0 a 2.5708598,2.9057924 0 0 0 2.56558,-2.899825 l 0,-6.696503 a 2.5708598,2.9057924 0 0 0 -2.56558,-2.899825 l -13.5420308,0 a 2.5708598,2.9057924 0 0 0 -0.2644928,0 z"
       id="path2430"
       style="fill:#ffffff;fill-opacity:1;fill-rule:nonzero;stroke:none;stroke-width:4;marker:none;visibility:visible;display:inline;overflow:visible;enable-background:accumulate"
       inkscape:connector-curvature="0" />
    <rect
       width="13.5343"
       height="5.9246378"
       x="3.7013564"
       y="7.1036663"
       id="rect2158"
       style="fill:#262729;fill-opacity:1;fill-rule:nonzero;stroke:none;stroke-width:4;marker:none;visibility:visible;display:inline;overflow:visible;enable-background:accumulate" />
    <rect
       width="13.5343"
       height="5.9246378"
       x="20.628893"
       y="7.1036663"
       id="rect2160"
       style="fill:#262729;fill-opacity:1;fill-rule:nonzero;stroke:none;stroke-width:4;marker:none;visibility:visible;display:inline;overflow:visible;enable-background:accumulate" />
    <rect
       width="13.5343"
       height="5.9246378"
       x="37.556431"
       y="7.1036663"
       id="rect2162"
       style="fill:#262729;fill-opacity:1;fill-rule:nonzero;stroke:none;stroke-width:4;marker:none;visibility:visible;display:inline;overflow:visible;enable-background:accumulate" />
    <rect
       width="13.5343"
       height="5.9246378"
       x="30.793144"
       y="16.413813"
       id="rect2164"
       style="fill:#262729;fill-opacity:1;fill-rule:nonzero;stroke:none;stroke-width:4;marker:none;visibility:visible;display:inline;overflow:visible;enable-background:accumulate" />
    <rect
       width="13.5343"
       height="5.9246378"
       x="13.865608"
       y="16.413813"
       id="rect2166"
       style="fill:#262729;fill-opacity:1;fill-rule:nonzero;stroke:none;stroke-width:4;marker:none;visibility:visible;display:inline;overflow:visible;enable-background:accumulate" />
    <rect
       width="13.5343"
       height="5.9246378"
       x="-3.061929"
       y="16.413813"
       id="rect2168"
       style="fill:#262729;fill-opacity:1;fill-rule:nonzero;stroke:none;stroke-width:4;marker:none;visibility:visible;display:inline;overflow:visible;enable-background:accumulate" />
    <rect
       width="13.5343"
       height="5.9246378"
       x="3.7090859"
       y="25.723957"
       id="rect2172"
       style="fill:#262729;fill-opacity:1;fill-rule:nonzero;stroke:none;stroke-width:4;marker:none;visibility:visible;display:inline;overflow:visible;enable-background:accumulate" />
    <rect
       width="13.5343"
       height="5.9246378"
       x="20.628893"
       y="25.723957"
       id="rect2174"
       style="fill:#262729;fill-opacity:1;fill-rule:nonzero;stroke:none;stroke-width:4;marker:none;visibility:visible;display:inline;overflow:visible;enable-background:accumulate" />
    <rect
       width="13.5343"
       height="5.9246378"
       x="37.556431"
       y="25.723957"
       id="rect2176"
       style="fill:#262729;fill-opacity:1;fill-rule:nonzero;stroke:none;stroke-width:4;marker:none;visibility:visible;display:inline;overflow:visible;enable-background:accumulate" />
    <rect
       width="13.5343"
       height="5.9246378"
       x="30.793144"
       y="35.034103"
       id="rect2178"
       style="fill:#262729;fill-opacity:1;fill-rule:nonzero;stroke:none;stroke-width:4;marker:none;visibility:visible;display:inline;overflow:visible;enable-background:accumulate" />
    <rect
       width="13.5343"
       height="5.9246378"
       x="13.865608"
       y="35.034103"
       id="rect2180"
       style="fill:#262729;fill-opacity:1;fill-rule:nonzero;stroke:none;stroke-width:4;marker:none;visibility:visible;display:inline;overflow:visible;enable-background:accumulate" />
    <rect
       width="13.5343"
       height="5.9246378"
       x="-3.061929"
       y="35.034103"
       id="rect2182"
       style="fill:#262729;fill-opacity:1;fill-rule:nonzero;stroke:none;stroke-width:4;marker:none;visibility:visible;display:inline;overflow:visible;enable-background:accumulate" />
  </g>
</svg>
