<?xml version="1.0" encoding="UTF-8" standalone="no"?>
<!-- Created with Inkscape (http://www.inkscape.org/) -->

<svg
   xmlns:dc="http://purl.org/dc/elements/1.1/"
   xmlns:cc="http://creativecommons.org/ns#"
   xmlns:rdf="http://www.w3.org/1999/02/22-rdf-syntax-ns#"
   xmlns:svg="http://www.w3.org/2000/svg"
   xmlns="http://www.w3.org/2000/svg"
   xmlns:sodipodi="http://sodipodi.sourceforge.net/DTD/sodipodi-0.dtd"
   xmlns:inkscape="http://www.inkscape.org/namespaces/inkscape"
   width="128"
   height="128"
   id="svg2"
   sodipodi:version="0.32"
   inkscape:version="0.48.3.1 r9886"
   version="1.0"
   sodipodi:docname="software-properties.svg"
   inkscape:output_extension="org.inkscape.output.svg.inkscape">
  <defs
     id="defs4" />
  <sodipodi:namedview
     id="base"
     pagecolor="#ffffff"
     bordercolor="#000000"
     borderopacity="1"
     inkscape:pageopacity="0.0"
     inkscape:pageshadow="2"
     inkscape:zoom="5.6568542"
     inkscape:cx="118.24532"
     inkscape:cy="70.010923"
     inkscape:document-units="px"
     inkscape:current-layer="layer1"
     width="128px"
     height="128px"
     showgrid="true"
     inkscape:window-width="1598"
     inkscape:window-height="879"
     inkscape:window-x="0"
     inkscape:window-y="0"
     inkscape:snap-object-midpoints="true"
     inkscape:snap-bbox="true"
     inkscape:object-paths="false"
     inkscape:window-maximized="1" />
  <metadata
     id="metadata7">
    <rdf:RDF>
      <cc:Work
         rdf:about="">
        <dc:format>image/svg+xml</dc:format>
        <dc:type
           rdf:resource="http://purl.org/dc/dcmitype/StillImage" />
        <dc:title></dc:title>
      </cc:Work>
    </rdf:RDF>
  </metadata>
  <g
     inkscape:label="Ebene 1"
     inkscape:groupmode="layer"
     id="layer1">
    <path
       sodipodi:type="arc"
       style="opacity:1;fill:#ffffff;fill-opacity:1;fill-rule:nonzero;stroke:none;stroke-width:5.99999905;stroke-linejoin:miter;stroke-miterlimit:4;stroke-dasharray:none;stroke-opacity:1"
       id="path2161"
       sodipodi:cx="59.017857"
       sodipodi:cy="66.125"
       sodipodi:rx="44.375"
       sodipodi:ry="44.375"
       d="M 103.39286 66.125 A 44.375 44.375 0 1 1  14.642857,66.125 A 44.375 44.375 0 1 1  103.39286 66.125 z"
       transform="matrix(1.4422535,0,0,1.4422535,-21.11871,-31.369013)" />
    <path
       sodipodi:type="arc"
       style="opacity:1;fill:#262729;fill-opacity:1;fill-rule:nonzero;stroke:none;stroke-width:2.49999928;stroke-linejoin:miter;stroke-miterlimit:4;stroke-dasharray:none;stroke-opacity:1"
       id="path5993"
       sodipodi:cx="106.69736"
       sodipodi:cy="106.15545"
       sodipodi:rx="46.593285"
       sodipodi:ry="46.593285"
       d="M 153.29064 106.15545 A 46.593285 46.593285 0 1 1  60.104073,106.15545 A 46.593285 46.593285 0 1 1  153.29064 106.15545 z"
       transform="matrix(1.100271,0,0,1.100271,-53.396008,-52.799762)" />
    <path
       sodipodi:type="arc"
       style="opacity:1;fill:#262729;fill-opacity:1;fill-rule:nonzero;stroke:#ffffff;stroke-width:1.22929931;stroke-linejoin:miter;stroke-miterlimit:4;stroke-dasharray:none;stroke-opacity:1"
       id="path5997"
       sodipodi:cx="178.4182"
       sodipodi:cy="122.31789"
       sodipodi:rx="24.36993"
       sodipodi:ry="24.36993"
       d="M 202.78813 122.31789 A 24.36993 24.36993 0 1 1  154.04827,122.31789 A 24.36993 24.36993 0 1 1  202.78813 122.31789 z"
       transform="matrix(0.8134715,0,0,0.8134715,-81.138122,-35.502114)" />
    <path
       sodipodi:type="arc"
       style="opacity:1;fill:#ffffff;fill-opacity:1;fill-rule:nonzero;stroke:none;stroke-width:2;stroke-linejoin:miter;stroke-miterlimit:4;stroke-dasharray:none;stroke-opacity:1"
       id="path5999"
       sodipodi:cx="72.73098"
       sodipodi:cy="73.199226"
       sodipodi:rx="14.647212"
       sodipodi:ry="14.647212"
       d="M 87.378192 73.199226 A 14.647212 14.647212 0 1 1  58.083768,73.199226 A 14.647212 14.647212 0 1 1  87.378192 73.199226 z"
       transform="matrix(0.9827586,0,0,0.9827586,-7.4769938,-7.937167)" />
    <g
       id="g3784"
       inkscape:transform-center-x="-26.093552">
      <path
         sodipodi:open="true"
         sodipodi:end="7.8539816"
         sodipodi:start="4.712389"
         d="m 63.999997,13.271923 a 50.728077,50.728077 0 0 1 10e-7,101.456157"
         sodipodi:ry="50.728077"
         sodipodi:rx="50.728077"
         sodipodi:cy="64"
         sodipodi:cx="63.999996"
         id="path3782"
         style="fill:#ffffff;fill-opacity:1;stroke:#f08615;stroke-width:1.41199994;stroke-linecap:square;stroke-linejoin:round;stroke-miterlimit:4;stroke-opacity:1;stroke-dasharray:none"
         sodipodi:type="arc" />
      <path
         inkscape:transform-center-x="-9.7385468"
         inkscape:transform-center-y="21.087271"
         transform="matrix(0.34388389,0.59602937,-0.59562435,0.34411773,82.946533,14.422768)"
         d="m 64,59.8125 a 4.1806682,4.1806682 0 0 0 -2.09375,7.8125 l 44.375,25.625 A 4.1806682,4.1806682 0 0 0 112,91.71875 C 116.85754,83.329437 119.44964,73.699275 119.4375,64 A 4.1806682,4.1806682 0 0 0 115.25,59.8125 l -51.25,0 z"
         id="path3764"
         style="fill:#f08615;fill-opacity:1;stroke:#ffffff;stroke-width:2.05232096;stroke-linejoin:round;stroke-miterlimit:4;stroke-opacity:1;stroke-dasharray:none"
         inkscape:original="M 64 64 L 108.375 89.625 C 112.85836 81.881923 115.2612 72.947383 115.25 64 L 64 64 z "
         inkscape:radius="4.1802502"
         sodipodi:type="inkscape:offset" />
      <path
         inkscape:transform-center-x="-23.009403"
         sodipodi:type="inkscape:offset"
         inkscape:radius="4.1802502"
         inkscape:original="M 64 64 L 108.375 89.625 C 112.85836 81.881923 115.2612 72.947383 115.25 64 L 64 64 z "
         style="fill:#f08615;fill-opacity:1;stroke:#ffffff;stroke-width:2.05232096;stroke-linejoin:round;stroke-miterlimit:4;stroke-opacity:1;stroke-dasharray:none"
         id="path3772"
         d="m 64,59.8125 a 4.1806682,4.1806682 0 0 0 -2.09375,7.8125 l 44.375,25.625 A 4.1806682,4.1806682 0 0 0 112,91.71875 C 116.85754,83.329437 119.44964,73.699275 119.4375,64 A 4.1806682,4.1806682 0 0 0 115.25,59.8125 l -51.25,0 z"
         transform="matrix(0.59562435,0.34411773,-0.34388389,0.59602937,55.636269,11.584451)"
         inkscape:transform-center-y="23.022262" />
      <path
         inkscape:transform-center-y="11.656228"
         transform="matrix(0.68776777,0,0,0.68823544,30.566693,22.790815)"
         d="m 64,59.8125 a 4.1806682,4.1806682 0 0 0 -2.09375,7.8125 l 44.375,25.625 A 4.1806682,4.1806682 0 0 0 112,91.71875 C 116.85754,83.329437 119.44964,73.699275 119.4375,64 A 4.1806682,4.1806682 0 0 0 115.25,59.8125 l -51.25,0 z"
         id="path3774"
         style="fill:#f08615;fill-opacity:1;stroke:#ffffff;stroke-width:2.05232096;stroke-linejoin:round;stroke-miterlimit:4;stroke-opacity:1;stroke-dasharray:none"
         inkscape:original="M 64 64 L 108.375 89.625 C 112.85836 81.881923 115.2612 72.947383 115.25 64 L 64 64 z "
         inkscape:radius="4.1802502"
         sodipodi:type="inkscape:offset"
         inkscape:transform-center-x="-28.203648" />
      <path
         inkscape:transform-center-y="-11.656249"
         inkscape:transform-center-x="-28.20034"
         sodipodi:type="inkscape:offset"
         inkscape:radius="4.1802502"
         inkscape:original="M 64 64 L 108.375 89.625 C 112.85836 81.881923 115.2612 72.947383 115.25 64 L 64 64 z "
         style="fill:#f08615;fill-opacity:1;stroke:#ffffff;stroke-width:2.05232096;stroke-linejoin:round;stroke-miterlimit:4;stroke-opacity:1;stroke-dasharray:none"
         id="path3776"
         d="m 64,59.8125 a 4.1806682,4.1806682 0 0 0 -2.09375,7.8125 l 44.375,25.625 A 4.1806682,4.1806682 0 0 0 112,91.71875 C 116.85754,83.329437 119.44964,73.699275 119.4375,64 A 4.1806682,4.1806682 0 0 0 115.25,59.8125 l -51.25,0 z"
         transform="matrix(0.59562435,-0.34411773,0.34388389,0.59602937,14.455176,45.039122)" />
      <path
         inkscape:transform-center-y="-23.025048"
         transform="matrix(0.34388389,-0.59602937,0.59562435,0.34411773,11.618788,72.367956)"
         d="m 64,59.8125 a 4.1806682,4.1806682 0 0 0 -2.09375,7.8125 l 44.375,25.625 A 4.1806682,4.1806682 0 0 0 112,91.71875 C 116.85754,83.329437 119.44964,73.699275 119.4375,64 A 4.1806682,4.1806682 0 0 0 115.25,59.8125 l -51.25,0 z"
         id="path3778"
         style="fill:#f08615;fill-opacity:1;stroke:#ffffff;stroke-width:2.05232096;stroke-linejoin:round;stroke-miterlimit:4;stroke-opacity:1;stroke-dasharray:none"
         inkscape:original="M 64 64 L 108.375 89.625 C 112.85836 81.881923 115.2612 72.947383 115.25 64 L 64 64 z "
         inkscape:radius="4.1802502"
         sodipodi:type="inkscape:offset"
         inkscape:transform-center-x="-23.006619" />
      <path
         inkscape:transform-center-x="-11.648307"
         sodipodi:type="inkscape:offset"
         inkscape:radius="4.1802502"
         inkscape:original="M 64 64 L 108.375 89.625 C 112.85836 81.881923 115.2612 72.947383 115.25 64 L 64 64 z "
         style="fill:#f08615;fill-opacity:1;stroke:#ffffff;stroke-width:2.05232096;stroke-linejoin:round;stroke-miterlimit:4;stroke-opacity:1;stroke-dasharray:none"
         id="path3780"
         d="m 64,59.8125 a 4.1806682,4.1806682 0 0 0 -2.09375,7.8125 l 44.375,25.625 A 4.1806682,4.1806682 0 0 0 112,91.71875 C 116.85754,83.329437 119.44964,73.699275 119.4375,64 A 4.1806682,4.1806682 0 0 0 115.25,59.8125 l -51.25,0 z"
         transform="matrix(0,-0.68823544,0.68776777,0,22.817536,97.45458)"
         inkscape:transform-center-y="-28.222826" />
    </g>
  </g>
</svg>
