<?xml version="1.0" encoding="UTF-8" standalone="no"?>
<!-- Created with Inkscape (http://www.inkscape.org/) -->

<svg
   xmlns:dc="http://purl.org/dc/elements/1.1/"
   xmlns:cc="http://creativecommons.org/ns#"
   xmlns:rdf="http://www.w3.org/1999/02/22-rdf-syntax-ns#"
   xmlns:svg="http://www.w3.org/2000/svg"
   xmlns="http://www.w3.org/2000/svg"
   xmlns:sodipodi="http://sodipodi.sourceforge.net/DTD/sodipodi-0.dtd"
   xmlns:inkscape="http://www.inkscape.org/namespaces/inkscape"
   version="1.1"
   width="48"
   height="48"
   id="svg3465"
   inkscape:version="0.48.3.1 r9886"
   sodipodi:docname="system-password.svg">
  <sodipodi:namedview
     pagecolor="#ffffff"
     bordercolor="#666666"
     borderopacity="1"
     objecttolerance="10"
     gridtolerance="10"
     guidetolerance="10"
     inkscape:pageopacity="0"
     inkscape:pageshadow="2"
     inkscape:window-width="742"
     inkscape:window-height="480"
     id="namedview8"
     showgrid="false"
     inkscape:zoom="4.9166667"
     inkscape:cx="24"
     inkscape:cy="24"
     inkscape:window-x="0"
     inkscape:window-y="0"
     inkscape:window-maximized="0"
     inkscape:current-layer="layer1" />
  <defs
     id="defs3467" />
  <metadata
     id="metadata3470">
    <rdf:RDF>
      <cc:Work
         rdf:about="">
        <dc:format>image/svg+xml</dc:format>
        <dc:type
           rdf:resource="http://purl.org/dc/dcmitype/StillImage" />
        <dc:title />
      </cc:Work>
    </rdf:RDF>
  </metadata>
  <g
     id="layer1">
    <path
       d="m 24.3125,0.4375 c -4.21288,0 -8.174231,1.1727067 -11.15625,3.78125 C 10.174231,6.8272933 8.4375,10.843791 8.4375,15.3125 l 0,2.40625 c -1.115063,0.256491 -2.2231189,0.691869 -3.125,1.59375 -1.4115704,1.41157 -1.875,3.355422 -1.875,5 l 0,17 c 0,1.121014 0.222041,1.569744 0.46875,2.1875 0.246709,0.617756 0.5791905,1.231872 1.0625,1.875 0.9666189,1.286256 2.8465884,2.8125 5.34375,2.8125 l 29.0625,0 A 3.8678522,3.8678522 0 0 0 40,48.125 c 2.150829,-0.350229 3.665705,-1.605888 4.59375,-2.78125 0.928045,-1.175362 1.59375,-1.75403 1.59375,-4.03125 l 0,-17 C 46.187502,22.66792 45.778109,20.852813 44.5,19.375 43.647927,18.389791 42.436871,17.836428 41.1875,17.5 l 0,-2.1875 C 41.187501,10.891674 39.467534,6.8996624 36.5,4.28125 33.532466,1.6628376 29.54916,0.4375 25.3125,0.4375 l -1,0 z m 0,12.75 1,0 c 2.39501,0 2.308361,0.397972 2.65625,1.09375 0.347889,0.695778 0.46875,2.03125 0.46875,3.03125 l 0,0.125 -7.25,0 0,-0.125 c 0,-1 0.120861,-2.335472 0.46875,-3.03125 0.347889,-0.695778 0.26124,-1.09375 2.65625,-1.09375 z"
       transform="translate(-0.7164352,-0.3582176)"
       id="path2383"
       style="fill:#ffffff;fill-opacity:1;fill-rule:nonzero;stroke:none;stroke-width:0.9999997;marker:none;visibility:visible;display:block;overflow:visible" />
    <path
       d="m 23.586598,3.9448124 c -7,0 -12,3.8708746 -12,11.0000016 l 0,6 -2.000002,0 c -2.0000012,0 -3.0000012,1 -3.0000012,3 l 0,17 c 0,0.677296 1,3 3.0000012,3 l 29.080988,0 c 1.919014,-0.312484 2.919014,-2.322706 2.919014,-3 l 0,-17 c 0,-2 -1,-3.043821 -3,-3.043821 l -2,0.04382 0,-6 c 0,-7.0000016 -5,-11.0000016 -12,-11.0000016 z m 0,5 1,0 c 7,0 7,6.0000016 7,8.0000016 l 0,4 -15,0 0,-4 c 0,-2 0,-8.0000016 7,-8.0000016 z"
       id="path2086"
       style="fill:#262729;fill-opacity:1;fill-rule:nonzero;stroke:none;stroke-width:0.99999970000000005;marker:none;visibility:visible;display:block;overflow:visible" />
  </g>
</svg>
