<?xml version="1.0" encoding="UTF-8" standalone="no"?>
<!-- Created with Inkscape (http://www.inkscape.org/) -->

<svg
   xmlns:dc="http://purl.org/dc/elements/1.1/"
   xmlns:cc="http://creativecommons.org/ns#"
   xmlns:rdf="http://www.w3.org/1999/02/22-rdf-syntax-ns#"
   xmlns:svg="http://www.w3.org/2000/svg"
   xmlns="http://www.w3.org/2000/svg"
   xmlns:xlink="http://www.w3.org/1999/xlink"
   xmlns:sodipodi="http://sodipodi.sourceforge.net/DTD/sodipodi-0.dtd"
   xmlns:inkscape="http://www.inkscape.org/namespaces/inkscape"
   width="128"
   height="128"
   id="svg2"
   version="1.1"
   inkscape:version="0.48.3.1 r9886"
   sodipodi:docname="vlc.svg">
  <defs
     id="defs4" />
  <sodipodi:namedview
     id="base"
     pagecolor="#c8c8c8"
     bordercolor="#666666"
     borderopacity="1.0"
     inkscape:pageopacity="1"
     inkscape:pageshadow="2"
     inkscape:zoom="5.6568542"
     inkscape:cx="32.97569"
     inkscape:cy="65.966657"
     inkscape:document-units="px"
     inkscape:current-layer="layer1"
     showgrid="false"
     showguides="false"
     inkscape:guide-bbox="true"
     inkscape:snap-page="true"
     inkscape:window-width="1598"
     inkscape:window-height="879"
     inkscape:window-x="0"
     inkscape:window-y="0"
     inkscape:window-maximized="1">
    <sodipodi:guide
       orientation="0,1"
       position="0,120"
       id="guide2985" />
    <sodipodi:guide
       orientation="0,1"
       position="0,8"
       id="guide2987" />
    <inkscape:grid
       type="xygrid"
       id="grid2997"
       empspacing="5"
       visible="true"
       enabled="true"
       snapvisiblegridlinesonly="true" />
    <sodipodi:guide
       orientation="1,0"
       position="8,128"
       id="guide2999" />
    <sodipodi:guide
       orientation="1,0"
       position="120,128"
       id="guide3001" />
    <sodipodi:guide
       orientation="1,0"
       position="64,120"
       id="guide3005" />
    <sodipodi:guide
       orientation="0,1"
       position="64,24"
       id="guide3007" />
    <sodipodi:guide
       orientation="0,1"
       position="64,96"
       id="guide3016" />
    <sodipodi:guide
       orientation="0,1"
       position="64,48"
       id="guide3018" />
    <sodipodi:guide
       orientation="0,1"
       position="64,72"
       id="guide3020" />
  </sodipodi:namedview>
  <metadata
     id="metadata7">
    <rdf:RDF>
      <cc:Work
         rdf:about="">
        <dc:format>image/svg+xml</dc:format>
        <dc:type
           rdf:resource="http://purl.org/dc/dcmitype/StillImage" />
        <dc:title></dc:title>
      </cc:Work>
    </rdf:RDF>
  </metadata>
  <g
     inkscape:label="Layer 1"
     inkscape:groupmode="layer"
     id="layer1"
     transform="translate(0,-924.36218)">
    <path
       sodipodi:type="inkscape:offset"
       inkscape:radius="8.0462427"
       inkscape:original="M 59 932.375 C 57.585786 932.375 56.380771 934.01301 56 935.375 L 30 1028.375 L 12 1028.375 C 9.784 1028.375 8 1030.159 8 1032.375 L 8 1040.375 C 8 1042.591 9.784 1044.375 12 1044.375 L 116 1044.375 C 118.216 1044.375 120 1042.591 120 1040.375 L 120 1032.375 C 120 1030.159 118.216 1028.375 116 1028.375 L 98 1028.375 L 72 935.375 C 71.619229 934.01301 70.414214 932.375 69 932.375 L 59 932.375 z "
       xlink:href="#rect3009"
       style="fill:#ffffff;fill-opacity:1;stroke:none"
       id="path3036"
       inkscape:href="#rect3009"
       d="m 59,924.34375 c -3.813621,0 -6.351003,1.97854 -7.84375,3.625 -1.492747,1.64646 -2.348473,3.25487 -2.90625,5.25 l -24.34375,87.12505 -11.90625,0 c -6.5344407,0 -12.03125,5.4968 -12.03125,12.0312 l 0,8 c 0,6.5344 5.4968093,12.0312 12.03125,12.0312 l 104,0 c 6.53444,0 12.03125,-5.4968 12.03125,-12.0312 l 0,-8 c 0,-6.5344 -5.49681,-12.0312 -12.03125,-12.0312 l -11.90625,0 L 79.75,933.21875 c -0.557777,-1.99513 -1.413503,-3.60354 -2.90625,-5.25 -1.492747,-1.64646 -4.030129,-3.625 -7.84375,-3.625 l -10,0 z" />
    <path
       style="fill:#e04613;fill-opacity:1;stroke:none"
       d="m 59,932.36218 c -1.414214,0 -2.619229,1.63801 -3,3 l -26,93.00002 -18,0 c -2.216,0 -4,1.784 -4,4 l 0,8 c 0,2.216 1.784,4 4,4 l 104,0 c 2.216,0 4,-1.784 4,-4 l 0,-8 c 0,-2.216 -1.784,-4 -4,-4 l -18,0 -26,-93.00002 c -0.380771,-1.36199 -1.585786,-3 -3,-3 l -10,0 z"
       id="rect3009"
       inkscape:connector-curvature="0" />
    <path
       style="fill:#e6e6e6;fill-opacity:1;stroke:none"
       d="M 50.125 32 L 43.40625 56 L 84.59375 56 L 77.875 32 L 50.125 32 z "
       transform="translate(0,924.36218)"
       id="rect3022" />
    <path
       style="fill:#e6e6e6;fill-opacity:1;stroke:none"
       d="M 36.71875 80 L 30 104 L 98 104 L 91.28125 80 L 36.71875 80 z "
       transform="translate(0,924.36218)"
       id="rect3024" />
  </g>
</svg>
