<?xml version="1.0" encoding="UTF-8" standalone="no"?>
<!-- Created with Inkscape (http://www.inkscape.org/) -->

<svg
   xmlns:dc="http://purl.org/dc/elements/1.1/"
   xmlns:cc="http://creativecommons.org/ns#"
   xmlns:rdf="http://www.w3.org/1999/02/22-rdf-syntax-ns#"
   xmlns:svg="http://www.w3.org/2000/svg"
   xmlns="http://www.w3.org/2000/svg"
   version="1.1"
   width="48"
   height="48"
   id="svg3304">
  <defs
     id="defs3306" />
  <metadata
     id="metadata3309">
    <rdf:RDF>
      <cc:Work
         rdf:about="">
        <dc:format>image/svg+xml</dc:format>
        <dc:type
           rdf:resource="http://purl.org/dc/dcmitype/StillImage" />
        <dc:title></dc:title>
      </cc:Work>
    </rdf:RDF>
  </metadata>
  <g
     id="layer1">
    <path
       d="M 24.03125,-5.3125 C 7.9180453,-5.3125 -5.3125,7.8719298 -5.3125,24 c 0,16.12807 13.2305444,29.312499 29.34375,29.3125 C 40.144457,53.3125 53.3125,40.111403 53.3125,24 53.3125,7.8885972 40.144456,-5.3125 24.03125,-5.3125 z M 17.1875,16.78125 16.71875,17.25 c 0.154703,-0.163958 0.303067,-0.315574 0.46875,-0.46875 z M 31.3125,30.75 c -0.154203,0.163977 -0.303545,0.315606 -0.46875,0.46875 L 31.3125,30.75 z"
       transform="matrix(0.8125583,0,0,0.8125583,4.4986015,4.4986015)"
       id="path2386"
       style="fill:#ffffff;fill-opacity:1;fill-rule:evenodd;stroke:none" />
    <path
       d="m 41.562368,24.072836 a 16.660395,16.660395 0 1 1 -33.3207889,0 16.660395,16.660395 0 1 1 33.3207889,0 z"
       transform="matrix(0.8125583,0,0,0.8125583,4.0416444,4.1634689)"
       id="path3784"
       style="fill:#ffffff;fill-opacity:1;fill-rule:nonzero;stroke:none" />
    <path
       d="M 24.013275,4.4986015 C 13.25055,4.4986015 4.4986015,13.232223 4.4986015,24 c 0,10.767778 8.7519485,19.501398 19.5146735,19.501398 C 34.776,43.501398 43.501398,34.767778 43.501398,24 43.501398,13.232222 34.776,4.4986015 24.013275,4.4986015 z m 0,7.1250035 c 2.062216,0 3.994132,0.513662 5.708374,1.398612 L 12.968235,29.673614 C 12.077864,27.96981 11.561055,26.049659 11.561055,24 c 0,-6.826591 5.583805,-12.376395 12.45222,-12.376395 z m 11.045039,6.702781 c 0.890372,1.703804 1.407181,3.623955 1.407181,5.673614 0,6.826591 -5.583805,12.376395 -12.45222,12.376395 -2.062216,0 -3.994132,-0.513663 -5.708374,-1.398612 L 35.058314,18.326386 z"
       id="path4768"
       style="fill:#e04613;fill-opacity:1;fill-rule:evenodd;stroke:none" />
  </g>
</svg>
