<?xml version="1.0" encoding="UTF-8" standalone="no"?>
<!-- Created with Inkscape (http://www.inkscape.org/) -->

<svg
   xmlns:dc="http://purl.org/dc/elements/1.1/"
   xmlns:cc="http://creativecommons.org/ns#"
   xmlns:rdf="http://www.w3.org/1999/02/22-rdf-syntax-ns#"
   xmlns:svg="http://www.w3.org/2000/svg"
   xmlns="http://www.w3.org/2000/svg"
   version="1.1"
   width="48"
   height="48"
   id="svg3465">
  <defs
     id="defs3467" />
  <metadata
     id="metadata3470">
    <rdf:RDF>
      <cc:Work
         rdf:about="">
        <dc:format>image/svg+xml</dc:format>
        <dc:type
           rdf:resource="http://purl.org/dc/dcmitype/StillImage" />
        <dc:title></dc:title>
      </cc:Work>
    </rdf:RDF>
  </metadata>
  <g
     id="layer1">
    <rect
       width="48"
       height="48"
       x="0"
       y="0"
       id="rect4928"
       style="fill:none;stroke:none" />
    <path
       d="M 24,4 C 17,4 12,8.1739046 12,15 l 0,6 -2,0 c -2,0 -3,1 -3,3 l 0,17 c 0,0.980326 1,3 3,3 l 29.384016,0 C 41,43.990546 42,41.980324 42,41 l 0,-17 c 0,-2 -1,-3.009454 -3,-3.009454 L 37,21 37,15 C 37,8 32,4 25,4 l -1,0 z m 0,5 1,0 c 7,0 7,6 7,8 l 0,4 -15,0 0,-4 c 0,-2 0,-8 7,-8 z"
       id="path4200"
       style="color:#000000;fill:#ffffff;fill-opacity:1;fill-rule:nonzero;stroke:#ffffff;stroke-width:8;stroke-linecap:butt;stroke-linejoin:miter;stroke-miterlimit:10;stroke-opacity:1;stroke-dasharray:none;stroke-dashoffset:0;marker:none;visibility:visible;display:block;overflow:visible" />
    <path
       d="M 24,4 C 17,4 12,8.1739046 12,15 l 0,6 -2,0 c -2,0 -3,1 -3,3 l 0,17 c 0,0.980326 1,3 3,3 l 29.384016,0 C 41,43.990546 42,41.980324 42,41 l 0,-17 c 0,-2 -1,-3.009454 -3,-3.009454 L 37,21 37,15 C 37,8 32,4 25,4 l -1,0 z m 0,5 1,0 c 7,0 7,6 7,8 l 0,4 -15,0 0,-4 c 0,-2 0,-8 7,-8 z"
       id="path2086"
       style="color:#000000;fill:#f08615;fill-opacity:1;fill-rule:nonzero;stroke:none;stroke-width:0.9999997;marker:none;visibility:visible;display:block;overflow:visible" />
  </g>
</svg>
