/* XPM */
static char * close_unfocused_xpm[] = {
"18 19 53 1",
" 	c None",
".	c #3E2D11",
"+	c #EDEAE2",
"@	c #6D5634",
"#	c #5E461D",
"$	c #60481F",
"%	c #5F481F",
"&	c #5E471E",
"*	c #5E481E",
"=	c #5D461D",
"-	c #5C451D",
";	c #5C441C",
">	c #CEC299",
",	c #5C451E",
"'	c #5B441D",
")	c #5A431B",
"!	c #59431C",
"~	c #453416",
"{	c #59441B",
"]	c #57411B",
"^	c #574119",
"/	c #55401A",
"(	c #554019",
"_	c #543F1A",
":	c #543F19",
"<	c #533E18",
"[	c #523D18",
"}	c #523D17",
"|	c #4F3B16",
"1	c #503B17",
"2	c #513E18",
"3	c #503B18",
"4	c #4F3C17",
"5	c #4D3A16",
"6	c #4E3916",
"7	c #4E3A15",
"8	c #4D3A15",
"9	c #4E3915",
"0	c #4C3915",
"a	c #4B3814",
"b	c #513E17",
"c	c #513C17",
"d	c #4B3915",
"e	c #4A3713",
"f	c #483413",
"g	c #473412",
"h	c #4B3813",
"i	c #4A3714",
"j	c #453212",
"k	c #412E0F",
"l	c #453211",
"m	c #493613",
"n	c #C2C1BF",
".................+",
"@@@@@@@@@@@@@@@@.+",
"#$$$$$$$$$$$$$$@.+",
"#%%&&&#%%&&&&&*@.+",
"=#====%&%&%&===@.+",
"--;;;->==,>=--'@.+",
")!!!!!~>'>~'{!!@.+",
"]]]]]])~>~!!]^^@.+",
"//((__^>~>]]/:/@.+",
"<[[<<[>~_~>_<}[@.+",
"||11||~}[2~2324@.+",
"5678690ab41c7|8@.+",
"0ad0a08efgaaa05@.+",
"hhihieajklmmdha@.+",
"@@@@@@@@@@@@@@@@.+",
".................+",
"nnnnnnnnnnnnnnnnn+",
"++++++++++++++++++",
"++++++++++++++++++"};
