/* XPM */
static char * close_xpm[] = {
"18 19 52 1",
" 	c None",
".	c #3E2D11",
"+	c #EDEAE2",
"@	c #6D5634",
"#	c #5E461D",
"$	c #60481F",
"%	c #5F481F",
"&	c #5E471E",
"*	c #5E481E",
"=	c #5D461D",
"-	c #5C451D",
";	c #5C441C",
">	c #5C451E",
",	c #5B441D",
"'	c #5A431B",
")	c #59431C",
"!	c #453416",
"~	c #59441B",
"{	c #57411B",
"]	c #574119",
"^	c #55401A",
"/	c #554019",
"(	c #543F1A",
"_	c #543F19",
":	c #533E18",
"<	c #523D18",
"[	c #523D17",
"}	c #4F3B16",
"|	c #503B17",
"1	c #513E18",
"2	c #503B18",
"3	c #4F3C17",
"4	c #4D3A16",
"5	c #4E3916",
"6	c #4E3A15",
"7	c #4D3A15",
"8	c #4E3915",
"9	c #4C3915",
"0	c #4B3814",
"a	c #513E17",
"b	c #513C17",
"c	c #4B3915",
"d	c #4A3713",
"e	c #483413",
"f	c #473412",
"g	c #4B3813",
"h	c #4A3714",
"i	c #453212",
"j	c #412E0F",
"k	c #453211",
"l	c #493613",
"m	c #C2C1BF",
".................+",
"@@@@@@@@@@@@@@@@.+",
"#$$$$$$$$$$$$$$@.+",
"#%%&&&#%%&&&&&*@.+",
"=#====%&%&%&===@.+",
"--;;;-+==>+=--,@.+",
"')))))!+,+!,~))@.+",
"{{{{{{'!+!)){]]@.+",
"^^//((]+!+{{^_^@.+",
":<<::<+!(!+(:[<@.+",
"}}||}}![<1!1213@.+",
"45675890a3|b6}7@.+",
"90c9097def00094@.+",
"gghghd0ijkllcg0@.+",
"@@@@@@@@@@@@@@@@.+",
".................+",
"mmmmmmmmmmmmmmmmm+",
"++++++++++++++++++",
"++++++++++++++++++"};
