/* XPM */
static char * menu_xpm[] = {
"196 16 137 2",
"  	c None",
". 	c #3E2D11",
"+ 	c #6D5634",
"@ 	c #60481F",
"# 	c #5F481F",
"$ 	c #604A1F",
"% 	c #614A20",
"& 	c #624A21",
"* 	c #523B18",
"= 	c #4E3716",
"- 	c #5E471E",
"; 	c #5E481E",
"> 	c #604920",
", 	c #543D19",
"' 	c #563F1A",
") 	c #5D461D",
"! 	c #5A431B",
"~ 	c #503917",
"{ 	c #4C3516",
"] 	c #4D3716",
"^ 	c #503B18",
"/ 	c #5C441C",
"( 	c #5E461D",
"_ 	c #624B22",
": 	c #523B17",
"< 	c #533C18",
"[ 	c #644C23",
"} 	c #4E3916",
"| 	c #58411A",
"1 	c #564019",
"2 	c #5A441B",
"3 	c #5B461C",
"4 	c #5F4820",
"5 	c #574119",
"6 	c #503A15",
"7 	c #503915",
"8 	c #543E18",
"9 	c #563F19",
"0 	c #4A3516",
"a 	c #5C461E",
"b 	c #4C3715",
"c 	c #59421B",
"d 	c #5D471E",
"e 	c #5C451D",
"f 	c #513C18",
"g 	c #4A3515",
"h 	c #5C451E",
"i 	c #59441B",
"j 	c #57411B",
"k 	c #5E461E",
"l 	c #584119",
"m 	c #503B17",
"n 	c #4A3414",
"o 	c #57421B",
"p 	c #5A431C",
"q 	c #4B3715",
"r 	c #5B441D",
"s 	c #4A3513",
"t 	c #5D481F",
"u 	c #493414",
"v 	c #553E1A",
"w 	c #523D18",
"x 	c #4D3916",
"y 	c #5B451E",
"z 	c #473414",
"A 	c #473213",
"B 	c #59431C",
"C 	c #554019",
"D 	c #59441C",
"E 	c #453112",
"F 	c #543F19",
"G 	c #483413",
"H 	c #483314",
"I 	c #4C3915",
"J 	c #483313",
"K 	c #473314",
"L 	c #463113",
"M 	c #57421C",
"N 	c #55401A",
"O 	c #513C17",
"P 	c #523D17",
"Q 	c #4A3714",
"R 	c #433012",
"S 	c #4F3B16",
"T 	c #422F11",
"U 	c #453212",
"V 	c #442F12",
"W 	c #432F12",
"X 	c #533E18",
"Y 	c #543F1A",
"Z 	c #523E17",
"` 	c #412E12",
" .	c #534019",
"..	c #4E3A15",
"+.	c #4B3816",
"@.	c #433011",
"#.	c #4F3C17",
"$.	c #4E3915",
"%.	c #4D3A15",
"&.	c #412E11",
"*.	c #402D10",
"=.	c #513E18",
"-.	c #3F2C0F",
";.	c #412E0F",
">.	c #402D12",
",.	c #3F2D11",
"'.	c #493614",
").	c #4B3814",
"!.	c #4A3713",
"~.	c #3E2B10",
"{.	c #443111",
"].	c #4F3C18",
"^.	c #4F3B18",
"/.	c #473412",
"(.	c #513E17",
"_.	c #3D2C0F",
":.	c #3E2C10",
"<.	c #3D2B10",
"[.	c #453211",
"}.	c #442F11",
"|.	c #493613",
"1.	c #3B2A0F",
"2.	c #4D3A16",
"3.	c #3C2A0F",
"4.	c #3C290F",
"5.	c #3C2910",
"6.	c #4B3813",
"7.	c #3C2A10",
"8.	c #402D0F",
"9.	c #4B3915",
"0.	c #463311",
"a.	c #39280E",
"b.	c #3B290E",
"c.	c #3E2B0F",
"d.	c #39280D",
"e.	c #3A280D",
"f.	c #38270D",
". . . . . . . . . . . . . . . . . . . . . . . . . . . . . . . . . . . . . . . . . . . . . . . . . . . . . . . . . . . . . . . . . . . . . . . . . . . . . . . . . . . . . . . . . . . . . . . . . . . . . . . . . . . . . . . . . . . . . . . . . . . . . . . . . . . . . . . . . . . . . . . . . . . . . . . . . . . . . . . . . . . . . . . . . . . . . . . . . . . . . . . . . . . . . . . . . . . . ",
"+ + + + + + + + + + + + + + + + + + + + + + + + + + + + + + + + + + + + + + + + + + + + + + + + + + + + + + + + + + + + + + + + + + + + + + + + + + + + + + + + + + + + + + + + + + + + + + + + + + + + + + + + + + + + + + + + + + + + + + + + + + + + + + + + + + + + + + + + + + + + + + + + + + + + + + + + + + + + + + + + + + + + + + + + + + + + + + + + + + + + + + + + + + + + + + + + + + + + ",
"@ @ @ @ # @ $ $ $ @ @ @ % @ # @ $ $ % & * = - ; ; - - @ $ $ @ @ @ @ @ @ @ @ @ @ @ @ @ @ @ @ @ @ @ @ @ @ $ $ $ $ $ $ $ $ $ $ $ $ # # # # # # # # # # # # # @ > % @ , , ' ) % % $ % $ $ # ; ! ~ { ] ' & # $ # $ @ > @ * ^ ] / % # @ $ @ # $ % # $ $ @ $ @ ( - @ $ $ # $ - _ - : < & [ ' ] ] , _ # $ $ $ $ $ @ > % < ] ~ ] } , > $ $ % & ' = { ] ~ ^ ~ } } ] ~ ' ) [ % % % % # - _ | ' _ > > > > $ > > > > ",
"# # - - # - # # # - ; > ; - - - ; # - $ , { 1 ! 2 3 - # # # - - - - - - - # - - - - - - - - # # - - - # - - - - - - - - - - - - - - - - - - - ; ; ; ; ; ; - - # 4 > 5 * 6 7 8 | ) 4 > # ) % 9 = 0 } a > - ; $ ( ; % 9 { b c % - ; d - @ - # ) e # # - ( 2 - - ; ; # ; $ a % e } : $ e ] b ~ % ) # # # ; ; # 4 > f g ] ] { < # ! ; % , ] { { b } ^ , | h i ' < < ' c j c ! j | $ < c $ ; # # 4 # 4 # 4 4 ",
") ) ) - d ) ) d ) ) ) ) ) k # k ) ) k ; 9 g f ! l , / - - - ) ) ) h ( ) ) ) ) ( ) ( ) k ) ) h ) ) ) k ) ) ) ) ) ) ) ) ) ) ) ) ) ) ) ) ) ) ) ) ) ) ) ) ) ) ) ) ) ) ) - - e 8 m } b ~ l 4 4 ) , ] g n < ; ) ) ) ) d - h = n 5 # ) d ) ) ) d ) o / - k ) 2 5 - d k ) ) d d d ) > p q < 4 b g ] r - d ) ) d ) ) d # ^ 0 g { s < t 2 # ^ 0 u b 8 c / # > - 4 > 4 e 1 v | | | 5 l / e ~ 3 4 d d k - d t - - - ",
"e e ) 3 / / e r r 2 i 5 p e ) e e e e 2 1 n g | - f w ) 3 e / e / r / r e e r e r r / e / e e r e r e e e e e e e e / / / / / / e e e e e e e 3 3 3 3 3 3 / e e r e p c r e a r v x g } i r } g g u n 5 ) 3 2 e y / # } n 1 a e e 3 e ! d l w e r h e 1 : ! a 3 3 e ) / ) ) / - 9 u j } u z < t e 3 ) e e 3 e ( } u u u z ^ , 8 ~ u A { 9 a # - e ) r e e a a 2 j ( d 3 i e ) 5 x a a y e a h e a h h h ",
"i B B B B p i B B i 5 9 C C o 2 ! D B c 1 s E q j 1 8 B D B B c p B i B p B i B B B B B B B c B B B B B o o o o o o B B B B B B ! ! ! ! ! ! ! B B B B B B i B i B 2 i F < : 8 a y d < G H I g 7 u A E b 3 3 c 2 B c p u J o 2 i B 2 i a | ~ w c o D B C ~ v r B D 2 r B c B B D y q b m A A { y B 2 i B i D i 3 { A H K L 7 = s E A u < a r B B p p 2 D D p e r | p D 2 B B B f b y r i r e D D B 2 D i ",
"j o 5 j M | o o j M o o N O P o o 5 j | M Q L R A S r 1 o j j j 5 j j j j j 5 5 j j 5 j j 5 5 5 5 j 5 5 5 5 5 5 5 5 o o o o o o 5 5 5 5 5 5 5 j j j j j j o 5 j 5 C w : O ] G ] m = b H A A T { g R R U O B o o 5 i 8 E G o o 5 j 5 o B O m 5 o o 5 5 1 } O B j j 1 | 5 j o 5 o B f E q L E A 1 B o o j o o o i n R E L V g u W R E f e j 5 M 1 M j o o o o j o o o 5 j o o | ] b D M o 5 o o o M o j o ",
"j C C F F X X C C N Y C j b x C 5 Z X 1 o Q T T ` U  .C N N Y C Y F F F Y N N F C C F C Y F N N Y F F 8 N N N N N N Y Y Y Y Y Y 8 8 8 8 8 8 8  . . . . . .C F 1 O 7 ..} } 7 b s s I u b 5 : K W W W R T A 1 C  . .5 } ` G j C N C C M } s N 5 Y 8 8 1 j ..+.j C F 1 8 j N C N N N 5 J @.E T T S j C C Y C C N 5 K @.T W R ` T W R S j N N N C N Y N N  . .N N N C Y N N F F 1 K b 5 N C  .N  . .1 C N N ",
"I } w X w S ..} #.f Z Z X } J S F $.%.P X $.` &.*.&.%. .w w w w , w w w w w w =.w , w w w I P X w w P w w w w w w w w w w w w w w w w w w w w w w w w w w w P f S X X X Y C  .Y 1 O Q 8 X Z F q T -.&.*.;.g N =.w  .J *.J 1 w w w N g A w N w X w P w 8 b s Y w w =.=.w Z w w w w X S *.&.>.*.J N w X =.Z P X Y R *.*.` &.` ,.` 7 C N X w X X X =.=. .X Z w w X w w w w X Z =.@.I Y X Z X X X X X X X  .",
"Q Q '.G ).#.=.I G Q S S =.S I J S Z !.#.w m ,.~.,.&.{.=.#.].^.m m m ^ ].^ S ].S S #.^ ^ ^.$.} f m ^ S ^ #.#.#.#.#.#.S S S S S S S S S S S S S S S S S S S m ^ S ..m ^.#.S S S S S /.%.f S (.Z O Q W ~.-._.&.S O S (.T :.s =.#.w  .J E b #.%.#.#.O #.#.P !.J (.(.#.#.#.^.#.#.m m m (.#.R <.-.~.&.m #.=.O #.S Z $.*.<.-.-.. :.*.Q w O (.S #.^.f O m S S =.#.(.#.#.=.S (.O f #.#.&.S (.f f (.O O (.O (.(.#.",
"$.$.I !.[.R ).#.J @.%.%.%.S #.J }.S |.b %.#.&.1.-.@.R ....2...2...2...2.....} 2.$.....x } %.G ..%...2...%.%.%.%.%.%.$.$.$.$.$.$.2.2.2.2.2.2.2.} } } } } } } S S } #.#.} $...S ..%.U 2.%...$.)...} ).&.3.3.4.E #.S x 3.3.I #.#.b T _.{.@.U Q S #.2.2.2.S /.{.#.S %...%.%...$.} %.} %.#.q <.5._.3.6.#.S #.%.2.O E 1.3.7.3.3.1.T #...2.$.2...} S ..} ..S 2.....$...#.S #.} I #.].-.S S S S S S S S S S ..#.",
").).Q /.T @.8.E /.@.).9.%.).I #.;.{.[.0.)...T a.3.@.U q +.).+.I +.).).).).I ).I ).).).).I ).0.).).Q %.).+.+.+.+.+.+.+.+.+.+.+.+.).).).).).).).).).).).).).).).I I ).).I ).).I ).).Q ).I %.).|.).I %.|.3.b.b.3.s S [.1.c.2.+.;._.-.@.[.&.*.*.U /./.!.).%.E T 2.).).).).).).).).).I ).I 2.*.b.b.b.@...).2.).%.I -.a.b.1.b.1.3.).2.).I +.%.%.2.%.+.).2.).).I I I I I I ).%.S I [.-.2.%.%.%.x %.%.x I %.x I ",
"Q Q s G /.T ;.3.3.c.8.%.I I Q 9.G -.;.0.I %.@.d.e.<.!.%.!.!.!.Q !.6.).Q !.Q Q !.!.Q !.!.!.Q /.G '.U !.Q Q Q Q Q Q Q !.!.!.!.!.!.Q Q Q Q Q Q Q Q Q Q Q Q Q !.!.!.Q Q ).Q !.).!.!.Q Q Q b ).Q !.!.!.6.x :.d.d.f.*.2.*.f.:.{.3.3.0.#.I Q x /.@.U 0.Q G Q ).{.8.b Q Q !.Q Q Q !.!.Q Q 6.!.I /.b.d.d.3.I Q !.).I /.b.a.d.a.d.d.T ..9.).9.q ).q b !.!.6.q ).q 9.).!.Q ).9.2.!.&.1.d._.2.).).I Q Q 9.q b 9.9.9.",
"+ + + + + + + + + + + + + + + + + + + + + + + + + + + + + + + + + + + + + + + + + + + + + + + + + + + + + + + + + + + + + + + + + + + + + + + + + + + + + + + + + + + + + + + + + + + + + + + + + + + + + + + + + + + + + + + + + + + + + + + + + + + + + + + + + + + + + + + + + + + + + + + + + + + + + + + + + + + + + + + + + + + + + + + + + + + + + + + + + + + + + + + + + + + + + + + + + + + + ",
". . . . . . . . . . . . . . . . . . . . . . . . . . . . . . . . . . . . . . . . . . . . . . . . . . . . . . . . . . . . . . . . . . . . . . . . . . . . . . . . . . . . . . . . . . . . . . . . . . . . . . . . . . . . . . . . . . . . . . . . . . . . . . . . . . . . . . . . . . . . . . . . . . . . . . . . . . . . . . . . . . . . . . . . . . . . . . . . . . . . . . . . . . . . . . . . . . . . "};
