/* XPM */
static char * min_pressed_xpm[] = {
"18 19 52 1",
" 	c None",
".	c #3E2D11",
"+	c #6D5634",
"@	c #5E461D",
"#	c #60481F",
"$	c #5F481F",
"%	c #5E471E",
"&	c #5E481E",
"*	c #5D461D",
"=	c #5C451D",
"-	c #5C441C",
";	c #59431C",
">	c #BBAB72",
",	c #5C451E",
"'	c #5B441D",
")	c #5A431B",
"!	c #57411B",
"~	c #453416",
"{	c #59441B",
"]	c #543F1A",
"^	c #574119",
"/	c #55401A",
"(	c #554019",
"_	c #523D18",
":	c #543F19",
"<	c #533E18",
"[	c #4F3B16",
"}	c #523D17",
"|	c #503B17",
"1	c #4E3915",
"2	c #503B18",
"3	c #513E18",
"4	c #4F3C17",
"5	c #4D3A16",
"6	c #4E3916",
"7	c #4E3A15",
"8	c #4D3A15",
"9	c #4C3915",
"0	c #4B3814",
"a	c #513E17",
"b	c #4B3915",
"c	c #4A3713",
"d	c #483413",
"e	c #473412",
"f	c #4B3813",
"g	c #4A3714",
"h	c #453212",
"i	c #412E0F",
"j	c #453211",
"k	c #493613",
"l	c #C2C1BF",
"m	c #EDEAE2",
"..................",
"++++++++++++++++++",
"@#################",
"@$$%%%@$$%%%%%%%&&",
"*@***=@$$%%%******",
"==---;>*=,>%====''",
");;;;!~>=>~*{;{;;;",
"!!!!!]>~>~>'!^!^^^",
"//((]_~>~>~;/:/://",
"<__<<[_~>~/!<}<}__",
"[[||[1||~||[232344",
"56786590a4|37[7[88",
"90b9098cde00090955",
"ffgfgc0hijkkbfbf00",
"++++++++++++++++++",
"..................",
"llllllllllllllllll",
"mmmmmmmmmmmmmmmmmm",
"mmmmmmmmmmmmmmmmmm"};
