/* XPM */
static char * stick_xpm[] = {
"18 19 70 1",
" 	c None",
".	c #EDEAE2",
"+	c #3E2D11",
"@	c #6D5634",
"#	c #60481F",
"$	c #604A1F",
"%	c #614A20",
"&	c #5E481E",
"*	c #5D481F",
"=	c #5F481F",
"-	c #5E471E",
";	c #5E461D",
">	c #604920",
",	c #5E461E",
"'	c #5D461D",
")	c #5D471E",
"!	c #5B461C",
"~	c #5C451D",
"{	c #5C441C",
"]	c #5B441D",
"^	c #5A441B",
"/	c #59441B",
"(	c #574119",
"_	c #5A431C",
":	c #59431C",
"<	c #563F19",
"[	c #554019",
"}	c #57411B",
"|	c #57421B",
"1	c #57421C",
"2	c #58411A",
"3	c #55401A",
"4	c #564019",
"5	c #543F19",
"6	c #533E18",
"7	c #543F1A",
"8	c #513C17",
"9	c #4E3A15",
"0	c #4C3915",
"a	c #4E3916",
"b	c #523D18",
"c	c #4F3B16",
"d	c #4F3C17",
"e	c #513C18",
"f	c #523E17",
"g	c #4C3715",
"h	c #4B3715",
"i	c #4A3714",
"j	c #493614",
"k	c #483413",
"l	c #4B3814",
"m	c #513E18",
"n	c #4E3915",
"o	c #4A3713",
"p	c #453211",
"q	c #433012",
"r	c #483313",
"s	c #433011",
"t	c #4D3A15",
"u	c #4D3916",
"v	c #473412",
"w	c #422F11",
"x	c #402D0F",
"y	c #453112",
"z	c #4B3915",
"A	c #4A3513",
"B	c #412E0F",
"C	c #3C2A0F",
"D	c #3E2B0F",
"E	c #C2C1BF",
".+++++++++++++++++",
".+@@@@@@@@@@@@@@@@",
".+@##########$###%",
".+@&*==--==;-=-&>&",
".+@,''''-)'')'''''",
".+@!~~~'!{{~]]^/(_",
".+@_:/::::_/::/(<[",
".+@}|}|(}12||}1||3",
".+@4[}[[5566[[37[}",
".+@890ab6bc9adeff6",
".+@ghiijkldm0kiccm",
".+@9cnn0opqldrsttt",
".+@tullivwsxyvslzt",
".+@liiiAkvwBCCDxt0",
".+@@@@@@@@@@@@@@@@",
".+++++++++++++++++",
".EEEEEEEEEEEEEEEEE",
"..................",
".................."};
