/* XPM */
static char * toolbar_focused_xpm[] = {
"66 17 26 1",
" 	c None",
".	c #57441E",
"+	c #3F2A11",
"@	c #392805",
"#	c #6E5234",
"$	c #694A1D",
"%	c #6A4B1E",
"&	c #694B1F",
"*	c #6B4C1F",
"=	c #6C4B20",
"-	c #6C4D20",
";	c #6F4D21",
">	c #6D4C21",
",	c #6E4F22",
"'	c #6F4E23",
")	c #705022",
"!	c #704F24",
"~	c #715123",
"{	c #725224",
"]	c #735325",
"^	c #745426",
"/	c #745226",
"(	c #755527",
"_	c #775627",
":	c #785728",
"<	c #795829",
"..................................................................",
"+++++++++++++++++++++++++++++++++++++++++++@@@@@@@@@@@@@@@@@@@@@@@",
"##################################################################",
"$$$$$$$$$$$$$$$$$$$$$$$$$$$$$$$$$$$$$$$$$$$$$$$$$$$$$$$$$$$$$$$$$$",
"%%%%%%%%%%%&$%%%%%%%%%%%%%&%%%%%%%%&$%%%%%%%%%%%%%%%&%%%%%%%%%%%&$",
"************%%**********************%%***************************%",
"===========-***===========-========-***=============-===========-*",
";;;;;;;;;;;>===;;;;;;;;;;;>;;;;;;;;>===;;;;;;;;;;;;;>;;;;;;;;;;;>=",
",,,,,,,,,,,');;,,,,,,,,');;,,,,,,,,');;,,,,,,,,'););;,,,,,,,,,,,')",
"!!!!!!!!!!!~!,,!!!!!!!!~!,,!!!!!!!!~!,,!!!!!!!!~!,!,,!!!!!!!!!!!~!",
"{{{{{{{{{{{]{!!{{{{{{{{]{!!{{{{{{{{]{!!{{{{{{{{]{!{!!{{{{{{{{{{{]{",
"^^^^^^^^^^^/^{{^^^^^^^^/^{{^^^^^^^^/^{{^^^^^^^^/^{^{{^^^^^^^^^^^/^",
"((((((((((((_^^(((((((((_^^(((((((((_^^(((((((((_^^^^((((((((((((_",
"::::::::::::(((:::::::::(((:::::::::(((:::::::::(((((::::::::::::(",
"<<<<<<<<<<<<:::<<<<<<<<<:::<<<<<<<<<:::<<<<<<<<<:::::<<<<<<<<<<<<:",
"##################################################################",
"@@@@@@@+++++++++++++++++++++++++@@@@@@@@@++++++++++@@@@@@@@++@++@@"};
