/* XPM */
static char * toolbar_xpm[] = {
"59 17 70 1",
" 	c None",
".	c #56431C",
"+	c #56431D",
"@	c #55431D",
"#	c #3F2A11",
"$	c #54421C",
"%	c #54421D",
"&	c #55421C",
"*	c #55411C",
"=	c #54411C",
"-	c #55411D",
";	c #54411B",
">	c #53411C",
",	c #53421B",
"'	c #54421B",
")	c #53411B",
"!	c #53401B",
"~	c #54401B",
"{	c #54401C",
"]	c #53401C",
"^	c #52401A",
"/	c #52401B",
"(	c #53411A",
"_	c #53401A",
":	c #523F1B",
"<	c #523F1A",
"[	c #513F1A",
"}	c #51401A",
"|	c #51401B",
"1	c #513F1B",
"2	c #513F19",
"3	c #513E1A",
"4	c #523F19",
"5	c #513E19",
"6	c #503F1A",
"7	c #503E19",
"8	c #503E1A",
"9	c #503F19",
"0	c #4F3E19",
"a	c #4F3D18",
"b	c #503D18",
"c	c #503D19",
"d	c #503E18",
"e	c #4F3D19",
"f	c #4F3E18",
"g	c #4E3D18",
"h	c #4E3C18",
"i	c #4F3C18",
"j	c #4F3C17",
"k	c #4E3C17",
"l	c #4D3C18",
"m	c #4E3B17",
"n	c #4D3C17",
"o	c #4D3B18",
"p	c #4D3B17",
"q	c #4C3B17",
"r	c #4C3C17",
"s	c #4C3B16",
"t	c #4C3A17",
"u	c #4D3B16",
"v	c #4C3A16",
"w	c #4B3A16",
"x	c #4B3B16",
"y	c #4B3A15",
"z	c #4A3916",
"A	c #4B3915",
"B	c #4A3A16",
"C	c #4A3915",
"D	c #4B3916",
"E	c #4A3A15",
"...........................+++++++++++++++.+++@+@+++.@+++@.",
"###########################################################",
"$$%&&&&&&&&&$&&&$&&&&*%$=&$&&&$&*$$$&$&==-&&&&&$=$$$&$$$&$$",
"$;$$==$>;$==$;,==';=;;)''=')>=>==);=;);==;;;=;=>=$=;=;=)$;>",
"!~{!)!;!))>;);))))!)))]))))))!!!)!!!)])!))!)))>!~])!!>!))))",
"^!/!/)(/_!//^_/!!//^__!!!/^//^^/^!^_!/_/!//://^!_!/^^^!/^!/",
"<^<<<^:<:^<<<^<[}<[<}<<<^/}}<<^^|<^<^/[[<<^^1}<<[<<}^[<:1<[",
"<22[[[22222[[[34[[[[[323[[222[[[2[[2[[535[[63[2[333[[7[[2[[",
"78738755262923675927[577727387575778[9777775777785885837776",
"700770777a0000070bc7c0de7e00cc77e07fcd00ccaec0c700d0dcd0d70",
"aea0aaafaaafaaafaaaaaaaaefaaggaageeggefaagaeaageaaaaaaaagga",
"hgihgjhghhhhhghiigghihhgghghhghhhgkhgghkkghghhhhhhghaggkhhh",
"lkllkkkkmkkkknhknnnnnnknknnnhknnonookknnknkkonnopllnnknhlll",
"nppqqpppnnpppqpqnprnpsrrpnnqspnnppspppppqppqqppqqqrqqqpqnqp",
"sttqusupsqsqsvtqvqqsssqqssqvtvqqsssqqvvqqwqqtstvqsqqsvssvsv",
"#vvvxvvwvwxwwswwwwxwvwvwwswwwwvxvvwxwvwxwwwwxwwwwwwwvywvwwv",
"wwzwwyzwyyABwCAACDwyByEEyCECACBwyCDEwBBywAECEEzDzAEwEzwCABz"};
