<?xml version="1.0" encoding="UTF-8" standalone="no"?>
<!-- Created with Inkscape (http://www.inkscape.org/) -->

<svg
   xmlns:dc="http://purl.org/dc/elements/1.1/"
   xmlns:cc="http://creativecommons.org/ns#"
   xmlns:rdf="http://www.w3.org/1999/02/22-rdf-syntax-ns#"
   xmlns:svg="http://www.w3.org/2000/svg"
   xmlns="http://www.w3.org/2000/svg"
   xmlns:xlink="http://www.w3.org/1999/xlink"
   xmlns:sodipodi="http://sodipodi.sourceforge.net/DTD/sodipodi-0.dtd"
   xmlns:inkscape="http://www.inkscape.org/namespaces/inkscape"
   width="128"
   height="128"
   id="svg2"
   sodipodi:version="0.32"
   inkscape:version="0.48.3.1 r9886"
   version="1.0"
   sodipodi:docname="application-vnd.oasis.opendocument.database.svg"
   inkscape:output_extension="org.inkscape.output.svg.inkscape">
  <defs
     id="defs4">
    <linearGradient
       inkscape:collect="always"
       id="linearGradient4132">
      <stop
         style="stop-color:#f2f2f2;stop-opacity:1;"
         offset="0"
         id="stop4134" />
      <stop
         style="stop-color:#f2f2f2;stop-opacity:0;"
         offset="1"
         id="stop4136" />
    </linearGradient>
    <linearGradient
       inkscape:collect="always"
       id="linearGradient3155">
      <stop
         style="stop-color:#303030;stop-opacity:1;"
         offset="0"
         id="stop3157" />
      <stop
         style="stop-color:#303030;stop-opacity:0;"
         offset="1"
         id="stop3159" />
    </linearGradient>
    <linearGradient
       inkscape:collect="always"
       id="linearGradient6067">
      <stop
         style="stop-color:#ffffff;stop-opacity:1;"
         offset="0"
         id="stop6069" />
      <stop
         style="stop-color:#ffffff;stop-opacity:0;"
         offset="1"
         id="stop6071" />
    </linearGradient>
    <linearGradient
       inkscape:collect="always"
       id="linearGradient3142">
      <stop
         style="stop-color:#303030;stop-opacity:1;"
         offset="0"
         id="stop3144" />
      <stop
         style="stop-color:#303030;stop-opacity:0;"
         offset="1"
         id="stop3146" />
    </linearGradient>
    <linearGradient
       inkscape:collect="always"
       xlink:href="#linearGradient3142"
       id="linearGradient3148"
       x1="92.804863"
       y1="75.855133"
       x2="92.804863"
       y2="110.71667"
       gradientUnits="userSpaceOnUse"
       gradientTransform="matrix(1.6258627,0,0,1.6258627,-28.787153,-52.145846)" />
    <linearGradient
       inkscape:collect="always"
       xlink:href="#linearGradient6067"
       id="linearGradient6073"
       x1="29.731594"
       y1="96.211563"
       x2="29.731594"
       y2="119.78299"
       gradientUnits="userSpaceOnUse" />
    <linearGradient
       inkscape:collect="always"
       xlink:href="#linearGradient3155"
       id="linearGradient3161"
       x1="100.75668"
       y1="85.389313"
       x2="100.75668"
       y2="124.82345"
       gradientUnits="userSpaceOnUse" />
    <linearGradient
       inkscape:collect="always"
       xlink:href="#linearGradient4132"
       id="linearGradient4138"
       x1="96.899597"
       y1="-101.65641"
       x2="96.899597"
       y2="-115.67227"
       gradientUnits="userSpaceOnUse"
       gradientTransform="translate(-2.2728432,0)" />
    <linearGradient
       x1="1322.0002"
       y1="-1568.5111"
       x2="1419.0002"
       y2="-1568.5111"
       id="linearGradient21875"
       xlink:href="#linearGradient8663"
       gradientUnits="userSpaceOnUse"
       gradientTransform="translate(0.022825,4.5e-5)" />
    <linearGradient
       id="linearGradient8663">
      <stop
         id="stop8665"
         style="stop-color:#9207a7;stop-opacity:1"
         offset="0" />
      <stop
         id="stop8667"
         style="stop-color:#c658bc;stop-opacity:1"
         offset="0.27254906" />
      <stop
         id="stop8669"
         style="stop-color:#a42eb6;stop-opacity:1"
         offset="0.50966245" />
      <stop
         id="stop8671"
         style="stop-color:#b415cd;stop-opacity:1"
         offset="0.83376038" />
      <stop
         id="stop8673"
         style="stop-color:#950ba8;stop-opacity:1"
         offset="1" />
    </linearGradient>
  </defs>
  <sodipodi:namedview
     id="base"
     pagecolor="#ffffff"
     bordercolor="#666666"
     borderopacity="1.0"
     inkscape:pageopacity="0.0"
     inkscape:pageshadow="2"
     inkscape:zoom="5.6"
     inkscape:cx="23.65647"
     inkscape:cy="53.791169"
     inkscape:document-units="px"
     inkscape:current-layer="layer1"
     showgrid="true"
     width="128px"
     height="128px"
     showguides="true"
     inkscape:guide-bbox="true"
     inkscape:window-width="1598"
     inkscape:window-height="879"
     inkscape:window-x="0"
     inkscape:window-y="0"
     inkscape:window-maximized="1" />
  <metadata
     id="metadata7">
    <rdf:RDF>
      <cc:Work
         rdf:about="">
        <dc:format>image/svg+xml</dc:format>
        <dc:type
           rdf:resource="http://purl.org/dc/dcmitype/StillImage" />
        <dc:title></dc:title>
      </cc:Work>
    </rdf:RDF>
  </metadata>
  <g
     inkscape:label="Livello 1"
     inkscape:groupmode="layer"
     id="layer1">
    <path
       style="fill:#ffffff;fill-opacity:1;stroke:none;stroke-width:0.2;stroke-linecap:round;stroke-linejoin:round;stroke-miterlimit:4;stroke-dashoffset:0;stroke-opacity:1"
       d="M 29.608158,13.050443 L 76.889382,13.029757 L 103.95139,39.997783 L 103.85343,109.41071 C 103.85343,112.49069 101.37387,114.97024 98.293882,114.97024 L 29.608158,114.97024 C 26.528167,114.97024 24.04861,112.49069 24.04861,109.41071 L 24.04861,18.609988 C 24.04861,15.530002 26.528167,13.050443 29.608158,13.050443 z "
       id="path3275"
       sodipodi:nodetypes="ccccccccc" />
    <path
       style="fill:#303030;fill-opacity:1;stroke:none;stroke-width:0.2;stroke-linecap:round;stroke-linejoin:round;stroke-miterlimit:4;stroke-dashoffset:0;stroke-opacity:1"
       d="M 34.094051,19.696034 L 75.208158,19.678046 L 98.740339,43.128503 L 98.655158,103.48757 C 98.655158,106.16582 96.499016,108.32195 93.820767,108.32195 L 34.094051,108.32195 C 31.415798,108.32195 29.259661,106.16582 29.259661,103.48757 L 29.259661,24.530421 C 29.259661,21.852172 31.415798,19.696034 34.094051,19.696034 z "
       id="rect2162"
       sodipodi:nodetypes="ccccccccc" />
    <text
       xml:space="preserve"
       style="font-size:12px;font-style:normal;font-weight:normal;text-align:end;text-anchor:end;fill:#f2f2f2;fill-opacity:1;stroke:none;font-family:Bitstream Vera Sans"
       x="94.76693"
       y="103.28417"
       id="text8053"><tspan
         sodipodi:role="line"
         id="tspan8055"
         x="94.76693"
         y="103.28417">ODF</tspan></text>
    <g
       transform="translate(1.1917291e-5,4.3049968e-7)"
       id="g3004">
      <path
         inkscape:connector-curvature="0"
         id="flowRoot3909"
         d="m 37.541016,51.772652 -1.03125,0 0.09375,-0.345703 1.042968,0 c 0.257811,-1.019526 0.60742,-1.796868 1.048828,-2.332031 0.44531,-0.535149 0.958982,-0.802727 1.541016,-0.802735 0.30859,8e-6 0.550777,0.05665 0.726563,0.169922 0.179682,0.109383 0.269526,0.259773 0.269531,0.451172 -5e-6,0.117195 -0.03711,0.212898 -0.111328,0.28711 -0.07422,0.07422 -0.167974,0.111334 -0.28125,0.111328 -0.08594,6e-6 -0.158208,-0.01562 -0.216797,-0.04687 -0.0586,-0.03515 -0.125004,-0.105462 -0.199219,-0.210938 l -0.02344,-0.0293 c -0.171879,-0.24218 -0.365238,-0.363274 -0.580079,-0.363281 -0.277346,7e-6 -0.519534,0.177742 -0.726562,0.533203 -0.203128,0.355475 -0.457034,1.099615 -0.761719,2.232422 l 1.078125,0 -0.09375,0.345703 -1.083984,0 -0.632813,2.414063 c -0.402344,1.539063 -0.835938,2.679686 -1.300781,3.421875 -0.468749,0.742185 -0.982421,1.113278 -1.541016,1.113281 -0.273435,-3e-6 -0.490232,-0.06055 -0.65039,-0.181641 -0.160154,-0.11719 -0.240232,-0.273439 -0.240234,-0.46875 2e-6,-0.113283 0.03125,-0.201173 0.09375,-0.263672 0.0586,-0.0625 0.138674,-0.09375 0.240234,-0.09375 0.08203,-1e-6 0.150393,0.01758 0.205078,0.05273 0.05078,0.03515 0.115236,0.121092 0.193359,0.257812 0.07422,0.128904 0.14844,0.216795 0.222657,0.263672 0.07422,0.04687 0.16797,0.07031 0.28125,0.07031 0.257813,-3e-6 0.484375,-0.177737 0.679687,-0.533203 0.195313,-0.355471 0.4375,-1.06836 0.726563,-2.138672 l 1.03125,-3.914063"
         style="fill:#ffffff;fill-opacity:1;font-family:Caslon540 BT"
         transform="matrix(3.9528541,0,0,3.9528541,-91.914882,-151.96399)" />
      <path
         inkscape:connector-curvature="0"
         id="flowRoot3917"
         d="m 54.619141,34.737496 c -0.695317,0.285164 -1.300785,0.740241 -1.816407,1.365234 -0.515627,0.625006 -0.968752,1.455083 -1.359375,2.490235 -0.23047,0.613284 -0.408204,1.244143 -0.533203,1.892578 -0.125001,0.648439 -0.187501,1.265626 -0.1875,1.851562 -10e-7,0.472656 0.05469,0.927734 0.164063,1.365235 0.109374,0.441404 0.279295,0.873044 0.509765,1.294922 l -0.228515,0 c -0.320314,-0.58594 -0.558595,-1.156252 -0.714844,-1.710938 -0.156251,-0.550781 -0.234375,-1.103515 -0.234375,-1.658203 0,-0.749998 0.09766,-1.498045 0.292969,-2.244141 0.199218,-0.749996 0.480467,-1.445308 0.84375,-2.085937 0.394529,-0.683588 0.857419,-1.249994 1.388672,-1.699219 0.535152,-0.453118 1.160152,-0.808586 1.875,-1.066406 l 0,0.205078 m 0.0059,7.007812 c -0.214844,0.250001 -0.402344,0.439454 -0.5625,0.56836 -0.15625,0.125 -0.28125,0.1875 -0.375,0.1875 -0.08984,0 -0.15625,-0.03125 -0.199219,-0.09375 -0.04297,-0.06641 -0.06445,-0.162109 -0.06445,-0.28711 0,-0.343749 0.03906,-0.662108 0.117188,-0.955078 0.07813,-0.292967 0.154297,-0.439451 0.228515,-0.439453 0.02734,2e-6 0.04687,0.01758 0.05859,0.05273 0.01563,0.03125 0.02344,0.07422 0.02344,0.128906 0,0.05859 -0.002,0.125001 -0.0059,0.199219 -0.0039,0.07031 -0.0098,0.144532 -0.01758,0.222656 l -0.02344,0.36914 0,0.04687 c -10e-7,0.07031 0.0078,0.123048 0.02344,0.158204 0.01953,0.03125 0.04883,0.04687 0.08789,0.04687 0.03906,0 0.103515,-0.03906 0.193359,-0.117188 0.09375,-0.07812 0.208984,-0.195312 0.345703,-0.351562 l 1.101563,-1.271485 c 0.03906,-0.04297 0.06836,-0.08789 0.08789,-0.134765 0.02344,-0.05078 0.03515,-0.09375 0.03516,-0.128907 -2e-6,-0.08593 -0.0957,-0.365231 -0.28711,-0.83789 l -0.05273,-0.123047 c -0.07031,-0.167965 -0.132814,-0.292965 -0.1875,-0.375 -0.05469,-0.08593 -0.09961,-0.128902 -0.134766,-0.128906 -0.04688,4e-6 -0.0957,0.03907 -0.146484,0.117187 -0.04688,0.07422 -0.125001,0.250004 -0.234375,0.527344 -0.01172,0.02735 -0.02344,0.06055 -0.03516,0.09961 -0.05469,0.152347 -0.111328,0.228519 -0.169921,0.228516 -0.03125,3e-6 -0.05469,-0.0078 -0.07031,-0.02344 -0.01563,-0.01953 -0.02539,-0.04687 -0.0293,-0.08203 0,-0.09765 0.08789,-0.357418 0.263672,-0.779297 l 0.04102,-0.08789 c 0.101561,-0.230465 0.199217,-0.398434 0.292969,-0.503907 0.09375,-0.10937 0.191404,-0.164058 0.292968,-0.164062 0.09375,4e-6 0.177733,0.05079 0.251953,0.152344 0.07812,0.09766 0.189452,0.322269 0.333985,0.673828 0.05859,0.132816 0.123044,0.296878 0.193359,0.492187 0.07422,0.214847 0.134763,0.322269 0.181641,0.322266 0.01172,3e-6 0.02929,-0.0059 0.05273,-0.01758 0.02343,-0.01562 0.04492,-0.0332 0.06445,-0.05273 l 1.22461,-1.11914 c 0.167964,-0.15234 0.304683,-0.265621 0.410156,-0.339844 0.105464,-0.07421 0.185542,-0.111324 0.240234,-0.111328 0.07031,4e-6 0.119136,0.03711 0.146485,0.111328 0.03124,0.07422 0.04687,0.22852 0.04687,0.462891 -5e-6,0.343753 -0.01368,0.597659 -0.04102,0.761718 -0.02735,0.164066 -0.06641,0.246097 -0.117187,0.246094 -0.03907,3e-6 -0.06836,-0.02343 -0.08789,-0.07031 -0.01563,-0.05078 -0.02344,-0.148435 -0.02344,-0.292969 l 0,-0.416016 c -4e-6,-0.12109 -0.01172,-0.203121 -0.03516,-0.246094 -0.01953,-0.04296 -0.05469,-0.06445 -0.105469,-0.06445 -0.03907,4e-6 -0.08789,0.02149 -0.146484,0.06445 -0.0586,0.03907 -0.138676,0.109379 -0.240234,0.210938 L 56.74608,39.38397 c -0.03125,0.03125 -0.07617,0.07422 -0.134766,0.128907 -0.199221,0.195315 -0.298831,0.332033 -0.298828,0.410156 -3e-6,0.04688 0.03711,0.189455 0.111328,0.427734 0.07812,0.234377 0.173825,0.484377 0.28711,0.75 0.12109,0.29297 0.203121,0.476564 0.246093,0.550781 0.04687,0.07031 0.08789,0.10547 0.123047,0.105469 0.05468,1e-6 0.103512,-0.02148 0.146484,-0.06445 0.04687,-0.04297 0.103513,-0.121093 0.169922,-0.234375 0.05078,-0.08594 0.115231,-0.199217 0.19336,-0.339844 0.136715,-0.246092 0.228511,-0.369139 0.27539,-0.36914 0.01172,10e-7 0.02343,0.0059 0.03516,0.01758 0.01562,0.01172 0.02343,0.02344 0.02344,0.03516 -4e-6,0.0625 -0.03321,0.179689 -0.09961,0.351563 -0.0625,0.171876 -0.154301,0.38086 -0.275391,0.626953 -0.148441,0.300781 -0.263675,0.496094 -0.345703,0.585937 -0.08203,0.08984 -0.169925,0.134766 -0.263672,0.134766 -0.132815,0 -0.261722,-0.101563 -0.386719,-0.304688 -0.125002,-0.203124 -0.308596,-0.628905 -0.550781,-1.277343 l -0.134765,-0.339844 c -0.01953,-0.05469 -0.03516,-0.09179 -0.04688,-0.111328 -0.01172,-0.01953 -0.02344,-0.02929 -0.03516,-0.0293 -0.01563,2e-6 -0.03906,0.01172 -0.07031,0.03516 -0.02735,0.02344 -0.0586,0.05469 -0.09375,0.09375 L 54.625,41.745308 m 2.777344,3.035157 c 0.699219,-0.285159 1.306641,-0.738283 1.822265,-1.359375 0.515625,-0.621094 0.966796,-1.447265 1.353516,-2.478516 0.234373,-0.609373 0.412107,-1.240232 0.533203,-1.892578 0.124998,-0.65234 0.187498,-1.273433 0.1875,-1.863281 -2e-6,-0.476557 -0.05469,-0.933588 -0.164062,-1.371094 -0.109377,-0.437493 -0.277346,-0.869133 -0.503907,-1.294922 l 0.228516,0 c 0.316404,0.585945 0.552732,1.15821 0.708984,1.716797 0.156248,0.558599 0.234373,1.115239 0.234375,1.669922 -2e-6,0.746097 -0.09766,1.49219 -0.292968,2.238281 -0.195315,0.742189 -0.476565,1.435548 -0.84375,2.080078 -0.394533,0.683593 -0.859376,1.251952 -1.394532,1.705078 -0.535156,0.45703 -1.158202,0.812498 -1.86914,1.066407 l 0,-0.216797"
         style="font-style:italic;fill:#ffffff;fill-opacity:1;font-family:CaslonOldFace BT"
         transform="matrix(1.9922444,0,0,1.9922444,-39.720477,-9.4234615)" />
    </g>
  </g>
</svg>
