<?xml version="1.0" encoding="UTF-8" standalone="no"?>
<!-- Created with Inkscape (http://www.inkscape.org/) -->

<svg
   xmlns:dc="http://purl.org/dc/elements/1.1/"
   xmlns:cc="http://creativecommons.org/ns#"
   xmlns:rdf="http://www.w3.org/1999/02/22-rdf-syntax-ns#"
   xmlns:svg="http://www.w3.org/2000/svg"
   xmlns="http://www.w3.org/2000/svg"
   xmlns:xlink="http://www.w3.org/1999/xlink"
   xmlns:sodipodi="http://sodipodi.sourceforge.net/DTD/sodipodi-0.dtd"
   xmlns:inkscape="http://www.inkscape.org/namespaces/inkscape"
   width="128"
   height="128"
   id="svg2"
   sodipodi:version="0.32"
   inkscape:version="0.48.3.1 r9886"
   version="1.0"
   sodipodi:docname="image-x-xcf.svg"
   inkscape:output_extension="org.inkscape.output.svg.inkscape">
  <defs
     id="defs4">
    <linearGradient
       inkscape:collect="always"
       id="linearGradient4132">
      <stop
         style="stop-color:#f2f2f2;stop-opacity:1;"
         offset="0"
         id="stop4134" />
      <stop
         style="stop-color:#f2f2f2;stop-opacity:0;"
         offset="1"
         id="stop4136" />
    </linearGradient>
    <linearGradient
       inkscape:collect="always"
       id="linearGradient3155">
      <stop
         style="stop-color:#303030;stop-opacity:1;"
         offset="0"
         id="stop3157" />
      <stop
         style="stop-color:#303030;stop-opacity:0;"
         offset="1"
         id="stop3159" />
    </linearGradient>
    <linearGradient
       inkscape:collect="always"
       id="linearGradient6067">
      <stop
         style="stop-color:#ffffff;stop-opacity:1;"
         offset="0"
         id="stop6069" />
      <stop
         style="stop-color:#ffffff;stop-opacity:0;"
         offset="1"
         id="stop6071" />
    </linearGradient>
    <linearGradient
       inkscape:collect="always"
       id="linearGradient3142">
      <stop
         style="stop-color:#303030;stop-opacity:1;"
         offset="0"
         id="stop3144" />
      <stop
         style="stop-color:#303030;stop-opacity:0;"
         offset="1"
         id="stop3146" />
    </linearGradient>
    <linearGradient
       inkscape:collect="always"
       xlink:href="#linearGradient3142"
       id="linearGradient3148"
       x1="92.804863"
       y1="75.855133"
       x2="92.804863"
       y2="110.71667"
       gradientUnits="userSpaceOnUse"
       gradientTransform="matrix(1.6258627,0,0,1.6258627,-28.787153,-52.145846)" />
    <linearGradient
       inkscape:collect="always"
       xlink:href="#linearGradient6067"
       id="linearGradient6073"
       x1="29.731594"
       y1="96.211563"
       x2="29.731594"
       y2="119.78299"
       gradientUnits="userSpaceOnUse" />
    <linearGradient
       inkscape:collect="always"
       xlink:href="#linearGradient3155"
       id="linearGradient3161"
       x1="100.75668"
       y1="85.389313"
       x2="100.75668"
       y2="124.82345"
       gradientUnits="userSpaceOnUse" />
    <linearGradient
       inkscape:collect="always"
       xlink:href="#linearGradient4132"
       id="linearGradient4138"
       x1="96.899597"
       y1="-101.65641"
       x2="96.899597"
       y2="-115.67227"
       gradientUnits="userSpaceOnUse" />
  </defs>
  <sodipodi:namedview
     id="base"
     pagecolor="#ffffff"
     bordercolor="#666666"
     borderopacity="1.0"
     inkscape:pageopacity="0.0"
     inkscape:pageshadow="2"
     inkscape:zoom="5.6"
     inkscape:cx="50.29543"
     inkscape:cy="55.000135"
     inkscape:document-units="px"
     inkscape:current-layer="g4452"
     showgrid="true"
     width="128px"
     height="128px"
     showguides="true"
     inkscape:guide-bbox="true"
     inkscape:window-width="1598"
     inkscape:window-height="879"
     inkscape:window-x="0"
     inkscape:window-y="0"
     inkscape:window-maximized="1" />
  <metadata
     id="metadata7">
    <rdf:RDF>
      <cc:Work
         rdf:about="">
        <dc:format>image/svg+xml</dc:format>
        <dc:type
           rdf:resource="http://purl.org/dc/dcmitype/StillImage" />
        <dc:title></dc:title>
      </cc:Work>
    </rdf:RDF>
  </metadata>
  <g
     inkscape:label="File"
     inkscape:groupmode="layer"
     id="layer1">
    <path
       style="fill:#ffffff;fill-opacity:1;stroke:none;stroke-width:0.2;stroke-linecap:round;stroke-linejoin:round;stroke-miterlimit:4;stroke-dashoffset:0;stroke-opacity:1"
       d="M 29.608156,13.050445 L 76.889382,13.029759 L 103.95139,39.997785 L 103.85343,109.41071 C 103.85343,112.49069 101.37387,114.97024 98.293882,114.97024 L 29.608156,114.97024 C 26.528165,114.97024 24.048608,112.49069 24.048608,109.41071 L 24.048608,18.60999 C 24.048608,15.530004 26.528165,13.050445 29.608156,13.050445 z "
       id="path3275"
       sodipodi:nodetypes="ccccccccc" />
    <g
       id="g4452"
       transform="translate(-2.0166215,7.230244)">
      <path
         sodipodi:nodetypes="ccccccccc"
         id="rect2162"
         d="M 36.110672,12.46579 L 77.22478,12.447802 L 100.75696,35.898259 L 100.67178,96.257326 C 100.67178,98.935577 98.515638,101.09171 95.837388,101.09171 L 36.110672,101.09171 C 33.432419,101.09171 31.276283,98.935577 31.276283,96.257326 L 31.276283,17.300177 C 31.276283,14.621928 33.432419,12.46579 36.110672,12.46579 z "
         style="fill:#303030;fill-opacity:1;stroke:none;stroke-width:0.2;stroke-linecap:round;stroke-linejoin:round;stroke-miterlimit:4;stroke-dashoffset:0;stroke-opacity:1" />
      <text
         id="text8053"
         y="96.053925"
         x="96.935028"
         style="font-size:12px;font-style:normal;font-weight:normal;text-align:end;text-anchor:end;fill:#f2f2f2;fill-opacity:1;stroke:none;font-family:Bitstream Vera Sans"
         xml:space="preserve"><tspan
           y="96.053925"
           x="96.935028"
           id="tspan8055"
           sodipodi:role="line">PSD</tspan></text>
    </g>
  </g>
  <g
     inkscape:groupmode="layer"
     id="layer3"
     inkscape:label="logo">
    <g
       id="g4274">
      <g
         id="g3070"
         transform="translate(-54.786042,7.2857142)">
        <g
           id="g3048"
           transform="matrix(-0.11827205,-0.40304682,0.40147332,-0.11873559,238.49856,49.086916)"
           style="fill:#ffffff;fill-opacity:1;stroke:#ffffff;stroke-width:9.24461555;stroke-linejoin:round;stroke-miterlimit:8.80000019;stroke-opacity:1;stroke-dasharray:none">
          <path
             d="m 39.757762,-268.10473 c 0.95251,1.59383 2.58665,3.03818 4.44297,4.28609 -0.075,-0.1034 -0.11949,-0.16661 -0.11949,-0.16661 0,0 9.92742,6.0072 16.823268,6.42339 6.894902,0.41779 19.489552,-2.6257 26.121019,-0.81818 -1.429712,-1.59638 -8.820514,-4.79996 -11.512029,-5.59286 6.731324,-0.51344 21.428483,-1.76047 32.799,-8.09879 0,0 -24.523429,7.30802 -41.253901,-13.32839 -7.25227,3.9697 -18.579198,10.43337 -27.300837,17.29535"
             style="fill:#6c9eab;fill-opacity:1;stroke:none"
             id="path70"
             inkscape:connector-curvature="0" />
          <path
             d="m 55.530253,-253.71254 c 0,0 -3.053793,-1.04807 -5.610734,-2.7917 -2.556812,-1.74404 -5.807247,-8.20649 -9.436857,-11.14727 -3.48928,2.16439 -8.12319,6.23229 -8.12319,6.23229 0,0 3.32558,1.49213 5.91623,4.23698 2.59079,2.74442 6.69816,4.06505 6.69816,4.06505 0,0 -4.04573,-4.38463 -4.0984,-5.9417 3.16604,2.03367 10.411126,6.22581 14.654791,5.34635"
             style="fill:#6c9eab;fill-opacity:1;stroke:none"
             id="path102"
             inkscape:connector-curvature="0" />
          <path
             d="m 145.52316,-298.24828 c 0,0 -1.63694,6.67387 -5.83057,11.60324 -4.19419,4.92969 -15.10854,12.94348 -24.10312,11.83528 -8.99445,-1.10864 -26.149746,-9.135 -36.55614,-15.50313 4.688584,-2.14198 30.55966,-12.90569 66.48983,-7.93539"
             style="fill:#6c9eab;fill-opacity:1;stroke:none"
             id="path134"
             inkscape:connector-curvature="0" />
          <path
             d="m 134.79185,-284.52773 c 0,0 -4.63304,0.83613 -13.79809,4.15394 -9.16631,3.31885 -21.310409,7.81398 -41.96043,-9.9391 -10.67476,3.97498 -11.974731,4.91281 -11.974731,4.91281 0,0 8.540149,12.20438 20.744086,15.94567 12.202985,3.7429 24.721075,-1.52463 33.247605,-6.64537 8.52683,-5.12017 7.30094,-5.9219 13.74156,-8.42795"
             style="fill:#6c9eab;fill-opacity:1;stroke:none"
             id="path166"
             inkscape:connector-curvature="0" />
          <path
             d="m 28.459692,-258.60618 c 0,0 -0.95338,-3.21648 -0.94937,-5.71081 0.004,-2.49389 2.79152,-7.98449 -2.11676,-8.69631 1.66332,-0.68471 3.65773,0.4909 5.69614,2.99885 0.49234,-1.17575 0.98914,-4.8457 -1.55768,-6.62369 3.48252,0.58536 4.45424,1.75279 4.45424,1.75279 0,0 -0.16986,-12.82117 19.280634,-21.77021 -4.487409,3.81513 -12.508624,14.66431 -11.282194,25.8874 -5.08894,4.37207 -13.52501,12.16198 -13.52501,12.16198"
             style="fill:#6c9eab;fill-opacity:1;stroke:none"
             id="path198"
             inkscape:connector-curvature="0" />
          <path
             d="m 39.828722,-268.90825 c 0,0 0.48393,-6.6089 6.483659,-15.5576 5.999604,-8.94827 19.371126,-29.5227 55.229139,-28.64712 -4.000433,1.16952 -23.673233,4.91595 -25.442667,23.33062 -13.120525,5.82277 -30.008621,16.994 -36.270131,20.8741"
             style="fill:#6c9eab;fill-opacity:1;stroke:none"
             id="path230"
             inkscape:connector-curvature="0" />
          <path
             d="m 77.563044,-289.79112 c 0,0 1.857957,-30.13249 43.275756,-30.26108 -3.42215,1.19333 -9.61867,4.35889 -14.76141,12.38534 7.55468,-6.28773 14.1935,-13.4338 24.42915,-7.48187 10.23651,5.95219 15.01662,16.90045 15.01662,16.90045 0,0 -24.88174,-6.74197 -67.960116,8.45716"
             style="fill:#6c9eab;fill-opacity:1;stroke:none"
             id="path262"
             inkscape:connector-curvature="0" />
          <path
             inkscape:connector-curvature="0"
             id="path282"
             style="fill:#cccccc;fill-opacity:1;stroke:none"
             d="m 145.88573,-298.36176 c 0,0 -6.60018,-2.16467 -21.29231,-1.42861 -14.69214,0.73608 -30.026819,2.16354 -40.412525,6.14992 -10.385707,3.98639 -33.753239,14.67219 -48.877053,27.43578 -15.47024,13.05721 -22.5134,21.33122 -26.2767604,28.14872 5.4544104,-2.13619 6.8745304,-4.93803 14.5211504,-13.55662 8.20894,-9.25184 21.60626,-19.54825 41.745359,-31.51887 18.080109,-10.7468 48.769039,-18.88055 80.592139,-15.23032" />
        </g>
      </g>
    </g>
  </g>
</svg>
