<?xml version="1.0" encoding="UTF-8" standalone="no"?>
<!-- Created with Inkscape (http://www.inkscape.org/) -->

<svg
   xmlns:dc="http://purl.org/dc/elements/1.1/"
   xmlns:cc="http://creativecommons.org/ns#"
   xmlns:rdf="http://www.w3.org/1999/02/22-rdf-syntax-ns#"
   xmlns:svg="http://www.w3.org/2000/svg"
   xmlns="http://www.w3.org/2000/svg"
   xmlns:xlink="http://www.w3.org/1999/xlink"
   xmlns:sodipodi="http://sodipodi.sourceforge.net/DTD/sodipodi-0.dtd"
   xmlns:inkscape="http://www.inkscape.org/namespaces/inkscape"
   width="128"
   height="128"
   id="svg2"
   sodipodi:version="0.32"
   inkscape:version="0.48.3.1 r9886"
   version="1.0"
   sodipodi:docname="application-x-executable.svg"
   inkscape:output_extension="org.inkscape.output.svg.inkscape">
  <defs
     id="defs4">
    <linearGradient
       inkscape:collect="always"
       id="linearGradient4133">
      <stop
         style="stop-color:#ffffff;stop-opacity:1;"
         offset="0"
         id="stop4135" />
      <stop
         style="stop-color:#ffffff;stop-opacity:0;"
         offset="1"
         id="stop4137" />
    </linearGradient>
    <linearGradient
       inkscape:collect="always"
       id="linearGradient4124">
      <stop
         style="stop-color:#ffffff;stop-opacity:1;"
         offset="0"
         id="stop4126" />
      <stop
         style="stop-color:#ffffff;stop-opacity:0;"
         offset="1"
         id="stop4128" />
    </linearGradient>
    <linearGradient
       inkscape:collect="always"
       id="linearGradient4132">
      <stop
         style="stop-color:#f2f2f2;stop-opacity:1;"
         offset="0"
         id="stop4134" />
      <stop
         style="stop-color:#f2f2f2;stop-opacity:0;"
         offset="1"
         id="stop4136" />
    </linearGradient>
    <linearGradient
       inkscape:collect="always"
       id="linearGradient3155">
      <stop
         style="stop-color:#303030;stop-opacity:1;"
         offset="0"
         id="stop3157" />
      <stop
         style="stop-color:#303030;stop-opacity:0;"
         offset="1"
         id="stop3159" />
    </linearGradient>
    <linearGradient
       inkscape:collect="always"
       id="linearGradient6067">
      <stop
         style="stop-color:#ffffff;stop-opacity:1;"
         offset="0"
         id="stop6069" />
      <stop
         style="stop-color:#ffffff;stop-opacity:0;"
         offset="1"
         id="stop6071" />
    </linearGradient>
    <linearGradient
       inkscape:collect="always"
       id="linearGradient3142">
      <stop
         style="stop-color:#303030;stop-opacity:1;"
         offset="0"
         id="stop3144" />
      <stop
         style="stop-color:#303030;stop-opacity:0;"
         offset="1"
         id="stop3146" />
    </linearGradient>
    <linearGradient
       inkscape:collect="always"
       xlink:href="#linearGradient3142"
       id="linearGradient3148"
       x1="92.804863"
       y1="75.855133"
       x2="92.804863"
       y2="110.71667"
       gradientUnits="userSpaceOnUse"
       gradientTransform="matrix(1.6258627,0,0,1.6258627,-28.787153,-52.145846)" />
    <linearGradient
       inkscape:collect="always"
       xlink:href="#linearGradient6067"
       id="linearGradient6073"
       x1="29.731594"
       y1="96.211563"
       x2="29.731594"
       y2="119.78299"
       gradientUnits="userSpaceOnUse" />
    <linearGradient
       inkscape:collect="always"
       xlink:href="#linearGradient3155"
       id="linearGradient3161"
       x1="100.75668"
       y1="85.389313"
       x2="100.75668"
       y2="124.82345"
       gradientUnits="userSpaceOnUse" />
    <linearGradient
       inkscape:collect="always"
       xlink:href="#linearGradient4132"
       id="linearGradient4138"
       x1="96.899597"
       y1="-101.65641"
       x2="96.899597"
       y2="-115.67227"
       gradientUnits="userSpaceOnUse"
       gradientTransform="translate(-8.0356731,0)" />
    <linearGradient
       inkscape:collect="always"
       xlink:href="#linearGradient4124"
       id="linearGradient4130"
       x1="-8.4081726"
       y1="-59.833611"
       x2="-8.7748451"
       y2="43.76392"
       gradientUnits="userSpaceOnUse" />
    <linearGradient
       inkscape:collect="always"
       xlink:href="#linearGradient4133"
       id="linearGradient4139"
       x1="-8.4081726"
       y1="-59.833611"
       x2="-8.7748451"
       y2="43.76392"
       gradientUnits="userSpaceOnUse" />
  </defs>
  <sodipodi:namedview
     id="base"
     pagecolor="#ffffff"
     bordercolor="#666666"
     borderopacity="1.0"
     inkscape:pageopacity="0.0"
     inkscape:pageshadow="2"
     inkscape:zoom="3.959798"
     inkscape:cx="101.12395"
     inkscape:cy="47.699758"
     inkscape:document-units="px"
     inkscape:current-layer="g4039"
     showgrid="true"
     width="128px"
     height="128px"
     showguides="true"
     inkscape:guide-bbox="true"
     inkscape:window-width="1598"
     inkscape:window-height="879"
     inkscape:window-x="0"
     inkscape:window-y="0"
     inkscape:window-maximized="1" />
  <metadata
     id="metadata7">
    <rdf:RDF>
      <cc:Work
         rdf:about="">
        <dc:format>image/svg+xml</dc:format>
        <dc:type
           rdf:resource="http://purl.org/dc/dcmitype/StillImage" />
        <dc:title></dc:title>
      </cc:Work>
    </rdf:RDF>
  </metadata>
  <g
     inkscape:label="Livello 1"
     inkscape:groupmode="layer"
     id="layer1">
    <path
       style="fill:#ffffff;fill-opacity:1;stroke:none;stroke-width:0.2;stroke-linecap:round;stroke-linejoin:round;stroke-miterlimit:4;stroke-dashoffset:0;stroke-opacity:1"
       d="M 29.60816,13.050446 L 76.88938,13.02976 L 103.95139,39.997786 L 103.85343,109.41071 C 103.85343,112.49069 101.37387,114.97024 98.29388,114.97024 L 29.60816,114.97024 C 26.52817,114.97024 24.04861,112.49069 24.04861,109.41071 L 24.04861,18.609991 C 24.04861,15.530005 26.52817,13.050446 29.60816,13.050446 z "
       id="path3275"
       sodipodi:nodetypes="ccccccccc" />
    <g
       id="g4039"
       transform="translate(-2.0166215,7.230244)">
      <path
         sodipodi:nodetypes="ccccccccc"
         id="rect2162"
         d="M 36.110672,12.46579 L 77.22478,12.447802 L 100.75696,35.898259 L 100.67178,96.257326 C 100.67178,98.935577 98.515638,101.09171 95.837388,101.09171 L 36.110672,101.09171 C 33.432419,101.09171 31.276283,98.935577 31.276283,96.257326 L 31.276283,17.300177 C 31.276283,14.621928 33.432419,12.46579 36.110672,12.46579 z "
         style="fill:#303030;fill-opacity:1;stroke:none;stroke-width:0.2;stroke-linecap:round;stroke-linejoin:round;stroke-miterlimit:4;stroke-dashoffset:0;stroke-opacity:1" />
      <text
         id="text8053"
         y="96.053925"
         x="96.112206"
         style="font-size:12px;font-style:normal;font-weight:normal;text-align:end;text-anchor:end;fill:#f2f2f2;fill-opacity:1;stroke:none;font-family:Bitstream Vera Sans"
         xml:space="preserve"><tspan
           y="96.053925"
           x="96.112206"
           id="tspan8055"
           sodipodi:role="line">CLASS</tspan></text>
      <path
         transform="matrix(-0.268272,0,0,0.268272,35.445646,66.273566)"
         d="M -10.274849,96.392531 -94.093166,47.999997 -10.274845,-0.39252786 z"
         inkscape:randomized="0"
         inkscape:rounded="0"
         inkscape:flatsided="true"
         sodipodi:arg2="2.0943952"
         sodipodi:arg1="1.0471976"
         sodipodi:r2="24.186232"
         sodipodi:r1="55.87888"
         sodipodi:cy="48"
         sodipodi:cx="-38.214287"
         sodipodi:sides="3"
         id="path2180"
         style="opacity:1;fill:#ffffff;fill-opacity:1;stroke:#ffffff;stroke-width:3;stroke-linecap:round;stroke-linejoin:round;stroke-miterlimit:4;stroke-dasharray:none;stroke-dashoffset:0;stroke-opacity:1"
         sodipodi:type="star" />
    </g>
    <path
       id="path3119-1"
       d="m 45.734167,57.413978 c 0,0 -1.552092,0.902595 1.104569,1.208021 3.21847,0.367169 4.863391,0.314512 8.410166,-0.356768 0,0 0.932479,0.584688 2.234758,1.091104 -7.950934,3.407638 -17.994533,-0.197376 -11.749493,-1.942357"
       style="fill:#6c9eab;fill-opacity:1"
       inkscape:connector-curvature="0" />
    <path
       id="path3121-1"
       d="m 44.762604,52.967236 c 0,0 -1.740819,1.288592 0.91781,1.563584 3.438071,0.354688 6.15319,0.383699 10.851391,-0.520975 0,0 0.649822,0.658799 1.671633,1.019071 -9.613154,2.811016 -20.320478,0.22168 -13.440834,-2.06168"
       style="fill:#6c9eab;fill-opacity:1"
       inkscape:connector-curvature="0" />
    <path
       id="path3123-6"
       d="m 52.953173,45.424082 c 1.959104,2.255555 -0.514738,4.285272 -0.514738,4.285272 0,0 4.974505,-2.567986 2.689939,-5.783719 -2.133714,-2.998869 -3.769988,-4.488892 5.088138,-9.626291 0,0 -13.904336,3.472662 -7.263339,11.124738"
       style="fill:#f08615;fill-opacity:1"
       inkscape:connector-curvature="0" />
    <path
       id="path3125-5"
       d="m 63.46892,60.703057 c 0,0 1.148577,0.946384 -1.26495,1.678531 -4.589383,1.390291 -19.101506,1.810115 -23.132912,0.05539 -1.449189,-0.630449 1.268446,-1.505347 2.123314,-1.68893 0.891538,-0.193328 1.401019,-0.157312 1.401019,-0.157312 C 40.983746,59.45541 32.178385,62.820024 38.122703,63.783595 54.333721,66.41256 67.67384,62.599767 63.46892,60.70306"
       style="fill:#6c9eab;fill-opacity:1"
       inkscape:connector-curvature="0" />
    <path
       id="path3127-4"
       d="m 46.480544,48.359898 c 0,0 -7.38179,1.753298 -2.614078,2.389987 2.013078,0.269517 6.026093,0.208542 9.764116,-0.104657 3.054918,-0.257695 6.122427,-0.805602 6.122427,-0.805602 0,0 -1.077198,0.461315 -1.856533,0.993458 -7.496074,1.971476 -21.97711,1.054321 -17.808207,-0.962258 3.525647,-1.704255 6.392275,-1.510928 6.392275,-1.510928"
       style="fill:#6c9eab;fill-opacity:1"
       inkscape:connector-curvature="0" />
    <path
       id="path3129-0"
       d="m 59.722576,55.761721 c 7.620113,-3.959704 4.096872,-7.764943 1.6377,-7.252284 -0.602751,0.125453 -0.871509,0.234157 -0.871509,0.234157 0,0 0.223763,-0.350529 0.651141,-0.502256 4.865033,-1.710384 8.606559,5.044568 -1.570483,7.71995 0,1.09e-4 0.117902,-0.105313 0.153151,-0.199567"
       style="fill:#6c9eab;fill-opacity:1"
       inkscape:connector-curvature="0" />
    <path
       id="path3131-5"
       d="m 55.128374,26.003794 c 0,0 4.220137,4.221556 -4.002614,10.713122 -6.593814,5.207354 -1.503594,8.176448 -0.0026,11.568758 -3.848926,-3.47266 -6.673519,-6.529661 -4.778561,-9.374832 2.781348,-4.176458 10.486627,-6.201357 8.783904,-12.907048"
       style="fill:#f08615;fill-opacity:1"
       inkscape:connector-curvature="0" />
    <path
       id="path3133-2"
       d="m 47.229331,66.491596 c 7.314355,0.468211 18.546375,-0.259777 18.812396,-3.720727 0,0 -0.511346,1.312019 -6.044921,2.353972 -6.242959,1.17485 -13.942764,1.037682 -18.509597,0.284735 1.09e-4,-1.09e-4 0.934888,0.773747 5.742122,1.08202"
       style="fill:#6c9eab;fill-opacity:1"
       inkscape:connector-curvature="0" />
  </g>
</svg>
