<?xml version="1.0" encoding="UTF-8" standalone="no"?>
<!-- Created with Inkscape (http://www.inkscape.org/) -->

<svg
   xmlns:dc="http://purl.org/dc/elements/1.1/"
   xmlns:cc="http://creativecommons.org/ns#"
   xmlns:rdf="http://www.w3.org/1999/02/22-rdf-syntax-ns#"
   xmlns:svg="http://www.w3.org/2000/svg"
   xmlns="http://www.w3.org/2000/svg"
   xmlns:xlink="http://www.w3.org/1999/xlink"
   xmlns:sodipodi="http://sodipodi.sourceforge.net/DTD/sodipodi-0.dtd"
   xmlns:inkscape="http://www.inkscape.org/namespaces/inkscape"
   width="128"
   height="128"
   id="svg2"
   sodipodi:version="0.32"
   inkscape:version="0.48.3.1 r9886"
   version="1.0"
   sodipodi:docname="application-vnd.corel-draw.svg"
   inkscape:output_extension="org.inkscape.output.svg.inkscape">
  <defs
     id="defs4">
    <linearGradient
       inkscape:collect="always"
       id="linearGradient4132">
      <stop
         style="stop-color:#f2f2f2;stop-opacity:1;"
         offset="0"
         id="stop4134" />
      <stop
         style="stop-color:#f2f2f2;stop-opacity:0;"
         offset="1"
         id="stop4136" />
    </linearGradient>
    <linearGradient
       inkscape:collect="always"
       id="linearGradient3155">
      <stop
         style="stop-color:#303030;stop-opacity:1;"
         offset="0"
         id="stop3157" />
      <stop
         style="stop-color:#303030;stop-opacity:0;"
         offset="1"
         id="stop3159" />
    </linearGradient>
    <linearGradient
       inkscape:collect="always"
       id="linearGradient6067">
      <stop
         style="stop-color:#ffffff;stop-opacity:1;"
         offset="0"
         id="stop6069" />
      <stop
         style="stop-color:#ffffff;stop-opacity:0;"
         offset="1"
         id="stop6071" />
    </linearGradient>
    <linearGradient
       inkscape:collect="always"
       id="linearGradient3142">
      <stop
         style="stop-color:#303030;stop-opacity:1;"
         offset="0"
         id="stop3144" />
      <stop
         style="stop-color:#303030;stop-opacity:0;"
         offset="1"
         id="stop3146" />
    </linearGradient>
    <linearGradient
       inkscape:collect="always"
       xlink:href="#linearGradient3142"
       id="linearGradient3148"
       x1="92.804863"
       y1="75.855133"
       x2="92.804863"
       y2="110.71667"
       gradientUnits="userSpaceOnUse"
       gradientTransform="matrix(1.6258627,0,0,1.6258627,-28.787153,-52.145846)" />
    <linearGradient
       inkscape:collect="always"
       xlink:href="#linearGradient6067"
       id="linearGradient6073"
       x1="29.731594"
       y1="96.211563"
       x2="29.731594"
       y2="119.78299"
       gradientUnits="userSpaceOnUse" />
    <linearGradient
       inkscape:collect="always"
       xlink:href="#linearGradient3155"
       id="linearGradient3161"
       x1="100.75668"
       y1="85.389313"
       x2="100.75668"
       y2="124.82345"
       gradientUnits="userSpaceOnUse" />
    <linearGradient
       inkscape:collect="always"
       xlink:href="#linearGradient4132"
       id="linearGradient4138"
       x1="96.899597"
       y1="-101.65641"
       x2="96.899597"
       y2="-115.67227"
       gradientUnits="userSpaceOnUse"
       gradientTransform="translate(-2.2728432,0)" />
  </defs>
  <sodipodi:namedview
     id="base"
     pagecolor="#ffffff"
     bordercolor="#666666"
     borderopacity="1.0"
     inkscape:pageopacity="0.0"
     inkscape:pageshadow="2"
     inkscape:zoom="5.6"
     inkscape:cx="31.624665"
     inkscape:cy="69.482881"
     inkscape:document-units="px"
     inkscape:current-layer="layer1"
     showgrid="true"
     width="128px"
     height="128px"
     showguides="true"
     inkscape:guide-bbox="true"
     inkscape:window-width="1598"
     inkscape:window-height="879"
     inkscape:window-x="0"
     inkscape:window-y="0"
     inkscape:window-maximized="1" />
  <metadata
     id="metadata7">
    <rdf:RDF>
      <cc:Work
         rdf:about="">
        <dc:format>image/svg+xml</dc:format>
        <dc:type
           rdf:resource="http://purl.org/dc/dcmitype/StillImage" />
        <dc:title />
      </cc:Work>
    </rdf:RDF>
  </metadata>
  <g
     inkscape:label="Livello 1"
     inkscape:groupmode="layer"
     id="layer1">
    <path
       style="fill:#ffffff;fill-opacity:1;stroke:none;stroke-width:0.2;stroke-linecap:round;stroke-linejoin:round;stroke-miterlimit:4;stroke-dashoffset:0;stroke-opacity:1"
       d="M 29.608158,13.050443 L 76.889382,13.029757 L 103.95139,39.997783 L 103.85343,109.41071 C 103.85343,112.49069 101.37387,114.97024 98.293882,114.97024 L 29.608158,114.97024 C 26.528167,114.97024 24.04861,112.49069 24.04861,109.41071 L 24.04861,18.609988 C 24.04861,15.530002 26.528167,13.050443 29.608158,13.050443 z "
       id="path3275"
       sodipodi:nodetypes="ccccccccc" />
    <path
       style="fill:#303030;fill-opacity:1;stroke:none;stroke-width:0.2;stroke-linecap:round;stroke-linejoin:round;stroke-miterlimit:4;stroke-dashoffset:0;stroke-opacity:1"
       d="M 34.094051,19.696034 L 75.208158,19.678046 L 98.740339,43.128503 L 98.655158,103.48757 C 98.655158,106.16582 96.499016,108.32195 93.820767,108.32195 L 34.094051,108.32195 C 31.415798,108.32195 29.259661,106.16582 29.259661,103.48757 L 29.259661,24.530421 C 29.259661,21.852172 31.415798,19.696034 34.094051,19.696034 z "
       id="rect2162"
       sodipodi:nodetypes="ccccccccc" />
    <text
       xml:space="preserve"
       style="font-size:12px;font-style:normal;font-weight:normal;text-align:end;text-anchor:end;fill:#f2f2f2;fill-opacity:1;stroke:none;font-family:Bitstream Vera Sans"
       x="95.124077"
       y="103.28417"
       id="text8053"><tspan
         sodipodi:role="line"
         id="tspan8055"
         x="95.124077"
         y="103.28417">CDR</tspan></text>
    <path
       style="fill:#ffffff;fill-opacity:1;fill-rule:evenodd;stroke:none"
       d="m 85.559156,42.29133 c -0.327353,0.05285 -0.665183,0.207511 -0.895894,0.467421 -5.850701,6.59134 -12.108456,14.96501 -17.878835,25.55232 l -0.467421,-0.311613 -11.062284,16.593428 0.779033,0.545323 c -1.086335,0.217258 -1.826079,1.221539 -1.752826,2.298151 l -0.03895,-0.03895 c -3.447907,3.089462 -4.433813,6.518495 -7.245018,11.5297 1.99381,-2.345166 7.651975,-3.200753 8.997846,-5.219535 0.765462,-1.148179 -0.289768,-2.276376 1.207502,-4.323628 l -0.03895,-0.03895 c 1.022194,-0.346315 1.658501,-1.406438 1.441212,-2.49291 l 0.856938,0.545324 11.062285,-16.63238 -0.467421,-0.311613 c 7.521074,-9.409287 12.816739,-18.376543 16.67133,-26.292404 0.304096,-0.624498 0.05405,-1.483068 -0.350561,-1.752826 -0.202311,-0.134879 -0.490638,-0.169705 -0.817983,-0.116856 z"
       id="path5497"
       inkscape:connector-curvature="0" />
    <g
       id="g4667"
       style="stroke:#ffffff;stroke-opacity:1;fill:#6c9eab;fill-opacity:1"
       transform="translate(2,2)">
      <path
         inkscape:connector-curvature="0"
         sodipodi:nodetypes="cccccc"
         id="path6565"
         d="m 49.821429,24.965649 c -5.683049,0.389203 -12.007512,1.721513 -14.554415,7.187366 -5.114404,10.287554 4.228254,17.513592 11.79159,27.369801 1.843696,0.159547 3.681482,0.07624 5.52565,0 C 60.147589,49.666607 69.49024,42.440569 64.375844,32.153015 61.82894,26.687162 55.504471,25.354852 49.821429,24.965649 z"
         style="fill:#6c9eab;fill-opacity:1;fill-rule:evenodd;stroke:#ffffff;stroke-width:1.99999988000000006;stroke-linecap:round;stroke-linejoin:round;stroke-miterlimit:4;stroke-opacity:1;stroke-dasharray:none;display:inline" />
      <rect
         ry="0.7305972"
         rx="0.73502654"
         y="64.01297"
         x="47.160149"
         height="5.5928059"
         width="5.322566"
         id="rect9624"
         style="fill:#6c9eab;fill-opacity:1;stroke:#ffffff;stroke-width:1.99999988000000006;stroke-linecap:round;stroke-linejoin:round;stroke-miterlimit:4;stroke-opacity:1;stroke-dasharray:none;display:inline" />
    </g>
  </g>
</svg>
