<?xml version="1.0" encoding="UTF-8" standalone="no"?>
<!-- Created with Inkscape (http://www.inkscape.org/) -->

<svg
   xmlns:dc="http://purl.org/dc/elements/1.1/"
   xmlns:cc="http://creativecommons.org/ns#"
   xmlns:rdf="http://www.w3.org/1999/02/22-rdf-syntax-ns#"
   xmlns:svg="http://www.w3.org/2000/svg"
   xmlns="http://www.w3.org/2000/svg"
   xmlns:xlink="http://www.w3.org/1999/xlink"
   xmlns:sodipodi="http://sodipodi.sourceforge.net/DTD/sodipodi-0.dtd"
   xmlns:inkscape="http://www.inkscape.org/namespaces/inkscape"
   width="128"
   height="128"
   id="svg2"
   sodipodi:version="0.32"
   inkscape:version="0.48.3.1 r9886"
   version="1.0"
   sodipodi:docname="audio-ac3.svg"
   inkscape:output_extension="org.inkscape.output.svg.inkscape">
  <defs
     id="defs4">
    <linearGradient
       inkscape:collect="always"
       id="linearGradient4132">
      <stop
         style="stop-color:#f2f2f2;stop-opacity:1;"
         offset="0"
         id="stop4134" />
      <stop
         style="stop-color:#f2f2f2;stop-opacity:0;"
         offset="1"
         id="stop4136" />
    </linearGradient>
    <linearGradient
       inkscape:collect="always"
       id="linearGradient3155">
      <stop
         style="stop-color:#303030;stop-opacity:1;"
         offset="0"
         id="stop3157" />
      <stop
         style="stop-color:#303030;stop-opacity:0;"
         offset="1"
         id="stop3159" />
    </linearGradient>
    <linearGradient
       inkscape:collect="always"
       id="linearGradient6067">
      <stop
         style="stop-color:#ffffff;stop-opacity:1;"
         offset="0"
         id="stop6069" />
      <stop
         style="stop-color:#ffffff;stop-opacity:0;"
         offset="1"
         id="stop6071" />
    </linearGradient>
    <linearGradient
       inkscape:collect="always"
       id="linearGradient3142">
      <stop
         style="stop-color:#303030;stop-opacity:1;"
         offset="0"
         id="stop3144" />
      <stop
         style="stop-color:#303030;stop-opacity:0;"
         offset="1"
         id="stop3146" />
    </linearGradient>
    <linearGradient
       inkscape:collect="always"
       xlink:href="#linearGradient3142"
       id="linearGradient3148"
       x1="92.804863"
       y1="75.855133"
       x2="92.804863"
       y2="110.71667"
       gradientUnits="userSpaceOnUse"
       gradientTransform="matrix(1.6258627,0,0,1.6258627,-28.787153,-52.145846)" />
    <linearGradient
       inkscape:collect="always"
       xlink:href="#linearGradient6067"
       id="linearGradient6073"
       x1="29.731594"
       y1="96.211563"
       x2="29.731594"
       y2="119.78299"
       gradientUnits="userSpaceOnUse" />
    <linearGradient
       inkscape:collect="always"
       xlink:href="#linearGradient3155"
       id="linearGradient3161"
       x1="100.75668"
       y1="85.389313"
       x2="100.75668"
       y2="124.82345"
       gradientUnits="userSpaceOnUse" />
    <linearGradient
       inkscape:collect="always"
       xlink:href="#linearGradient4132"
       id="linearGradient4138"
       x1="96.899597"
       y1="-101.65641"
       x2="96.899597"
       y2="-115.67227"
       gradientUnits="userSpaceOnUse"
       gradientTransform="translate(-14.27655,0)" />
  </defs>
  <sodipodi:namedview
     id="base"
     pagecolor="#ffffff"
     bordercolor="#666666"
     borderopacity="1.0"
     inkscape:pageopacity="0.0"
     inkscape:pageshadow="2"
     inkscape:zoom="8"
     inkscape:cx="64"
     inkscape:cy="63.999999"
     inkscape:document-units="px"
     inkscape:current-layer="layer1-7"
     showgrid="true"
     width="128px"
     height="128px"
     showguides="true"
     inkscape:guide-bbox="true"
     inkscape:window-width="798"
     inkscape:window-height="879"
     inkscape:window-x="7"
     inkscape:window-y="0"
     inkscape:window-maximized="0"
     inkscape:snap-bbox="true"
     inkscape:snap-bbox-edge-midpoints="true"
     inkscape:bbox-nodes="false"
     inkscape:snap-grids="false"
     inkscape:snap-object-midpoints="true" />
  <metadata
     id="metadata7">
    <rdf:RDF>
      <cc:Work
         rdf:about="">
        <dc:format>image/svg+xml</dc:format>
        <dc:type
           rdf:resource="http://purl.org/dc/dcmitype/StillImage" />
        <dc:title></dc:title>
      </cc:Work>
    </rdf:RDF>
  </metadata>
  <g
     inkscape:label="Livello 1"
     inkscape:groupmode="layer"
     id="layer1">
    <path
       style="fill:#ffffff;fill-opacity:1;stroke:none;stroke-width:0.2;stroke-linecap:round;stroke-linejoin:round;stroke-miterlimit:4;stroke-dashoffset:0;stroke-opacity:1"
       d="M 29.60816,13.050447 L 76.88938,13.029761 L 103.95139,39.997787 L 103.85343,109.41071 C 103.85343,112.49069 101.37387,114.97024 98.29388,114.97024 L 29.60816,114.97024 C 26.52817,114.97024 24.04861,112.49069 24.04861,109.41071 L 24.04861,18.609992 C 24.04861,15.530006 26.52817,13.050447 29.60816,13.050447 z "
       id="path3275"
       sodipodi:nodetypes="ccccccccc" />
    <g
       id="g4562"
       transform="translate(-2.0166215,7.230244)">
      <path
         sodipodi:nodetypes="ccccccccc"
         id="rect2162"
         d="M 36.110672,12.46579 L 77.22478,12.447802 L 100.75696,35.898259 L 100.67178,96.257326 C 100.67178,98.935577 98.515638,101.09171 95.837388,101.09171 L 36.110672,101.09171 C 33.432419,101.09171 31.276283,98.935577 31.276283,96.257326 L 31.276283,17.300177 C 31.276283,14.621928 33.432419,12.46579 36.110672,12.46579 z "
         style="fill:#303030;fill-opacity:1;stroke:none;stroke-width:0.2;stroke-linecap:round;stroke-linejoin:round;stroke-miterlimit:4;stroke-dashoffset:0;stroke-opacity:1" />
      <text
         id="text8053"
         y="96.053833"
         x="94.946312"
         style="font-size:12px;font-style:normal;font-weight:normal;text-align:end;text-anchor:end;fill:#f2f2f2;fill-opacity:1;stroke:none;font-family:Bitstream Vera Sans"
         xml:space="preserve"><tspan
           y="96.053833"
           x="94.946312"
           id="tspan8055"
           sodipodi:role="line">AC3</tspan></text>
      <g
         transform="matrix(0.95177677,0,0,0.95713046,65.533274,34.763479)"
         id="layer1-7"
         style="fill:#808080">
        <path
           sodipodi:type="arc"
           style="fill:#ffffff;fill-opacity:1;stroke:none"
           id="path3010"
           sodipodi:cx="64.020996"
           sodipodi:cy="63.849091"
           sodipodi:rx="24.020998"
           sodipodi:ry="24.020998"
           d="m 64.020997,87.870089 c -13.266431,0 -24.020999,-10.754567 -24.020999,-24.020998 0,-13.266431 10.754567,-24.020998 24.020997,-24.020998 10e-7,0 10e-7,0 2e-6,0 l -10e-7,24.020998 z"
           transform="matrix(0.91852955,0,0,0.9133918,-31.505344,-34.282516)"
           sodipodi:start="1.5707963"
           sodipodi:end="4.712389" />
        <path
           sodipodi:type="arc"
           style="fill:#cccccc;fill-opacity:1;stroke:none"
           id="path3010-4"
           sodipodi:cx="64.020996"
           sodipodi:cy="63.849091"
           sodipodi:rx="24.020998"
           sodipodi:ry="24.020998"
           d="m 64.020997,87.870089 c -13.266431,0 -24.020999,-10.754567 -24.020999,-24.020998 0,-13.266431 10.754567,-24.020998 24.020997,-24.020998 10e-7,0 10e-7,0 2e-6,0 l -10e-7,24.020998 z"
           transform="matrix(0.76544133,0,0,0.76115987,-21.704483,-24.562646)"
           sodipodi:start="1.5707963"
           sodipodi:end="4.712389" />
        <path
           sodipodi:type="arc"
           style="fill:#ffffff;fill-opacity:1;stroke:none"
           id="path3012"
           sodipodi:cx="64.021004"
           sodipodi:cy="63.849091"
           sodipodi:rx="24.271002"
           sodipodi:ry="23.849089"
           d="m 64.021004,87.698179 c -13.404504,10e-7 -24.271002,-10.6776 -24.271002,-23.849088 0,-13.171488 10.866497,-23.849089 24.271001,-23.849089 0,0 1e-6,0 1e-6,0 l 0,23.849089 z"
           transform="matrix(0.6060455,0,0,0.61331716,-11.499808,-15.123022)"
           sodipodi:start="1.5707963"
           sodipodi:end="4.712389" />
        <path
           sodipodi:type="arc"
           style="fill:#808080;fill-opacity:1;stroke:none"
           id="path3012-4"
           sodipodi:cx="64.021004"
           sodipodi:cy="63.849091"
           sodipodi:rx="24.271002"
           sodipodi:ry="23.849089"
           d="m 64.021004,87.698179 c -13.404504,10e-7 -24.271002,-10.6776 -24.271002,-23.849088 0,-13.171488 10.866497,-23.849089 24.271001,-23.849089 0,0 1e-6,0 1e-6,0 l 0,23.849089 z"
           transform="matrix(0.45453413,0,0,0.45998786,-1.7998975,-5.3330847)"
           sodipodi:start="1.5707963"
           sodipodi:end="4.712389" />
        <path
           sodipodi:type="arc"
           style="fill:#ffffff;fill-opacity:1;stroke:none"
           id="path3014"
           sodipodi:cx="64.020996"
           sodipodi:cy="63.849091"
           sodipodi:rx="7.8943977"
           sodipodi:ry="7.797204"
           d="m 64.020996,71.646295 c -4.359955,0 -7.894398,-3.490927 -7.894398,-7.797204 0,-4.306277 3.534442,-7.797204 7.894398,-7.797204 0,0 0,0 0,0 l 0,7.797204 z"
           transform="matrix(0.93163101,0,0,0.93796799,-32.344112,-35.851338)"
           sodipodi:start="1.5707963"
           sodipodi:end="4.712389" />
        <path
           sodipodi:type="arc"
           style="fill:#cccccc;fill-opacity:1;stroke:none"
           id="path3014-3"
           sodipodi:cx="64.020996"
           sodipodi:cy="63.849091"
           sodipodi:rx="7.8943977"
           sodipodi:ry="7.797204"
           d="m 64.020996,71.646295 c -4.359955,0 -7.894398,-3.490927 -7.894398,-7.797204 0,-4.306277 3.534442,-7.797204 7.894398,-7.797204 0,0 0,0 0,0 l 0,7.797204 z"
           transform="matrix(0.46581551,0,0,0.46898398,-2.522139,-5.9074789)"
           sodipodi:start="1.5707963"
           sodipodi:end="4.712389" />
        <path
           sodipodi:end="4.712389"
           sodipodi:start="1.5707963"
           transform="matrix(-0.91852953,0,0,0.9133918,32.521018,-34.282516)"
           d="m 64.020997,87.870089 c -13.266431,0 -24.020999,-10.754567 -24.020999,-24.020998 0,-13.266431 10.754567,-24.020998 24.020997,-24.020998 10e-7,0 10e-7,0 2e-6,0 l -10e-7,24.020998 z"
           sodipodi:ry="24.020998"
           sodipodi:rx="24.020998"
           sodipodi:cy="63.849091"
           sodipodi:cx="64.020996"
           id="path3102"
           style="fill:#ffffff;fill-opacity:1;stroke:none"
           sodipodi:type="arc" />
        <path
           sodipodi:end="4.712389"
           sodipodi:start="1.5707963"
           transform="matrix(-0.76544131,0,0,0.76115987,22.720157,-24.562646)"
           d="m 64.020997,87.870089 c -13.266431,0 -24.020999,-10.754567 -24.020999,-24.020998 0,-13.266431 10.754567,-24.020998 24.020997,-24.020998 10e-7,0 10e-7,0 2e-6,0 l -10e-7,24.020998 z"
           sodipodi:ry="24.020998"
           sodipodi:rx="24.020998"
           sodipodi:cy="63.849091"
           sodipodi:cx="64.020996"
           id="path3104"
           style="fill:#cccccc;fill-opacity:1;stroke:none"
           sodipodi:type="arc" />
        <path
           sodipodi:end="4.712389"
           sodipodi:start="1.5707963"
           transform="matrix(-0.6060455,0,0,0.61331716,12.515483,-15.123022)"
           d="m 64.021004,87.698179 c -13.404504,10e-7 -24.271002,-10.6776 -24.271002,-23.849088 0,-13.171488 10.866497,-23.849089 24.271001,-23.849089 0,0 1e-6,0 1e-6,0 l 0,23.849089 z"
           sodipodi:ry="23.849089"
           sodipodi:rx="24.271002"
           sodipodi:cy="63.849091"
           sodipodi:cx="64.021004"
           id="path3106"
           style="fill:#ffffff;fill-opacity:1;stroke:none"
           sodipodi:type="arc" />
        <path
           sodipodi:end="4.712389"
           sodipodi:start="1.5707963"
           transform="matrix(-0.45453413,0,0,0.45998786,2.8155723,-5.3330857)"
           d="m 64.021004,87.698179 c -13.404504,10e-7 -24.271002,-10.6776 -24.271002,-23.849088 0,-13.171488 10.866497,-23.849089 24.271001,-23.849089 0,0 1e-6,0 1e-6,0 l 0,23.849089 z"
           sodipodi:ry="23.849089"
           sodipodi:rx="24.271002"
           sodipodi:cy="63.849091"
           sodipodi:cx="64.021004"
           id="path3108"
           style="fill:#808080;fill-opacity:1;stroke:none"
           sodipodi:type="arc" />
        <path
           sodipodi:end="4.712389"
           sodipodi:start="1.5707963"
           transform="matrix(-0.93163099,0,0,0.93796799,33.359785,-35.851338)"
           d="m 64.020996,71.646295 c -4.359955,0 -7.894398,-3.490927 -7.894398,-7.797204 0,-4.306277 3.534442,-7.797204 7.894398,-7.797204 0,0 0,0 0,0 l 0,7.797204 z"
           sodipodi:ry="7.797204"
           sodipodi:rx="7.8943977"
           sodipodi:cy="63.849091"
           sodipodi:cx="64.020996"
           id="path3110"
           style="fill:#ffffff;fill-opacity:1;stroke:none"
           sodipodi:type="arc" />
        <path
           sodipodi:end="4.712389"
           sodipodi:start="1.5707963"
           transform="matrix(-0.46581551,0,0,0.46898398,3.537814,-5.9074799)"
           d="m 64.020996,71.646295 c -4.359955,0 -7.894398,-3.490927 -7.894398,-7.797204 0,-4.306277 3.534442,-7.797204 7.894398,-7.797204 0,0 0,0 0,0 l 0,7.797204 z"
           sodipodi:ry="7.797204"
           sodipodi:rx="7.8943977"
           sodipodi:cy="63.849091"
           sodipodi:cx="64.020996"
           id="path3112"
           style="fill:#cccccc;fill-opacity:1;stroke:none"
           sodipodi:type="arc" />
      </g>
    </g>
  </g>
</svg>
