<?xml version="1.0" encoding="UTF-8" standalone="no"?>
<!-- Created with Inkscape (http://www.inkscape.org/) -->

<svg
   xmlns:dc="http://purl.org/dc/elements/1.1/"
   xmlns:cc="http://creativecommons.org/ns#"
   xmlns:rdf="http://www.w3.org/1999/02/22-rdf-syntax-ns#"
   xmlns:svg="http://www.w3.org/2000/svg"
   xmlns="http://www.w3.org/2000/svg"
   xmlns:xlink="http://www.w3.org/1999/xlink"
   xmlns:sodipodi="http://sodipodi.sourceforge.net/DTD/sodipodi-0.dtd"
   xmlns:inkscape="http://www.inkscape.org/namespaces/inkscape"
   width="128"
   height="128"
   id="svg2"
   sodipodi:version="0.32"
   inkscape:version="0.48.3.1 r9886"
   version="1.0"
   sodipodi:docname="audio-vnd.rn-realaudio.svg"
   inkscape:output_extension="org.inkscape.output.svg.inkscape">
  <defs
     id="defs4">
    <linearGradient
       inkscape:collect="always"
       id="linearGradient4132">
      <stop
         style="stop-color:#f2f2f2;stop-opacity:1;"
         offset="0"
         id="stop4134" />
      <stop
         style="stop-color:#f2f2f2;stop-opacity:0;"
         offset="1"
         id="stop4136" />
    </linearGradient>
    <linearGradient
       inkscape:collect="always"
       id="linearGradient3155">
      <stop
         style="stop-color:#303030;stop-opacity:1;"
         offset="0"
         id="stop3157" />
      <stop
         style="stop-color:#303030;stop-opacity:0;"
         offset="1"
         id="stop3159" />
    </linearGradient>
    <linearGradient
       inkscape:collect="always"
       id="linearGradient6067">
      <stop
         style="stop-color:#ffffff;stop-opacity:1;"
         offset="0"
         id="stop6069" />
      <stop
         style="stop-color:#ffffff;stop-opacity:0;"
         offset="1"
         id="stop6071" />
    </linearGradient>
    <linearGradient
       inkscape:collect="always"
       id="linearGradient3142">
      <stop
         style="stop-color:#303030;stop-opacity:1;"
         offset="0"
         id="stop3144" />
      <stop
         style="stop-color:#303030;stop-opacity:0;"
         offset="1"
         id="stop3146" />
    </linearGradient>
    <linearGradient
       inkscape:collect="always"
       xlink:href="#linearGradient3142"
       id="linearGradient3148"
       x1="92.804863"
       y1="75.855133"
       x2="92.804863"
       y2="110.71667"
       gradientUnits="userSpaceOnUse"
       gradientTransform="matrix(1.6258627,0,0,1.6258627,-28.787153,-52.145846)" />
    <linearGradient
       inkscape:collect="always"
       xlink:href="#linearGradient6067"
       id="linearGradient6073"
       x1="29.731594"
       y1="96.211563"
       x2="29.731594"
       y2="119.78299"
       gradientUnits="userSpaceOnUse" />
    <linearGradient
       inkscape:collect="always"
       xlink:href="#linearGradient3155"
       id="linearGradient3161"
       x1="100.75668"
       y1="85.389313"
       x2="100.75668"
       y2="124.82345"
       gradientUnits="userSpaceOnUse" />
    <linearGradient
       inkscape:collect="always"
       xlink:href="#linearGradient4132"
       id="linearGradient4138"
       x1="96.899597"
       y1="-101.65641"
       x2="96.899597"
       y2="-115.67227"
       gradientUnits="userSpaceOnUse"
       gradientTransform="translate(-14.27655,0)" />
  </defs>
  <sodipodi:namedview
     id="base"
     pagecolor="#ffffff"
     bordercolor="#666666"
     borderopacity="1.0"
     inkscape:pageopacity="0.0"
     inkscape:pageshadow="2"
     inkscape:zoom="4"
     inkscape:cx="78.225802"
     inkscape:cy="40.759296"
     inkscape:document-units="px"
     inkscape:current-layer="layer1-7"
     showgrid="true"
     width="128px"
     height="128px"
     showguides="true"
     inkscape:guide-bbox="true"
     inkscape:window-width="798"
     inkscape:window-height="879"
     inkscape:window-x="0"
     inkscape:window-y="0"
     inkscape:window-maximized="0"
     inkscape:snap-center="false"
     inkscape:snap-bbox="true"
     inkscape:snap-bbox-midpoints="false"
     inkscape:snap-object-midpoints="false"
     inkscape:snap-nodes="true"
     inkscape:bbox-nodes="true">
    <inkscape:grid
       type="xygrid"
       id="grid3158" />
  </sodipodi:namedview>
  <metadata
     id="metadata7">
    <rdf:RDF>
      <cc:Work
         rdf:about="">
        <dc:format>image/svg+xml</dc:format>
        <dc:type
           rdf:resource="http://purl.org/dc/dcmitype/StillImage" />
        <dc:title />
      </cc:Work>
    </rdf:RDF>
  </metadata>
  <g
     inkscape:label="Livello 1"
     inkscape:groupmode="layer"
     id="layer1">
    <path
       style="fill:#ffffff;fill-opacity:1;stroke:none;stroke-width:0.2;stroke-linecap:round;stroke-linejoin:round;stroke-miterlimit:4;stroke-dashoffset:0;stroke-opacity:1"
       d="M 29.60816,13.050447 L 76.88938,13.029761 L 103.95139,39.997787 L 103.85343,109.41071 C 103.85343,112.49069 101.37387,114.97024 98.29388,114.97024 L 29.60816,114.97024 C 26.52817,114.97024 24.04861,112.49069 24.04861,109.41071 L 24.04861,18.609992 C 24.04861,15.530006 26.52817,13.050447 29.60816,13.050447 z "
       id="path3275"
       sodipodi:nodetypes="ccccccccc" />
    <g
       id="g4562"
       transform="translate(-2.0166215,7.230244)">
      <path
         sodipodi:nodetypes="ccccccccc"
         id="rect2162"
         d="M 36.110672,12.46579 L 77.22478,12.447802 L 100.75696,35.898259 L 100.67178,96.257326 C 100.67178,98.935577 98.515638,101.09171 95.837388,101.09171 L 36.110672,101.09171 C 33.432419,101.09171 31.276283,98.935577 31.276283,96.257326 L 31.276283,17.300177 C 31.276283,14.621928 33.432419,12.46579 36.110672,12.46579 z "
         style="fill:#303030;fill-opacity:1;stroke:none;stroke-width:0.2;stroke-linecap:round;stroke-linejoin:round;stroke-miterlimit:4;stroke-dashoffset:0;stroke-opacity:1" />
      <path
         d="m 75.892857,53.089287 c 0,8.629449 -6.995551,15.625 -15.625,15.625 -8.62945,0 -15.625,-6.995551 -15.625,-15.625 0,-8.629449 6.99555,-15.625 15.625,-15.625 8.629449,0 15.625,6.995551 15.625,15.625 z"
         sodipodi:ry="15.625"
         sodipodi:rx="15.625"
         sodipodi:cy="53.089287"
         sodipodi:cx="60.267857"
         id="path4164"
         style="opacity:1;fill:none;fill-opacity:1;stroke:none;stroke-width:5;stroke-linecap:butt;stroke-linejoin:miter;stroke-miterlimit:19.60000038;stroke-dasharray:none;stroke-dashoffset:0;stroke-opacity:0.32156863"
         sodipodi:type="arc" />
      <g
         transform="matrix(0.99709947,0,0,1.0027081,42.129305,32.667942)"
         id="layer1-7">
        <path
           inkscape:connector-curvature="0"
           d="m 29.762532,24.158312 a 5.6675463,5.6675463 0 1 1 -11.335092,0 5.6675463,5.6675463 0 1 1 11.335092,0 z"
           transform="matrix(3.8940688,0,0,3.8699342,-69.864911,-69.454358)"
           id="path5553"
           style="fill:#6c9eab;fill-opacity:1;stroke:#ffffff;stroke-width:1.03050446999999989;stroke-linecap:butt;stroke-linejoin:miter;stroke-miterlimit:4;stroke-opacity:1;stroke-dasharray:none;stroke-dashoffset:0" />
        <path
           inkscape:connector-curvature="0"
           d="m 29.762532,24.158312 a 5.6675463,5.6675463 0 1 1 -11.335092,0 5.6675463,5.6675463 0 1 1 11.335092,0 z"
           transform="matrix(2.4726096,0,0,2.456508,-35.59963,-35.45887)"
           id="path5539"
           style="fill:#303030;fill-opacity:1;stroke:#ffffff;stroke-width:1.62317979000000001;stroke-linecap:butt;stroke-linejoin:miter;stroke-miterlimit:4;stroke-opacity:1;stroke-dasharray:none;stroke-dashoffset:0" />
        <path
           inkscape:connector-curvature="0"
           d="m 29.762532,24.158312 a 5.6675463,5.6675463 0 1 1 -11.335092,0 5.6675463,5.6675463 0 1 1 11.335092,0 z"
           transform="matrix(1.0526115,0,0,1.0490217,-1.393386,-1.2798122)"
           id="path5537"
           style="fill:#6c9eab;fill-opacity:1;stroke:#ffffff;stroke-width:3.80695032999999983;stroke-linecap:butt;stroke-linejoin:miter;stroke-miterlimit:4;stroke-opacity:1;stroke-dasharray:none;stroke-dashoffset:0" />
        <g
           id="g3150"
           transform="matrix(0.90940624,0,0,0.93954422,8.2877649,3.819476)"
           style="fill:#f9f9f9">
          <path
             d="m 44.963746,63.19311 4.32148,0 3.234895,-11.922554 -4.327688,0 -3.228687,11.922554"
             class="ps04 ps22"
             id="path472"
             style="font-size:7.5px;letter-spacing:0.075px;word-spacing:0;fill:#f9f9f9;fill-rule:nonzero;stroke:none;font-family:fnt1"
             inkscape:connector-curvature="0" />
          <path
             d="m 24.095229,57.907918 c 0.32287,-0.919969 1.092787,-1.457133 2.247667,-1.457133 1.098994,0 1.645387,0.518641 1.645387,1.173117 0,0.08644 -0.02484,0.20375 -0.04346,0.284016 l -3.84959,0 z m 3.10451,2.796954 c -0.217315,0.296365 -0.763711,0.617428 -1.707481,0.617428 -1.353566,0 -1.769571,-0.771786 -1.769571,-1.691755 l 8.090354,0 c 0.198688,-0.530988 0.223525,-1.037281 0.223525,-1.506527 0,-2.722861 -3.042421,-3.797188 -5.557074,-3.797188 -2.825104,0 -6.805086,1.308949 -6.805086,5.285192 0,2.111608 1.620555,3.834234 5.644,3.834234 4.898916,0 5.749552,-2.161001 6.035169,-2.741384 l -4.153836,0"
             class="ps05 ps22"
             id="path474"
             style="font-size:7.5px;letter-spacing:0.075px;word-spacing:0;fill:#f9f9f9;fill-rule:evenodd;stroke:none;font-family:fnt1"
             inkscape:connector-curvature="0" />
          <path
             d="m 20.537461,54.475013 c -0.391169,-0.09879 -0.807173,-0.12966 -1.52742,-0.12966 -1.117623,0 -2.53328,0.6483 -3.296989,1.56827 l -0.04346,0 0.372541,-1.35217 -4.191087,0 -2.3408009,8.662529 4.3276869,0 0.981025,-3.624308 c 0.502931,-1.815242 1.415656,-2.420322 3.253525,-2.420322 0.310452,0 0.63953,0.0247 0.962399,0.07409 l 1.502584,-2.778431"
             class="ps04 ps22"
             id="path476"
             style="font-size:7.5px;letter-spacing:0.075px;word-spacing:0;fill:#f9f9f9;fill-rule:nonzero;stroke:none;font-family:fnt1"
             inkscape:connector-curvature="0" />
          <path
             d="m 36.718167,60.698697 c 0,-0.635952 0.676782,-0.919969 1.397027,-0.969364 0.788547,-0.04939 1.595721,-0.117311 2.29113,-0.382805 -0.260778,1.284253 -0.850635,2.099259 -2.309756,2.099259 -0.701619,0 -1.378401,-0.148184 -1.378401,-0.74709 z m 7.140371,1.426262 c 0.235941,-1.09285 1.328734,-4.309654 1.328734,-5.519816 0,-2.099258 -3.446006,-2.303011 -5.501195,-2.303011 -2.769222,0 -5.103814,0.537164 -5.780598,2.840174 l 4.060701,0 c 0.235941,-0.6483 0.850634,-0.882924 1.719897,-0.882924 0.658156,0 1.353565,0.148184 1.353565,0.747089 0,1.068153 -1.943422,0.938493 -3.166599,1.006409 -3.247316,0.179055 -5.476355,0.796484 -5.476355,3.087146 0,1.648536 1.726106,2.30301 3.669531,2.30301 1.266641,0 2.725759,-0.351934 3.48947,-1.049629 l 0.04346,0 c -0.01862,0.277843 -0.167647,0.833529 -0.167647,0.833529 l 4.135207,0 0.291825,-1.061977"
             class="ps05 ps22"
             id="path478"
             style="font-size:7.5px;letter-spacing:0.075px;word-spacing:0;fill:#f9f9f9;fill-rule:evenodd;stroke:none;font-family:fnt1"
             inkscape:connector-curvature="0" />
        </g>
      </g>
    </g>
  </g>
</svg>
