<?xml version="1.0" encoding="UTF-8" standalone="no"?>
<!-- Created with Inkscape (http://www.inkscape.org/) -->

<svg
   xmlns:dc="http://purl.org/dc/elements/1.1/"
   xmlns:cc="http://creativecommons.org/ns#"
   xmlns:rdf="http://www.w3.org/1999/02/22-rdf-syntax-ns#"
   xmlns:svg="http://www.w3.org/2000/svg"
   xmlns="http://www.w3.org/2000/svg"
   xmlns:xlink="http://www.w3.org/1999/xlink"
   xmlns:sodipodi="http://sodipodi.sourceforge.net/DTD/sodipodi-0.dtd"
   xmlns:inkscape="http://www.inkscape.org/namespaces/inkscape"
   width="128"
   height="128"
   id="svg2"
   sodipodi:version="0.32"
   inkscape:version="0.48.3.1 r9886"
   version="1.0"
   sodipodi:docname="x-office-address-book.svg"
   inkscape:output_extension="org.inkscape.output.svg.inkscape">
  <defs
     id="defs4">
    <linearGradient
       inkscape:collect="always"
       id="linearGradient4132">
      <stop
         style="stop-color:#f2f2f2;stop-opacity:1;"
         offset="0"
         id="stop4134" />
      <stop
         style="stop-color:#f2f2f2;stop-opacity:0;"
         offset="1"
         id="stop4136" />
    </linearGradient>
    <linearGradient
       inkscape:collect="always"
       id="linearGradient3155">
      <stop
         style="stop-color:#303030;stop-opacity:1;"
         offset="0"
         id="stop3157" />
      <stop
         style="stop-color:#303030;stop-opacity:0;"
         offset="1"
         id="stop3159" />
    </linearGradient>
    <linearGradient
       inkscape:collect="always"
       id="linearGradient6067">
      <stop
         style="stop-color:#ffffff;stop-opacity:1;"
         offset="0"
         id="stop6069" />
      <stop
         style="stop-color:#ffffff;stop-opacity:0;"
         offset="1"
         id="stop6071" />
    </linearGradient>
    <linearGradient
       inkscape:collect="always"
       id="linearGradient3142">
      <stop
         style="stop-color:#303030;stop-opacity:1;"
         offset="0"
         id="stop3144" />
      <stop
         style="stop-color:#303030;stop-opacity:0;"
         offset="1"
         id="stop3146" />
    </linearGradient>
    <linearGradient
       inkscape:collect="always"
       xlink:href="#linearGradient3142"
       id="linearGradient3148"
       x1="92.804863"
       y1="75.855133"
       x2="92.804863"
       y2="110.71667"
       gradientUnits="userSpaceOnUse"
       gradientTransform="matrix(1.6258627,0,0,1.6258627,-28.787153,-52.145846)" />
    <linearGradient
       inkscape:collect="always"
       xlink:href="#linearGradient6067"
       id="linearGradient6073"
       x1="29.731594"
       y1="96.211563"
       x2="29.731594"
       y2="119.78299"
       gradientUnits="userSpaceOnUse" />
    <linearGradient
       inkscape:collect="always"
       xlink:href="#linearGradient3155"
       id="linearGradient3161"
       x1="100.75668"
       y1="85.389313"
       x2="100.75668"
       y2="124.82345"
       gradientUnits="userSpaceOnUse" />
    <linearGradient
       inkscape:collect="always"
       xlink:href="#linearGradient4132"
       id="linearGradient4138"
       x1="96.899597"
       y1="-101.65641"
       x2="96.899597"
       y2="-115.67227"
       gradientUnits="userSpaceOnUse"
       gradientTransform="translate(-2.2728432,0)" />
  </defs>
  <sodipodi:namedview
     id="base"
     pagecolor="#ffffff"
     bordercolor="#666666"
     borderopacity="1.0"
     inkscape:pageopacity="0.0"
     inkscape:pageshadow="2"
     inkscape:zoom="0.5"
     inkscape:cx="61.259961"
     inkscape:cy="71.071068"
     inkscape:document-units="px"
     inkscape:current-layer="g2262"
     showgrid="false"
     width="128px"
     height="128px"
     showguides="true"
     inkscape:guide-bbox="true"
     inkscape:window-width="1598"
     inkscape:window-height="879"
     inkscape:window-x="0"
     inkscape:window-y="0"
     inkscape:window-maximized="1">
    <inkscape:grid
       type="xygrid"
       id="grid3795" />
  </sodipodi:namedview>
  <metadata
     id="metadata7">
    <rdf:RDF>
      <cc:Work
         rdf:about="">
        <dc:format>image/svg+xml</dc:format>
        <dc:type
           rdf:resource="http://purl.org/dc/dcmitype/StillImage" />
        <dc:title></dc:title>
      </cc:Work>
    </rdf:RDF>
  </metadata>
  <g
     inkscape:label="Livello 1"
     inkscape:groupmode="layer"
     id="layer1">
    <path
       style="fill:#ffffff;fill-opacity:1;stroke:none;stroke-width:0.2;stroke-linecap:round;stroke-linejoin:round;stroke-miterlimit:4;stroke-dashoffset:0;stroke-opacity:1"
       d="M 29.608158,13.050443 L 76.889382,13.029757 L 103.95139,39.997783 L 103.85343,109.41071 C 103.85343,112.49069 101.37387,114.97024 98.293882,114.97024 L 29.608158,114.97024 C 26.528167,114.97024 24.04861,112.49069 24.04861,109.41071 L 24.04861,18.609988 C 24.04861,15.530002 26.528167,13.050443 29.608158,13.050443 z "
       id="path3275"
       sodipodi:nodetypes="ccccccccc" />
    <path
       style="fill:#303030;fill-opacity:1;stroke:none;stroke-width:0.2;stroke-linecap:round;stroke-linejoin:round;stroke-miterlimit:4;stroke-dashoffset:0;stroke-opacity:1"
       d="M 34.094051,19.696034 L 75.208158,19.678046 L 98.740339,43.128503 L 98.655158,103.48757 C 98.655158,106.16582 96.499016,108.32195 93.820767,108.32195 L 34.094051,108.32195 C 31.415798,108.32195 29.259661,106.16582 29.259661,103.48757 L 29.259661,24.530421 C 29.259661,21.852172 31.415798,19.696034 34.094051,19.696034 z "
       id="rect2162"
       sodipodi:nodetypes="ccccccccc" />
    <text
       xml:space="preserve"
       style="font-size:12px;font-style:normal;font-weight:normal;text-align:end;text-anchor:end;fill:#f2f2f2;fill-opacity:1;stroke:none;font-family:Bitstream Vera Sans"
       x="95.124077"
       y="103.28417"
       id="text8053"><tspan
         sodipodi:role="line"
         id="tspan8055"
         x="95.124077"
         y="103.28417">MIDI</tspan></text>
    <g
       id="g2262"
       transform="matrix(1.4560719,0,0,1.4399736,-33.804912,3.8475979)"
       style="fill:#f2f2f2">
      <path
         inkscape:connector-curvature="0"
         id="path62"
         style="fill:#f2f2f2;fill-rule:nonzero;stroke:#000000;stroke-width:0;stroke-linecap:butt;stroke-linejoin:round;stroke-miterlimit:10"
         d="m 62.451112,49.109413 0.368088,0 0,-23.702233 -0.368088,0 0,23.702233 z" />
      <path
         inkscape:connector-curvature="0"
         id="path66"
         style="fill:#f2f2f2;stroke:#f2f2f2;stroke-width:0.69060755;stroke-linecap:butt;stroke-linejoin:round;stroke-miterlimit:10;stroke-dasharray:none"
         d="m 62.2083,49.203959 0.368088,0 0,-23.702233 -0.368088,0 0,23.702233 z" />
      <path
         inkscape:connector-curvature="0"
         id="path98"
         style="fill:#f2f2f2;fill-rule:evenodd;stroke:#000000;stroke-width:0;stroke-linecap:butt;stroke-linejoin:round;stroke-miterlimit:10"
         d="m 59.255284,46.262018 c -1.202928,0.148704 -2.432364,0.643428 -3.490992,1.466484 -1.202928,0.879 -2.024508,2.05248 -2.28954,3.255408 -0.05742,0.384288 -0.05742,1.057164 0.02945,1.351632 0.263556,1.029192 1.086612,1.67262 2.317512,1.93764 0.350424,0.05743 1.236792,0.05743 1.674084,0 1.114584,-0.2076 2.260092,-0.708204 3.253944,-1.4385 1.17348,-0.879012 1.996536,-2.052492 2.261556,-3.25542 0.05743,-0.384288 0.05743,-1.057152 -0.02944,-1.379604 -0.265032,-0.96588 -1.05864,-1.616664 -2.23212,-1.88022 -0.320976,-0.05742 -1.144032,-0.08687 -1.494456,-0.05742 z" />
      <path
         inkscape:connector-curvature="0"
         d="m 80.063014,53.295403 0.368088,0 0,-23.702232 -0.368088,0 0,23.702232 z"
         style="fill:#f2f2f2;stroke:#f2f2f2;stroke-width:0.69060755;stroke-linecap:butt;stroke-linejoin:round;stroke-miterlimit:10;stroke-dasharray:none"
         id="path2242" />
      <path
         inkscape:connector-curvature="0"
         d="m 77.111441,50.386004 c -1.202907,0.148703 -2.432321,0.643428 -3.490929,1.466483 -1.202907,0.879001 -2.024472,2.05248 -2.289499,3.255408 -0.05742,0.384288 -0.05742,1.057164 0.02945,1.351632 0.263552,1.029193 1.086593,1.672621 2.31747,1.93764 0.350418,0.05743 1.23677,0.05743 1.674054,0 1.114564,-0.2076 2.260052,-0.708203 3.253886,-1.438499 1.173458,-0.879012 1.9965,-2.052492 2.261515,-3.25542 0.05743,-0.384288 0.05743,-1.057152 -0.02944,-1.379604 -0.265027,-0.96588 -1.058621,-1.616664 -2.232079,-1.880221 -0.320971,-0.05742 -1.144012,-0.08687 -1.494429,-0.05742 z"
         style="fill:#f2f2f2;fill-rule:evenodd;stroke:#000000;stroke-width:0;stroke-linecap:butt;stroke-linejoin:round;stroke-miterlimit:10"
         id="path2244" />
      <path
         inkscape:connector-curvature="0"
         sodipodi:nodetypes="ccccc"
         id="path2254"
         d="m 80.385521,37.841074 -17.96875,-4.15625 0.25,-2.607757 17.9375,4.125 -0.21875,2.639007 z"
         style="fill:#f2f2f2;fill-opacity:1;fill-rule:evenodd;stroke:#f2f2f2;stroke-opacity:1;stroke-width:0.34530378;stroke-miterlimit:4;stroke-dasharray:none;stroke-linejoin:round" />
      <path
         inkscape:connector-curvature="0"
         style="fill:#f2f2f2;fill-opacity:1;fill-rule:evenodd;stroke:#f2f2f2;stroke-width:0.34530377;stroke-linejoin:round;stroke-miterlimit:10;stroke-opacity:1;stroke-dasharray:none"
         d="m 80.385521,32.08559 -17.96875,-4.15625 0.25,-2.607757 17.9375,4.125 -0.21875,2.639007 z"
         id="path2260"
         sodipodi:nodetypes="ccccc" />
    </g>
  </g>
</svg>
