<?xml version="1.0" encoding="UTF-8" standalone="no"?>
<!-- Created with Inkscape (http://www.inkscape.org/) -->

<svg
   xmlns:dc="http://purl.org/dc/elements/1.1/"
   xmlns:cc="http://creativecommons.org/ns#"
   xmlns:rdf="http://www.w3.org/1999/02/22-rdf-syntax-ns#"
   xmlns:svg="http://www.w3.org/2000/svg"
   xmlns="http://www.w3.org/2000/svg"
   xmlns:xlink="http://www.w3.org/1999/xlink"
   xmlns:sodipodi="http://sodipodi.sourceforge.net/DTD/sodipodi-0.dtd"
   xmlns:inkscape="http://www.inkscape.org/namespaces/inkscape"
   width="128"
   height="128"
   id="svg2"
   sodipodi:version="0.32"
   inkscape:version="0.48.3.1 r9886"
   version="1.0"
   sodipodi:docname="text-x-generic.svg"
   inkscape:output_extension="org.inkscape.output.svg.inkscape">
  <defs
     id="defs4">
    <linearGradient
       inkscape:collect="always"
       id="linearGradient4132">
      <stop
         style="stop-color:#f2f2f2;stop-opacity:1;"
         offset="0"
         id="stop4134" />
      <stop
         style="stop-color:#f2f2f2;stop-opacity:0;"
         offset="1"
         id="stop4136" />
    </linearGradient>
    <linearGradient
       inkscape:collect="always"
       id="linearGradient3155">
      <stop
         style="stop-color:#303030;stop-opacity:1;"
         offset="0"
         id="stop3157" />
      <stop
         style="stop-color:#303030;stop-opacity:0;"
         offset="1"
         id="stop3159" />
    </linearGradient>
    <linearGradient
       inkscape:collect="always"
       id="linearGradient6067">
      <stop
         style="stop-color:#ffffff;stop-opacity:1;"
         offset="0"
         id="stop6069" />
      <stop
         style="stop-color:#ffffff;stop-opacity:0;"
         offset="1"
         id="stop6071" />
    </linearGradient>
    <linearGradient
       inkscape:collect="always"
       id="linearGradient3142">
      <stop
         style="stop-color:#303030;stop-opacity:1;"
         offset="0"
         id="stop3144" />
      <stop
         style="stop-color:#303030;stop-opacity:0;"
         offset="1"
         id="stop3146" />
    </linearGradient>
    <linearGradient
       inkscape:collect="always"
       xlink:href="#linearGradient3142"
       id="linearGradient3148"
       x1="92.804863"
       y1="75.855133"
       x2="92.804863"
       y2="110.71667"
       gradientUnits="userSpaceOnUse"
       gradientTransform="matrix(1.6258627,0,0,1.6258627,-28.787153,-52.145846)" />
    <linearGradient
       inkscape:collect="always"
       xlink:href="#linearGradient6067"
       id="linearGradient6073"
       x1="29.731594"
       y1="96.211563"
       x2="29.731594"
       y2="119.78299"
       gradientUnits="userSpaceOnUse" />
    <linearGradient
       inkscape:collect="always"
       xlink:href="#linearGradient3155"
       id="linearGradient3161"
       x1="100.75668"
       y1="85.389313"
       x2="100.75668"
       y2="124.82345"
       gradientUnits="userSpaceOnUse" />
    <linearGradient
       inkscape:collect="always"
       xlink:href="#linearGradient4132"
       id="linearGradient4138"
       x1="96.899597"
       y1="-101.65641"
       x2="96.899597"
       y2="-115.67227"
       gradientUnits="userSpaceOnUse" />
  </defs>
  <sodipodi:namedview
     id="base"
     pagecolor="#ffffff"
     bordercolor="#666666"
     borderopacity="1.0"
     inkscape:pageopacity="0.0"
     inkscape:pageshadow="2"
     inkscape:zoom="5.6"
     inkscape:cx="53.420431"
     inkscape:cy="61.276418"
     inkscape:document-units="px"
     inkscape:current-layer="g4452"
     showgrid="true"
     width="128px"
     height="128px"
     showguides="true"
     inkscape:guide-bbox="true"
     inkscape:window-width="1598"
     inkscape:window-height="879"
     inkscape:window-x="0"
     inkscape:window-y="0"
     inkscape:window-maximized="1" />
  <metadata
     id="metadata7">
    <rdf:RDF>
      <cc:Work
         rdf:about="">
        <dc:format>image/svg+xml</dc:format>
        <dc:type
           rdf:resource="http://purl.org/dc/dcmitype/StillImage" />
        <dc:title></dc:title>
      </cc:Work>
    </rdf:RDF>
  </metadata>
  <g
     inkscape:label="Livello 1"
     inkscape:groupmode="layer"
     id="layer1">
    <path
       style="fill:#ffffff;fill-opacity:1;stroke:none;stroke-width:0.2;stroke-linecap:round;stroke-linejoin:round;stroke-miterlimit:4;stroke-dashoffset:0;stroke-opacity:1"
       d="M 29.608156,13.050445 L 76.889382,13.029759 L 103.95139,39.997785 L 103.85343,109.41071 C 103.85343,112.49069 101.37387,114.97024 98.293882,114.97024 L 29.608156,114.97024 C 26.528165,114.97024 24.048608,112.49069 24.048608,109.41071 L 24.048608,18.60999 C 24.048608,15.530004 26.528165,13.050445 29.608156,13.050445 z "
       id="path3275"
       sodipodi:nodetypes="ccccccccc" />
    <g
       id="g4452"
       transform="translate(-2.0166215,7.230244)">
      <path
         sodipodi:nodetypes="ccccccccc"
         id="rect2162"
         d="M 36.110672,12.46579 L 77.22478,12.447802 L 100.75696,35.898259 L 100.67178,96.257326 C 100.67178,98.935577 98.515638,101.09171 95.837388,101.09171 L 36.110672,101.09171 C 33.432419,101.09171 31.276283,98.935577 31.276283,96.257326 L 31.276283,17.300177 C 31.276283,14.621928 33.432419,12.46579 36.110672,12.46579 z "
         style="fill:#303030;fill-opacity:1;stroke:none;stroke-width:0.2;stroke-linecap:round;stroke-linejoin:round;stroke-miterlimit:4;stroke-dashoffset:0;stroke-opacity:1" />
      <text
         id="text8053"
         y="96.053925"
         x="96.935028"
         style="font-size:12px;font-style:normal;font-weight:normal;text-align:end;text-anchor:end;fill:#f2f2f2;fill-opacity:1;stroke:none;font-family:Bitstream Vera Sans"
         xml:space="preserve"><tspan
           y="96.053925"
           x="96.935028"
           id="tspan8055"
           sodipodi:role="line">FONT</tspan></text>
    </g>
    <path
       inkscape:connector-curvature="0"
       style="fill:#ffffff;fill-opacity:1"
       d="m 50.938688,70.491198 c -0.213554,0.629412 -0.376526,1.174524 -0.488917,1.635337 -0.112387,0.460819 -0.168609,0.798003 -0.16858,1.011551 -3e-6,0.292226 0.07305,0.505776 0.219163,0.640647 0.157359,0.134858 0.460813,0.230413 0.910394,0.286607 0.06744,0.01122 0.16297,0.02819 0.286607,0.05058 0.966584,0.146109 1.449881,0.387759 1.449886,0.724943 -5e-6,0.134859 -0.06184,0.241635 -0.185442,0.320324 -0.112416,0.07867 -0.280997,0.118026 -0.505773,0.118026 -0.06744,0 -0.522641,-0.03933 -1.365594,-0.118026 -0.84296,-0.07867 -1.652196,-0.118028 -2.427716,-0.118028 -0.483296,0 -1.039648,0.02819 -1.669056,0.08431 -0.629408,0.05619 -1.017167,0.08431 -1.163282,0.08431 -0.269746,0 -0.472054,-0.03933 -0.606928,-0.118027 -0.146108,-0.07866 -0.219163,-0.191081 -0.219163,-0.337181 3e-6,-0.146109 0.05619,-0.252886 0.16858,-0.320324 0.112388,-0.07866 0.354043,-0.129248 0.724944,-0.15172 0.01122,3e-6 0.02244,3e-6 0.03372,0 0.56197,-0.05619 0.972209,-0.157359 1.230717,-0.303462 0.483293,-0.280996 1.000309,-1.129563 1.551041,-2.545733 l 0.01698,-0.01698 6.861675,-17.803261 c 0.02244,-0.05616 0.04495,-0.112358 0.06744,-0.168581 0.179831,-0.449557 0.398991,-0.674342 0.657508,-0.674365 0.303453,2.3e-5 0.578819,0.342823 0.826097,1.028408 0.08991,0.258525 0.16297,0.455217 0.219163,0.59007 l 6.524491,16.437668 c 0.415841,1.056512 0.769884,1.787074 1.062127,2.191691 0.292207,0.393381 0.640627,0.696846 1.045267,0.910393 0.14608,0.07867 0.303445,0.146109 0.472054,0.202302 0.168581,0.05619 0.348404,0.106778 0.539493,0.15172 -1.9e-5,3e-6 0.01122,0.0058 0.03373,0.01698 0.382119,0.112387 0.573191,0.241636 0.573211,0.387759 -2e-5,0.157359 -0.06184,0.275357 -0.185442,0.354042 -0.112416,0.06744 -0.292247,0.101166 -0.539492,0.101166 -0.269776,0 -0.83174,-0.02819 -1.685917,-0.08431 -0.842975,-0.05619 -1.556677,-0.08431 -2.14111,-0.08431 -0.966607,0 -1.944438,0.0282 -2.933494,0.08431 -0.977843,0.05619 -1.472378,0.08431 -1.483605,0.08431 -0.280997,0 -0.477686,-0.02819 -0.59007,-0.08431 -0.112416,-0.06745 -0.168609,-0.17983 -0.168581,-0.337184 -9e-6,-0.292224 0.39337,-0.466436 1.180142,-0.522635 0.08991,-0.01122 0.15172,-0.01698 0.185443,-0.01698 0.528239,-0.04498 0.871043,-0.123636 1.028408,-0.236024 0.16858,-0.112387 0.252885,-0.309085 0.252885,-0.59007 -1.1e-5,-0.179831 -0.03372,-0.398996 -0.101165,-0.657507 -0.06744,-0.258497 -0.16861,-0.561967 -0.303466,-0.910394 L 58.424284,67.37214 c -0.04498,-0.101137 -0.106776,-0.168581 -0.185441,-0.202303 -0.0787,-0.04495 -0.219163,-0.06742 -0.421477,-0.06744 l -5.361209,0 c -0.101166,6e-6 -0.196692,0.0282 -0.286608,0.08431 -0.08991,0.05619 -0.157359,0.134887 -0.202303,0.236025 l -1.028408,3.068364 m 1.787071,-5.260055 c -6e-6,0.02244 -0.0058,0.05619 -0.01698,0.101166 -0.02244,0.101166 -0.03933,0.185471 -0.05058,0.252886 -6e-6,0.06744 0.02244,0.118026 0.06744,0.15172 0.04494,0.03372 0.117998,0.05058 0.219164,0.05058 l 4.349658,0 c 0.101136,1.1e-5 0.179831,-0.0282 0.236025,-0.08431 0.06742,-0.05619 0.101136,-0.129249 0.101165,-0.219164 -1.2e-5,-0.04495 -0.01123,-0.112387 -0.03372,-0.202303 -0.01122,-0.04495 -0.02244,-0.08428 -0.03372,-0.118026 l -2.309708,-6.001856 c -0.03373,-0.101137 -0.07305,-0.174191 -0.118028,-0.219163 -0.04498,-0.05619 -0.09555,-0.08989 -0.151719,-0.101166 -0.04498,0.01123 -0.08991,0.04498 -0.134858,0.101166 -0.04498,0.04498 -0.08431,0.106805 -0.118027,0.185441 l -2.006237,6.103013 m 23.501652,5.293774 0,-2.731183 c -0.01122,-0.134859 -0.03373,-0.236024 -0.06745,-0.303466 -0.03372,-0.06742 -0.08431,-0.106776 -0.15172,-0.118026 -0.04497,6e-6 -0.112416,0.01698 -0.202302,0.05058 -0.0787,0.02244 -0.15736,0.05058 -0.236025,0.08431 l -1.449886,0.556351 c -0.820486,0.325948 -1.449895,0.775526 -1.888225,1.348732 -0.427106,0.561976 -0.640652,1.219484 -0.64065,1.972521 -2e-6,0.708088 0.134859,1.247578 0.40462,1.618478 0.280997,0.370904 0.685599,0.556354 1.213859,0.556351 0.786753,3e-6 1.483599,-0.297842 2.090536,-0.893535 0.618158,-0.606925 0.927242,-1.320629 0.927251,-2.14111 m 3.472987,0.758661 c -1.4e-5,0.842959 0.08428,1.433028 0.252885,1.77021 0.168581,0.337185 0.443942,0.505777 0.826102,0.505774 0.224773,3e-6 0.522615,-0.123638 0.893534,-0.3709 0.370883,-0.258497 0.635009,-0.387758 0.792376,-0.387762 0.15734,4e-6 0.275349,0.04498 0.354042,0.134859 0.0899,0.08991 0.134855,0.213552 0.134873,0.370903 -1.3e-5,0.40462 -0.432733,0.916013 -1.29815,1.534182 -0.865454,0.618167 -1.674691,0.927252 -2.427719,0.927252 -0.62942,0 -1.19701,-0.207942 -1.702774,-0.623789 -0.505786,-0.415858 -0.916025,-1.011547 -1.230717,-1.787068 l -0.252886,0 -0.927252,0.606928 c -1.067755,0.719324 -1.905091,1.197001 -2.512014,1.433029 -0.606936,0.247275 -1.208245,0.3709 -1.803928,0.3709 -0.932876,0 -1.674677,-0.247274 -2.225409,-0.741802 -0.539493,-0.505772 -0.809239,-1.180139 -0.809239,-2.023097 0,-1.258814 0.488913,-2.343419 1.466747,-3.253817 0.977825,-0.910388 2.764893,-1.876978 5.361209,-2.899773 l 1.112705,-0.438339 c 0.191052,-0.07867 0.320314,-0.162969 0.387761,-0.252885 0.06742,-0.101137 0.101137,-0.292218 0.101165,-0.573212 l 0,-2.461436 c -1e-5,-1.078971 -0.129248,-1.809534 -0.387761,-2.19169 -0.247274,-0.382125 -0.696852,-0.573195 -1.348732,-0.57321 -0.629414,1.5e-5 -1.168907,0.162971 -1.618478,0.488913 -0.449583,0.325958 -0.9104,0.927269 -1.382451,1.803932 -0.483299,0.876686 -0.932877,1.449897 -1.348732,1.719633 -0.415861,0.258524 -0.944116,0.38777 -1.58476,0.387758 -0.236024,1.2e-5 -0.432719,-0.06181 -0.59007,-0.185441 -0.157359,-0.123638 -0.236024,-0.269747 -0.236024,-0.438337 -3e-6,-1.191369 0.781136,-2.292832 2.343421,-3.304394 1.562276,-1.022773 3.394302,-1.534167 5.496083,-1.534182 1.58475,1.5e-5 2.674974,0.269775 3.270675,0.809239 0.595678,0.528269 0.893521,1.579154 0.893535,3.15266 l 0,8.024957"
       id="flowRoot4401" />
    <path
       inkscape:connector-curvature="0"
       style="fill:none;stroke:#ffffff;stroke-width:2.29571891;stroke-linecap:butt;stroke-linejoin:miter;stroke-miterlimit:4;stroke-opacity:1;stroke-dasharray:none"
       d="m 41.989529,83.018623 0,-34.075305"
       id="path4423" />
    <path
       inkscape:connector-curvature="0"
       style="fill:none;stroke:#ffffff;stroke-width:2.29571867;stroke-linecap:butt;stroke-linejoin:miter;stroke-miterlimit:4;stroke-opacity:1;stroke-dasharray:none"
       d="m 37.991765,78.651212 48.237624,0"
       id="path4425" />
    <path
       inkscape:connector-curvature="0"
       style="fill:#ffffff;fill-opacity:1;fill-rule:nonzero;stroke:none"
       d="m 85.837758,83.472221 4.869958,-4.869957 -4.869958,-4.869955 0,9.739912 z"
       id="rect4429"
       sodipodi:nodetypes="cccc" />
    <path
       inkscape:connector-curvature="0"
       style="fill:#ffffff;fill-opacity:1;fill-rule:nonzero;stroke:none"
       d="m 46.908431,49.036441 -4.869958,-4.869958 -4.869953,4.869958 9.739911,0 z"
       id="path4432"
       sodipodi:nodetypes="cccc" />
  </g>
</svg>
