<?xml version="1.0" encoding="UTF-8" standalone="no"?>
<!-- Created with Inkscape (http://www.inkscape.org/) -->

<svg
   xmlns:dc="http://purl.org/dc/elements/1.1/"
   xmlns:cc="http://creativecommons.org/ns#"
   xmlns:rdf="http://www.w3.org/1999/02/22-rdf-syntax-ns#"
   xmlns:svg="http://www.w3.org/2000/svg"
   xmlns="http://www.w3.org/2000/svg"
   xmlns:xlink="http://www.w3.org/1999/xlink"
   xmlns:sodipodi="http://sodipodi.sourceforge.net/DTD/sodipodi-0.dtd"
   xmlns:inkscape="http://www.inkscape.org/namespaces/inkscape"
   width="128"
   height="128"
   id="svg2"
   sodipodi:version="0.32"
   inkscape:version="0.48.3.1 r9886"
   version="1.0"
   sodipodi:docname="image-exr.svg"
   inkscape:output_extension="org.inkscape.output.svg.inkscape">
  <defs
     id="defs4">
    <linearGradient
       id="linearGradient3799">
      <stop
         style="stop-color:#ffffff;stop-opacity:1;"
         offset="0"
         id="stop3801" />
      <stop
         style="stop-color:#000000;stop-opacity:1;"
         offset="1"
         id="stop3803" />
    </linearGradient>
    <linearGradient
       inkscape:collect="always"
       id="linearGradient4132">
      <stop
         style="stop-color:#f2f2f2;stop-opacity:1;"
         offset="0"
         id="stop4134" />
      <stop
         style="stop-color:#f2f2f2;stop-opacity:0;"
         offset="1"
         id="stop4136" />
    </linearGradient>
    <linearGradient
       inkscape:collect="always"
       id="linearGradient3155">
      <stop
         style="stop-color:#303030;stop-opacity:1;"
         offset="0"
         id="stop3157" />
      <stop
         style="stop-color:#303030;stop-opacity:0;"
         offset="1"
         id="stop3159" />
    </linearGradient>
    <linearGradient
       inkscape:collect="always"
       id="linearGradient6067">
      <stop
         style="stop-color:#ffffff;stop-opacity:1;"
         offset="0"
         id="stop6069" />
      <stop
         style="stop-color:#ffffff;stop-opacity:0;"
         offset="1"
         id="stop6071" />
    </linearGradient>
    <linearGradient
       inkscape:collect="always"
       id="linearGradient3142">
      <stop
         style="stop-color:#303030;stop-opacity:1;"
         offset="0"
         id="stop3144" />
      <stop
         style="stop-color:#303030;stop-opacity:0;"
         offset="1"
         id="stop3146" />
    </linearGradient>
    <linearGradient
       inkscape:collect="always"
       xlink:href="#linearGradient3142"
       id="linearGradient3148"
       x1="92.804863"
       y1="75.855133"
       x2="92.804863"
       y2="110.71667"
       gradientUnits="userSpaceOnUse"
       gradientTransform="matrix(1.6258627,0,0,1.6258627,-28.787153,-52.145846)" />
    <linearGradient
       inkscape:collect="always"
       xlink:href="#linearGradient6067"
       id="linearGradient6073"
       x1="29.731594"
       y1="96.211563"
       x2="29.731594"
       y2="119.78299"
       gradientUnits="userSpaceOnUse" />
    <linearGradient
       inkscape:collect="always"
       xlink:href="#linearGradient3155"
       id="linearGradient3161"
       x1="100.75668"
       y1="85.389313"
       x2="100.75668"
       y2="124.82345"
       gradientUnits="userSpaceOnUse"
       gradientTransform="translate(0,0.3571429)" />
    <linearGradient
       inkscape:collect="always"
       xlink:href="#linearGradient4132"
       id="linearGradient4138"
       x1="96.899597"
       y1="-101.65641"
       x2="96.899597"
       y2="-115.67227"
       gradientUnits="userSpaceOnUse"
       gradientTransform="translate(-12.857143,0)" />
  </defs>
  <sodipodi:namedview
     id="base"
     pagecolor="#ffffff"
     bordercolor="#666666"
     borderopacity="1.0"
     inkscape:pageopacity="0.0"
     inkscape:pageshadow="2"
     inkscape:zoom="2.8284271"
     inkscape:cx="-4.1122412"
     inkscape:cy="61.125668"
     inkscape:document-units="px"
     inkscape:current-layer="g6456"
     showgrid="false"
     width="128px"
     height="128px"
     showguides="true"
     inkscape:guide-bbox="true"
     inkscape:window-width="1598"
     inkscape:window-height="879"
     inkscape:window-x="0"
     inkscape:window-y="0"
     inkscape:window-maximized="1">
    <inkscape:grid
       type="xygrid"
       id="grid3811" />
  </sodipodi:namedview>
  <metadata
     id="metadata7">
    <rdf:RDF>
      <cc:Work
         rdf:about="">
        <dc:format>image/svg+xml</dc:format>
        <dc:type
           rdf:resource="http://purl.org/dc/dcmitype/StillImage" />
        <dc:title />
      </cc:Work>
    </rdf:RDF>
  </metadata>
  <g
     inkscape:label="Livello 1"
     inkscape:groupmode="layer"
     id="layer1">
    <path
       style="fill:#ffffff;fill-opacity:1;stroke:none;stroke-width:0.2;stroke-linecap:round;stroke-linejoin:round;stroke-miterlimit:4;stroke-dashoffset:0;stroke-opacity:1"
       d="M 29.60816,13.050445 L 76.88939,13.029759 L 103.95139,39.997784 L 103.85343,109.41071 C 103.85343,112.49069 101.37387,114.97024 98.29389,114.97024 L 29.60816,114.97024 C 26.52817,114.97024 24.04861,112.49069 24.04861,109.41071 L 24.04861,18.60999 C 24.04861,15.530004 26.52817,13.050445 29.60816,13.050445 z "
       id="path3275"
       sodipodi:nodetypes="ccccccccc" />
    <g
       id="g6456"
       transform="translate(-2.0166215,7.230244)">
      <path
         sodipodi:nodetypes="ccccccccc"
         id="rect2162"
         d="M 36.110672,12.46579 L 77.22478,12.447802 L 100.75696,35.898259 L 100.67178,96.257326 C 100.67178,98.935577 98.515638,101.09171 95.837388,101.09171 L 36.110672,101.09171 C 33.432419,101.09171 31.276283,98.935577 31.276283,96.257326 L 31.276283,17.300177 C 31.276283,14.621928 33.432419,12.46579 36.110672,12.46579 z "
         style="fill:#303030;fill-opacity:1;stroke:none;stroke-width:0.2;stroke-linecap:round;stroke-linejoin:round;stroke-miterlimit:4;stroke-dashoffset:0;stroke-opacity:1" />
      <text
         id="text8053"
         y="96.053925"
         x="97.44368"
         style="font-size:12px;font-style:normal;font-weight:normal;text-align:end;text-anchor:end;fill:#f2f2f2;fill-opacity:1;stroke:none;font-family:Bitstream Vera Sans"
         xml:space="preserve"><tspan
           y="96.053925"
           x="97.44368"
           id="tspan8055"
           sodipodi:role="line">EXR</tspan></text>
      <g
         id="g3033"
         transform="matrix(1.5335643,0,0,1.5335643,-16.657029,-5.0412748)">
        <g
           transform="matrix(0.99996146,0,0,0.99996146,37.910095,24.306087)"
           id="g3969">
          <path
             style="fill:#333333;fill-opacity:1;stroke:#ffffff;stroke-width:0.91294116;stroke-linejoin:bevel;stroke-miterlimit:4;stroke-opacity:1;stroke-dasharray:none"
             d="m 19.345754,1.057278 c 2.464644,2.7164606 3.973084,6.3229806 3.973083,10.280592 0,4.003453 -1.547019,7.64326 -4.062702,10.37025 1.519468,-0.327035 3.032615,-0.884191 4.451048,-1.70347 3.417195,-1.973755 5.777911,-5.064537 6.900617,-8.547237 C 28.993995,6.2720818 24.695788,2.2543649 19.345754,1.057278 z m 10.903573,20.501415 c -0.123072,0.315487 -0.274332,0.619229 -0.418219,0.926449 0.143327,-0.305019 0.294838,-0.610825 0.418219,-0.926449 z m -5.466723,6.963308 c -0.330288,0.2315 -0.6624,0.449321 -1.015676,0.657479 0.349397,-0.206674 0.684857,-0.424506 1.015676,-0.657479 z m -1.194911,0.747136 c -0.438486,0.250761 -0.892859,0.484392 -1.344277,0.687365 0.459287,-0.206294 0.910372,-0.438395 1.344277,-0.687365 z m -1.344277,0.687365 c -0.401877,0.180698 -0.814961,0.334729 -1.224785,0.478167 0.415877,-0.145015 0.826141,-0.299112 1.224785,-0.478167 z"
             id="path3874-3"
             inkscape:connector-curvature="0"
             inkscape:transform-center-x="-8.9319675"
             inkscape:transform-center-y="-0.25402644" />
          <path
             style="fill:#333333;fill-opacity:1;stroke:#ffffff;stroke-width:0.91294116;stroke-linejoin:bevel;stroke-miterlimit:4;stroke-opacity:1;stroke-dasharray:none"
             d="M 4.7375737,5.629905 C 8.3214249,4.8527871 12.197662,5.3491479 15.623604,7.3279546 c 3.465626,2.0017266 5.842947,5.1619544 6.945749,8.7050154 0.476632,-1.479972 0.750901,-3.069527 0.7509,-4.708086 C 23.320254,7.377377 21.825045,3.7866809 19.371569,1.0726264 14.075937,-0.12185032 8.4488602,1.5932221 4.7375737,5.629905 z M 27.936596,6.4338451 c 0.211569,0.2643722 0.398876,0.5472943 0.59288,0.8255661 -0.192378,-0.2766866 -0.381347,-0.5608574 -0.59288,-0.8255661 z m 3.29449,8.2179799 c 0.03525,0.401907 0.05776,0.798557 0.0613,1.208712 -0.0042,-0.406052 -0.02506,-0.805608 -0.0613,-1.208712 z m 0.04931,1.408829 c -0.0022,0.505282 -0.02711,1.01576 -0.07711,1.508352 0.05106,-0.501069 0.07568,-1.007937 0.07711,-1.508352 z m -0.07711,1.508352 c -0.04451,0.438532 -0.11772,0.87344 -0.198463,1.300228 0.0824,-0.43282 0.154143,-0.86532 0.198463,-1.300228 z"
             id="path3874-3-7"
             inkscape:connector-curvature="0"
             inkscape:transform-center-x="-2.01498"
             inkscape:transform-center-y="-6.215586" />
          <path
             style="fill:#333333;fill-opacity:1;stroke:#ffffff;stroke-width:0.91294116;stroke-linejoin:bevel;stroke-miterlimit:4;stroke-opacity:1;stroke-dasharray:none"
             d="m 30.60818,11.427373 c -1.119206,3.493578 -3.487004,6.603738 -6.912947,8.582544 -3.465626,2.001726 -7.389966,2.481304 -11.008451,1.665232 1.042835,1.152937 2.281715,2.185338 3.700148,3.004616 3.417194,1.973755 7.273119,2.473666 10.849303,1.705022 3.681825,-3.990855 5.010696,-9.723644 3.371947,-14.957414 z M 18.31273,31.124847 c -0.33464,0.05111 -0.673207,0.07194 -1.011097,0.100883 0.335704,-0.02832 0.676184,-0.04997 1.011097,-0.100883 z M 9.5515178,29.870177 C 9.1859738,29.69977 8.8313589,29.520939 8.4745267,29.318945 c 0.3536082,0.199378 0.7099069,0.3811 1.0769911,0.551232 z M 8.3072965,29.208484 c -0.4363163,-0.25452 -0.8657477,-0.531369 -1.2671619,-0.820988 0.4082235,0.294775 0.8346866,0.569542 1.2671619,0.820988 z M 7.0401346,28.387496 C 6.6827739,28.129662 6.3428936,27.848785 6.0138125,27.565435 6.3472852,27.85324 6.685813,28.131643 7.0401346,28.387496 z"
             id="path3874-3-2"
             inkscape:connector-curvature="0"
             inkscape:transform-center-x="-2.6571097"
             inkscape:transform-center-y="5.3265514" />
          <path
             style="fill:#333333;fill-opacity:1;stroke:#ffffff;stroke-width:0.91294116;stroke-linejoin:bevel;stroke-miterlimit:4;stroke-opacity:1;stroke-dasharray:none"
             d="m 27.262426,26.370095 c -3.58385,0.777118 -7.460088,0.280757 -10.88603,-1.69805 -3.465625,-2.001727 -5.842947,-5.161954 -6.9457498,-8.705015 -0.4766323,1.479972 -0.7508994,3.069528 -0.7508992,4.708087 -2e-7,3.947505 1.495207,7.538202 3.948685,10.252257 5.295632,1.194476 10.922708,-0.520596 14.633994,-4.557279 z M 4.0634035,25.566155 c -0.211568,-0.264372 -0.3988751,-0.547294 -0.5928792,-0.825566 0.192378,0.276686 0.3813464,0.560857 0.5928792,0.825566 z M 0.76891368,17.348176 c -0.0352559,-0.401908 -0.0577589,-0.798558 -0.0613157,-1.208713 0.004211,0.406052 0.0250501,0.805609 0.0613157,1.208713 z m -0.049309,-1.40883 c 0.002169,-0.505281 0.0271096,-1.01576 0.0771141,-1.508352 -0.0510634,0.501069 -0.0756853,1.007936 -0.0771141,1.508352 z m 0.0771141,-1.508352 c 0.0445159,-0.438532 0.11771961,-0.87344 0.19846276,-1.300228 -0.0824045,0.43282 -0.15414148,0.86532 -0.19846276,1.300228 z"
             id="path3874-3-72"
             inkscape:connector-curvature="0"
             inkscape:transform-center-x="2.0149879"
             inkscape:transform-center-y="6.215586" />
          <path
             style="fill:#333333;fill-opacity:1;stroke:#ffffff;stroke-width:0.91294116;stroke-linejoin:bevel;stroke-miterlimit:4;stroke-opacity:1;stroke-dasharray:none"
             d="M 12.654246,30.942722 C 10.189601,28.226262 8.6811621,24.619741 8.6811631,20.66213 c 0,-4.003453 1.5470189,-7.64326 4.0627019,-10.37025 -1.519468,0.327035 -3.032616,0.884191 -4.4510485,1.70347 -3.4171953,1.973754 -5.7779104,5.064537 -6.9006174,8.547237 1.6138063,5.185332 5.9120122,9.203048 11.2620469,10.400135 z M 1.7506728,10.441307 C 1.8737449,10.125821 2.0250056,9.822078 2.1688921,9.5148585 2.0255646,9.8198766 1.8740537,10.125683 1.7506728,10.441307 z M 7.2173957,3.477999 C 7.5476837,3.2464991 7.8797958,3.0286777 8.2330711,2.8205191 7.883674,3.0271935 7.5482143,3.2450263 7.2173957,3.477999 z M 8.4123078,2.7308628 C 8.8507928,2.4801014 9.3051653,2.24647 9.7565839,2.0434976 9.297297,2.2497914 8.846212,2.4818927 8.4123078,2.7308628 z M 9.7565839,2.0434976 C 10.158461,1.8628002 10.571545,1.7087691 10.981369,1.5653305 10.565492,1.7103462 10.155227,1.8644432 9.7565839,2.0434976 z"
             id="path3874-3-4"
             inkscape:connector-curvature="0"
             inkscape:transform-center-x="8.9319678"
             inkscape:transform-center-y="0.25402631" />
          <path
             style="fill:#333333;fill-opacity:1;stroke:#ffffff;stroke-width:0.91294116;stroke-linejoin:bevel;stroke-miterlimit:4;stroke-opacity:1;stroke-dasharray:none"
             d="M 1.3918197,20.572627 C 2.5110261,17.079049 4.8788235,13.968889 8.3047669,11.990083 11.770393,9.9883574 15.694733,9.5087793 19.313219,10.324851 18.270383,9.1719142 17.031504,8.1395131 15.61307,7.3202343 12.195876,5.3464807 8.3399521,4.8465679 4.7637672,5.615214 1.0819418,9.6060679 -0.24692833,15.338857 1.3918197,20.572627 z M 13.68727,0.87515251 c 0.334639,-0.0511148 0.673207,-0.071935 1.011098,-0.10088262 -0.335706,0.0283314 -0.676185,0.0499665 -1.011098,0.10088262 z m 8.761212,1.25467009 c 0.365543,0.170409 0.720159,0.3492374 1.076992,0.551233 C 23.171865,2.481678 22.815567,2.2999549 22.448482,2.1298226 z m 1.244221,0.6616943 C 24.129019,3.0460358 24.55845,3.3228848 24.959865,3.6125042 24.551641,3.3177286 24.125178,3.0429627 23.692703,2.7915169 z m 1.267162,0.8209873 c 0.357361,0.2578338 0.697241,0.538711 1.026323,0.8220599 C 25.652714,4.1467594 25.314187,3.8683578 24.959865,3.6125042 z"
             id="path3874-3-1"
             inkscape:connector-curvature="0"
             inkscape:transform-center-x="2.6571092"
             inkscape:transform-center-y="-5.3265515" />
        </g>
        <path
           transform="matrix(0.91821401,0,0,0.91821401,39.260203,25.653057)"
           d="m 31.201087,15.957515 c 0,8.42068 -6.82631,15.24699 -15.24699,15.24699 -8.4206804,0 -15.24699041,-6.82631 -15.24699041,-15.24699 0,-8.4206804 6.82631001,-15.24699044 15.24699041,-15.24699044 8.42068,0 15.24699,6.82631004 15.24699,15.24699044 z"
           sodipodi:ry="15.24699"
           sodipodi:rx="15.24699"
           sodipodi:cy="15.957515"
           sodipodi:cx="15.954097"
           id="path4000"
           style="fill:none;stroke:#ffffff;stroke-width:2.84062648;stroke-linecap:round;stroke-linejoin:bevel;stroke-miterlimit:4;stroke-opacity:1;stroke-dasharray:none;stroke-dashoffset:0"
           sodipodi:type="arc" />
      </g>
      <path
         style="fill:#f2f2f2;fill-opacity:1;stroke:#b3b3b3;stroke-width:1;stroke-linejoin:miter;stroke-opacity:1"
         d="m 42.528173,43.391743 c -2.316288,-0.742267 -5.002529,-3.032215 -5.002529,-4.301746 0,-0.94822 0.837837,-1.757645 1.966431,-2.800893 1.102504,-1.019127 2.945873,-2.725036 4.096379,-3.790916 l 1.930103,-1.803187 -2.120185,-2.843888 C 42.092176,26.099057 40.462354,24.86109 39.408727,24.408609 l -2.112052,-0.788854 3.416859,0 c 1.731087,0 3.141406,-0.07715 2.883975,0.02693 -1.263631,0.511058 -0.570308,1.732354 1.185791,4.058293 0.773038,1.023876 1.364487,1.746929 1.868152,2.284115 0.692345,-0.648809 0.407411,-0.40531 0.721492,-0.663987 2.481574,-2.043818 3.751547,-3.122148 4.5359,-3.90786 0.784351,-0.785696 0.867447,-1.197925 0.867447,-1.640004 0,-1.448511 -1.855849,-2.632903 -4.430478,-3.210544 -2.574625,-0.577647 -5.787163,-0.521587 -8.015358,0.241277 -0.469628,0.160787 0.687265,-0.574583 1.639878,-0.935072 2.90475,-1.099217 6.591915,-1.367919 9.720163,0.192313 2.553181,1.273411 4.155198,2.70156 4.155198,4.166589 0,1.188343 -1.004434,2.429471 -5.14908,5.67207 -1.115367,0.872621 -2.075341,1.640725 -2.552568,2.084264 0.250537,0.33572 1.436982,1.947861 2.615569,3.42381 1.50229,1.88133 2.521655,2.75932 3.409903,2.936968 1.942902,0.388553 2.268978,1.033478 -0.379757,1.045262 -2.004891,-0.09418 -5.048547,0.320799 -3.301837,-1.001331 0.480084,-0.52893 0.37867,-0.770531 -1.130467,-2.910487 -0.985382,-1.397271 -1.891268,-2.378763 -2.22572,-2.756122 -0.388364,0.350407 -1.804968,1.542741 -3.414558,3.164761 -2.558784,2.578526 -2.890645,3.092082 -2.640962,4.086926 0.45564,1.81541 3.436921,2.919036 7.245542,2.682172 1.672621,-0.104041 4.260951,-0.749653 4.730578,-0.907619 0.469628,-0.157928 -0.829926,0.551896 -1.866627,1.0503 -2.429144,1.167837 -6.076829,1.41597 -8.657536,0.588956 z"
         id="path3071"
         inkscape:connector-curvature="0"
         sodipodi:nodetypes="sssscsscssscsssscsssscscccscssccss" />
      <g
         id="Layer_1"
         transform="translate(37.909478,24.30547)" />
    </g>
  </g>
</svg>
