<?xml version="1.0" encoding="UTF-8" standalone="no"?>
<!-- Created with Inkscape (http://www.inkscape.org/) -->

<svg
   xmlns:dc="http://purl.org/dc/elements/1.1/"
   xmlns:cc="http://creativecommons.org/ns#"
   xmlns:rdf="http://www.w3.org/1999/02/22-rdf-syntax-ns#"
   xmlns:svg="http://www.w3.org/2000/svg"
   xmlns="http://www.w3.org/2000/svg"
   version="1.0"
   width="128"
   height="128"
   id="svg2">
  <defs
     id="defs4" />
  <metadata
     id="metadata7">
    <rdf:RDF>
      <cc:Work
         rdf:about="">
        <dc:format>image/svg+xml</dc:format>
        <dc:type
           rdf:resource="http://purl.org/dc/dcmitype/StillImage" />
        <dc:title></dc:title>
      </cc:Work>
    </rdf:RDF>
  </metadata>
  <g
     id="layer1">
    <path
       d="m 147.5,100.85714 a 43.57143,43.57143 0 1 1 -87.142857,0 43.57143,43.57143 0 1 1 87.142857,0 z"
       transform="matrix(1.204918,0,0,1.204918,-61.225409,-57.524583)"
       id="path10360"
       style="fill:#ffffff;fill-opacity:1;fill-rule:nonzero;stroke:none" />
    <g
       transform="matrix(0.7725503,0,0,0.7725503,14.556781,14.556781)"
       id="g10338">
      <path
         d="M 102.125,106.71875 21.28125,25.875 C 12.229205,36.012446 6.6875001,49.350234 6.6875,64 c 0,31.64404 25.668461,57.3125 57.3125,57.3125 14.649766,0 27.987554,-5.5417 38.125,-14.59375 z"
         id="path4973"
         style="fill:#262729;fill-opacity:1;fill-rule:nonzero;stroke:none" />
      <path
         d="M 118.25,45.625 C 112.53895,28.781048 99.218952,15.461046 82.375,9.75 l 35.875,35.875 z"
         id="path4999"
         style="fill:#e04613;fill-opacity:1;fill-rule:nonzero;stroke:none" />
      <path
         d="M 70.5,7.0625 C 68.360289,6.8200349 66.204363,6.6875 64,6.6875 c -0.53373,0 -1.033482,0.1082289 -1.5625,0.125 l 58.75,58.75 c 0.0163,-0.529003 0.125,-1.028945 0.125,-1.5625 0,-2.204363 -0.13253,-4.360289 -0.375,-6.5 L 70.5,7.0625 z"
         id="path4997"
         style="fill:#6e6e6e;fill-opacity:1;fill-rule:nonzero;stroke:none" />
      <path
         d="M 54.15625,7.75 C 52.013302,8.1609698 49.871712,8.5882082 47.8125,9.21875 l 71,70.96875 c 0.62684,-2.048438 1.06447,-4.179362 1.46875,-6.3125 L 54.15625,7.75 z"
         id="path4992"
         style="fill:#e04613;fill-opacity:1;fill-rule:nonzero;stroke:none" />
      <path
         d="m 41.125,11.6875 c -1.785845,0.798841 -3.559604,1.630982 -5.25,2.59375 L 113.71875,92.125 c 0.96277,-1.690396 1.79491,-3.464155 2.59375,-5.25 L 41.125,11.6875 z"
         id="path4987"
         style="fill:#6e6e6e;fill-opacity:1;fill-rule:nonzero;stroke:none" />
      <path
         d="m 30.34375,17.9375 c -1.500695,1.101103 -3.082857,2.106242 -4.46875,3.34375 l 80.84375,80.84375 c 1.23751,-1.38589 2.24265,-2.968055 3.34375,-4.46875 L 30.34375,17.9375 z"
         id="path4982"
         style="fill:#e04613;fill-opacity:1;fill-rule:nonzero;stroke:none" />
    </g>
  </g>
</svg>
