<?xml version="1.0" encoding="UTF-8" standalone="no"?>
<!-- Created with Inkscape (http://www.inkscape.org/) -->

<svg
   xmlns:dc="http://purl.org/dc/elements/1.1/"
   xmlns:cc="http://creativecommons.org/ns#"
   xmlns:rdf="http://www.w3.org/1999/02/22-rdf-syntax-ns#"
   xmlns:svg="http://www.w3.org/2000/svg"
   xmlns="http://www.w3.org/2000/svg"
   xmlns:xlink="http://www.w3.org/1999/xlink"
   xmlns:sodipodi="http://sodipodi.sourceforge.net/DTD/sodipodi-0.dtd"
   xmlns:inkscape="http://www.inkscape.org/namespaces/inkscape"
   width="128"
   height="128"
   id="svg2"
   sodipodi:version="0.32"
   inkscape:version="0.48.3.1 r9886"
   version="1.0"
   sodipodi:docname="t2t.svg"
   inkscape:output_extension="org.inkscape.output.svg.inkscape">
  <defs
     id="defs4">
    <linearGradient
       inkscape:collect="always"
       id="linearGradient4132">
      <stop
         style="stop-color:#f2f2f2;stop-opacity:1;"
         offset="0"
         id="stop4134" />
      <stop
         style="stop-color:#f2f2f2;stop-opacity:0;"
         offset="1"
         id="stop4136" />
    </linearGradient>
    <linearGradient
       inkscape:collect="always"
       id="linearGradient3155">
      <stop
         style="stop-color:#303030;stop-opacity:1;"
         offset="0"
         id="stop3157" />
      <stop
         style="stop-color:#303030;stop-opacity:0;"
         offset="1"
         id="stop3159" />
    </linearGradient>
    <linearGradient
       inkscape:collect="always"
       id="linearGradient6067">
      <stop
         style="stop-color:#ffffff;stop-opacity:1;"
         offset="0"
         id="stop6069" />
      <stop
         style="stop-color:#ffffff;stop-opacity:0;"
         offset="1"
         id="stop6071" />
    </linearGradient>
    <linearGradient
       inkscape:collect="always"
       id="linearGradient3142">
      <stop
         style="stop-color:#303030;stop-opacity:1;"
         offset="0"
         id="stop3144" />
      <stop
         style="stop-color:#303030;stop-opacity:0;"
         offset="1"
         id="stop3146" />
    </linearGradient>
    <linearGradient
       inkscape:collect="always"
       xlink:href="#linearGradient3142"
       id="linearGradient3148"
       x1="92.804863"
       y1="75.855133"
       x2="92.804863"
       y2="110.71667"
       gradientUnits="userSpaceOnUse"
       gradientTransform="matrix(1.6258627,0,0,1.6258627,-28.787153,-52.145846)" />
    <linearGradient
       inkscape:collect="always"
       xlink:href="#linearGradient6067"
       id="linearGradient6073"
       x1="29.731594"
       y1="96.211563"
       x2="29.731594"
       y2="119.78299"
       gradientUnits="userSpaceOnUse" />
    <linearGradient
       inkscape:collect="always"
       xlink:href="#linearGradient3155"
       id="linearGradient3161"
       x1="100.75668"
       y1="85.389313"
       x2="100.75668"
       y2="124.82345"
       gradientUnits="userSpaceOnUse" />
    <linearGradient
       inkscape:collect="always"
       xlink:href="#linearGradient4132"
       id="linearGradient4138"
       x1="96.899597"
       y1="-101.65641"
       x2="96.899597"
       y2="-115.67227"
       gradientUnits="userSpaceOnUse" />
  </defs>
  <sodipodi:namedview
     id="base"
     pagecolor="#ffffff"
     bordercolor="#666666"
     borderopacity="1.0"
     inkscape:pageopacity="0.0"
     inkscape:pageshadow="2"
     inkscape:zoom="2"
     inkscape:cx="76.530325"
     inkscape:cy="66.296169"
     inkscape:document-units="px"
     inkscape:current-layer="g4258"
     showgrid="false"
     width="128px"
     height="128px"
     showguides="true"
     inkscape:guide-bbox="true"
     inkscape:window-width="1598"
     inkscape:window-height="879"
     inkscape:window-x="0"
     inkscape:window-y="0"
     inkscape:window-maximized="1">
    <inkscape:grid
       type="xygrid"
       id="grid3010" />
  </sodipodi:namedview>
  <metadata
     id="metadata7">
    <rdf:RDF>
      <cc:Work
         rdf:about="">
        <dc:format>image/svg+xml</dc:format>
        <dc:type
           rdf:resource="http://purl.org/dc/dcmitype/StillImage" />
        <dc:title />
      </cc:Work>
    </rdf:RDF>
  </metadata>
  <g
     inkscape:label="Livello 1"
     inkscape:groupmode="layer"
     id="layer1">
    <path
       style="fill:#ffffff;fill-opacity:1;stroke:none;stroke-width:0.2;stroke-linecap:round;stroke-linejoin:round;stroke-miterlimit:4;stroke-dashoffset:0;stroke-opacity:1"
       d="M 29.608156,13.050445 L 76.889382,13.029759 L 103.95139,39.997785 L 103.85343,109.41071 C 103.85343,112.49069 101.37387,114.97024 98.293882,114.97024 L 29.608156,114.97024 C 26.528165,114.97024 24.048608,112.49069 24.048608,109.41071 L 24.048608,18.60999 C 24.048608,15.530004 26.528165,13.050445 29.608156,13.050445 z "
       id="path3275"
       sodipodi:nodetypes="ccccccccc" />
    <g
       id="g4452"
       transform="translate(-2.0166215,7.230244)">
      <path
         sodipodi:nodetypes="ccccccccc"
         id="rect2162"
         d="M 36.110672,12.46579 L 77.22478,12.447802 L 100.75696,35.898259 L 100.67178,96.257326 C 100.67178,98.935577 98.515638,101.09171 95.837388,101.09171 L 36.110672,101.09171 C 33.432419,101.09171 31.276283,98.935577 31.276283,96.257326 L 31.276283,17.300177 C 31.276283,14.621928 33.432419,12.46579 36.110672,12.46579 z "
         style="fill:#303030;fill-opacity:1;stroke:none;stroke-width:0.2;stroke-linecap:round;stroke-linejoin:round;stroke-miterlimit:4;stroke-dashoffset:0;stroke-opacity:1" />
      <text
         id="text8053"
         y="96.053925"
         x="96.669846"
         style="font-size:12px;font-style:normal;font-weight:normal;text-align:end;text-anchor:end;fill:#f2f2f2;fill-opacity:1;stroke:none;font-family:Bitstream Vera Sans"
         xml:space="preserve"><tspan
           y="96.053925"
           x="96.669846"
           id="tspan8055"
           sodipodi:role="line">DOC</tspan></text>
    </g>
    <g
       transform="matrix(0.41833794,0,0,0.41833794,-187.38836,81.885516)"
       style="display:inline"
       id="g4258">
      <rect
         style="color:#000000;fill:#f9f9f9;fill-opacity:1;fill-rule:nonzero;stroke:none;stroke-width:2.58485031;marker:none;visibility:visible;display:inline;overflow:visible;enable-background:accumulate"
         id="rect4050"
         width="105.17812"
         height="105.17812"
         x="548.33264"
         y="-95.342812"
         ry="7.4700365" />
      <path
         inkscape:connector-curvature="0"
         style="font-size:medium;font-style:normal;font-variant:normal;font-weight:normal;font-stretch:normal;text-indent:0;text-align:start;text-decoration:none;line-height:normal;letter-spacing:normal;word-spacing:normal;text-transform:none;direction:ltr;block-progression:tb;writing-mode:lr-tb;text-anchor:start;baseline-shift:baseline;color:#000000;fill:#333333;fill-opacity:1;stroke:none;stroke-width:7;marker:none;visibility:visible;display:inline;overflow:visible;enable-background:accumulate;font-family:Sans;-inkscape-font-specification:Sans"
         d="m 604.40244,-85.780392 c -3.01103,0.04068 -6.58164,1.702139 -9.86088,5.458379 -3.75014,4.43199 -6.62859,12.415654 -0.59374,16.692006 0.47359,0.246171 0.97515,0.424187 1.4902,0.551749 l -17.69601,40.49733 c -3.21688,-0.413403 -7.29143,1.163005 -10.99016,5.399685 -3.75018,4.432091 -6.62863,12.4039555 -0.59376,16.68030811 4.8987,2.54654509 12.32625,-1.42453541 15.74013,-8.41649751 2.88222,-5.9029106 1.79866,-10.4634786 -1.14093,-12.5248036 -0.16839,-0.1181 -0.34375,-0.227249 -0.52387,-0.328668 l 17.96376,-41.143071 c 0.44404,-0.04781 0.88808,-0.133868 1.33886,-0.246476 l 0.38417,41.68302 c -1.78975,0.88357 -3.62727,2.290099 -5.37865,4.296188 -3.75014,4.432091 -6.62859,12.4039555 -0.59374,16.68030811 4.89868,2.54654509 12.32627,-1.42453541 15.74015,-8.41649751 2.88218,-5.9029106 1.79866,-10.4634786 -1.14093,-12.5248036 -1.58341,-1.110311 -3.70353,-1.494418 -6.03062,-0.974307 l -0.38421,-41.729913 c 0.39312,-0.2006 0.77911,-0.425611 1.16421,-0.669137 l 16.77631,50.968031 c -2.33047,4.4040151 -3.04993,10.0057234 1.66481,13.34662711 4.8987,2.54654509 12.32626,-1.42453541 15.74013,-8.41649751 2.88222,-5.9029106 1.79866,-10.4634786 -1.14092,-12.5248036 -3.32279,-2.330077 -9.00854,-1.462681 -14.00545,4.260993 -0.14335,0.16937 -0.29044,0.348911 -0.43077,0.52825 l -16.40372,-49.829441 c 0.30198,-0.271704 0.59682,-0.559073 0.8848,-0.856918 l 15.57714,19.05138 c -3.55857,4.505637 -6.05326,12.089833 -0.22121,16.222451 4.8987,2.546647 12.32626,-1.424434 15.74013,-8.416397 2.88222,-5.903012 1.79866,-10.463478 -1.14092,-12.524904 -3.01127,-2.111575 -7.9634,-1.604077 -12.58511,2.770337 l -15.65866,-19.157071 c 0.59321,-0.827317 1.1328,-1.71811 1.59499,-2.664646 2.88218,-5.903012 1.79866,-10.463581 -1.14093,-12.524803 -1.14223,-0.80097 -2.56738,-1.218647 -4.1446,-1.197387 z"
         id="path4052" />
      <path
         style="color:#000000;fill:#f9f9f9;fill-opacity:1;fill-rule:nonzero;stroke:none;stroke-width:1.50564575;marker:none;visibility:visible;display:inline;overflow:visible;enable-background:accumulate"
         d="m 626.81656,-4.9512157 c -3.44818,-2.4527034 -1.80519,-7.0293733 0.3376,-9.5714213 2.85512,-3.28286 6.10582,-3.777568 8.0044,-2.441186 1.67962,1.182331 2.30101,3.797699 0.65418,7.1833251 -1.95058,4.0102454 -6.19715,6.2898664 -8.99618,4.8292822 z"
         id="path4054"
         inkscape:connector-curvature="0"
         sodipodi:nodetypes="ccssc" />
      <path
         sodipodi:nodetypes="ccssc"
         inkscape:connector-curvature="0"
         id="path4056"
         d="m 624.05265,-33.63617 c -3.44821,-2.45271 -1.80518,-7.029392 0.3376,-9.571448 2.85512,-3.282868 6.10582,-3.777475 8.0044,-2.441191 1.67961,1.182333 2.301,3.797709 0.65417,7.183344 -1.95062,4.010356 -6.19714,6.289883 -8.99617,4.829295 z"
         style="color:#000000;fill:#f9f9f9;fill-opacity:1;fill-rule:nonzero;stroke:none;stroke-width:1.50564575;marker:none;visibility:visible;display:inline;overflow:visible;enable-background:accumulate" />
      <path
         sodipodi:nodetypes="ccssc"
         inkscape:connector-curvature="0"
         id="path4058"
         d="m 596.93642,-4.9512157 c -3.44821,-2.4527034 -1.80518,-7.0293733 0.33759,-9.5714223 2.85514,-3.28286 6.10582,-3.777567 8.00441,-2.441185 1.6796,1.182331 2.30101,3.797698 0.65418,7.183325 -1.95062,4.0102455 -6.19715,6.2898664 -8.99618,4.8292823 z"
         style="color:#000000;fill:#f9f9f9;fill-opacity:1;fill-rule:nonzero;stroke:none;stroke-width:1.50564575;marker:none;visibility:visible;display:inline;overflow:visible;enable-background:accumulate" />
      <path
         style="color:#000000;fill:#f9f9f9;fill-opacity:1;fill-rule:nonzero;stroke:none;stroke-width:1.50564575;marker:none;visibility:visible;display:inline;overflow:visible;enable-background:accumulate"
         d="m 569.44669,-8.0587643 c -3.44821,-2.4527157 -1.80519,-7.0294077 0.3376,-9.5714687 2.85511,-3.282874 6.10581,-3.777484 8.00439,-2.441097 1.67961,1.182236 2.30102,3.797617 0.65418,7.183359 -1.95063,4.010265 -6.19718,6.2897978 -8.99617,4.8292067 z"
         id="path4060"
         inkscape:connector-curvature="0"
         sodipodi:nodetypes="ccssc" />
    </g>
  </g>
</svg>
