<?xml version="1.0" encoding="UTF-8" standalone="no"?>
<!-- Created with Inkscape (http://www.inkscape.org/) -->

<svg
   xmlns:dc="http://purl.org/dc/elements/1.1/"
   xmlns:cc="http://creativecommons.org/ns#"
   xmlns:rdf="http://www.w3.org/1999/02/22-rdf-syntax-ns#"
   xmlns:svg="http://www.w3.org/2000/svg"
   xmlns="http://www.w3.org/2000/svg"
   xmlns:xlink="http://www.w3.org/1999/xlink"
   xmlns:sodipodi="http://sodipodi.sourceforge.net/DTD/sodipodi-0.dtd"
   xmlns:inkscape="http://www.inkscape.org/namespaces/inkscape"
   width="128"
   height="128"
   id="svg2"
   sodipodi:version="0.32"
   inkscape:version="0.48.3.1 r9886"
   version="1.0"
   sodipodi:docname="text-x-generic.svg"
   inkscape:output_extension="org.inkscape.output.svg.inkscape">
  <defs
     id="defs4">
    <linearGradient
       inkscape:collect="always"
       id="linearGradient4132">
      <stop
         style="stop-color:#f2f2f2;stop-opacity:1;"
         offset="0"
         id="stop4134" />
      <stop
         style="stop-color:#f2f2f2;stop-opacity:0;"
         offset="1"
         id="stop4136" />
    </linearGradient>
    <linearGradient
       inkscape:collect="always"
       id="linearGradient3155">
      <stop
         style="stop-color:#303030;stop-opacity:1;"
         offset="0"
         id="stop3157" />
      <stop
         style="stop-color:#303030;stop-opacity:0;"
         offset="1"
         id="stop3159" />
    </linearGradient>
    <linearGradient
       inkscape:collect="always"
       id="linearGradient6067">
      <stop
         style="stop-color:#ffffff;stop-opacity:1;"
         offset="0"
         id="stop6069" />
      <stop
         style="stop-color:#ffffff;stop-opacity:0;"
         offset="1"
         id="stop6071" />
    </linearGradient>
    <linearGradient
       inkscape:collect="always"
       id="linearGradient3142">
      <stop
         style="stop-color:#303030;stop-opacity:1;"
         offset="0"
         id="stop3144" />
      <stop
         style="stop-color:#303030;stop-opacity:0;"
         offset="1"
         id="stop3146" />
    </linearGradient>
    <linearGradient
       inkscape:collect="always"
       xlink:href="#linearGradient3142"
       id="linearGradient3148"
       x1="92.804863"
       y1="75.855133"
       x2="92.804863"
       y2="110.71667"
       gradientUnits="userSpaceOnUse"
       gradientTransform="matrix(1.6258627,0,0,1.6258627,-28.787153,-52.145846)" />
    <linearGradient
       inkscape:collect="always"
       xlink:href="#linearGradient6067"
       id="linearGradient6073"
       x1="29.731594"
       y1="96.211563"
       x2="29.731594"
       y2="119.78299"
       gradientUnits="userSpaceOnUse" />
    <linearGradient
       inkscape:collect="always"
       xlink:href="#linearGradient3155"
       id="linearGradient3161"
       x1="100.75668"
       y1="85.389313"
       x2="100.75668"
       y2="124.82345"
       gradientUnits="userSpaceOnUse" />
    <linearGradient
       inkscape:collect="always"
       xlink:href="#linearGradient4132"
       id="linearGradient4138"
       x1="96.899597"
       y1="-101.65641"
       x2="96.899597"
       y2="-115.67227"
       gradientUnits="userSpaceOnUse" />
  </defs>
  <sodipodi:namedview
     id="base"
     pagecolor="#ffffff"
     bordercolor="#666666"
     borderopacity="1.0"
     inkscape:pageopacity="0.0"
     inkscape:pageshadow="2"
     inkscape:zoom="5.6"
     inkscape:cx="63.688289"
     inkscape:cy="75.562132"
     inkscape:document-units="px"
     inkscape:current-layer="g4452"
     showgrid="true"
     width="128px"
     height="128px"
     showguides="true"
     inkscape:guide-bbox="true"
     inkscape:window-width="1598"
     inkscape:window-height="879"
     inkscape:window-x="0"
     inkscape:window-y="0"
     inkscape:window-maximized="1" />
  <metadata
     id="metadata7">
    <rdf:RDF>
      <cc:Work
         rdf:about="">
        <dc:format>image/svg+xml</dc:format>
        <dc:type
           rdf:resource="http://purl.org/dc/dcmitype/StillImage" />
        <dc:title></dc:title>
      </cc:Work>
    </rdf:RDF>
  </metadata>
  <g
     inkscape:label="Livello 1"
     inkscape:groupmode="layer"
     id="layer1">
    <path
       style="fill:#ffffff;fill-opacity:1;stroke:none;stroke-width:0.2;stroke-linecap:round;stroke-linejoin:round;stroke-miterlimit:4;stroke-dashoffset:0;stroke-opacity:1"
       d="M 29.608156,13.050445 L 76.889382,13.029759 L 103.95139,39.997785 L 103.85343,109.41071 C 103.85343,112.49069 101.37387,114.97024 98.293882,114.97024 L 29.608156,114.97024 C 26.528165,114.97024 24.048608,112.49069 24.048608,109.41071 L 24.048608,18.60999 C 24.048608,15.530004 26.528165,13.050445 29.608156,13.050445 z "
       id="path3275"
       sodipodi:nodetypes="ccccccccc" />
    <g
       id="g4452"
       transform="translate(-2.0166215,7.230244)">
      <path
         sodipodi:nodetypes="ccccccccc"
         id="rect2162"
         d="M 36.110672,12.46579 L 77.22478,12.447802 L 100.75696,35.898259 L 100.67178,96.257326 C 100.67178,98.935577 98.515638,101.09171 95.837388,101.09171 L 36.110672,101.09171 C 33.432419,101.09171 31.276283,98.935577 31.276283,96.257326 L 31.276283,17.300177 C 31.276283,14.621928 33.432419,12.46579 36.110672,12.46579 z "
         style="fill:#303030;fill-opacity:1;stroke:none;stroke-width:0.2;stroke-linecap:round;stroke-linejoin:round;stroke-miterlimit:4;stroke-dashoffset:0;stroke-opacity:1" />
      <text
         id="text8053"
         y="96.053925"
         x="96.935028"
         style="font-size:12px;font-style:normal;font-weight:normal;text-align:end;text-anchor:end;fill:#f2f2f2;fill-opacity:1;stroke:none;font-family:Bitstream Vera Sans"
         xml:space="preserve"><tspan
           y="96.053925"
           x="96.935028"
           id="tspan8055"
           sodipodi:role="line">CRED</tspan></text>
      <path
         sodipodi:type="arc"
         style="fill:#ffffff;fill-opacity:1;fill-rule:nonzero;stroke:none"
         id="path4382"
         sodipodi:cx="39.09235"
         sodipodi:cy="64.422165"
         sodipodi:rx="52.263851"
         sodipodi:ry="52.263851"
         d="m 91.356201,64.422165 a 52.263851,52.263851 0 1 1 -104.527702,0 52.263851,52.263851 0 1 1 104.527702,0 z"
         transform="matrix(0.45920841,0,0,0.45920841,48.065086,27.186556)" />
      <path
         inkscape:connector-curvature="0"
         style="fill:#303030;fill-opacity:1"
         d="m 52.289176,65.393612 c 2.424945,-1.109563 3.028293,-1.49627 3.282938,-2.104158 0.171593,-0.409614 0.471653,-0.744138 0.666797,-0.743379 0.45771,0.0018 0.442134,-0.507047 -0.03498,-1.14274 -0.206757,-0.275478 -0.37466,-0.826061 -0.37312,-1.223519 0.0016,-0.397454 -0.108936,-0.723079 -0.245507,-0.723609 -0.563101,-0.0022 -0.829966,-1.263878 -0.918155,-4.340881 -0.08332,-2.906884 -0.03844,-3.341427 0.422107,-4.086886 0.283437,-0.458786 0.637539,-0.833683 0.786901,-0.833104 0.149358,5.69e-4 0.619411,-0.253956 1.044557,-0.565643 1.694999,-1.242606 5.247591,-0.386472 6.535088,1.57488 0.657918,1.002271 0.672187,1.112881 0.570968,4.426469 -0.08334,2.7283 -0.184295,3.456871 -0.511929,3.694413 -0.224463,0.162744 -0.497492,0.69531 -0.606732,1.18348 -0.109247,0.488171 -0.326655,1.090775 -0.483147,1.339117 -0.456295,0.724142 1.281239,2.274672 4.287513,3.826068 3.478147,1.794913 3.590745,1.920342 3.707021,4.12936 l 0.09489,1.802651 -11.224234,-0.0435 c -6.049953,1.117232 -2.813787,-2.358873 -7.000975,-6.16901 z"
         id="path4164"
         sodipodi:nodetypes="cssssssssssssssscccc" />
      <path
         inkscape:connector-curvature="0"
         style="fill:#303030;fill-opacity:1;stroke:none"
         d="m 57.77725,70.808111 c 0.01047,-2.699974 0.580592,-3.304728 5.038471,-5.34449 2.897429,-1.325754 3.618335,-1.787806 3.922596,-2.514137 0.205028,-0.489425 0.563551,-0.889129 0.796718,-0.888222 0.546891,0.0021 0.528281,-0.605842 -0.04179,-1.365394 -0.247041,-0.329154 -0.447659,-0.987014 -0.445819,-1.461915 0.0019,-0.474895 -0.130161,-0.863966 -0.293342,-0.864599 -0.672817,-0.0026 -0.99168,-1.510135 -1.097051,-5.186671 -0.09955,-3.473271 -0.04593,-3.992482 0.50435,-4.883189 0.338663,-0.548178 0.76176,-0.996119 0.940224,-0.995428 0.178459,6.82e-4 0.740098,-0.303437 1.248082,-0.675855 2.025258,-1.48472 6.270049,-0.461773 7.808405,1.881735 0.786107,1.197557 0.803157,1.329718 0.682216,5.288935 -0.09958,3.259892 -0.220203,4.130419 -0.611674,4.414245 -0.268198,0.194454 -0.594424,0.830786 -0.724948,1.414072 -0.130533,0.583288 -0.390304,1.303306 -0.577285,1.600036 -0.545202,0.865236 1.530877,2.717876 5.122903,4.571551 l -8.868516,7.035838 -13.411189,-0.05199 0.0076,-1.97452 z"
         id="path5803"
         sodipodi:nodetypes="cssssssssssssssscccc" />
      <path
         inkscape:connector-curvature="0"
         style="fill:none;stroke:#ffffff;stroke-width:0.37853691px;stroke-linecap:butt;stroke-linejoin:miter;stroke-opacity:1"
         d="m 65.11426,64.139505 c 0,0 -6.500099,3.318552 -7.230789,4.901714"
         id="path5805"
         sodipodi:nodetypes="cc" />
      <path
         inkscape:connector-curvature="0"
         d="m 45.865213,56.76976 c 0,11.111229 9.039353,20.15058 20.151243,20.15058 11.112551,0 20.151577,-9.039351 20.151577,-20.15058 0,-11.111231 -9.039026,-20.150584 -20.151577,-20.150584 -11.11189,0 -20.151243,9.039353 -20.151243,20.150584 z m 6.276411,0 c 0,-7.650285 6.223887,-13.874173 13.874832,-13.874173 7.650945,0 13.875165,6.223888 13.875165,13.874173 0,7.650284 -6.22422,13.874171 -13.875165,13.874171 -7.650945,0 -13.874832,-6.223887 -13.874832,-13.874171 z"
         id="path5796"
         style="fill:#303030" />
    </g>
  </g>
</svg>
