<?xml version="1.0" encoding="UTF-8" standalone="no"?>
<!-- Created with Inkscape (http://www.inkscape.org/) -->

<svg
   xmlns:dc="http://purl.org/dc/elements/1.1/"
   xmlns:cc="http://creativecommons.org/ns#"
   xmlns:rdf="http://www.w3.org/1999/02/22-rdf-syntax-ns#"
   xmlns:svg="http://www.w3.org/2000/svg"
   xmlns="http://www.w3.org/2000/svg"
   xmlns:xlink="http://www.w3.org/1999/xlink"
   xmlns:sodipodi="http://sodipodi.sourceforge.net/DTD/sodipodi-0.dtd"
   xmlns:inkscape="http://www.inkscape.org/namespaces/inkscape"
   width="128"
   height="128"
   id="svg2"
   sodipodi:version="0.32"
   inkscape:version="0.48.3.1 r9886"
   version="1.0"
   sodipodi:docname="x-office-presentation.svg"
   inkscape:output_extension="org.inkscape.output.svg.inkscape">
  <defs
     id="defs4">
    <linearGradient
       inkscape:collect="always"
       id="linearGradient4132">
      <stop
         style="stop-color:#f2f2f2;stop-opacity:1;"
         offset="0"
         id="stop4134" />
      <stop
         style="stop-color:#f2f2f2;stop-opacity:0;"
         offset="1"
         id="stop4136" />
    </linearGradient>
    <linearGradient
       inkscape:collect="always"
       id="linearGradient3155">
      <stop
         style="stop-color:#303030;stop-opacity:1;"
         offset="0"
         id="stop3157" />
      <stop
         style="stop-color:#303030;stop-opacity:0;"
         offset="1"
         id="stop3159" />
    </linearGradient>
    <linearGradient
       inkscape:collect="always"
       id="linearGradient6067">
      <stop
         style="stop-color:#ffffff;stop-opacity:1;"
         offset="0"
         id="stop6069" />
      <stop
         style="stop-color:#ffffff;stop-opacity:0;"
         offset="1"
         id="stop6071" />
    </linearGradient>
    <linearGradient
       inkscape:collect="always"
       id="linearGradient3142">
      <stop
         style="stop-color:#303030;stop-opacity:1;"
         offset="0"
         id="stop3144" />
      <stop
         style="stop-color:#303030;stop-opacity:0;"
         offset="1"
         id="stop3146" />
    </linearGradient>
    <linearGradient
       inkscape:collect="always"
       xlink:href="#linearGradient3142"
       id="linearGradient3148"
       x1="92.804863"
       y1="75.855133"
       x2="92.804863"
       y2="110.71667"
       gradientUnits="userSpaceOnUse"
       gradientTransform="matrix(1.6258627,0,0,1.6258627,-28.787153,-52.145846)" />
    <linearGradient
       inkscape:collect="always"
       xlink:href="#linearGradient6067"
       id="linearGradient6073"
       x1="29.731594"
       y1="96.211563"
       x2="29.731594"
       y2="119.78299"
       gradientUnits="userSpaceOnUse" />
    <linearGradient
       inkscape:collect="always"
       xlink:href="#linearGradient3155"
       id="linearGradient3161"
       x1="100.75668"
       y1="85.389313"
       x2="100.75668"
       y2="124.82345"
       gradientUnits="userSpaceOnUse" />
    <linearGradient
       inkscape:collect="always"
       xlink:href="#linearGradient4132"
       id="linearGradient4138"
       x1="96.899597"
       y1="-101.65641"
       x2="96.899597"
       y2="-115.67227"
       gradientUnits="userSpaceOnUse"
       gradientTransform="translate(-2.2728432,0)" />
  </defs>
  <sodipodi:namedview
     id="base"
     pagecolor="#ffffff"
     bordercolor="#666666"
     borderopacity="1.0"
     inkscape:pageopacity="0.0"
     inkscape:pageshadow="2"
     inkscape:zoom="2.8"
     inkscape:cx="-4.256314"
     inkscape:cy="71.680639"
     inkscape:document-units="px"
     inkscape:current-layer="layer1"
     showgrid="true"
     width="128px"
     height="128px"
     showguides="true"
     inkscape:guide-bbox="true"
     inkscape:window-width="1598"
     inkscape:window-height="879"
     inkscape:window-x="0"
     inkscape:window-y="0"
     inkscape:window-maximized="1" />
  <metadata
     id="metadata7">
    <rdf:RDF>
      <cc:Work
         rdf:about="">
        <dc:format>image/svg+xml</dc:format>
        <dc:type
           rdf:resource="http://purl.org/dc/dcmitype/StillImage" />
        <dc:title></dc:title>
      </cc:Work>
    </rdf:RDF>
  </metadata>
  <g
     inkscape:label="Livello 1"
     inkscape:groupmode="layer"
     id="layer1">
    <path
       style="fill:#ffffff;fill-opacity:1;stroke:none;stroke-width:0.2;stroke-linecap:round;stroke-linejoin:round;stroke-miterlimit:4;stroke-dashoffset:0;stroke-opacity:1"
       d="M 29.608158,13.050443 L 76.889382,13.029757 L 103.95139,39.997783 L 103.85343,109.41071 C 103.85343,112.49069 101.37387,114.97024 98.293882,114.97024 L 29.608158,114.97024 C 26.528167,114.97024 24.04861,112.49069 24.04861,109.41071 L 24.04861,18.609988 C 24.04861,15.530002 26.528167,13.050443 29.608158,13.050443 z "
       id="path3275"
       sodipodi:nodetypes="ccccccccc" />
    <path
       style="fill:#303030;fill-opacity:1;stroke:none;stroke-width:0.2;stroke-linecap:round;stroke-linejoin:round;stroke-miterlimit:4;stroke-dashoffset:0;stroke-opacity:1"
       d="M 34.094051,19.696034 L 75.208158,19.678046 L 98.740339,43.128503 L 98.655158,103.48757 C 98.655158,106.16582 96.499016,108.32195 93.820767,108.32195 L 34.094051,108.32195 C 31.415798,108.32195 29.259661,106.16582 29.259661,103.48757 L 29.259661,24.530421 C 29.259661,21.852172 31.415798,19.696034 34.094051,19.696034 z "
       id="rect2162"
       sodipodi:nodetypes="ccccccccc" />
    <text
       xml:space="preserve"
       style="font-size:12px;font-style:normal;font-weight:normal;text-align:end;text-anchor:end;fill:#f2f2f2;fill-opacity:1;stroke:none;font-family:Bitstream Vera Sans"
       x="95.822266"
       y="103.28417"
       id="text8053"><tspan
         sodipodi:role="line"
         id="tspan8055"
         x="95.822266"
         y="103.28417">VCARD</tspan></text>
    <g
       id="g3906"
       transform="translate(0,4)">
      <rect
         ry="1.9018716"
         rx="1.9018716"
         y="36.685555"
         x="38.756973"
         height="36.654251"
         width="50.48605"
         id="rect2160"
         style="fill:#ffffff;fill-opacity:1;stroke:none" />
      <g
         transform="translate(-0.12104821,0)"
         id="g3794">
        <rect
           style="fill:#303030;fill-opacity:1;stroke:none"
           id="rect3133"
           width="1.3398683"
           height="9.2837362"
           x="50.09071"
           y="-78.752937"
           rx="0"
           ry="0"
           transform="scale(1,-1)" />
        <rect
           style="fill:#303030;fill-opacity:1;stroke:none"
           id="rect3135"
           width="7.0333562"
           height="1.9490745"
           x="47.196213"
           y="-70.307579"
           transform="scale(1,-1)" />
      </g>
      <g
         transform="translate(-0.12104821,0)"
         id="g3798">
        <rect
           style="fill:#303030;fill-opacity:1;stroke:none"
           id="rect3133-1"
           width="1.3398683"
           height="9.2837362"
           x="76.907028"
           y="-78.648979"
           rx="0"
           ry="0"
           transform="scale(1,-1)" />
        <rect
           style="fill:#303030;fill-opacity:1;stroke:none"
           id="rect3135-3"
           width="7.0333562"
           height="1.9490745"
           x="74.012527"
           y="-70.203621"
           transform="scale(1,-1)" />
      </g>
      <path
         id="path2991"
         d="m 51.000006,40.000011 c -3.312,0 -6,2.519998 -6,5.624996 0,1.639341 0.750511,3.10829 1.945312,4.136716 0.01174,0.01175 0.02332,0.0235 0.03515,0.03516 0.06607,0.05591 0.130546,0.110921 0.199221,0.164063 0.09203,0.08271 0.172183,0.169353 0.26953,0.246093 l -2.039064,0 C 43.516124,50.207037 42,51.953271 42,54.109377 L 42,58 l 18,0 0,-3.890623 c -10e-7,-2.156106 -1.516123,-3.90234 -3.410155,-3.90234 l -2.039063,0 c 0.09735,-0.07675 0.177497,-0.163382 0.26953,-0.246093 0.06867,-0.05315 0.133157,-0.10816 0.19922,-0.164063 0.01184,-0.01167 0.02342,-0.0234 0.03515,-0.03517 1.194803,-1.028425 1.945313,-2.497374 1.945313,-4.136715 C 56.999997,42.519998 54.311998,40 50.999998,40 z"
         style="fill:#262729;fill-opacity:1;stroke:none"
         inkscape:connector-curvature="0" />
      <g
         style="fill:#303030;fill-opacity:1;stroke:none"
         transform="matrix(1.219715,0,0,0.97236848,-18.324571,0.68552272)"
         id="g3901">
        <path
           inkscape:connector-curvature="0"
           sodipodi:nodetypes="ccccc"
           id="path13"
           d="m 67.494924,57.677422 0,3.322578 11.391789,0 0,-3.322578 -11.391789,0 z"
           style="fill:#303030;fill-opacity:1;fill-rule:nonzero;stroke:none" />
        <path
           inkscape:connector-curvature="0"
           sodipodi:nodetypes="ccccc"
           id="path15"
           d="m 67.494924,50.082961 0,3.322577 18.037,0 0,-3.322577 -18.037,0 z"
           style="fill:#303030;fill-opacity:1;fill-rule:nonzero;stroke:none" />
        <path
           inkscape:connector-curvature="0"
           sodipodi:nodetypes="ccccc"
           id="path17"
           d="m 67.494924,42.488499 0,3.322577 11.391789,0 0,-3.322577 -11.391789,0 z"
           style="fill:#303030;fill-opacity:1;fill-rule:nonzero;stroke:none" />
      </g>
    </g>
  </g>
</svg>
