<?xml version="1.0" encoding="UTF-8" standalone="no"?>
<!-- Created with Inkscape (http://www.inkscape.org/) -->

<svg
   xmlns:dc="http://purl.org/dc/elements/1.1/"
   xmlns:cc="http://creativecommons.org/ns#"
   xmlns:rdf="http://www.w3.org/1999/02/22-rdf-syntax-ns#"
   xmlns:svg="http://www.w3.org/2000/svg"
   xmlns="http://www.w3.org/2000/svg"
   xmlns:xlink="http://www.w3.org/1999/xlink"
   xmlns:sodipodi="http://sodipodi.sourceforge.net/DTD/sodipodi-0.dtd"
   xmlns:inkscape="http://www.inkscape.org/namespaces/inkscape"
   width="128"
   height="128"
   id="svg2"
   sodipodi:version="0.32"
   inkscape:version="0.48.3.1 r9886"
   version="1.0"
   sodipodi:docname="video-webm.svg"
   inkscape:output_extension="org.inkscape.output.svg.inkscape">
  <defs
     id="defs4">
    <linearGradient
       inkscape:collect="always"
       id="linearGradient4132">
      <stop
         style="stop-color:#f2f2f2;stop-opacity:1;"
         offset="0"
         id="stop4134" />
      <stop
         style="stop-color:#f2f2f2;stop-opacity:0;"
         offset="1"
         id="stop4136" />
    </linearGradient>
    <linearGradient
       inkscape:collect="always"
       id="linearGradient6067">
      <stop
         style="stop-color:#ffffff;stop-opacity:1;"
         offset="0"
         id="stop6069" />
      <stop
         style="stop-color:#ffffff;stop-opacity:0;"
         offset="1"
         id="stop6071" />
    </linearGradient>
    <linearGradient
       inkscape:collect="always"
       id="linearGradient3142">
      <stop
         style="stop-color:#303030;stop-opacity:1;"
         offset="0"
         id="stop3144" />
      <stop
         style="stop-color:#303030;stop-opacity:0;"
         offset="1"
         id="stop3146" />
    </linearGradient>
    <linearGradient
       inkscape:collect="always"
       xlink:href="#linearGradient3142"
       id="linearGradient3148"
       x1="92.804863"
       y1="75.855133"
       x2="92.804863"
       y2="110.71667"
       gradientUnits="userSpaceOnUse"
       gradientTransform="matrix(1.6258627,0,0,1.6258627,-28.787153,-52.145846)" />
    <linearGradient
       inkscape:collect="always"
       xlink:href="#linearGradient6067"
       id="linearGradient6073"
       x1="29.731594"
       y1="96.211563"
       x2="29.731594"
       y2="119.78299"
       gradientUnits="userSpaceOnUse" />
    <linearGradient
       inkscape:collect="always"
       xlink:href="#linearGradient4132"
       id="linearGradient4138"
       x1="96.899597"
       y1="-101.65641"
       x2="96.899597"
       y2="-115.67227"
       gradientUnits="userSpaceOnUse"
       gradientTransform="translate(-12.85655,0)" />
  </defs>
  <sodipodi:namedview
     id="base"
     pagecolor="#ffffff"
     bordercolor="#666666"
     borderopacity="1.0"
     inkscape:pageopacity="0.0"
     inkscape:pageshadow="2"
     inkscape:zoom="5.40625"
     inkscape:cx="64"
     inkscape:cy="64"
     inkscape:document-units="px"
     inkscape:current-layer="g8293"
     showgrid="false"
     width="128px"
     height="128px"
     showguides="true"
     inkscape:guide-bbox="true"
     inkscape:window-width="1598"
     inkscape:window-height="879"
     inkscape:window-x="0"
     inkscape:window-y="0"
     inkscape:window-maximized="1">
    <inkscape:grid
       type="xygrid"
       id="grid3003" />
  </sodipodi:namedview>
  <metadata
     id="metadata7">
    <rdf:RDF>
      <cc:Work
         rdf:about="">
        <dc:format>image/svg+xml</dc:format>
        <dc:type
           rdf:resource="http://purl.org/dc/dcmitype/StillImage" />
      </cc:Work>
    </rdf:RDF>
  </metadata>
  <g
     inkscape:label="Livello 1"
     inkscape:groupmode="layer"
     id="layer1">
    <path
       style="fill:#ffffff;fill-opacity:1;stroke:none;stroke-width:0.2;stroke-linecap:round;stroke-linejoin:round;stroke-miterlimit:4;stroke-dashoffset:0;stroke-opacity:1"
       d="M 29.60815,13.050443 L 76.88938,13.029757 L 103.95139,39.997783 L 103.85343,109.41071 C 103.85343,112.49069 101.37387,114.97024 98.29388,114.97024 L 29.60815,114.97024 C 26.52816,114.97024 24.04861,112.49069 24.04861,109.41071 L 24.04861,18.609988 C 24.04861,15.530002 26.52816,13.050443 29.60815,13.050443 z "
       id="path3275"
       sodipodi:nodetypes="ccccccccc" />
    <g
       id="g8293"
       transform="translate(-2.0166215,7.230244)">
      <path
         sodipodi:nodetypes="ccccccccc"
         id="rect2162"
         d="M 36.110672,12.46579 L 77.22478,12.447802 L 100.75696,35.898259 L 100.67178,96.257326 C 100.67178,98.935577 98.515638,101.09171 95.837388,101.09171 L 36.110672,101.09171 C 33.432419,101.09171 31.276283,98.935577 31.276283,96.257326 L 31.276283,17.300177 C 31.276283,14.621928 33.432419,12.46579 36.110672,12.46579 z "
         style="fill:#303030;fill-opacity:1;stroke:none;stroke-width:0.2;stroke-linecap:round;stroke-linejoin:round;stroke-miterlimit:4;stroke-dashoffset:0;stroke-opacity:1" />
      <path
         transform="matrix(0.157888,0,0,0.157888,77.849471,88.367666)"
         d="M 39.454098,24.714287 20.256381,35.798093 1.0586662,46.8819 l 0,-22.167614 0,-22.1676119 19.1977168,11.0838069 z"
         inkscape:randomized="0"
         inkscape:rounded="0"
         inkscape:flatsided="false"
         sodipodi:arg2="1.0471976"
         sodipodi:arg1="0"
         sodipodi:r2="12.798477"
         sodipodi:r1="25.596954"
         sodipodi:cy="24.714287"
         sodipodi:cx="13.857143"
         sodipodi:sides="3"
         id="path3126"
         style="fill:#f9f9f9;fill-opacity:1;stroke:none"
         sodipodi:type="star" />
      <g
         transform="matrix(0.0812128,0,0,0.0812128,44.938532,78.95631)"
         style="font-size:181.19909668px;font-style:normal;font-variant:normal;font-weight:bold;font-stretch:normal;text-align:start;line-height:125%;letter-spacing:0px;word-spacing:0px;writing-mode:lr-tb;text-anchor:start;fill:#f9f9f9;fill-opacity:1;stroke:none;font-family:Istok Web;-inkscape-font-specification:Istok Web Bold"
         id="text3134">
        <path
           d="m 510.96998,205.73636 c -3.53906,0 -5.30858,-1.76952 -5.30857,-5.30857 l 0,-82.28279 c -10e-6,-3.53896 1.76951,-5.30848 5.30857,-5.30857 l 13.97923,0 c 3.53901,9e-5 5.30853,1.76961 5.30857,5.30857 l 0,5.13161 0.3539,0 c 1.7105,-3.77489 4.60072,-6.75358 8.67066,-8.93608 4.06985,-2.18232 7.87432,-3.27353 11.41342,-3.27362 7.07803,9e-5 12.56354,1.65165 16.45656,4.95466 3.95185,3.3032 6.66512,6.9897 8.1398,11.05952 l 0.35391,0 c 5.13152,-6.66512 9.76177,-11.00044 13.89075,-13.00599 4.18777,-2.00537 9.52582,-3.0081 16.01418,-3.00819 8.72952,9e-5 16.07303,2.89031 22.03055,8.67066 6.01624,5.78052 9.02442,16.33866 9.02456,31.67445 l 0,49.01577 c -1.4e-4,3.53905 -1.76966,5.30857 -5.30856,5.30857 l -14.15618,0 c -3.53917,0 -5.30869,-1.76952 -5.30857,-5.30857 l 0,-42.64549 c -1.2e-4,-12.85847 -0.88488,-20.96877 -2.65428,-24.33093 -1.71066,-3.36202 -4.77782,-5.04306 -9.20152,-5.04314 -4.12899,8e-5 -7.90397,2.41842 -11.32494,7.25504 -3.42117,4.83676 -5.13171,14.80506 -5.13162,29.90493 l 0,34.85959 c -9e-5,3.53905 -1.76961,5.30857 -5.30857,5.30857 l -14.15618,0 c -3.53911,0 -5.30863,-1.76952 -5.30856,-5.30857 l 0,-42.64549 c -7e-5,-12.85847 -0.88483,-20.96877 -2.65429,-24.33093 -1.7106,-3.36202 -4.77776,-5.04306 -9.20151,-5.04314 -4.12894,8e-5 -7.90391,2.41842 -11.32495,7.25504 -3.42111,4.77778 -5.13165,14.74608 -5.13161,29.90493 l 0,34.85959 c -4e-5,3.53905 -1.76956,5.30857 -5.30857,5.30857 l -14.15618,0"
           style="line-height:125%;fill:#f9f9f9;stroke:none;font-family:Istok Web;-inkscape-font-specification:Istok Web Bold"
           id="path3055"
           inkscape:connector-curvature="0" />
      </g>
      <g
         transform="matrix(0.0812128,0,0,0.0812128,42.315838,78.95631)"
         style="font-size:181.19909668px;font-style:normal;font-variant:normal;font-weight:bold;font-stretch:normal;text-align:start;line-height:125%;letter-spacing:0px;word-spacing:0px;writing-mode:lr-tb;text-anchor:start;fill:#f9f9f9;fill-opacity:1;stroke:none;font-family:PT Sans;-inkscape-font-specification:PT Sans Bold"
         id="text3147">
        <path
           d="m 172.1943,115.13681 16.48912,46.38697 3.26158,15.03952 0.7248,0 2.53679,-15.22072 11.59674,-46.20577 21.56269,0 -27.90466,91.50554 -17.39511,0 -18.30111,-50.73574 -2.35559,-11.41555 -0.90599,0 -2.17439,11.59675 -17.39512,50.55454 -17.93871,0 -29.173052,-91.50554 25.549072,0 13.22754,45.48097 2.17438,16.12672 0.906,0 3.08038,-16.30792 15.03953,-45.29977 17.39511,0 z"
           style="line-height:125%;letter-spacing:0.49462566;fill:#f9f9f9;stroke:none;font-family:PT Sans;-inkscape-font-specification:PT Sans Bold"
           id="path3058"
           inkscape:connector-curvature="0" />
        <path
           d="m 310.86148,197.9448 c -3.62407,2.89919 -8.57684,5.37557 -14.85833,7.42916 -6.16083,1.93279 -12.74439,2.89918 -19.7507,2.89919 -14.61676,-10e-6 -25.3075,-4.22798 -32.07224,-12.68394 -6.76478,-8.57674 -10.14716,-20.29427 -10.14715,-35.15263 -1e-5,-15.94545 3.80517,-27.90458 11.41554,-35.87742 7.61034,-7.97267 18.30107,-11.95904 32.07224,-11.95914 4.59032,1e-4 9.0599,0.60409 13.40873,1.81199 4.34872,1.20809 8.21429,3.20128 11.59675,5.97957 3.3823,2.77847 6.10029,6.52325 8.15396,11.23435 2.0535,4.71124 3.0803,10.57001 3.08038,17.57631 -8e-5,2.53684 -0.18128,5.25483 -0.5436,8.15396 -0.24168,2.89923 -0.66448,5.91921 -1.26839,9.05995 l -54.35973,0 c 0.36237,7.6104 2.29516,13.34836 5.79837,17.21392 3.62394,3.8656 9.42231,5.79839 17.39512,5.79837 4.95271,2e-5 9.36189,-0.72478 13.22753,-2.17439 3.98631,-1.57037 7.00629,-3.14076 9.05995,-4.71118 l 7.79157,15.40193 z m -33.70304,-66.50007 c -6.16081,7e-5 -10.75118,1.87246 -13.77113,5.61717 -2.89922,3.62405 -4.65081,8.51642 -5.25477,14.67713 l 33.70303,0 c 0.48313,-6.52311 -0.54366,-11.53628 -3.08038,-15.03953 -2.41605,-3.50311 -6.28163,-5.2547 -11.59675,-5.25477 z"
           style="line-height:125%;letter-spacing:0.49462566;fill:#f9f9f9;stroke:none;font-family:PT Sans;-inkscape-font-specification:PT Sans Bold"
           id="path3060"
           inkscape:connector-curvature="0" />
        <path
           d="m 329.84633,78.896991 23.55589,0 0,43.487779 0.72479,0 c 2.53675,-2.8991 5.79833,-5.19428 9.78475,-6.88556 3.98633,-1.6911 8.39551,-2.5367 13.22754,-2.53679 10.87187,9e-5 19.14662,3.74487 24.82427,11.23435 5.79829,7.36883 8.69747,18.66356 8.69756,33.88423 -9e-5,16.30795 -4.04687,28.68987 -12.14034,37.14581 -7.97283,8.45596 -18.96557,12.68394 -32.97824,12.68394 -7.7312,0 -14.79795,-0.6644 -21.20029,-1.99319 -6.40239,-1.208 -11.23436,-2.59719 -14.49593,-4.16758 l 0,-122.852989 z m 40.4074,53.997329 c -4.34882,7e-5 -7.9124,1.14767 -10.69075,3.44278 -2.65762,2.17446 -4.71121,5.37564 -6.16076,9.60356 l 0,39.5014 c 1.93275,0.96641 3.98634,1.63081 6.16076,1.99319 2.29515,0.36242 4.71114,0.54361 7.24797,0.5436 6.40231,1e-5 11.23428,-2.29517 14.49593,-6.88557 3.38231,-4.71115 5.0735,-12.1403 5.07357,-22.28749 -7e-5,-17.27425 -5.37563,-25.9114 -16.12672,-25.91147 z"
           style="line-height:125%;letter-spacing:0.49462566;fill:#f9f9f9;stroke:none;font-family:PT Sans;-inkscape-font-specification:PT Sans Bold"
           id="path3062"
           inkscape:connector-curvature="0" />
      </g>
      <path
         d="m 75.892857,53.089287 c 0,8.629449 -6.995551,15.625 -15.625,15.625 -8.62945,0 -15.625,-6.995551 -15.625,-15.625 0,-8.629449 6.99555,-15.625 15.625,-15.625 8.629449,0 15.625,6.995551 15.625,15.625 z"
         sodipodi:ry="15.625"
         sodipodi:rx="15.625"
         sodipodi:cy="53.089287"
         sodipodi:cx="60.267857"
         id="path4164"
         style="opacity:1;fill:none;fill-opacity:1;stroke:none;stroke-width:5;stroke-linecap:butt;stroke-linejoin:miter;stroke-miterlimit:19.60000038;stroke-dasharray:none;stroke-dashoffset:0;stroke-opacity:0.32156863"
         sodipodi:type="arc" />
      <path
         inkscape:connector-curvature="0"
         style="font-size:181.19909667999999670px;font-style:normal;font-variant:normal;font-weight:bold;font-stretch:normal;text-align:start;line-height:125%;letter-spacing:0px;word-spacing:0px;writing-mode:lr-tb;text-anchor:start;fill:#2a6d7d;fill-opacity:1;stroke:none;font-family:PT Sans;-inkscape-font-specification:PT Sans Bold"
         d="m 66.016621,39.769756 c -9.388841,0 -17,7.611161 -17,17.000002 0,9.388841 7.611159,17 17,17 9.388842,0 17,-7.611159 17,-17 0,-9.388841 -7.611158,-17.000002 -17,-17.000002 z m 0,14.000002 c 1.656854,0 3,1.343146 3,3 0,1.656854 -1.343146,3 -3,3 -1.656854,0 -3,-1.343146 -3,-3 0,-1.656854 1.343146,-3 3,-3 z"
         id="path3003" />
      <path
         id="path1305"
         d="M 72.016337,33.536551 C 59.260944,30.240886 46.204391,37.867328 42.822972,50.620207 39.428289,63.423105 47.063943,76.568962 59.866843,79.963646 72.669744,83.358322 85.815602,75.722668 89.210272,62.91977 92.604953,50.11688 84.969303,36.971022 72.166408,33.576339 c -0.05001,-0.01325 -0.100037,-0.02687 -0.150071,-0.03979 z m -9.750673,3.254013 c 0.01977,0.0047 0.03974,0.01087 0.05945,0.01576 2.001425,0.496462 3.737192,1.929104 4.537181,3.996975 1.304446,3.371819 -0.374112,7.165975 -3.745931,8.470414 -3.371811,1.304438 -7.16597,-0.374112 -8.470408,-3.745924 -1.304438,-3.371811 0.371283,-7.166726 3.743093,-8.471164 1.28357,-0.496572 2.631002,-0.562764 3.876611,-0.266062 z m 16.577004,4.39538 c 0.01506,0.0036 0.03026,0.0083 0.0453,0.01201 1.338397,0.326534 2.585262,1.077705 3.521464,2.227662 2.282547,2.803691 1.857878,6.930307 -0.945819,9.212855 -2.803687,2.282547 -6.931067,1.860708 -9.213614,-0.942975 -2.282537,-2.803691 -1.86071,-6.931074 0.942987,-9.213621 1.640824,-1.33582 3.737047,-1.74825 5.649678,-1.29593 z M 66.557515,54.204317 c 0.0054,0.0011 0.01167,0.0034 0.01699,0.0045 0.03826,0.0083 0.07503,0.01989 0.113248,0.03003 1.397839,0.370642 2.23065,1.804438 1.860013,3.202278 -0.370628,1.397832 -1.80444,2.230648 -3.202272,1.860013 -1.39784,-0.370636 -2.230648,-1.80444 -1.860013,-3.202271 0.359094,-1.354308 1.716514,-2.181554 3.072037,-1.894547 z M 53.007213,51.205401 c 0.04075,0.01 0.08125,0.02155 0.121741,0.03228 2.668858,0.707575 4.701641,3.06905 4.861489,5.973869 0.198652,3.609882 -2.571293,6.70182 -6.181175,6.900467 -3.609875,0.198654 -6.698984,-2.570543 -6.89763,-6.180425 -0.198655,-3.609873 2.571284,-6.701811 6.181167,-6.900457 0.660992,-0.03637 1.302992,0.02481 1.914408,0.174264 z m 26.820488,7.111438 c 0.04183,0.0102 0.08288,0.02197 0.124577,0.03302 0.647773,0.171776 1.277783,0.446396 1.870982,0.829427 3.037223,1.961126 3.91133,6.019275 1.950196,9.056493 -1.961124,3.037227 -6.016445,3.912074 -9.053658,1.950949 -3.037223,-1.961125 -3.91132,-6.019275 -1.950195,-9.056493 1.553434,-2.405822 4.42315,-3.456253 7.058098,-2.8134 z M 63.83494,64.50668 c 0.01355,0.0033 0.0261,0.0071 0.03964,0.01051 0.02731,0.0069 0.0548,0.01453 0.08211,0.02177 3.494579,0.92659 5.578695,4.514681 4.6521,8.009276 -0.926577,3.49458 -4.514669,5.578695 -8.009258,4.652106 -3.494596,-0.926589 -5.578702,-4.514681 -4.652113,-8.009268 0.915757,-3.453742 4.431991,-5.5308 7.887521,-4.684388 z"
         style="fill:#ffffff;fill-opacity:1;fill-rule:nonzero;stroke:none"
         inkscape:connector-curvature="0" />
    </g>
  </g>
</svg>
