<?xml version="1.0" encoding="UTF-8" standalone="no"?>
<!-- Created with Inkscape (http://www.inkscape.org/) -->

<svg
   xmlns:dc="http://purl.org/dc/elements/1.1/"
   xmlns:cc="http://creativecommons.org/ns#"
   xmlns:rdf="http://www.w3.org/1999/02/22-rdf-syntax-ns#"
   xmlns:svg="http://www.w3.org/2000/svg"
   xmlns="http://www.w3.org/2000/svg"
   xmlns:xlink="http://www.w3.org/1999/xlink"
   xmlns:sodipodi="http://sodipodi.sourceforge.net/DTD/sodipodi-0.dtd"
   xmlns:inkscape="http://www.inkscape.org/namespaces/inkscape"
   width="128"
   height="128"
   id="svg2"
   sodipodi:version="0.32"
   inkscape:version="0.48.3.1 r9886"
   version="1.0"
   sodipodi:docname="video-vnd.rn-realvideo.svg"
   inkscape:output_extension="org.inkscape.output.svg.inkscape">
  <defs
     id="defs4">
    <linearGradient
       inkscape:collect="always"
       id="linearGradient4132">
      <stop
         style="stop-color:#f2f2f2;stop-opacity:1;"
         offset="0"
         id="stop4134" />
      <stop
         style="stop-color:#f2f2f2;stop-opacity:0;"
         offset="1"
         id="stop4136" />
    </linearGradient>
    <linearGradient
       inkscape:collect="always"
       id="linearGradient6067">
      <stop
         style="stop-color:#ffffff;stop-opacity:1;"
         offset="0"
         id="stop6069" />
      <stop
         style="stop-color:#ffffff;stop-opacity:0;"
         offset="1"
         id="stop6071" />
    </linearGradient>
    <linearGradient
       inkscape:collect="always"
       id="linearGradient3142">
      <stop
         style="stop-color:#303030;stop-opacity:1;"
         offset="0"
         id="stop3144" />
      <stop
         style="stop-color:#303030;stop-opacity:0;"
         offset="1"
         id="stop3146" />
    </linearGradient>
    <linearGradient
       inkscape:collect="always"
       xlink:href="#linearGradient3142"
       id="linearGradient3148"
       x1="92.804863"
       y1="75.855133"
       x2="92.804863"
       y2="110.71667"
       gradientUnits="userSpaceOnUse"
       gradientTransform="matrix(1.6258627,0,0,1.6258627,-28.787153,-52.145846)" />
    <linearGradient
       inkscape:collect="always"
       xlink:href="#linearGradient6067"
       id="linearGradient6073"
       x1="29.731594"
       y1="96.211563"
       x2="29.731594"
       y2="119.78299"
       gradientUnits="userSpaceOnUse" />
    <linearGradient
       inkscape:collect="always"
       xlink:href="#linearGradient4132"
       id="linearGradient4138"
       x1="96.899597"
       y1="-101.65641"
       x2="96.899597"
       y2="-115.67227"
       gradientUnits="userSpaceOnUse"
       gradientTransform="translate(-12.85655,0)" />
  </defs>
  <sodipodi:namedview
     id="base"
     pagecolor="#ffffff"
     bordercolor="#666666"
     borderopacity="1.0"
     inkscape:pageopacity="0.0"
     inkscape:pageshadow="2"
     inkscape:zoom="5.6"
     inkscape:cx="9.1728033"
     inkscape:cy="67.571696"
     inkscape:document-units="px"
     inkscape:current-layer="g8293"
     showgrid="true"
     width="128px"
     height="128px"
     showguides="true"
     inkscape:guide-bbox="true"
     inkscape:window-width="1598"
     inkscape:window-height="879"
     inkscape:window-x="0"
     inkscape:window-y="0"
     inkscape:window-maximized="1">
    <inkscape:grid
       type="xygrid"
       id="grid3003" />
  </sodipodi:namedview>
  <metadata
     id="metadata7">
    <rdf:RDF>
      <cc:Work
         rdf:about="">
        <dc:format>image/svg+xml</dc:format>
        <dc:type
           rdf:resource="http://purl.org/dc/dcmitype/StillImage" />
        <dc:title />
      </cc:Work>
    </rdf:RDF>
  </metadata>
  <g
     inkscape:label="Livello 1"
     inkscape:groupmode="layer"
     id="layer1">
    <path
       style="fill:#ffffff;fill-opacity:1;stroke:none;stroke-width:0.2;stroke-linecap:round;stroke-linejoin:round;stroke-miterlimit:4;stroke-dashoffset:0;stroke-opacity:1"
       d="M 29.60815,13.050443 L 76.88938,13.029757 L 103.95139,39.997783 L 103.85343,109.41071 C 103.85343,112.49069 101.37387,114.97024 98.29388,114.97024 L 29.60815,114.97024 C 26.52816,114.97024 24.04861,112.49069 24.04861,109.41071 L 24.04861,18.609988 C 24.04861,15.530002 26.52816,13.050443 29.60815,13.050443 z "
       id="path3275"
       sodipodi:nodetypes="ccccccccc" />
    <g
       id="g8293"
       transform="translate(-2.0166215,7.230244)">
      <path
         sodipodi:nodetypes="ccccccccc"
         id="rect2162"
         d="M 36.110672,12.46579 L 77.22478,12.447802 L 100.75696,35.898259 L 100.67178,96.257326 C 100.67178,98.935577 98.515638,101.09171 95.837388,101.09171 L 36.110672,101.09171 C 33.432419,101.09171 31.276283,98.935577 31.276283,96.257326 L 31.276283,17.300177 C 31.276283,14.621928 33.432419,12.46579 36.110672,12.46579 z "
         style="fill:#303030;fill-opacity:1;stroke:none;stroke-width:0.2;stroke-linecap:round;stroke-linejoin:round;stroke-miterlimit:4;stroke-dashoffset:0;stroke-opacity:1" />
      <path
         id="path4158"
         d="M 42.552676,48 L 49.006555,72.086207 L 60.735421,72.086207 L 50.886434,38.727769 L 42.552676,48 z "
         style="fill:none;fill-rule:evenodd;stroke:#303030;stroke-width:1px;stroke-linecap:butt;stroke-linejoin:miter;stroke-opacity:1" />
      <path
         d="m 75.892857,53.089287 c 0,8.629449 -6.995551,15.625 -15.625,15.625 -8.62945,0 -15.625,-6.995551 -15.625,-15.625 0,-8.629449 6.99555,-15.625 15.625,-15.625 8.629449,0 15.625,6.995551 15.625,15.625 z"
         sodipodi:ry="15.625"
         sodipodi:rx="15.625"
         sodipodi:cy="53.089287"
         sodipodi:cx="60.267857"
         id="path4164"
         style="opacity:1;fill:none;fill-opacity:1;stroke:none;stroke-width:5;stroke-linecap:butt;stroke-linejoin:miter;stroke-miterlimit:19.60000038;stroke-dasharray:none;stroke-dashoffset:0;stroke-opacity:0.32156863"
         sodipodi:type="arc" />
      <path
         inkscape:connector-curvature="0"
         style="fill:#6c9eab;fill-opacity:1;stroke:none"
         d="m 66.016621,39.769756 c -9.388841,0 -17,7.611159 -17,17 0,9.388841 7.611159,17 17,17 9.388841,0 17,-7.611159 17,-17 0,-9.388841 -7.611159,-17 -17,-17 z m 0,14 c 1.656854,0 3,1.343146 3,3 0,1.656854 -1.343146,3 -3,3 -1.656854,0 -3,-1.343146 -3,-3 0,-1.656854 1.343146,-3 3,-3 z"
         id="path3003" />
      <path
         id="path1305"
         d="M 72.016337,33.536551 C 59.260944,30.240886 46.204391,37.867328 42.822972,50.620207 39.428289,63.423105 47.063943,76.568962 59.866843,79.963646 72.669744,83.358322 85.815602,75.722668 89.210272,62.91977 92.604953,50.11688 84.969303,36.971022 72.166408,33.576339 c -0.05001,-0.01325 -0.100037,-0.02687 -0.150071,-0.03979 z m -9.750673,3.254013 c 0.01977,0.0047 0.03974,0.01087 0.05945,0.01576 2.001425,0.496462 3.737192,1.929104 4.537181,3.996975 1.304446,3.371819 -0.374112,7.165975 -3.745931,8.470414 -3.371811,1.304438 -7.16597,-0.374112 -8.470408,-3.745924 -1.304438,-3.371811 0.371283,-7.166726 3.743093,-8.471164 1.28357,-0.496572 2.631002,-0.562764 3.876611,-0.266062 z m 16.577004,4.39538 c 0.01506,0.0036 0.03026,0.0083 0.0453,0.01201 1.338397,0.326534 2.585262,1.077705 3.521464,2.227662 2.282547,2.803691 1.857878,6.930307 -0.945819,9.212855 -2.803687,2.282547 -6.931067,1.860708 -9.213614,-0.942975 -2.282537,-2.803691 -1.86071,-6.931074 0.942987,-9.213621 1.640824,-1.33582 3.737047,-1.74825 5.649678,-1.29593 z M 66.557515,54.204317 c 0.0054,0.0011 0.01167,0.0034 0.01699,0.0045 0.03826,0.0083 0.07503,0.01989 0.113248,0.03003 1.397839,0.370642 2.23065,1.804438 1.860013,3.202278 -0.370628,1.397832 -1.80444,2.230648 -3.202272,1.860013 -1.39784,-0.370636 -2.230648,-1.80444 -1.860013,-3.202271 0.359094,-1.354308 1.716514,-2.181554 3.072037,-1.894547 z M 53.007213,51.205401 c 0.04075,0.01 0.08125,0.02155 0.121741,0.03228 2.668858,0.707575 4.701641,3.06905 4.861489,5.973869 0.198652,3.609882 -2.571293,6.70182 -6.181175,6.900467 -3.609875,0.198654 -6.698984,-2.570543 -6.89763,-6.180425 -0.198655,-3.609873 2.571284,-6.701811 6.181167,-6.900457 0.660992,-0.03637 1.302992,0.02481 1.914408,0.174264 z m 26.820488,7.111438 c 0.04183,0.0102 0.08288,0.02197 0.124577,0.03302 0.647773,0.171776 1.277783,0.446396 1.870982,0.829427 3.037223,1.961126 3.91133,6.019275 1.950196,9.056493 -1.961124,3.037227 -6.016445,3.912074 -9.053658,1.950949 -3.037223,-1.961125 -3.91132,-6.019275 -1.950195,-9.056493 1.553434,-2.405822 4.42315,-3.456253 7.058098,-2.8134 z M 63.83494,64.50668 c 0.01355,0.0033 0.0261,0.0071 0.03964,0.01051 0.02731,0.0069 0.0548,0.01453 0.08211,0.02177 3.494579,0.92659 5.578695,4.514681 4.6521,8.009276 -0.926577,3.49458 -4.514669,5.578695 -8.009258,4.652106 -3.494596,-0.926589 -5.578702,-4.514681 -4.652113,-8.009268 0.915757,-3.453742 4.431991,-5.5308 7.887521,-4.684388 z"
         style="fill:#ffffff;fill-opacity:1;fill-rule:nonzero;stroke:none"
         inkscape:connector-curvature="0" />
      <g
         id="g3150"
         transform="matrix(0.90676848,0,0,0.9420886,50.393031,36.497762)"
         style="fill:#f9f9f9">
        <path
           d="m 44.963746,63.19311 4.32148,0 3.234895,-11.922554 -4.327688,0 -3.228687,11.922554"
           class="ps04 ps22"
           id="path472"
           style="font-size:7.5px;letter-spacing:0.075px;word-spacing:0;fill:#f9f9f9;fill-rule:nonzero;stroke:none;font-family:fnt1"
           inkscape:connector-curvature="0" />
        <path
           d="m 24.095229,57.907918 c 0.32287,-0.919969 1.092787,-1.457133 2.247667,-1.457133 1.098994,0 1.645387,0.518641 1.645387,1.173117 0,0.08644 -0.02484,0.20375 -0.04346,0.284016 l -3.84959,0 z m 3.10451,2.796954 c -0.217315,0.296365 -0.763711,0.617428 -1.707481,0.617428 -1.353566,0 -1.769571,-0.771786 -1.769571,-1.691755 l 8.090354,0 c 0.198688,-0.530988 0.223525,-1.037281 0.223525,-1.506527 0,-2.722861 -3.042421,-3.797188 -5.557074,-3.797188 -2.825104,0 -6.805086,1.308949 -6.805086,5.285192 0,2.111608 1.620555,3.834234 5.644,3.834234 4.898916,0 5.749552,-2.161001 6.035169,-2.741384 l -4.153836,0"
           class="ps05 ps22"
           id="path474"
           style="font-size:7.5px;letter-spacing:0.075px;word-spacing:0;fill:#f9f9f9;fill-rule:evenodd;stroke:none;font-family:fnt1"
           inkscape:connector-curvature="0" />
        <path
           d="m 20.537461,54.475013 c -0.391169,-0.09879 -0.807173,-0.12966 -1.52742,-0.12966 -1.117623,0 -2.53328,0.6483 -3.296989,1.56827 l -0.04346,0 0.372541,-1.35217 -4.191087,0 -2.3408009,8.662529 4.3276869,0 0.981025,-3.624308 c 0.502931,-1.815242 1.415656,-2.420322 3.253525,-2.420322 0.310452,0 0.63953,0.0247 0.962399,0.07409 l 1.502584,-2.778431"
           class="ps04 ps22"
           id="path476"
           style="font-size:7.5px;letter-spacing:0.075px;word-spacing:0;fill:#f9f9f9;fill-rule:nonzero;stroke:none;font-family:fnt1"
           inkscape:connector-curvature="0" />
        <path
           d="m 36.718167,60.698697 c 0,-0.635952 0.676782,-0.919969 1.397027,-0.969364 0.788547,-0.04939 1.595721,-0.117311 2.29113,-0.382805 -0.260778,1.284253 -0.850635,2.099259 -2.309756,2.099259 -0.701619,0 -1.378401,-0.148184 -1.378401,-0.74709 z m 7.140371,1.426262 c 0.235941,-1.09285 1.328734,-4.309654 1.328734,-5.519816 0,-2.099258 -3.446006,-2.303011 -5.501195,-2.303011 -2.769222,0 -5.103814,0.537164 -5.780598,2.840174 l 4.060701,0 c 0.235941,-0.6483 0.850634,-0.882924 1.719897,-0.882924 0.658156,0 1.353565,0.148184 1.353565,0.747089 0,1.068153 -1.943422,0.938493 -3.166599,1.006409 -3.247316,0.179055 -5.476355,0.796484 -5.476355,3.087146 0,1.648536 1.726106,2.30301 3.669531,2.30301 1.266641,0 2.725759,-0.351934 3.48947,-1.049629 l 0.04346,0 c -0.01862,0.277843 -0.167647,0.833529 -0.167647,0.833529 l 4.135207,0 0.291825,-1.061977"
           class="ps05 ps22"
           id="path478"
           style="font-size:7.5px;letter-spacing:0.075px;word-spacing:0;fill:#f9f9f9;fill-rule:evenodd;stroke:none;font-family:fnt1"
           inkscape:connector-curvature="0" />
      </g>
    </g>
  </g>
</svg>
