<?xml version="1.0" encoding="UTF-8" standalone="no"?>
<!-- Created with Inkscape (http://www.inkscape.org/) -->

<svg
   xmlns:dc="http://purl.org/dc/elements/1.1/"
   xmlns:cc="http://creativecommons.org/ns#"
   xmlns:rdf="http://www.w3.org/1999/02/22-rdf-syntax-ns#"
   xmlns:svg="http://www.w3.org/2000/svg"
   xmlns="http://www.w3.org/2000/svg"
   xmlns:xlink="http://www.w3.org/1999/xlink"
   xmlns:sodipodi="http://sodipodi.sourceforge.net/DTD/sodipodi-0.dtd"
   xmlns:inkscape="http://www.inkscape.org/namespaces/inkscape"
   width="128"
   height="128"
   id="svg2"
   sodipodi:version="0.32"
   inkscape:version="0.48.3.1 r9886"
   version="1.0"
   sodipodi:docname="text-x-generic-template.svg"
   inkscape:output_extension="org.inkscape.output.svg.inkscape">
  <defs
     id="defs4">
    <linearGradient
       inkscape:collect="always"
       id="linearGradient4132">
      <stop
         style="stop-color:#f2f2f2;stop-opacity:1;"
         offset="0"
         id="stop4134" />
      <stop
         style="stop-color:#f2f2f2;stop-opacity:0;"
         offset="1"
         id="stop4136" />
    </linearGradient>
    <linearGradient
       inkscape:collect="always"
       id="linearGradient3155">
      <stop
         style="stop-color:#303030;stop-opacity:1;"
         offset="0"
         id="stop3157" />
      <stop
         style="stop-color:#303030;stop-opacity:0;"
         offset="1"
         id="stop3159" />
    </linearGradient>
    <linearGradient
       inkscape:collect="always"
       id="linearGradient6067">
      <stop
         style="stop-color:#ffffff;stop-opacity:1;"
         offset="0"
         id="stop6069" />
      <stop
         style="stop-color:#ffffff;stop-opacity:0;"
         offset="1"
         id="stop6071" />
    </linearGradient>
    <linearGradient
       inkscape:collect="always"
       id="linearGradient3142">
      <stop
         style="stop-color:#303030;stop-opacity:1;"
         offset="0"
         id="stop3144" />
      <stop
         style="stop-color:#303030;stop-opacity:0;"
         offset="1"
         id="stop3146" />
    </linearGradient>
    <linearGradient
       inkscape:collect="always"
       xlink:href="#linearGradient3142"
       id="linearGradient3148"
       x1="92.804863"
       y1="75.855133"
       x2="92.804863"
       y2="110.71667"
       gradientUnits="userSpaceOnUse"
       gradientTransform="matrix(1.6258627,0,0,1.6258627,-28.787153,-52.145846)" />
    <linearGradient
       inkscape:collect="always"
       xlink:href="#linearGradient6067"
       id="linearGradient6073"
       x1="29.731594"
       y1="96.211563"
       x2="29.731594"
       y2="119.78299"
       gradientUnits="userSpaceOnUse" />
    <linearGradient
       inkscape:collect="always"
       xlink:href="#linearGradient3155"
       id="linearGradient3161"
       x1="100.75668"
       y1="85.389313"
       x2="100.75668"
       y2="124.82345"
       gradientUnits="userSpaceOnUse" />
    <linearGradient
       inkscape:collect="always"
       xlink:href="#linearGradient4132"
       id="linearGradient4138"
       x1="96.899597"
       y1="-101.65641"
       x2="96.899597"
       y2="-115.67227"
       gradientUnits="userSpaceOnUse"
       gradientTransform="translate(-2.1428567,0)" />
  </defs>
  <sodipodi:namedview
     id="base"
     pagecolor="#ffffff"
     bordercolor="#666666"
     borderopacity="1.0"
     inkscape:pageopacity="0.0"
     inkscape:pageshadow="2"
     inkscape:zoom="1.979899"
     inkscape:cx="142.54069"
     inkscape:cy="77.111698"
     inkscape:document-units="px"
     inkscape:current-layer="layer1"
     showgrid="true"
     width="128px"
     height="128px"
     showguides="true"
     inkscape:guide-bbox="true"
     inkscape:window-width="1598"
     inkscape:window-height="879"
     inkscape:window-x="0"
     inkscape:window-y="0"
     inkscape:window-maximized="1" />
  <metadata
     id="metadata7">
    <rdf:RDF>
      <cc:Work
         rdf:about="">
        <dc:format>image/svg+xml</dc:format>
        <dc:type
           rdf:resource="http://purl.org/dc/dcmitype/StillImage" />
        <dc:title></dc:title>
      </cc:Work>
    </rdf:RDF>
  </metadata>
  <g
     inkscape:label="Livello 1"
     inkscape:groupmode="layer"
     id="layer1">
    <path
       style="fill:#ffffff;fill-opacity:1;stroke:none"
       d="m 98.39184,13.050445 -47.28122,-0.02069 -27.06201,26.968026 0.09796,69.412925 c 0,3.07998 2.47956,5.55953 5.55955,5.55953 l 68.68572,0 c 3.07999,0 5.55955,-2.47955 5.55955,-5.55953 l 0,-90.80072 c 0,-3.079986 -2.47956,-5.559545 -5.55955,-5.559545 z"
       id="path3275"
       sodipodi:nodetypes="ccccccccc"
       inkscape:connector-curvature="0" />
    <g
       id="g10292"
       transform="matrix(-1,0,0,1,130.01662,7.230244)">
      <path
         sodipodi:nodetypes="ccccccccc"
         id="rect2162"
         d="m 36.110672,12.46579 41.114108,-0.01799 23.53218,23.450457 -0.0852,60.359067 c 0,2.678251 -2.156142,4.834384 -4.834392,4.834384 l -59.726716,0 c -2.678253,0 -4.834389,-2.156133 -4.834389,-4.834384 l 0,-78.957149 c 0,-2.678249 2.156136,-4.834387 4.834389,-4.834387 z"
         style="fill:#303030;fill-opacity:1;stroke:none"
         inkscape:connector-curvature="0" />
      <text
         id="text8053"
         y="96.053925"
         x="72.040222"
         style="font-size:12px;font-style:normal;font-weight:normal;fill:#f2f2f2;fill-opacity:1;stroke:none;font-family:Bitstream Vera Sans"
         xml:space="preserve"><tspan
           y="96.053925"
           x="72.040222"
           id="tspan8055"
           sodipodi:role="line">TMT</tspan></text>
    </g>
    <path
       id="path3003"
       d="m 48.440844,36.29133 c 0.327353,0.05285 0.665183,0.207511 0.895894,0.467421 5.850701,6.59134 12.108456,14.96501 17.878835,25.55232 l 0.467421,-0.311613 11.062284,16.593428 -0.779033,0.545323 c 1.086335,0.217258 1.826079,1.221539 1.752826,2.298151 l 0.03895,-0.03895 c 3.447907,3.089462 4.433813,6.518495 7.245018,11.529701 -1.99381,-2.345167 -7.651975,-3.200754 -8.997846,-5.219536 -0.765462,-1.148179 0.289768,-2.276376 -1.207502,-4.323628 l 0.03895,-0.03895 C 75.81445,82.99868 75.178143,81.938557 75.395432,80.852085 L 74.538494,81.397409 63.476209,64.765029 63.94363,64.453416 C 56.422556,55.044129 51.126891,46.076873 47.2723,38.161012 c -0.304096,-0.624498 -0.05405,-1.483068 0.350561,-1.752826 0.202311,-0.134879 0.490638,-0.169705 0.817983,-0.116856 z"
       style="fill:#ffffff;fill-opacity:1;fill-rule:evenodd;stroke:none"
       inkscape:connector-curvature="0" />
  </g>
</svg>
