<?xml version="1.0" encoding="UTF-8" standalone="no"?>
<!-- Created with Inkscape (http://www.inkscape.org/) -->

<svg
   xmlns:dc="http://purl.org/dc/elements/1.1/"
   xmlns:cc="http://creativecommons.org/ns#"
   xmlns:rdf="http://www.w3.org/1999/02/22-rdf-syntax-ns#"
   xmlns:svg="http://www.w3.org/2000/svg"
   xmlns="http://www.w3.org/2000/svg"
   xmlns:sodipodi="http://sodipodi.sourceforge.net/DTD/sodipodi-0.dtd"
   xmlns:inkscape="http://www.inkscape.org/namespaces/inkscape"
   width="128"
   height="128"
   id="svg2"
   sodipodi:version="0.32"
   inkscape:version="0.48.3.1 r9886"
   version="1.0"
   sodipodi:docname="folder.svg"
   inkscape:output_extension="org.inkscape.output.svg.inkscape">
  <defs
     id="defs4" />
  <sodipodi:namedview
     id="base"
     pagecolor="#ffffff"
     bordercolor="#000000"
     borderopacity="1"
     inkscape:pageopacity="0.0"
     inkscape:pageshadow="2"
     inkscape:zoom="5.6"
     inkscape:cx="54.194375"
     inkscape:cy="61.974161"
     inkscape:document-units="px"
     inkscape:current-layer="layer1"
     width="128px"
     height="128px"
     showgrid="true"
     inkscape:window-width="1598"
     inkscape:window-height="879"
     inkscape:window-x="0"
     inkscape:window-y="0"
     inkscape:window-maximized="1" />
  <metadata
     id="metadata7">
    <rdf:RDF>
      <cc:Work
         rdf:about="">
        <dc:format>image/svg+xml</dc:format>
        <dc:type
           rdf:resource="http://purl.org/dc/dcmitype/StillImage" />
        <dc:title></dc:title>
      </cc:Work>
    </rdf:RDF>
  </metadata>
  <g
     inkscape:label="Ebene 1"
     inkscape:groupmode="layer"
     id="layer1">
    <path
       id="path10952"
       style="fill:#ffffff;fill-opacity:1;fill-rule:nonzero;stroke:none"
       d="m 35.862069,21.999998 56.275862,0 C 112.00552,21.999998 128,38.902853 128,59.898773 l 0,8.162814 c 0,20.995926 -15.99448,37.898763 -35.862069,37.898763 l -56.275862,0 C 15.994483,105.96035 1.81e-6,89.057513 1.81e-6,68.061587 l 0,-8.162814 c 0,-20.99592 15.99448119,-37.898775 35.86206719,-37.898775 z m -35.86206719,0 73.10344719,0 0,46.019944 -73.10344719,0 0,-46.019944 z M 54.896546,59.980071 128,59.980071 128,106 l -73.103454,0 0,-46.019929 z"
       inkscape:connector-curvature="0" />
    <path
       id="rect10941"
       style="fill:#262729;fill-opacity:1;fill-rule:nonzero;stroke:none"
       d="m 39.397035,29.25 49.20593,0 c 17.371625,0 31.356725,13.985098 31.356725,31.35672 l 0,6.753755 c 0,17.371624 -13.9851,31.356721 -31.356725,31.356721 l -49.20593,0 c -17.371623,0 -31.3567201,-13.985097 -31.3567201,-31.356721 l 0,-6.753755 C 8.0403149,43.235098 22.025412,29.25 39.397035,29.25 z m -31.3567201,0 63.9194681,0 0,38.076019 -63.9194681,0 0,-38.076019 z m 47.9999021,31.423985 63.919473,0 0,38.076015 -63.919473,0 0,-38.076015 z"
       inkscape:connector-curvature="0" />
    <g
       transform="matrix(0.46089596,0,0,0.46089596,34.710125,34.647746)"
       id="g3178">
      <path
         inkscape:connector-curvature="0"
         sodipodi:nodetypes="cccccccccccccc"
         id="path3267"
         d="m 22.898046,57.718074 c 0.768874,0.307548 12.609535,6.150993 12.609535,6.150993 L 28.74149,69.71251 55.652085,99.852378 63.494602,92.778735 68.415397,101.08257 78.71831,92.778735 101.16944,66.790789 96.094867,62.638868 101.47698,58.025622 68.261622,26.655557 64.7248,37.112245 59.496456,26.501783 22.898046,57.718074 z"
         style="fill:#ffffff;fill-opacity:1;fill-rule:evenodd;stroke:none" />
      <path
         inkscape:connector-curvature="0"
         id="path2284"
         d="M 24.678879,64.396755 C 16.817711,61.604612 11.187064,56.981029 6.9747561,49.859057 3.819267,44.523925 3.1148979,41.660652 3.1148979,34.168806 c 0,-7.769373 0.645641,-10.202139 4.2419104,-15.983489 C 9.9860594,13.958529 14.207116,9.7632141 18.459831,7.1499969 24.298086,3.5624903 26.711909,2.9339677 34.651286,2.9339677 c 7.939361,0 10.353198,0.6285226 16.191453,4.2160292 10.378373,6.3773231 14.95342,14.6879401 15.517991,28.1886121 0.300646,7.189251 0.0778,9.388336 -0.668936,6.601321 -2.857589,-10.665133 -9.476837,-16.009897 -19.827571,-16.009897 -11.691828,0 -19.622641,7.878244 -19.622641,19.492573 0,9.733778 4.202777,15.553459 13.65248,18.904921 l 5.269353,1.868842 -7.708896,0 c -4.239892,0 -9.988933,-0.809824 -12.77564,-1.799614 z"
         style="fill:#ffffff;fill-opacity:1" />
      <path
         inkscape:connector-curvature="0"
         id="path3257"
         d="m 87.619442,63.74054 c 9.505359,-3.572019 13.502338,-9.222619 13.493728,-19.076404 -0.01,-11.315115 -7.978275,-19.010523 -19.674364,-19.00043 -9.939787,0.0086 -16.533999,5.410794 -19.326857,15.833228 -0.738339,2.755361 -0.958674,0.581251 -0.66141,-6.526349 0.55822,-13.347344 5.081795,-21.563574 15.343406,-27.86847 5.77257,-3.5467618 8.15925,-4.1681473 16.00929,-4.1681473 7.850045,0 10.236725,0.6213855 16.009315,4.1681473 4.20486,2.5835385 8.37842,6.731205 10.97809,10.90999 3.56891,5.736765 4.19419,8.10862 4.19419,15.909955 0,7.801337 -0.62528,10.173205 -4.19419,15.909957 -6.15124,9.887686 -14.56755,14.606289 -27.307494,15.309993 -9.982517,0.551372 -10.026572,0.538682 -4.863704,-1.40147 z"
         style="fill:#ffffff;fill-opacity:1" />
      <path
         inkscape:connector-curvature="0"
         id="path3259"
         d="m 24.67225,122.87153 c -7.959271,-2.94494 -13.518437,-7.51626 -17.6986811,-14.55372 -3.1545183,-5.31061 -3.858671,-8.16074 -3.858671,-15.618172 0,-7.733677 0.6454437,-10.155281 4.2406066,-15.91008 6.4144785,-10.267711 14.7735075,-14.79396 28.3528275,-15.35253 7.231144,-0.297421 9.443029,-0.07696 6.639788,0.661822 -10.727274,2.827111 -16.103164,9.375786 -16.103164,19.616152 0,24.004098 33.198199,27.190488 39.368434,3.778608 0.848729,-3.220364 1.05246,-1.468587 0.727903,6.259087 -0.377353,8.985033 -1.118063,11.799273 -4.552439,17.296743 -7.671258,12.2794 -24.424348,18.51817 -37.116604,13.82209 z"
         style="fill:#ffffff;fill-opacity:1" />
      <path
         inkscape:connector-curvature="0"
         id="path3261"
         d="M 82.373089,122.84615 C 68.177938,117.58139 61.246091,107.59298 60.573611,91.434271 c -0.321148,-7.716686 -0.117494,-9.415459 0.738447,-6.159983 2.623437,9.977994 10.155987,16.096082 19.817411,16.096082 11.233471,0 19.660811,-8.527431 19.660811,-19.894287 0,-10.293506 -5.390879,-16.876163 -16.148077,-19.717942 -2.811058,-0.74261 -0.593006,-0.96422 6.658316,-0.665257 13.617181,0.561467 21.999521,5.111204 28.431891,15.432198 3.61848,5.80598 4.25242,8.206451 4.25242,16.101941 0,7.895457 -0.63394,10.295977 -4.25242,16.101937 -7.83619,12.57348 -24.52164,18.87849 -37.359321,14.11719 z"
         style="fill:#ffffff;fill-opacity:1" />
      <path
         inkscape:connector-curvature="0"
         id="path4426"
         d="m 87.196981,67.108467 -20.059925,0 0,23.274275 1.6667,0.148812 4.077463,7.143 18.184887,2.380996 11.220464,-19.047995 -11.726427,-13.0955 -3.392925,-0.178575 0.02976,-0.625013 z"
         style="fill:#e04613;fill-opacity:1;fill-rule:evenodd;stroke:none" />
      <path
         inkscape:connector-curvature="0"
         id="path4408"
         d="m 84.802927,21.314688 -16.296631,15.257684 -0.682737,4.244842 -0.623368,-0.118737 0,19.947789 20.274315,0 0.02968,-0.326526 L 106.68019,49.633424 84.802923,21.314688 z"
         style="fill:#e04613;fill-opacity:1;fill-rule:evenodd;stroke:none" />
      <path
         inkscape:connector-curvature="0"
         id="path4438"
         d="m 60.616365,67.235652 -21.996328,0 -0.296047,1.302609 -10.006405,7.105139 2.042727,20.812139 18.947039,3.374941 10.835339,-9.799172 0.473675,0.02961 0,-22.825261 z"
         style="fill:#e04613;fill-opacity:1;fill-rule:evenodd;stroke:none" />
      <path
         inkscape:connector-curvature="0"
         id="path4406"
         d="m 52.735669,22.997444 -29.20015,13.426722 9.862106,22.397674 6.446015,0.178231 -0.386167,1.663487 21.239173,0 0,-20.704481 -0.831744,-0.148525 -7.129233,-16.813108 z"
         style="fill:#e04613;fill-opacity:1;fill-rule:evenodd;stroke:none" />
      <path
         inkscape:connector-curvature="0"
         id="path4446"
         d="m 29.217562,113.97982 c -5.992616,-2.24048 -10.178166,-5.7183 -13.325514,-11.07232 -2.375069,-4.040272 -2.905232,-6.208619 -2.905232,-11.882167 0,-5.88371 0.485961,-7.726044 3.192795,-12.104241 4.829525,-7.81158 11.123122,-11.255109 21.347127,-11.680063 5.444401,-0.226275 7.109751,-0.05855 4.999163,0.503508 -8.076672,2.15084 -12.124233,7.133011 -12.124233,14.923787 0,18.262096 24.995256,20.686266 29.640889,2.87473 0.639015,-2.450023 0.792407,-1.117288 0.548045,4.761855 -0.284113,6.835732 -0.841801,8.976785 -3.427578,13.159201 -5.775767,9.34205 -18.389336,14.08846 -27.945462,10.51571 z"
         style="fill:#262729;fill-opacity:1" />
      <path
         inkscape:connector-curvature="0"
         id="path4444"
         d="m 83.541124,114.10171 c -10.714745,-4.00595 -15.947022,-11.60609 -16.45462,-23.901185 -0.242409,-5.871594 -0.08869,-7.164191 0.557392,-4.687103 1.980215,7.592218 7.665914,12.247435 14.958522,12.247435 8.479217,0 14.840316,-6.488482 14.840316,-15.137483 0,-7.83229 -4.069125,-12.84101 -12.188844,-15.00331 -2.121835,-0.565049 -0.447611,-0.733672 5.025812,-0.506191 10.278478,0.427218 16.605618,3.889097 21.460878,11.742301 2.73129,4.417755 3.2098,6.244268 3.2098,12.251912 0,6.007625 -0.47851,7.834157 -3.2098,12.251904 -5.91489,9.56711 -18.509354,14.36457 -28.199456,10.74172 z"
         style="fill:#262729;fill-opacity:1" />
      <path
         inkscape:connector-curvature="0"
         id="path4442"
         d="M 29.191371,59.436623 C 23.254374,57.314973 19.001935,53.801677 15.82067,48.389943 13.437547,44.335966 12.905586,42.160267 12.905586,36.467479 c 0,-5.90367 0.487608,-7.752242 3.203622,-12.145285 1.985692,-3.211786 5.173564,-6.399656 8.385347,-8.385347 4.40923,-2.726019 6.232224,-3.203611 12.228287,-3.203611 5.996051,0 7.819056,0.477592 12.228286,3.203611 7.838069,4.845901 11.293286,11.160843 11.719668,21.419524 0.227057,5.462856 0.05876,7.133863 -0.505202,5.01611 -2.158139,-8.104056 -7.157201,-12.165352 -14.974395,-12.165352 -8.83003,0 -14.819626,5.986398 -14.819626,14.811713 0,7.396352 3.174068,11.81852 10.310776,14.365177 l 3.979578,1.420067 -5.821996,0 c -3.202098,0 -7.543952,-0.615357 -9.64856,-1.367463 z"
         style="fill:#262729;fill-opacity:1" />
      <path
         inkscape:connector-curvature="0"
         id="path4391"
         d="m 87.130048,59.452321 c 7.255315,-2.743496 10.306148,-7.083451 10.299566,-14.65167 -0.0076,-8.690597 -6.089696,-14.60107 -15.01716,-14.593319 -7.586903,0.0066 -12.620175,4.155771 -14.751925,12.160743 -0.563564,2.116261 -0.731743,0.446431 -0.504845,-5.012576 0.426081,-10.251454 3.878864,-16.561946 11.711411,-21.404434 4.406123,-2.724098 6.227843,-3.201354 12.219671,-3.201354 5.991834,0 7.813551,0.477256 12.219694,3.201354 3.20951,1.984292 6.39513,5.169916 8.37943,8.37944 2.7241,4.406134 3.20136,6.227842 3.20136,12.219673 0,5.991832 -0.47726,7.81355 -3.20136,12.219674 -4.69516,7.594257 -11.11921,11.21839 -20.843444,11.758871 -7.619517,0.423482 -7.653144,0.413736 -3.712398,-1.076402 z"
         style="fill:#262729;fill-opacity:1" />
    </g>
  </g>
</svg>
