<?xml version="1.0" encoding="UTF-8" standalone="no"?>
<!-- Created with Inkscape (http://www.inkscape.org/) -->

<svg
   xmlns:dc="http://purl.org/dc/elements/1.1/"
   xmlns:cc="http://creativecommons.org/ns#"
   xmlns:rdf="http://www.w3.org/1999/02/22-rdf-syntax-ns#"
   xmlns:svg="http://www.w3.org/2000/svg"
   xmlns="http://www.w3.org/2000/svg"
   xmlns:xlink="http://www.w3.org/1999/xlink"
   xmlns:sodipodi="http://sodipodi.sourceforge.net/DTD/sodipodi-0.dtd"
   xmlns:inkscape="http://www.inkscape.org/namespaces/inkscape"
   width="128"
   height="128"
   id="svg2"
   sodipodi:version="0.32"
   inkscape:version="0.48.3.1 r9886"
   version="1.0"
   sodipodi:docname="folder-music.svg"
   inkscape:output_extension="org.inkscape.output.svg.inkscape">
  <defs
     id="defs4">
    <radialGradient
       inkscape:collect="always"
       xlink:href="#linearGradient8740"
       id="radialGradient4644"
       gradientUnits="userSpaceOnUse"
       gradientTransform="matrix(1,0,0,0.930233,0,-0.240141)"
       cx="62.225391"
       cy="-3.4420195"
       fx="62.225391"
       fy="-3.4420195"
       r="10.081216" />
    <linearGradient
       id="linearGradient8740"
       inkscape:collect="always">
      <stop
         id="stop8742"
         offset="0"
         style="stop-color:#ffffff;stop-opacity:1;" />
      <stop
         id="stop8744"
         offset="1"
         style="stop-color:#ffffff;stop-opacity:0;" />
    </linearGradient>
    <radialGradient
       inkscape:collect="always"
       xlink:href="#linearGradient8740"
       id="radialGradient4642"
       gradientUnits="userSpaceOnUse"
       gradientTransform="matrix(1,0,0,0.930233,0,-0.240141)"
       cx="62.225391"
       cy="-3.4420195"
       fx="62.225391"
       fy="-3.4420195"
       r="10.081216" />
    <radialGradient
       inkscape:collect="always"
       xlink:href="#linearGradient8740"
       id="radialGradient2603"
       gradientUnits="userSpaceOnUse"
       gradientTransform="matrix(1,0,0,0.930233,0,-0.240141)"
       cx="62.225391"
       cy="-3.4420195"
       fx="62.225391"
       fy="-3.4420195"
       r="10.081216" />
    <radialGradient
       inkscape:collect="always"
       xlink:href="#linearGradient8740"
       id="radialGradient2599"
       gradientUnits="userSpaceOnUse"
       gradientTransform="matrix(1,0,0,0.930233,0,-0.240141)"
       cx="62.225391"
       cy="-3.4420195"
       fx="62.225391"
       fy="-3.4420195"
       r="10.081216" />
    <radialGradient
       inkscape:collect="always"
       xlink:href="#linearGradient8740"
       id="radialGradient4640"
       gradientUnits="userSpaceOnUse"
       gradientTransform="matrix(1,0,0,0.930233,0,-0.240141)"
       cx="62.225391"
       cy="-3.4420195"
       fx="62.225391"
       fy="-3.4420195"
       r="10.081216" />
    <radialGradient
       inkscape:collect="always"
       xlink:href="#linearGradient8740"
       id="radialGradient4638"
       gradientUnits="userSpaceOnUse"
       gradientTransform="matrix(1,0,0,0.930233,0,-0.240141)"
       cx="62.225391"
       cy="-3.4420195"
       fx="62.225391"
       fy="-3.4420195"
       r="10.081216" />
    <radialGradient
       inkscape:collect="always"
       xlink:href="#linearGradient8740"
       id="radialGradient2595"
       gradientUnits="userSpaceOnUse"
       gradientTransform="matrix(1,0,0,0.930233,0,-0.240141)"
       cx="62.225391"
       cy="-3.4420195"
       fx="62.225391"
       fy="-3.4420195"
       r="10.081216" />
    <radialGradient
       inkscape:collect="always"
       xlink:href="#linearGradient8740"
       id="radialGradient4636"
       gradientUnits="userSpaceOnUse"
       gradientTransform="matrix(1,0,0,0.930233,0,-0.240141)"
       cx="62.225391"
       cy="-3.4420195"
       fx="62.225391"
       fy="-3.4420195"
       r="10.081216" />
    <radialGradient
       inkscape:collect="always"
       xlink:href="#linearGradient8740"
       id="radialGradient4634"
       gradientUnits="userSpaceOnUse"
       gradientTransform="matrix(1,0,0,0.930233,0,-0.240141)"
       cx="62.225391"
       cy="-3.4420195"
       fx="62.225391"
       fy="-3.4420195"
       r="10.081216" />
    <radialGradient
       inkscape:collect="always"
       xlink:href="#linearGradient8740"
       id="radialGradient2589"
       gradientUnits="userSpaceOnUse"
       gradientTransform="matrix(1,0,0,0.930233,0,-0.240141)"
       cx="62.225391"
       cy="-3.4420195"
       fx="62.225391"
       fy="-3.4420195"
       r="10.081216" />
    <radialGradient
       inkscape:collect="always"
       xlink:href="#linearGradient8740"
       id="radialGradient4632"
       gradientUnits="userSpaceOnUse"
       gradientTransform="matrix(1,0,0,0.930233,0,-0.240141)"
       cx="62.225391"
       cy="-3.4420195"
       fx="62.225391"
       fy="-3.4420195"
       r="10.081216" />
    <radialGradient
       inkscape:collect="always"
       xlink:href="#linearGradient8740"
       id="radialGradient4630"
       gradientUnits="userSpaceOnUse"
       gradientTransform="matrix(1,0,0,0.930233,0,-0.240141)"
       cx="62.225391"
       cy="-3.4420195"
       fx="62.225391"
       fy="-3.4420195"
       r="10.081216" />
    <radialGradient
       inkscape:collect="always"
       xlink:href="#linearGradient8740"
       id="radialGradient2581"
       gradientUnits="userSpaceOnUse"
       gradientTransform="matrix(1,0,0,0.930233,0,-0.240141)"
       cx="62.225391"
       cy="-3.4420195"
       fx="62.225391"
       fy="-3.4420195"
       r="10.081216" />
    <radialGradient
       inkscape:collect="always"
       xlink:href="#linearGradient8740"
       id="radialGradient4628"
       gradientUnits="userSpaceOnUse"
       gradientTransform="matrix(1,0,0,0.930233,0,-0.240141)"
       cx="62.225391"
       cy="-3.4420195"
       fx="62.225391"
       fy="-3.4420195"
       r="10.081216" />
    <radialGradient
       inkscape:collect="always"
       xlink:href="#linearGradient8740"
       id="radialGradient2575"
       gradientUnits="userSpaceOnUse"
       gradientTransform="matrix(1,0,0,0.930233,0,-0.240141)"
       cx="62.225391"
       cy="-3.4420195"
       fx="62.225391"
       fy="-3.4420195"
       r="10.081216" />
    <radialGradient
       inkscape:collect="always"
       xlink:href="#linearGradient8740"
       id="radialGradient4626"
       gradientUnits="userSpaceOnUse"
       gradientTransform="matrix(1,0,0,0.930233,0,-0.240141)"
       cx="62.225391"
       cy="-3.4420195"
       fx="62.225391"
       fy="-3.4420195"
       r="10.081216" />
    <radialGradient
       inkscape:collect="always"
       xlink:href="#linearGradient8740"
       id="radialGradient2573"
       gradientUnits="userSpaceOnUse"
       gradientTransform="matrix(1,0,0,0.930233,0,0.79739)"
       cx="62.225391"
       cy="-3.4420195"
       fx="62.225391"
       fy="-3.4420195"
       r="10.081216" />
    <radialGradient
       inkscape:collect="always"
       xlink:href="#linearGradient8740"
       id="radialGradient4624"
       gradientUnits="userSpaceOnUse"
       gradientTransform="matrix(1,0,0,0.930233,0,-0.240141)"
       cx="62.225391"
       cy="-3.4420195"
       fx="62.225391"
       fy="-3.4420195"
       r="10.081216" />
    <radialGradient
       inkscape:collect="always"
       xlink:href="#linearGradient8740"
       id="radialGradient4622"
       gradientUnits="userSpaceOnUse"
       gradientTransform="matrix(1,0,0,0.930233,0,-0.240141)"
       cx="62.225391"
       cy="-3.4420195"
       fx="62.225391"
       fy="-3.4420195"
       r="10.081216" />
    <radialGradient
       inkscape:collect="always"
       xlink:href="#linearGradient8740"
       id="radialGradient2567"
       gradientUnits="userSpaceOnUse"
       gradientTransform="matrix(1,0,0,0.930233,0,-0.240141)"
       cx="62.225391"
       cy="-3.4420195"
       fx="62.225391"
       fy="-3.4420195"
       r="10.081216" />
    <radialGradient
       inkscape:collect="always"
       xlink:href="#linearGradient8740"
       id="radialGradient4620"
       gradientUnits="userSpaceOnUse"
       gradientTransform="matrix(1,0,0,0.930233,0,-0.240141)"
       cx="62.225391"
       cy="-3.4420195"
       fx="62.225391"
       fy="-3.4420195"
       r="10.081216" />
    <radialGradient
       inkscape:collect="always"
       xlink:href="#linearGradient8740"
       id="radialGradient2559"
       gradientUnits="userSpaceOnUse"
       gradientTransform="matrix(1,0,0,0.930233,0,-0.240141)"
       cx="62.225391"
       cy="-3.4420195"
       fx="62.225391"
       fy="-3.4420195"
       r="10.081216" />
    <radialGradient
       inkscape:collect="always"
       xlink:href="#linearGradient8740"
       id="radialGradient4618"
       gradientUnits="userSpaceOnUse"
       gradientTransform="matrix(1,0,0,0.930233,0,-0.240141)"
       cx="62.225391"
       cy="-3.4420195"
       fx="62.225391"
       fy="-3.4420195"
       r="10.081216" />
    <radialGradient
       inkscape:collect="always"
       xlink:href="#linearGradient8740"
       id="radialGradient4616"
       gradientUnits="userSpaceOnUse"
       gradientTransform="matrix(1,0,0,0.930233,0,-0.240141)"
       cx="62.225391"
       cy="-3.4420195"
       fx="62.225391"
       fy="-3.4420195"
       r="10.081216" />
    <radialGradient
       inkscape:collect="always"
       xlink:href="#linearGradient8740"
       id="radialGradient4614"
       gradientUnits="userSpaceOnUse"
       gradientTransform="matrix(1,0,0,0.930233,0,-0.240141)"
       cx="62.225391"
       cy="-3.4420195"
       fx="62.225391"
       fy="-3.4420195"
       r="10.081216" />
    <radialGradient
       inkscape:collect="always"
       xlink:href="#linearGradient8740"
       id="radialGradient4612"
       gradientUnits="userSpaceOnUse"
       gradientTransform="matrix(1,0,0,0.930233,0,-0.240141)"
       cx="62.225391"
       cy="-3.4420195"
       fx="62.225391"
       fy="-3.4420195"
       r="10.081216" />
    <radialGradient
       inkscape:collect="always"
       xlink:href="#linearGradient8740"
       id="radialGradient2547"
       gradientUnits="userSpaceOnUse"
       gradientTransform="matrix(1,0,0,0.930233,0,-0.240141)"
       cx="62.225391"
       cy="-3.4420195"
       fx="62.225391"
       fy="-3.4420195"
       r="10.081216" />
    <radialGradient
       inkscape:collect="always"
       xlink:href="#linearGradient8740"
       id="radialGradient4610"
       gradientUnits="userSpaceOnUse"
       gradientTransform="matrix(1,0,0,0.930233,0,-0.240141)"
       cx="62.225391"
       cy="-3.4420195"
       fx="62.225391"
       fy="-3.4420195"
       r="10.081216" />
    <radialGradient
       inkscape:collect="always"
       xlink:href="#linearGradient8740"
       id="radialGradient4608"
       gradientUnits="userSpaceOnUse"
       gradientTransform="matrix(1,0,0,0.930233,0,-0.240141)"
       cx="62.225391"
       cy="-3.4420195"
       fx="62.225391"
       fy="-3.4420195"
       r="10.081216" />
    <radialGradient
       inkscape:collect="always"
       xlink:href="#linearGradient8740"
       id="radialGradient2535"
       gradientUnits="userSpaceOnUse"
       gradientTransform="matrix(1,0,0,0.930233,0,0.589884)"
       cx="62.225391"
       cy="-3.4420195"
       fx="62.225391"
       fy="-3.4420195"
       r="10.081216" />
    <radialGradient
       inkscape:collect="always"
       xlink:href="#linearGradient8740"
       id="radialGradient4606"
       gradientUnits="userSpaceOnUse"
       gradientTransform="matrix(1,0,0,0.930233,0,-0.240141)"
       cx="62.225391"
       cy="-3.4420195"
       fx="62.225391"
       fy="-3.4420195"
       r="10.081216" />
    <radialGradient
       inkscape:collect="always"
       xlink:href="#linearGradient8740"
       id="radialGradient2527"
       gradientUnits="userSpaceOnUse"
       gradientTransform="matrix(1,0,0,0.930233,0.311259,0.486131)"
       cx="62.225391"
       cy="-3.4420195"
       fx="62.225391"
       fy="-3.4420195"
       r="10.081216" />
    <radialGradient
       inkscape:collect="always"
       xlink:href="#linearGradient8740"
       id="radialGradient4604"
       gradientUnits="userSpaceOnUse"
       gradientTransform="matrix(1,0,0,0.930233,0,-0.240141)"
       cx="62.225391"
       cy="-3.4420195"
       fx="62.225391"
       fy="-3.4420195"
       r="10.081216" />
    <radialGradient
       inkscape:collect="always"
       xlink:href="#linearGradient8740"
       id="radialGradient2519"
       gradientUnits="userSpaceOnUse"
       gradientTransform="matrix(0.918134,0,0,0.854079,2.429764,1.490099)"
       cx="62.225391"
       cy="-3.4420195"
       fx="62.225391"
       fy="-3.4420195"
       r="10.081216" />
    <radialGradient
       inkscape:collect="always"
       xlink:href="#linearGradient8740"
       id="radialGradient4774"
       gradientUnits="userSpaceOnUse"
       gradientTransform="matrix(1,0,0,0.930233,0,-0.240141)"
       cx="62.225391"
       cy="-3.4420195"
       fx="62.225391"
       fy="-3.4420195"
       r="10.081216" />
    <radialGradient
       inkscape:collect="always"
       xlink:href="#linearGradient8740"
       id="radialGradient4780"
       gradientUnits="userSpaceOnUse"
       gradientTransform="matrix(1,0,0,0.930233,0,-0.240141)"
       cx="62.225391"
       cy="-3.4420195"
       fx="62.225391"
       fy="-3.4420195"
       r="10.081216" />
    <radialGradient
       inkscape:collect="always"
       xlink:href="#linearGradient8740"
       id="radialGradient4790"
       gradientUnits="userSpaceOnUse"
       gradientTransform="matrix(1,0,0,0.930233,0,-0.240141)"
       cx="62.225391"
       cy="-3.4420195"
       fx="62.225391"
       fy="-3.4420195"
       r="10.081216" />
    <radialGradient
       inkscape:collect="always"
       xlink:href="#linearGradient8740"
       id="radialGradient4796"
       gradientUnits="userSpaceOnUse"
       gradientTransform="matrix(1,0,0,0.930233,0,-0.240141)"
       cx="62.225391"
       cy="-3.4420195"
       fx="62.225391"
       fy="-3.4420195"
       r="10.081216" />
    <radialGradient
       inkscape:collect="always"
       xlink:href="#linearGradient8740"
       id="radialGradient4802"
       gradientUnits="userSpaceOnUse"
       gradientTransform="matrix(1,0,0,0.930233,0,-0.240141)"
       cx="62.225391"
       cy="-3.4420195"
       fx="62.225391"
       fy="-3.4420195"
       r="10.081216" />
    <radialGradient
       inkscape:collect="always"
       xlink:href="#linearGradient8740"
       id="radialGradient4804"
       gradientUnits="userSpaceOnUse"
       gradientTransform="matrix(1,0,0,0.930233,0,-0.240141)"
       cx="62.225391"
       cy="-3.4420195"
       fx="62.225391"
       fy="-3.4420195"
       r="10.081216" />
    <radialGradient
       inkscape:collect="always"
       xlink:href="#linearGradient8740"
       id="radialGradient4806"
       gradientUnits="userSpaceOnUse"
       gradientTransform="matrix(1,0,0,0.930233,0,-0.240141)"
       cx="62.225391"
       cy="-3.4420195"
       fx="62.225391"
       fy="-3.4420195"
       r="10.081216" />
    <radialGradient
       inkscape:collect="always"
       xlink:href="#linearGradient8740"
       id="radialGradient4808"
       gradientUnits="userSpaceOnUse"
       gradientTransform="matrix(1,0,0,0.930233,0,-0.240141)"
       cx="62.225391"
       cy="-3.4420195"
       fx="62.225391"
       fy="-3.4420195"
       r="10.081216" />
  </defs>
  <sodipodi:namedview
     id="base"
     pagecolor="#ffffff"
     bordercolor="#000000"
     borderopacity="1"
     inkscape:pageopacity="0.0"
     inkscape:pageshadow="2"
     inkscape:zoom="5.6"
     inkscape:cx="54.551518"
     inkscape:cy="69.117018"
     inkscape:document-units="px"
     inkscape:current-layer="g5365"
     width="128px"
     height="128px"
     showgrid="true"
     inkscape:window-width="1598"
     inkscape:window-height="879"
     inkscape:window-x="0"
     inkscape:window-y="0"
     inkscape:window-maximized="1" />
  <metadata
     id="metadata7">
    <rdf:RDF>
      <cc:Work
         rdf:about="">
        <dc:format>image/svg+xml</dc:format>
        <dc:type
           rdf:resource="http://purl.org/dc/dcmitype/StillImage" />
        <dc:title></dc:title>
      </cc:Work>
    </rdf:RDF>
  </metadata>
  <g
     inkscape:label="Ebene 1"
     inkscape:groupmode="layer"
     id="layer1">
    <path
       id="path10952"
       style="fill:#ffffff;fill-opacity:1;fill-rule:nonzero;stroke:none"
       d="m 35.862069,21.999998 56.275862,0 C 112.00552,21.999998 128,38.902853 128,59.898773 l 0,8.162814 c 0,20.995926 -15.99448,37.898763 -35.862069,37.898763 l -56.275862,0 C 15.994483,105.96035 1.81e-6,89.057513 1.81e-6,68.061587 l 0,-8.162814 c 0,-20.99592 15.99448119,-37.898775 35.86206719,-37.898775 z m -35.86206719,0 73.10344719,0 0,46.019944 -73.10344719,0 0,-46.019944 z M 54.896546,59.980071 128,59.980071 128,106 l -73.103454,0 0,-46.019929 z"
       inkscape:connector-curvature="0" />
    <path
       id="rect10941"
       style="fill:#262729;fill-opacity:1;fill-rule:nonzero;stroke:none"
       d="m 39.397035,29.25 49.20593,0 c 17.371625,0 31.356725,13.985098 31.356725,31.35672 l 0,6.753755 c 0,17.371624 -13.9851,31.356721 -31.356725,31.356721 l -49.20593,0 c -17.371623,0 -31.3567201,-13.985097 -31.3567201,-31.356721 l 0,-6.753755 C 8.0403149,43.235098 22.025412,29.25 39.397035,29.25 z m -31.3567201,0 63.9194681,0 0,38.076019 -63.9194681,0 0,-38.076019 z m 47.9999021,31.423985 63.919473,0 0,38.076015 -63.919473,0 0,-38.076015 z"
       inkscape:connector-curvature="0" />
    <g
       id="g5365"
       transform="matrix(0.48222518,0,0,0.47628457,32.878701,33.720604)">
      <path
         inkscape:connector-curvature="0"
         style="fill:#ffffff;fill-opacity:1;fill-rule:nonzero;stroke:none"
         d="m 123.63788,64.38519 c 0,32.468972 -26.926636,58.79046 -60.1371,58.79046 -33.213551,0 -60.1386595,-26.321789 -60.1386595,-58.79046 0,-32.467488 26.9251085,-58.7863063 60.1386595,-58.7863063 33.210464,0 60.1371,26.3188183 60.1371,58.7863063 l 0,0 z"
         id="path2523" />
      <path
         inkscape:connector-curvature="0"
         id="path6495"
         d="m 117.19454,64.385413 c 0,28.990155 -24.041644,52.491487 -53.693842,52.491487 -29.654956,0 -53.6952314,-23.501603 -53.6952314,-52.491487 0,-28.988827 24.0402754,-52.487771 53.6952314,-52.487771 29.652198,0 53.693842,23.498944 53.693842,52.487771 l 0,0 z"
         style="fill:#2a6d7d;fill-opacity:1;fill-rule:nonzero;stroke:none" />
      <image
         y="18.620197"
         x="62.814484"
         id="image6530"
         href="62169F0E.png"
         height="14.573291"
         width="14.908164"
         style="opacity:0.75;fill:#6c9eab;fill-opacity:1;fill-rule:nonzero;stroke:url(#radialGradient4644);stroke-miterlimit:4" />
      <g
         id="g6532"
         style="fill:#6c9eab;fill-opacity:1;fill-rule:nonzero;stroke:url(#radialGradient4642);stroke-miterlimit:4"
         transform="matrix(2.9816349,0,0,2.9146598,-10.951704,-3.9398262)">
        <path
           inkscape:connector-curvature="0"
           style="fill:#6c9eab;fill-opacity:1;stroke:url(#radialGradient2603)"
           id="path6534"
           d="m 26.0703,9.2363 -0.0732,0.4932 0.5098,0.3291 0.8711,-0.5757 -0.4355,-0.4937 -0.582,0.3296 -0.29,-0.0825" />
      </g>
      <image
         y="22.258438"
         x="48.399471"
         id="image6538"
         href="62169F0F.png"
         height="22.901905"
         width="28.113787"
         style="opacity:0.75;fill:#6c9eab;fill-opacity:1;fill-rule:nonzero;stroke:url(#radialGradient2599);stroke-miterlimit:4" />
      <image
         y="27.36417"
         x="68.777794"
         id="image6546"
         href="62169F10.png"
         height="14.573291"
         width="14.908164"
         style="opacity:0.75;fill:#6c9eab;fill-opacity:1;fill-rule:nonzero;stroke:url(#radialGradient4640);stroke-miterlimit:4" />
      <g
         id="g6548"
         style="fill:#6c9eab;fill-opacity:1;fill-rule:nonzero;stroke:url(#radialGradient4638);stroke-miterlimit:4"
         transform="matrix(2.9816349,0,0,2.9146598,-14.886065,-4.535577)">
        <path
           inkscape:connector-curvature="0"
           style="fill:#6c9eab;fill-opacity:1;stroke:url(#radialGradient2595)"
           id="path6550"
           d="m 28.833,12.7749 -0.291,-0.7412 -0.5098,0.165 0.1465,0.9043 0.6543,-0.3281" />
      </g>
      <image
         y="24.44952"
         x="71.759445"
         id="image6554"
         href="62169F11.png"
         height="20.402607"
         width="14.908164"
         style="opacity:0.75;fill:#6c9eab;fill-opacity:1;fill-rule:nonzero;stroke:url(#radialGradient4636);stroke-miterlimit:4" />
      <g
         id="g6556"
         style="fill:#6c9eab;fill-opacity:1;fill-rule:nonzero;stroke:url(#radialGradient4634);stroke-miterlimit:4"
         transform="matrix(2.9816349,0,0,2.9146598,-13.761944,-4.535577)">
        <path
           inkscape:connector-curvature="0"
           style="fill:#6c9eab;fill-opacity:1;stroke:url(#radialGradient2589)"
           id="path6558"
           d="m 29.123,12.6089 -0.1455,0.9883 0.7998,-0.165 0.5811,-0.5752 -0.5088,-0.4941 C 29.6787,11.9078 29.4824,11.483 29.2685,11.0465 l -0.4355,0 0,0.4932 0.29,0.3291 0,0.7402" />
      </g>
      <image
         y="18.620197"
         x="35.979763"
         id="image6570"
         href="62169F13.png"
         height="14.573291"
         width="14.908164"
         style="opacity:0.75;fill:#6c9eab;fill-opacity:1;fill-rule:nonzero;stroke:url(#radialGradient4632);stroke-miterlimit:4" />
      <g
         id="g6572"
         style="fill:#6c9eab;fill-opacity:1;fill-rule:nonzero;stroke:url(#radialGradient4630);stroke-miterlimit:4"
         transform="matrix(2.9816349,0,0,2.9146598,-10.951704,-3.9398262)">
        <path
           inkscape:connector-curvature="0"
           style="fill:#6c9eab;fill-opacity:1;stroke:url(#radialGradient2581)"
           id="path6574"
           d="m 16.7656,9.5649 0.7266,0.4937 0.582,0 0,-0.5757 -0.7266,-0.3291 -0.582,0.4111" />
      </g>
      <image
         y="12.790881"
         x="27.034893"
         id="image6578"
         href="62169F14.png"
         height="20.402607"
         width="26.834696"
         style="opacity:0.75;fill:#6c9eab;fill-opacity:1;fill-rule:nonzero;stroke:url(#radialGradient4628);stroke-miterlimit:4" />
      <image
         y="22.258438"
         x="41.371017"
         id="image6606"
         href="2D44FCEC.png"
         height="13.741142"
         width="18.742525"
         style="opacity:0.75;fill:#6c9eab;fill-opacity:1;fill-rule:nonzero;stroke:url(#radialGradient2575);stroke-miterlimit:4" />
      <g
         id="g6608"
         style="fill:#6c9eab;fill-opacity:1;fill-rule:nonzero;stroke:url(#radialGradient4626);stroke-miterlimit:4"
         transform="matrix(2.9816349,0,0,2.9146598,-7.2984115,-3.6651421)">
        <path
           inkscape:connector-curvature="0"
           style="fill:#6c9eab;fill-opacity:1;stroke:url(#radialGradient2573)"
           id="path6610"
           d="m 17.4922,7.887132 0.3638,-0.3286 0.7271,-0.1646 c 0.498,-0.2422 0.998,-0.4053 1.5264,-0.5762 l -0.29,-0.4937 -0.9385,0.1348 -0.4434,0.4419 -0.731,0.106 -0.6499,0.3052 -0.3159,0.1528 -0.1929,0.2583 0.9443,0.1641" />
      </g>
      <image
         y="33.193504"
         x="38.961414"
         id="image6614"
         href="2D44FCED.png"
         height="14.573291"
         width="14.908164"
         style="opacity:0.75;fill:#6c9eab;fill-opacity:1;fill-rule:nonzero;stroke:url(#radialGradient4624);stroke-miterlimit:4" />
      <g
         id="g6616"
         style="fill:#6c9eab;fill-opacity:1;fill-rule:nonzero;stroke:url(#radialGradient4622);stroke-miterlimit:4"
         transform="matrix(2.9816349,0,0,2.9146598,-9.8277161,-2.2917096)">
        <path
           inkscape:connector-curvature="0"
           style="fill:#6c9eab;fill-opacity:1;stroke:url(#radialGradient2567)"
           id="path6618"
           d="m 18.7285,14.6665 0.4365,-0.6582 -0.6548,-0.4932 0.2183,1.1514" />
      </g>
      <image
         y="18.620197"
         x="62.814484"
         id="image6632"
         href="2D44FCEF.png"
         height="14.573291"
         width="14.908164"
         style="opacity:0.15750002;fill:#6c9eab;fill-opacity:1;fill-rule:nonzero;stroke:url(#radialGradient4620);stroke-miterlimit:4" />
      <image
         y="22.258438"
         x="48.399471"
         id="image6640"
         href="2D44FCF0.png"
         height="22.901905"
         width="28.113787"
         style="opacity:0.15750002;fill:#6c9eab;fill-opacity:1;fill-rule:nonzero;stroke:url(#radialGradient2559);stroke-miterlimit:4" />
      <image
         y="27.36417"
         x="68.777794"
         id="image6648"
         href="2D44FCF1.png"
         height="14.573291"
         width="14.908164"
         style="opacity:0.15750002;fill:#6c9eab;fill-opacity:1;fill-rule:nonzero;stroke:url(#radialGradient4618);stroke-miterlimit:4" />
      <image
         y="24.44952"
         x="71.759445"
         id="image6656"
         href="2D44FCF2.png"
         height="20.402607"
         width="14.908164"
         style="opacity:0.15750002;fill:#6c9eab;fill-opacity:1;fill-rule:nonzero;stroke:url(#radialGradient4616);stroke-miterlimit:4" />
      <image
         y="18.620197"
         x="35.979763"
         id="image6672"
         href="2D44FCF4.png"
         height="14.573291"
         width="14.908164"
         style="opacity:0.15750002;fill:#6c9eab;fill-opacity:1;fill-rule:nonzero;stroke:url(#radialGradient4614);stroke-miterlimit:4" />
      <image
         y="12.790881"
         x="27.034893"
         id="image6680"
         href="2D44FCF5.png"
         height="20.402607"
         width="26.834696"
         style="opacity:0.15750002;fill:#6c9eab;fill-opacity:1;fill-rule:nonzero;stroke:url(#radialGradient4612);stroke-miterlimit:4" />
      <image
         y="22.258438"
         x="41.371017"
         id="image6708"
         href="2D44FD11.png"
         height="13.741142"
         width="18.742525"
         style="opacity:0.15750002;fill:#6c9eab;fill-opacity:1;fill-rule:nonzero;stroke:url(#radialGradient2547);stroke-miterlimit:4" />
      <image
         y="33.193504"
         x="38.961414"
         id="image6716"
         href="2D44FD12.png"
         height="14.573291"
         width="14.908164"
         style="opacity:0.15750002;fill:#6c9eab;fill-opacity:1;fill-rule:nonzero;stroke:url(#radialGradient4610);stroke-miterlimit:4" />
      <g
         id="g6564"
         style="fill:#6c9eab;fill-opacity:1;fill-rule:nonzero;stroke:none"
         transform="matrix(2.9816349,0,0,2.9146598,-8.7035297,-4.8102646)">
        <path
           inkscape:connector-curvature="0"
           style="fill:#6c9eab;fill-opacity:1;stroke:none"
           id="path6566"
           d="m 17.943241,27.768799 -0.518573,-1.02672 -0.971477,-0.219726 -0.518127,-1.392215 -1.295183,0.146216 -1.100764,-0.805748 -1.166432,1.025918 0,0.161809 C 12.019842,25.55649 11.586095,25.54259 11.271922,25.349417 l -0.259287,-0.732684 0,-0.806638 -0.777056,0.07306 c 0.06487,-0.513404 0.129197,-1.025918 0.194509,-1.539233 l -0.4537956,0 -0.4529044,0.586468 -0.4537955,0.219279 -0.6478592,-0.365495 -0.064866,-0.806639 0.1296431,-0.879702 0.9719225,-0.732684 0.7770571,0 0.129197,-0.440252 0.971477,0.219279 0.712636,0.880593 0.129643,-1.467061 1.230764,-1.025918 0.45335,-1.099872 0.906699,-0.366298 0.518127,-0.732684 1.165541,-0.220973 0.583439,-0.878811 c -0.582993,0 -1.165987,0 -1.74898,0 l 1.10112,-0.513404 0.776612,0 1.101565,-0.367189 0.129643,-0.438559 -0.388929,-0.367188 -0.45335,-0.147018 0.129643,-0.43945 -0.323707,-0.659532 -0.777502,0.292343 0.129643,-0.586022 -0.9067,-0.513405 -0.71219,1.245554 0.06442,0.440252 -0.71219,0.294125 -0.453796,0.952766 -0.194064,-0.879702 -1.230763,-0.513405 -0.194509,-0.659531 1.619336,-0.953657 0.712636,-0.659532 0.06487,-0.8061926 -0.388483,-0.2201702 -0.518127,-0.073509 -0.323707,0.8066378 c 0,0 -0.54165,0.106121 -0.680916,0.140514 -1.778561,1.638938 -5.372215,5.176904 -6.2070989,11.856064 0.033057,0.154859 0.6051795,1.052827 0.6051795,1.052827 l 1.3600498,0.805747 1.3600499,0.367189 0.5834387,0.733486 0.906254,0.659531 0.518127,-0.07306 0.388484,0.174907 0,0.118327 -0.517771,1.392661 -0.388929,0.586468 0.129643,0.294125 -0.323707,1.098091 1.165987,2.126592 1.16554,1.02672 0.518573,0.732684 -0.06522,1.540125 0.38893,0.878811 -0.38893,1.686341 c 0,0 -0.03047,-0.01043 0.01916,0.158334 0.05007,0.168847 2.07527,1.293045 2.204022,1.19735 0.128307,-0.09748 0.237991,-0.182748 0.237991,-0.182748 l -0.129198,-0.365496 0.517771,-0.513404 0.194509,-0.513405 0.84228,-0.294125 0.647413,-1.613188 -0.194063,-0.438559 0.452458,-0.659532 0.971923,-0.220972 0.518572,-1.172936 -0.129643,-1.465279 0.777057,-1.099873 0.129643,-1.099873 c -1.063341,-0.527304 -2.11795,-1.07029 -3.17336,-1.613188" />
      </g>
      <g
         id="g6540"
         style="fill:#6c9eab;fill-opacity:1;fill-rule:nonzero;stroke:url(#radialGradient4608);stroke-miterlimit:4"
         transform="matrix(2.9816349,0,0,2.9146598,-10.10865,-3.7114554)">
        <path
           inkscape:connector-curvature="0"
           style="fill:#6c9eab;fill-opacity:1;stroke:url(#radialGradient2535)"
           id="path6542"
           d="m 26.8701,6.6933256 -1.8906,-0.7407 -2.1797,0.2466 -2.6904,0.7402 -0.5088,0.4941 1.6719,1.1514 0,0.6582 -0.6543,0.6582 0.873,1.7289984 0.5801,-0.3301 0.7285,-1.151399 c 1.123,-0.3471994 2.1299,-0.7406994 3.1973,-1.2343994 l 0.873,-2.2212" />
      </g>
      <g
         id="g6580"
         style="fill:#6c9eab;fill-opacity:1;fill-rule:nonzero;stroke:url(#radialGradient4606);stroke-miterlimit:4"
         transform="matrix(2.9816349,0,0,2.9146598,-8.1414667,-5.6344498)">
        <path
           inkscape:connector-curvature="0"
           style="fill:#6c9eab;fill-opacity:1;stroke:url(#radialGradient2527)"
           id="path6582"
           d="m 15.187259,9.6334723 -0.3638,0.9047987 0.7271,0 0.3638,-0.8227987 c 0.3135,-0.2217 0.6255,-0.4448 0.9448,-0.6582 l 0.7271,0.2471 c 0.4844,0.3291 0.9688,0.6582 1.4536,0.9867997 l 0.7275,-0.6576997 -0.8003,-0.3291 -0.3638,-0.7407 -1.3809,-0.1646 -0.0728,-0.4116 -0.6543,0.165 -0.2904,0.5758 -0.3638,-0.7407 -0.145,0.3291 0.0728,0.8228 -0.5816,0.494" />
      </g>
      <g
         id="g6626"
         style="fill:#6c9eab;fill-opacity:1;fill-rule:nonzero;stroke:url(#radialGradient4604);stroke-miterlimit:4"
         transform="matrix(2.9816349,0,0,2.9146598,-12.637822,-3.9861463)">
        <path
           inkscape:connector-curvature="0"
           style="fill:#6c9eab;fill-opacity:1;stroke:url(#radialGradient2519)"
           id="path6628"
           d="m 42.893123,20.729176 c 0,0.241194 0,0 0,0 l -0.500291,0.566672 c -0.306657,-0.361377 -0.650957,-0.66528 -1.000583,-0.982679 l -0.767468,0.112931 -0.701179,-0.792625 0,0.980934 0.600735,0.454568 0.399848,0.452824 0.534354,-0.604316 c 0.134506,0.251936 0.267177,0.503872 0.400765,0.755808 l 0,0.754982 -0.601653,0.679602 -1.101026,0.755808 -0.83385,0.832105 -0.534354,-0.606152 0.267177,-0.679603 -0.533527,-0.604315 -0.901057,-1.92597 -0.767468,-0.867912 -0.200888,0.225953 0.30124,1.095701 0.566672,0.641959 c 0.323642,0.934293 0.643796,1.82727 1.0688,2.720339 0.659036,0 1.280338,-0.06996 1.934875,-0.15241 l 0,0.529029 -0.800704,1.964072 -0.734324,0.830269 -0.600735,1.285754 c 0,0.70476 0,1.40952 0,2.114188 l 0.200888,0.832105 -0.333558,0.376618 -0.735242,0.45365 -0.767468,0.641959 0.634798,0.717338 -0.867912,0.756727 0.166733,0.489549 -1.301914,1.474064 -0.866994,0 -0.734324,0.45365 -0.468064,0 0,-0.604316 -0.199052,-1.210468 c -0.258271,-0.758562 -0.527192,-1.511708 -0.800705,-2.264853 0,-0.55593 0.03314,-1.106443 0.06638,-1.662282 l 0.334477,-0.754981 -0.468065,-0.907392 0.03406,-1.246275 -0.634798,-0.717338 0.317399,-1.038318 -0.516451,-0.585953 -0.901974,0 -0.300322,-0.339801 -0.901057,0.567131 -0.366702,-0.416466 -0.834768,0.717706 C 27.577179,26.356327 27.009588,25.714368 26.44209,25.072409 l -0.667116,-1.586995 0.600735,-0.905555 -0.333558,-0.377445 0.733405,-1.738579 c 0.602571,-0.749564 1.231952,-1.468647 1.868586,-2.190392 l 1.135089,-0.302158 1.267852,-0.150666 0.867912,0.226871 1.234615,1.245357 0.434001,-0.490467 0.599817,-0.07529 1.135089,0.377445 0.867913,0 0.600735,-0.529029 0.267177,-0.377445 -0.601654,-0.377445 -1.0015,-0.07529 c -0.277919,-0.385524 -0.53619,-0.790789 -0.866168,-1.133344 l -0.334476,0.150665 -0.133589,0.982679 -0.600735,-0.679603 -0.13267,-0.756726 -0.667116,-0.527192 -0.268095,0 0.667942,0.754981 -0.267177,0.679603 -0.533527,0.150666 0.333558,-0.679603 -0.601654,-0.30124 -0.532609,-0.604315 -1.002419,0.225952 -0.13267,0.30124 -0.600735,0.378363 -0.333558,0.831187 -0.83385,0.415088 -0.36762,-0.415088 -0.399848,0 0,-1.360124 0.867912,-0.45365 0.667116,0 -0.134506,-0.52811 -0.53261,-0.529029 0.900231,-0.189228 0.500291,-0.565754 0.399847,-0.680521 0.735242,0 -0.200888,-0.52811 0.468065,-0.302158 0,0.604315 1.000582,0.225953 1.000583,-0.830268 0.06721,-0.378363 0.866994,-0.603857 c -0.313818,0.03902 -0.627636,0.06767 -0.934293,0.151125 l 0,-0.680429 0.333558,-0.755441 -0.333558,0 -0.733038,0.679603 -0.200888,0.377904 0.200888,0.529488 -0.334476,0.905555 -0.533528,-0.302158 -0.466229,-0.52811 -0.735241,0.52811 -0.267177,-1.208172 1.267851,-0.830728 0,-0.4536504 0.801531,-0.5285696 1.267851,-0.302617 0.867912,0.302617 1.601318,0.3021579 -0.399848,0.4528241 -0.867912,0 0.867912,0.906474 0.667117,-0.754982 0.202632,-0.3321814 c 0,0 2.558931,2.2934994 4.021335,4.8023004 1.462404,2.509628 2.149168,5.46758 2.149168,6.068315 z" />
      </g>
      <image
         y="19.027706"
         x="62.225971"
         id="image4730"
         href="62169F0E.png"
         height="14.573291"
         width="14.908164"
         style="opacity:0.75;fill:#6c9eab;fill-opacity:1;fill-rule:nonzero;stroke:url(#radialGradient4774);stroke-miterlimit:4" />
      <image
         y="22.58769"
         x="47.923954"
         id="image4736"
         href="62169F0F.png"
         height="22.901905"
         width="28.113787"
         style="opacity:0.75;fill:#6c9eab;fill-opacity:1;fill-rule:nonzero;stroke:url(#radialGradient4780);stroke-miterlimit:4" />
      <image
         y="19.027706"
         x="35.391232"
         id="image4746"
         href="62169F13.png"
         height="14.573291"
         width="14.908164"
         style="opacity:0.75;fill:#6c9eab;fill-opacity:1;fill-rule:nonzero;stroke:url(#radialGradient4790);stroke-miterlimit:4" />
      <image
         y="22.58769"
         x="40.895496"
         id="image4752"
         href="2D44FCEC.png"
         height="13.741142"
         width="18.742525"
         style="opacity:0.75;fill:#6c9eab;fill-opacity:1;fill-rule:nonzero;stroke:url(#radialGradient4796);stroke-miterlimit:4" />
      <image
         y="19.027706"
         x="62.225971"
         id="image4758"
         href="2D44FCEF.png"
         height="14.573291"
         width="14.908164"
         style="opacity:0.15750002;fill:#6c9eab;fill-opacity:1;fill-rule:nonzero;stroke:url(#radialGradient4802);stroke-miterlimit:4" />
      <image
         y="22.58769"
         x="47.923954"
         id="image4760"
         href="2D44FCF0.png"
         height="22.901905"
         width="28.113787"
         style="opacity:0.15750002;fill:#6c9eab;fill-opacity:1;fill-rule:nonzero;stroke:url(#radialGradient4804);stroke-miterlimit:4" />
      <image
         y="19.027706"
         x="35.391232"
         id="image4762"
         href="2D44FCF4.png"
         height="14.573291"
         width="14.908164"
         style="opacity:0.15750002;fill:#6c9eab;fill-opacity:1;fill-rule:nonzero;stroke:url(#radialGradient4806);stroke-miterlimit:4" />
      <image
         y="22.58769"
         x="40.895496"
         id="image4764"
         href="2D44FD11.png"
         height="13.741142"
         width="18.742525"
         style="opacity:0.15750002;fill:#6c9eab;fill-opacity:1;fill-rule:nonzero;stroke:url(#radialGradient4808);stroke-miterlimit:4" />
      <path
         sodipodi:nodetypes="cccccccc"
         id="path4183"
         d="M 101.49926,55.562334 64.316601,98.687202 26.500738,55.562334 l 18.120876,0 0,-45.827964 38.464287,0 0,45.827964 18.413359,0 z"
         style="color:#303030;fill:#ffffff;fill-opacity:1;fill-rule:nonzero;stroke:none;stroke-width:2.29433894;marker:none;visibility:visible;display:inline;overflow:visible"
         inkscape:connector-curvature="0" />
    </g>
  </g>
</svg>
