<?xml version="1.0" encoding="UTF-8" standalone="no"?>
<!-- Created with Inkscape (http://www.inkscape.org/) -->

<svg
   xmlns:dc="http://purl.org/dc/elements/1.1/"
   xmlns:cc="http://creativecommons.org/ns#"
   xmlns:rdf="http://www.w3.org/1999/02/22-rdf-syntax-ns#"
   xmlns:svg="http://www.w3.org/2000/svg"
   xmlns="http://www.w3.org/2000/svg"
   xmlns:sodipodi="http://sodipodi.sourceforge.net/DTD/sodipodi-0.dtd"
   xmlns:inkscape="http://www.inkscape.org/namespaces/inkscape"
   width="128"
   height="128"
   id="svg2"
   sodipodi:version="0.32"
   inkscape:version="0.48.3.1 r9886"
   version="1.0"
   sodipodi:docname="folder.svg"
   inkscape:output_extension="org.inkscape.output.svg.inkscape">
  <defs
     id="defs4" />
  <sodipodi:namedview
     id="base"
     pagecolor="#ffffff"
     bordercolor="#000000"
     borderopacity="1"
     inkscape:pageopacity="0.0"
     inkscape:pageshadow="2"
     inkscape:zoom="5.6"
     inkscape:cx="84.819375"
     inkscape:cy="61.974161"
     inkscape:document-units="px"
     inkscape:current-layer="layer1"
     width="128px"
     height="128px"
     showgrid="true"
     inkscape:window-width="1598"
     inkscape:window-height="879"
     inkscape:window-x="0"
     inkscape:window-y="0"
     inkscape:window-maximized="1" />
  <metadata
     id="metadata7">
    <rdf:RDF>
      <cc:Work
         rdf:about="">
        <dc:format>image/svg+xml</dc:format>
        <dc:type
           rdf:resource="http://purl.org/dc/dcmitype/StillImage" />
        <dc:title></dc:title>
      </cc:Work>
    </rdf:RDF>
  </metadata>
  <g
     inkscape:label="Ebene 1"
     inkscape:groupmode="layer"
     id="layer1">
    <path
       id="path10952"
       style="fill:#ffffff;fill-opacity:1;fill-rule:nonzero;stroke:none"
       d="m 35.862069,21.999998 56.275862,0 C 112.00552,21.999998 128,38.902853 128,59.898773 l 0,8.162814 c 0,20.995926 -15.99448,37.898763 -35.862069,37.898763 l -56.275862,0 C 15.994483,105.96035 1.81e-6,89.057513 1.81e-6,68.061587 l 0,-8.162814 c 0,-20.99592 15.99448119,-37.898775 35.86206719,-37.898775 z m -35.86206719,0 73.10344719,0 0,46.019944 -73.10344719,0 0,-46.019944 z M 54.896546,59.980071 128,59.980071 128,106 l -73.103454,0 0,-46.019929 z"
       inkscape:connector-curvature="0" />
    <path
       id="rect10941"
       style="fill:#262729;fill-opacity:1;fill-rule:nonzero;stroke:none"
       d="m 39.397035,29.25 49.20593,0 c 17.371625,0 31.356725,13.985098 31.356725,31.35672 l 0,6.753755 c 0,17.371624 -13.9851,31.356721 -31.356725,31.356721 l -49.20593,0 c -17.371623,0 -31.3567201,-13.985097 -31.3567201,-31.356721 l 0,-6.753755 C 8.0403149,43.235098 22.025412,29.25 39.397035,29.25 z m -31.3567201,0 63.9194681,0 0,38.076019 -63.9194681,0 0,-38.076019 z m 47.9999021,31.423985 63.919473,0 0,38.076015 -63.919473,0 0,-38.076015 z"
       inkscape:connector-curvature="0" />
    <g
       transform="matrix(0.47149914,0,0,0.47149914,32.860866,33.911422)"
       id="g3050">
      <path
         inkscape:connector-curvature="0"
         id="path3544"
         d="m 5.1532588,37.022321 0,-32.5927529 19.7438792,0.5101661 C 42.784802,5.401945 45.283589,5.780351 51.475742,8.9646994 60.038613,13.368196 66.605406,21.82308 68.569036,30.972647 c 0.829706,3.866098 1.508566,14.142229 1.508566,22.835841 l 0,15.806583 -32.462171,0 -32.4621722,0 0,-32.59275 z"
         style="fill:#ffffff;fill-opacity:1" />
      <path
         inkscape:connector-curvature="0"
         sodipodi:nodetypes="cscccccccc"
         id="path3546"
         d="M 26.923256,121.34008 C 17.419799,118.05775 8.947921,109.47539 6.376023,100.52483 5.6276934,97.920559 5.0119492,87.817474 5.0077164,78.073541 l 0.1373729,-17.716243 32.3549107,0 32.5,0 0,31.421259 0,31.421283 -19.015957,-0.0587 C 39.01125,123.10419 30.09957,122.4371 26.923256,121.34008 z"
         style="fill:#ffffff;fill-opacity:1" />
      <path
         transform="matrix(1.4775068,0,0,1.4775068,-69.483249,-74.84694)"
         d="m 133.03572,112.10714 c 0,11.9333 -9.67385,21.60714 -21.60715,21.60714 -11.933292,0 -21.60714,-9.67384 -21.60714,-21.60714 0,-11.9333 9.673848,-21.607144 21.60714,-21.607144 11.9333,0 21.60715,9.673844 21.60715,21.607144 z"
         sodipodi:ry="21.607143"
         sodipodi:rx="21.607143"
         sodipodi:cy="112.10714"
         sodipodi:cx="111.42857"
         id="path3548"
         style="fill:#ffffff;fill-opacity:1;fill-rule:nonzero;stroke:none"
         sodipodi:type="arc" />
      <path
         inkscape:connector-curvature="0"
         id="path3231"
         d="M 29.504961,114.61911 C 22.067555,112.05545 15.437462,105.35217 13.424695,98.361319 12.839052,96.327255 12.357171,88.436218 12.353859,80.825697 l -0.006,-13.837311 25.434502,0 25.434502,0 0,24.541645 0,24.541649 -14.881889,-0.0458 c -9.369909,-0.0289 -16.34419,-0.54989 -18.829974,-1.40673 z"
         style="fill:#262729;fill-opacity:1" />
      <path
         inkscape:connector-curvature="0"
         id="path3223"
         d="m 12.34782,36.41175 0,-24.483428 15.469567,0.383233 c 14.015201,0.347209 15.97303,0.631465 20.824656,3.023523 6.709113,3.307873 11.854274,9.659118 13.392802,16.532203 0.650084,2.904183 1.181979,10.623536 1.181979,17.15411 l 0,11.873785 -25.434502,0 -25.434502,0 0,-24.483426 z"
         style="fill:#e04613;fill-opacity:1" />
      <path
         transform="matrix(1.1818182,0,0,1.1818182,-36.53509,-41.698137)"
         d="m 133.03572,112.10714 c 0,11.9333 -9.67385,21.60714 -21.60715,21.60714 -11.933292,0 -21.60714,-9.67384 -21.60714,-21.60714 0,-11.9333 9.673848,-21.607144 21.60714,-21.607144 11.9333,0 21.60715,9.673844 21.60715,21.607144 z"
         sodipodi:ry="21.607143"
         sodipodi:rx="21.607143"
         sodipodi:cy="112.10714"
         sodipodi:cx="111.42857"
         id="path4215"
         style="fill:#e04613;fill-opacity:1;fill-rule:nonzero;stroke:none"
         sodipodi:type="arc" />
      <path
         inkscape:connector-curvature="0"
         id="path3227"
         d="m 102.3574,103.7274 c 9.78619,-5.060626 9.78619,-20.80993 0,-25.870563 -9.980085,-5.160909 -21.747991,1.838417 -21.747991,12.935284 0,11.096869 11.767906,18.096189 21.747991,12.935279 z"
         style="fill:#262729;fill-opacity:1" />
    </g>
  </g>
</svg>
