<?xml version="1.0" encoding="UTF-8" standalone="no"?>
<!-- Created with Inkscape (http://www.inkscape.org/) -->

<svg
   xmlns:dc="http://purl.org/dc/elements/1.1/"
   xmlns:cc="http://creativecommons.org/ns#"
   xmlns:rdf="http://www.w3.org/1999/02/22-rdf-syntax-ns#"
   xmlns:svg="http://www.w3.org/2000/svg"
   xmlns="http://www.w3.org/2000/svg"
   xmlns:sodipodi="http://sodipodi.sourceforge.net/DTD/sodipodi-0.dtd"
   xmlns:inkscape="http://www.inkscape.org/namespaces/inkscape"
   width="128"
   height="128"
   id="svg2"
   sodipodi:version="0.32"
   inkscape:version="0.48.3.1 r9886"
   version="1.0"
   sodipodi:docname="folder.svg"
   inkscape:output_extension="org.inkscape.output.svg.inkscape">
  <defs
     id="defs4" />
  <sodipodi:namedview
     id="base"
     pagecolor="#ffffff"
     bordercolor="#000000"
     borderopacity="1"
     inkscape:pageopacity="0.0"
     inkscape:pageshadow="2"
     inkscape:zoom="5.6"
     inkscape:cx="38.837232"
     inkscape:cy="61.974161"
     inkscape:document-units="px"
     inkscape:current-layer="layer1"
     width="128px"
     height="128px"
     showgrid="true"
     inkscape:window-width="1598"
     inkscape:window-height="879"
     inkscape:window-x="0"
     inkscape:window-y="0"
     inkscape:window-maximized="1" />
  <metadata
     id="metadata7">
    <rdf:RDF>
      <cc:Work
         rdf:about="">
        <dc:format>image/svg+xml</dc:format>
        <dc:type
           rdf:resource="http://purl.org/dc/dcmitype/StillImage" />
        <dc:title></dc:title>
      </cc:Work>
    </rdf:RDF>
  </metadata>
  <g
     inkscape:label="Ebene 1"
     inkscape:groupmode="layer"
     id="layer1">
    <path
       id="path10952"
       style="fill:#ffffff;fill-opacity:1;fill-rule:nonzero;stroke:none"
       d="m 35.862069,21.999998 56.275862,0 C 112.00552,21.999998 128,38.902853 128,59.898773 l 0,8.162814 c 0,20.995926 -15.99448,37.898763 -35.862069,37.898763 l -56.275862,0 C 15.994483,105.96035 1.81e-6,89.057513 1.81e-6,68.061587 l 0,-8.162814 c 0,-20.99592 15.99448119,-37.898775 35.86206719,-37.898775 z m -35.86206719,0 73.10344719,0 0,46.019944 -73.10344719,0 0,-46.019944 z M 54.896546,59.980071 128,59.980071 128,106 l -73.103454,0 0,-46.019929 z"
       inkscape:connector-curvature="0" />
    <path
       id="rect10941"
       style="fill:#262729;fill-opacity:1;fill-rule:nonzero;stroke:none"
       d="m 39.397035,29.25 49.20593,0 c 17.371625,0 31.356725,13.985098 31.356725,31.35672 l 0,6.753755 c 0,17.371624 -13.9851,31.356721 -31.356725,31.356721 l -49.20593,0 c -17.371623,0 -31.3567201,-13.985097 -31.3567201,-31.356721 l 0,-6.753755 C 8.0403149,43.235098 22.025412,29.25 39.397035,29.25 z m -31.3567201,0 63.9194681,0 0,38.076019 -63.9194681,0 0,-38.076019 z m 47.9999021,31.423985 63.919473,0 0,38.076015 -63.919473,0 0,-38.076015 z"
       inkscape:connector-curvature="0" />
    <path
       sodipodi:type="arc"
       style="fill:#ffffff;fill-opacity:1;fill-rule:nonzero;stroke:none"
       id="path10360"
       sodipodi:cx="103.92857"
       sodipodi:cy="100.85714"
       sodipodi:rx="43.57143"
       sodipodi:ry="43.57143"
       d="m 147.5,100.85714 a 43.57143,43.57143 0 1 1 -87.142857,0 43.57143,43.57143 0 1 1 87.142857,0 z"
       transform="matrix(0.66557375,0,0,0.66557375,-5.1721305,-3.1278646)" />
    <g
       id="g10338"
       transform="matrix(0.42674209,0,0,0.42674209,36.688511,36.68851)">
      <path
         inkscape:connector-curvature="0"
         id="path4973"
         d="M 102.125,106.71875 21.28125,25.875 C 12.229205,36.012446 6.6875001,49.350234 6.6875,64 c 0,31.64404 25.668461,57.3125 57.3125,57.3125 14.649766,0 27.987554,-5.5417 38.125,-14.59375 z"
         style="fill:#262729;fill-opacity:1;fill-rule:nonzero;stroke:none" />
      <path
         inkscape:connector-curvature="0"
         id="path4999"
         d="M 118.25,45.625 C 112.53895,28.781048 99.218952,15.461046 82.375,9.75 l 35.875,35.875 z"
         style="fill:#6c9eab;fill-opacity:1;fill-rule:nonzero;stroke:none" />
      <path
         inkscape:connector-curvature="0"
         id="path4997"
         d="M 70.5,7.0625 C 68.360289,6.8200349 66.204363,6.6875 64,6.6875 c -0.53373,0 -1.033482,0.1082289 -1.5625,0.125 l 58.75,58.75 c 0.0163,-0.529003 0.125,-1.028945 0.125,-1.5625 0,-2.204363 -0.13253,-4.360289 -0.375,-6.5 L 70.5,7.0625 z"
         style="fill:#6e6e6e;fill-opacity:1;fill-rule:nonzero;stroke:none" />
      <path
         inkscape:connector-curvature="0"
         id="path4992"
         d="M 54.15625,7.75 C 52.013302,8.1609698 49.871712,8.5882082 47.8125,9.21875 l 71,70.96875 c 0.62684,-2.048438 1.06447,-4.179362 1.46875,-6.3125 L 54.15625,7.75 z"
         style="fill:#6c9eab;fill-opacity:1;fill-rule:nonzero;stroke:none" />
      <path
         inkscape:connector-curvature="0"
         id="path4987"
         d="m 41.125,11.6875 c -1.785845,0.798841 -3.559604,1.630982 -5.25,2.59375 L 113.71875,92.125 c 0.96277,-1.690396 1.79491,-3.464155 2.59375,-5.25 L 41.125,11.6875 z"
         style="fill:#6e6e6e;fill-opacity:1;fill-rule:nonzero;stroke:none" />
      <path
         inkscape:connector-curvature="0"
         id="path4982"
         d="m 30.34375,17.9375 c -1.500695,1.101103 -3.082857,2.106242 -4.46875,3.34375 l 80.84375,80.84375 c 1.23751,-1.38589 2.24265,-2.968055 3.34375,-4.46875 L 30.34375,17.9375 z"
         style="fill:#6c9eab;fill-opacity:1;fill-rule:nonzero;stroke:none" />
    </g>
  </g>
</svg>
