<?xml version="1.0" encoding="UTF-8" standalone="no"?>
<!-- Created with Inkscape (http://www.inkscape.org/) -->

<svg
   xmlns:dc="http://purl.org/dc/elements/1.1/"
   xmlns:cc="http://creativecommons.org/ns#"
   xmlns:rdf="http://www.w3.org/1999/02/22-rdf-syntax-ns#"
   xmlns:svg="http://www.w3.org/2000/svg"
   xmlns="http://www.w3.org/2000/svg"
   xmlns:sodipodi="http://sodipodi.sourceforge.net/DTD/sodipodi-0.dtd"
   xmlns:inkscape="http://www.inkscape.org/namespaces/inkscape"
   width="128"
   height="128"
   id="svg2"
   sodipodi:version="0.32"
   inkscape:version="0.48.3.1 r9886"
   version="1.0"
   sodipodi:docname="folder-photo.svg"
   inkscape:output_extension="org.inkscape.output.svg.inkscape">
  <defs
     id="defs4" />
  <sodipodi:namedview
     id="base"
     pagecolor="#ffffff"
     bordercolor="#000000"
     borderopacity="1"
     inkscape:pageopacity="0.0"
     inkscape:pageshadow="2"
     inkscape:zoom="5.6"
     inkscape:cx="74.551518"
     inkscape:cy="61.974161"
     inkscape:document-units="px"
     inkscape:current-layer="layer1"
     width="128px"
     height="128px"
     showgrid="true"
     inkscape:window-width="1598"
     inkscape:window-height="879"
     inkscape:window-x="0"
     inkscape:window-y="0"
     inkscape:window-maximized="1" />
  <metadata
     id="metadata7">
    <rdf:RDF>
      <cc:Work
         rdf:about="">
        <dc:format>image/svg+xml</dc:format>
        <dc:type
           rdf:resource="http://purl.org/dc/dcmitype/StillImage" />
        <dc:title />
      </cc:Work>
    </rdf:RDF>
  </metadata>
  <g
     inkscape:label="Ebene 1"
     inkscape:groupmode="layer"
     id="layer1">
    <path
       id="path10952"
       style="fill:#ffffff;fill-opacity:1;fill-rule:nonzero;stroke:none"
       d="m 35.862069,21.999998 56.275862,0 C 112.00552,21.999998 128,38.902853 128,59.898773 l 0,8.162814 c 0,20.995926 -15.99448,37.898763 -35.862069,37.898763 l -56.275862,0 C 15.994483,105.96035 1.81e-6,89.057513 1.81e-6,68.061587 l 0,-8.162814 c 0,-20.99592 15.99448119,-37.898775 35.86206719,-37.898775 z m -35.86206719,0 73.10344719,0 0,46.019944 -73.10344719,0 0,-46.019944 z M 54.896546,59.980071 128,59.980071 128,106 l -73.103454,0 0,-46.019929 z"
       inkscape:connector-curvature="0" />
    <path
       id="rect10941"
       style="fill:#262729;fill-opacity:1;fill-rule:nonzero;stroke:none"
       d="m 39.397035,29.25 49.20593,0 c 17.371625,0 31.356725,13.985098 31.356725,31.35672 l 0,6.753755 c 0,17.371624 -13.9851,31.356721 -31.356725,31.356721 l -49.20593,0 c -17.371623,0 -31.3567201,-13.985097 -31.3567201,-31.356721 l 0,-6.753755 C 8.0403149,43.235098 22.025412,29.25 39.397035,29.25 z m -31.3567201,0 63.9194681,0 0,38.076019 -63.9194681,0 0,-38.076019 z m 47.9999021,31.423985 63.919473,0 0,38.076015 -63.919473,0 0,-38.076015 z"
       inkscape:connector-curvature="0" />
    <g
       id="g3969"
       transform="matrix(1.7499325,0,0,1.7499325,36.001081,36.001079)">
      <path
         sodipodi:type="arc"
         style="fill:#e04613;fill-opacity:1;stroke:none;opacity:1"
         id="path3013"
         sodipodi:cx="63.57143"
         sodipodi:cy="63.892857"
         sodipodi:rx="11.964286"
         sodipodi:ry="11.964286"
         d="m 75.535716,63.892857 a 11.964286,11.964286 0 1 1 -23.928572,0 11.964286,11.964286 0 1 1 23.928572,0 z"
         transform="matrix(0.57145061,0,0,0.57145061,-20.327933,-20.511612)" />
      <path
         inkscape:transform-center-y="-0.25402644"
         inkscape:transform-center-x="-8.9319675"
         inkscape:connector-curvature="0"
         id="path3874-3"
         d="m 19.345754,1.057278 c 2.464644,2.7164606 3.973084,6.3229806 3.973083,10.280592 0,4.003453 -1.547019,7.64326 -4.062702,10.37025 1.519468,-0.327035 3.032615,-0.884191 4.451048,-1.70347 3.417195,-1.973755 5.777911,-5.064537 6.900617,-8.547237 C 28.993995,6.2720818 24.695788,2.2543649 19.345754,1.057278 z m 10.903573,20.501415 c -0.123072,0.315487 -0.274332,0.619229 -0.418219,0.926449 0.143327,-0.305019 0.294838,-0.610825 0.418219,-0.926449 z m -5.466723,6.963308 c -0.330288,0.2315 -0.6624,0.449321 -1.015676,0.657479 0.349397,-0.206674 0.684857,-0.424506 1.015676,-0.657479 z m -1.194911,0.747136 c -0.438486,0.250761 -0.892859,0.484392 -1.344277,0.687365 0.459287,-0.206294 0.910372,-0.438395 1.344277,-0.687365 z m -1.344277,0.687365 c -0.401877,0.180698 -0.814961,0.334729 -1.224785,0.478167 0.415877,-0.145015 0.826141,-0.299112 1.224785,-0.478167 z"
         style="fill:#333333;fill-opacity:1;stroke:#ffffff;stroke-width:1.42862653;stroke-linejoin:bevel;stroke-miterlimit:4;stroke-opacity:1;stroke-dasharray:none" />
      <path
         inkscape:transform-center-y="-6.215586"
         inkscape:transform-center-x="-2.01498"
         inkscape:connector-curvature="0"
         id="path3874-3-7"
         d="M 4.7375737,5.629905 C 8.3214249,4.8527871 12.197662,5.3491479 15.623604,7.3279546 c 3.465626,2.0017266 5.842947,5.1619544 6.945749,8.7050154 0.476632,-1.479972 0.750901,-3.069527 0.7509,-4.708086 C 23.320254,7.377377 21.825045,3.7866809 19.371569,1.0726264 14.075937,-0.12185032 8.4488602,1.5932221 4.7375737,5.629905 z M 27.936596,6.4338451 c 0.211569,0.2643722 0.398876,0.5472943 0.59288,0.8255661 -0.192378,-0.2766866 -0.381347,-0.5608574 -0.59288,-0.8255661 z m 3.29449,8.2179799 c 0.03525,0.401907 0.05776,0.798557 0.0613,1.208712 -0.0042,-0.406052 -0.02506,-0.805608 -0.0613,-1.208712 z m 0.04931,1.408829 c -0.0022,0.505282 -0.02711,1.01576 -0.07711,1.508352 0.05106,-0.501069 0.07568,-1.007937 0.07711,-1.508352 z m -0.07711,1.508352 c -0.04451,0.438532 -0.11772,0.87344 -0.198463,1.300228 0.0824,-0.43282 0.154143,-0.86532 0.198463,-1.300228 z"
         style="fill:#333333;fill-opacity:1;stroke:#ffffff;stroke-width:1.42862653;stroke-linejoin:bevel;stroke-miterlimit:4;stroke-opacity:1;stroke-dasharray:none" />
      <path
         inkscape:transform-center-y="5.3265514"
         inkscape:transform-center-x="-2.6571097"
         inkscape:connector-curvature="0"
         id="path3874-3-2"
         d="m 30.60818,11.427373 c -1.119206,3.493578 -3.487004,6.603738 -6.912947,8.582544 -3.465626,2.001726 -7.389966,2.481304 -11.008451,1.665232 1.042835,1.152937 2.281715,2.185338 3.700148,3.004616 3.417194,1.973755 7.273119,2.473666 10.849303,1.705022 3.681825,-3.990855 5.010696,-9.723644 3.371947,-14.957414 z M 18.31273,31.124847 c -0.33464,0.05111 -0.673207,0.07194 -1.011097,0.100883 0.335704,-0.02832 0.676184,-0.04997 1.011097,-0.100883 z M 9.5515178,29.870177 C 9.1859738,29.69977 8.8313589,29.520939 8.4745267,29.318945 c 0.3536082,0.199378 0.7099069,0.3811 1.0769911,0.551232 z M 8.3072965,29.208484 c -0.4363163,-0.25452 -0.8657477,-0.531369 -1.2671619,-0.820988 0.4082235,0.294775 0.8346866,0.569542 1.2671619,0.820988 z M 7.0401346,28.387496 C 6.6827739,28.129662 6.3428936,27.848785 6.0138125,27.565435 6.3472852,27.85324 6.685813,28.131643 7.0401346,28.387496 z"
         style="fill:#333333;fill-opacity:1;stroke:#ffffff;stroke-width:1.42862653;stroke-linejoin:bevel;stroke-miterlimit:4;stroke-opacity:1;stroke-dasharray:none" />
      <path
         inkscape:transform-center-y="6.215586"
         inkscape:transform-center-x="2.0149879"
         inkscape:connector-curvature="0"
         id="path3874-3-72"
         d="m 27.262426,26.370095 c -3.58385,0.777118 -7.460088,0.280757 -10.88603,-1.69805 -3.465625,-2.001727 -5.842947,-5.161954 -6.9457498,-8.705015 -0.4766323,1.479972 -0.7508994,3.069528 -0.7508992,4.708087 -2e-7,3.947505 1.495207,7.538202 3.948685,10.252257 5.295632,1.194476 10.922708,-0.520596 14.633994,-4.557279 z M 4.0634035,25.566155 c -0.211568,-0.264372 -0.3988751,-0.547294 -0.5928792,-0.825566 0.192378,0.276686 0.3813464,0.560857 0.5928792,0.825566 z M 0.76891368,17.348176 c -0.0352559,-0.401908 -0.0577589,-0.798558 -0.0613157,-1.208713 0.004211,0.406052 0.0250501,0.805609 0.0613157,1.208713 z m -0.049309,-1.40883 c 0.002169,-0.505281 0.0271096,-1.01576 0.0771141,-1.508352 -0.0510634,0.501069 -0.0756853,1.007936 -0.0771141,1.508352 z m 0.0771141,-1.508352 c 0.0445159,-0.438532 0.11771961,-0.87344 0.19846276,-1.300228 -0.0824045,0.43282 -0.15414148,0.86532 -0.19846276,1.300228 z"
         style="fill:#333333;fill-opacity:1;stroke:#ffffff;stroke-width:1.42862653;stroke-linejoin:bevel;stroke-miterlimit:4;stroke-opacity:1;stroke-dasharray:none" />
      <path
         inkscape:transform-center-y="0.25402631"
         inkscape:transform-center-x="8.9319678"
         inkscape:connector-curvature="0"
         id="path3874-3-4"
         d="M 12.654246,30.942722 C 10.189601,28.226262 8.6811621,24.619741 8.6811631,20.66213 c 0,-4.003453 1.5470189,-7.64326 4.0627019,-10.37025 -1.519468,0.327035 -3.032616,0.884191 -4.4510485,1.70347 -3.4171953,1.973754 -5.7779104,5.064537 -6.9006174,8.547237 1.6138063,5.185332 5.9120122,9.203048 11.2620469,10.400135 z M 1.7506728,10.441307 C 1.8737449,10.125821 2.0250056,9.822078 2.1688921,9.5148585 2.0255646,9.8198766 1.8740537,10.125683 1.7506728,10.441307 z M 7.2173957,3.477999 C 7.5476837,3.2464991 7.8797958,3.0286777 8.2330711,2.8205191 7.883674,3.0271935 7.5482143,3.2450263 7.2173957,3.477999 z M 8.4123078,2.7308628 C 8.8507928,2.4801014 9.3051653,2.24647 9.7565839,2.0434976 9.297297,2.2497914 8.846212,2.4818927 8.4123078,2.7308628 z M 9.7565839,2.0434976 C 10.158461,1.8628002 10.571545,1.7087691 10.981369,1.5653305 10.565492,1.7103462 10.155227,1.8644432 9.7565839,2.0434976 z"
         style="fill:#333333;fill-opacity:1;stroke:#ffffff;stroke-width:1.42862653;stroke-linejoin:bevel;stroke-miterlimit:4;stroke-opacity:1;stroke-dasharray:none" />
      <path
         inkscape:transform-center-y="-5.3265515"
         inkscape:transform-center-x="2.6571092"
         inkscape:connector-curvature="0"
         id="path3874-3-1"
         d="M 1.3918197,20.572627 C 2.5110261,17.079049 4.8788235,13.968889 8.3047669,11.990083 11.770393,9.9883574 15.694733,9.5087793 19.313219,10.324851 18.270383,9.1719142 17.031504,8.1395131 15.61307,7.3202343 12.195876,5.3464807 8.3399521,4.8465679 4.7637672,5.615214 1.0819418,9.6060679 -0.24692833,15.338857 1.3918197,20.572627 z M 13.68727,0.87515251 c 0.334639,-0.0511148 0.673207,-0.071935 1.011098,-0.10088262 -0.335706,0.0283314 -0.676185,0.0499665 -1.011098,0.10088262 z m 8.761212,1.25467009 c 0.365543,0.170409 0.720159,0.3492374 1.076992,0.551233 C 23.171865,2.481678 22.815567,2.2999549 22.448482,2.1298226 z m 1.244221,0.6616943 C 24.129019,3.0460358 24.55845,3.3228848 24.959865,3.6125042 24.551641,3.3177286 24.125178,3.0429627 23.692703,2.7915169 z m 1.267162,0.8209873 c 0.357361,0.2578338 0.697241,0.538711 1.026323,0.8220599 C 25.652714,4.1467594 25.314187,3.8683578 24.959865,3.6125042 z"
         style="fill:#333333;fill-opacity:1;stroke:#ffffff;stroke-width:1.42862653;stroke-linejoin:bevel;stroke-miterlimit:4;stroke-opacity:1;stroke-dasharray:none" />
    </g>
    <g
       id="Layer_1"
       transform="matrix(1.75,0,0,1.75,31.607143,40.214286)" />
    <path
       sodipodi:type="arc"
       style="fill:none;stroke:#ffffff;stroke-width:2.48930454999999995;stroke-linecap:butt;stroke-linejoin:bevel;stroke-miterlimit:4;stroke-opacity:1;stroke-dasharray:none;stroke-dashoffset:0"
       id="path4000"
       sodipodi:cx="15.954097"
       sodipodi:cy="15.957515"
       sodipodi:rx="15.24699"
       sodipodi:ry="15.24699"
       d="m 31.201087,15.957515 a 15.24699,15.24699 0 1 1 -30.49398041,0 15.24699,15.24699 0 1 1 30.49398041,0 z"
       transform="matrix(1.6068745,0,0,1.6068745,38.36377,38.358275)" />
  </g>
</svg>
