<?xml version="1.0" encoding="UTF-8" standalone="no"?>
<!-- Created with Inkscape (http://www.inkscape.org/) -->

<svg
   xmlns:dc="http://purl.org/dc/elements/1.1/"
   xmlns:cc="http://creativecommons.org/ns#"
   xmlns:rdf="http://www.w3.org/1999/02/22-rdf-syntax-ns#"
   xmlns:svg="http://www.w3.org/2000/svg"
   xmlns="http://www.w3.org/2000/svg"
   xmlns:sodipodi="http://sodipodi.sourceforge.net/DTD/sodipodi-0.dtd"
   xmlns:inkscape="http://www.inkscape.org/namespaces/inkscape"
   width="128"
   height="128"
   id="svg2"
   sodipodi:version="0.32"
   inkscape:version="0.48.3.1 r9886"
   version="1.0"
   sodipodi:docname="applications-graphics.svg"
   inkscape:output_extension="org.inkscape.output.svg.inkscape">
  <defs
     id="defs4" />
  <sodipodi:namedview
     id="base"
     pagecolor="#c0c0c0"
     bordercolor="#000000"
     borderopacity="1"
     inkscape:pageopacity="1"
     inkscape:pageshadow="2"
     inkscape:zoom="3.959798"
     inkscape:cx="54.912967"
     inkscape:cy="68.641433"
     inkscape:document-units="px"
     inkscape:current-layer="layer1"
     width="128px"
     height="128px"
     showgrid="false"
     inkscape:window-width="1598"
     inkscape:window-height="879"
     inkscape:window-x="0"
     inkscape:window-y="0"
     inkscape:window-maximized="1" />
  <metadata
     id="metadata7">
    <rdf:RDF>
      <cc:Work
         rdf:about="">
        <dc:format>image/svg+xml</dc:format>
        <dc:type
           rdf:resource="http://purl.org/dc/dcmitype/StillImage" />
      </cc:Work>
    </rdf:RDF>
  </metadata>
  <g
     inkscape:label="Ebene 1"
     inkscape:groupmode="layer"
     id="layer1">
    <path
       style="fill:#ffffff;fill-opacity:1;fill-rule:evenodd;stroke:none"
       d="m 20.58307,57.349838 c 0.811833,0.325474 13.31407,6.509474 13.31407,6.509474 l -7.144134,6.184 28.414172,31.896428 8.280704,-7.485899 5.195733,8.787789 10.87857,-8.787789 L 103.22772,66.951312 97.869623,62.557417 103.55246,57.675312 68.481249,24.476995 64.746814,35.5431 59.226347,24.314258 20.58307,57.349838 z"
       id="path3267"
       sodipodi:nodetypes="cccccccccccccc"
       inkscape:connector-curvature="0" />
    <path
       style="fill:#ffffff;fill-opacity:1"
       d="M 22.988723,65.67303 C 14.608164,62.689623 8.6054982,57.749321 4.1148816,50.139489 0.7509081,44.438897 1.05e-6,41.379488 1.05e-6,33.374445 1.05e-6,25.072865 0.68829981,22.473452 4.5221762,16.296076 7.3251433,11.77975 11.825086,7.2970529 16.35878,4.5048284 22.582771,0.67157508 25.156076,-1.7597747e-6 33.620011,-1.7597747e-6 42.083928,-1.7597747e-6 44.657249,0.67157508 50.881239,4.5048284 61.945316,11.319003 66.822638,20.198903 67.42451,34.62438 67.74502,42.3061 67.50745,44.655824 66.711377,41.677896 63.664986,30.282194 56.608402,24.57131 45.573791,24.57131 c -12.464312,0 -20.919117,8.41791 -20.919117,20.827828 0,10.400549 4.480456,16.618882 14.554505,20.199921 l 5.617501,1.996859 -8.218226,0 c -4.520023,0 -10.648905,-0.865297 -13.619731,-1.922888 z"
       id="path2284"
       inkscape:connector-curvature="0" />
    <path
       style="fill:#ffffff;fill-opacity:1"
       d="M 88.741677,65.622168 C 98.875059,61.805463 103.13612,55.767793 103.12694,45.239017 103.11628,33.148809 94.621538,24.92626 82.152684,24.937044 71.556172,24.946233 64.526277,30.718481 61.548894,41.854859 60.761773,44.798965 60.52688,42.475926 60.843784,34.881451 61.438886,20.619805 66.261336,11.840757 77.200935,5.1039705 83.354901,1.314253 85.89927,0.65030219 94.267966,0.65030219 c 8.368694,0 10.913064,0.66395081 17.067054,4.45366831 4.48267,2.7605129 8.93198,7.1922975 11.70341,11.6573325 3.80471,6.129738 4.47131,8.664066 4.47131,16.999798 0,8.335734 -0.6666,10.870077 -4.47131,16.9998 -6.55765,10.565 -15.53003,15.60683 -29.111702,16.358739 -10.642066,0.589141 -10.689031,0.575582 -5.185051,-1.497472 z"
       id="path3257"
       inkscape:connector-curvature="0" />
    <path
       style="fill:#ffffff;fill-opacity:1"
       d="M 23.567626,125.88196 C 15.183745,122.77285 9.3280103,117.94668 4.9247595,110.51689 1.6019547,104.91021 0.86023703,101.90121 0.86023703,94.028027 c 0,-8.164822 0.67987667,-10.721428 4.46683347,-16.797052 6.7566765,-10.840127 15.5616405,-15.61871 29.8653875,-16.208419 7.616909,-0.314002 9.946794,-0.08125 6.994006,0.698718 -11.299551,2.98472 -16.962232,9.898477 -16.962232,20.709734 0,25.342292 34.96925,28.706322 41.468652,3.989262 0.894007,-3.399896 1.108607,-1.55046 0.766735,6.608025 -0.397483,9.485945 -1.177709,12.457055 -4.795301,18.261005 -8.080503,12.96397 -25.727333,19.55055 -39.096692,14.59266 z"
       id="path3259"
       inkscape:connector-curvature="0" />
    <path
       style="fill:#ffffff;fill-opacity:1"
       d="M 83.72849,126.30678 C 68.625995,120.69272 61.25107,110.04164 60.535606,92.810916 60.19393,84.582269 60.410602,82.770792 61.321254,86.242252 c 2.791126,10.63998 10.80515,17.163938 21.084125,17.163938 11.951505,0 20.917501,-9.093148 20.917501,-21.214133 0,-10.976426 -5.735446,-17.995806 -17.180237,-21.026122 -2.990738,-0.791878 -0.63091,-1.028191 7.083911,-0.709393 14.487566,0.598717 23.405696,5.450304 30.249216,16.45604 3.84977,6.191176 4.52423,8.750907 4.52423,17.17022 0,8.419258 -0.67446,10.979028 -4.52423,17.170188 -8.33708,13.40765 -26.089024,20.13097 -39.74728,15.05379 z"
       id="path3261"
       inkscape:connector-curvature="0" />
    <path
       style="fill:#e04613;fill-opacity:1;fill-rule:evenodd;stroke:none"
       d="m 88.705609,67.199437 -21.385292,0 0,24.86858 1.776819,0.159005 4.346863,7.632301 19.38637,2.544087 11.961801,-20.352787 -12.501194,-13.992551 -3.617097,-0.190808 0.03173,-0.667827 z"
       id="path4426"
       inkscape:connector-curvature="0" />
    <path
       style="fill:#e04613;fill-opacity:1;fill-rule:evenodd;stroke:none"
       d="m 86.153379,18.536291 -17.373356,16.302846 -0.727846,4.535617 -0.664554,-0.126871 0,21.314227 21.613847,0 0.03164,-0.348893 L 109.47608,48.79488 86.153379,18.536291 z"
       id="path4408"
       inkscape:connector-curvature="0" />
    <path
       style="fill:#e04613;fill-opacity:1;fill-rule:evenodd;stroke:none"
       d="m 60.368801,67.199437 -23.449634,0 -0.315607,1.391839 -10.667532,7.591846 2.177691,22.237785 20.198877,3.606123 11.551234,-10.470418 0.504971,0.03164 0,-24.388807 z"
       id="path4438"
       inkscape:connector-curvature="0" />
    <path
       style="fill:#e04613;fill-opacity:1;fill-rule:evenodd;stroke:none"
       d="m 51.967424,20.315841 -31.129415,14.346462 10.513699,23.93193 6.871906,0.19044 -0.411681,1.777437 22.642453,0 0,-22.122753 -0.886697,-0.158699 -7.600265,-17.964817 z"
       id="path4406"
       inkscape:connector-curvature="0" />
    <path
       style="fill:#262729;fill-opacity:1"
       d="M 26.895467,117.244 C 20.506916,114.85004 16.044825,111.13399 12.689531,105.41322 10.15754,101.09618 9.5923489,98.779303 9.5923489,92.717113 c 0,-6.286749 0.5180681,-8.255284 3.4037441,-12.93339 5.148614,-8.346679 11.858031,-12.026092 22.75754,-12.480156 5.804115,-0.241775 7.579495,-0.06256 5.32946,0.537999 -8.610301,2.298174 -12.925286,7.621627 -12.925286,15.946077 0,19.513067 26.646703,22.103287 31.599274,3.071651 0.681235,-2.617852 0.844762,-1.193823 0.584255,5.088045 -0.302885,7.303984 -0.897419,9.591701 -3.65404,14.060621 -6.157374,9.98198 -19.604326,15.05352 -29.791829,11.23604 z"
       id="path4446"
       inkscape:connector-curvature="0" />
    <path
       style="fill:#262729;fill-opacity:1"
       d="M 85.009774,117.51065 C 73.587102,113.23029 68.009126,105.10954 67.467991,91.972225 c -0.258425,-6.273802 -0.09455,-7.654943 0.594219,-5.008172 2.111049,8.11229 8.172404,13.086397 15.946837,13.086397 9.039443,0 15.820822,-6.932952 15.820822,-16.174416 0,-8.368807 -4.337974,-13.720628 -12.994166,-16.031047 -2.262025,-0.603755 -0.477185,-0.783929 5.35787,-0.540865 10.957577,0.456482 17.702747,4.155502 22.878797,12.546656 2.91175,4.720375 3.42188,6.672005 3.42188,13.091177 0,6.419152 -0.51013,8.370805 -3.42188,13.091165 -6.30569,10.22246 -19.732265,15.34855 -30.062596,11.47753 z"
       id="path4444"
       inkscape:connector-curvature="0" />
    <path
       style="fill:#262729;fill-opacity:1"
       d="M 26.867545,59.100975 C 20.538288,56.83399 16.004889,53.080031 12.613437,47.297589 10.07286,42.965912 9.505752,40.641176 9.505752,34.558428 c 0,-6.308075 0.519824,-8.283276 3.415287,-12.977245 2.116887,-3.431796 5.515383,-6.838037 8.93937,-8.959749 4.700549,-2.9127537 6.643989,-3.423061 13.036215,-3.423061 6.392212,0 8.335664,0.5103073 13.036213,3.423061 8.355934,5.177848 12.039438,11.925368 12.493991,22.886776 0.242059,5.837065 0.06264,7.622538 -0.538581,5.359717 -2.300728,-8.65919 -7.63008,-12.998687 -15.963759,-12.998687 -9.413433,0 -15.798764,6.39647 -15.798764,15.826326 0,7.903007 3.38378,12.628096 10.992013,15.349201 l 4.24251,1.517343 -6.206658,0 c -3.413661,0 -8.042383,-0.65751 -10.286044,-1.461135 z"
       id="path4442"
       inkscape:connector-curvature="0" />
    <path
       style="fill:#262729;fill-opacity:1"
       d="m 88.83582,59.154883 c 7.734676,-2.931428 10.987079,-7.568673 10.980062,-15.65532 -0.0081,-9.285909 -6.492044,-15.601254 -16.00935,-15.592972 -8.088172,0.0071 -13.453994,4.440445 -15.72659,12.993763 -0.600799,2.261226 -0.78009,0.477012 -0.5382,-5.355941 0.454232,-10.953686 4.135142,-17.696451 12.485188,-22.870653 4.697238,-2.9107004 6.639319,-3.4206488 13.02703,-3.4206488 6.387717,0 8.3298,0.5099484 13.02705,3.4206488 3.42156,2.120218 6.81766,5.524059 8.93306,8.953438 2.90408,4.707957 3.41287,6.654453 3.41287,13.056729 0,6.402277 -0.50879,8.348783 -3.41287,13.05673 -5.00537,8.114469 -11.85386,11.986858 -22.220573,12.564362 -8.122941,0.452491 -8.15879,0.442077 -3.957677,-1.150136 z"
       id="path4391"
       inkscape:connector-curvature="0" />
  </g>
</svg>
