<?xml version="1.0" encoding="UTF-8" standalone="no"?>
<!-- Created with Inkscape (http://www.inkscape.org/) -->

<svg
   xmlns:dc="http://purl.org/dc/elements/1.1/"
   xmlns:cc="http://creativecommons.org/ns#"
   xmlns:rdf="http://www.w3.org/1999/02/22-rdf-syntax-ns#"
   xmlns:svg="http://www.w3.org/2000/svg"
   xmlns="http://www.w3.org/2000/svg"
   xmlns:sodipodi="http://sodipodi.sourceforge.net/DTD/sodipodi-0.dtd"
   xmlns:inkscape="http://www.inkscape.org/namespaces/inkscape"
   width="128"
   height="128"
   id="svg2"
   sodipodi:version="0.32"
   inkscape:version="0.48.3.1 r9886"
   version="1.0"
   sodipodi:docname="applications-system.svg"
   inkscape:output_extension="org.inkscape.output.svg.inkscape">
  <defs
     id="defs4" />
  <sodipodi:namedview
     id="base"
     pagecolor="#ffffff"
     bordercolor="#000000"
     borderopacity="1"
     inkscape:pageopacity="0.0"
     inkscape:pageshadow="2"
     inkscape:zoom="3.959798"
     inkscape:cx="23.817564"
     inkscape:cy="44.896794"
     inkscape:document-units="px"
     inkscape:current-layer="layer1"
     width="128px"
     height="128px"
     showgrid="false"
     inkscape:window-width="1598"
     inkscape:window-height="879"
     inkscape:window-x="0"
     inkscape:window-y="0"
     showguides="true"
     inkscape:guide-bbox="true"
     inkscape:window-maximized="1" />
  <metadata
     id="metadata7">
    <rdf:RDF>
      <cc:Work
         rdf:about="">
        <dc:format>image/svg+xml</dc:format>
        <dc:type
           rdf:resource="http://purl.org/dc/dcmitype/StillImage" />
      </cc:Work>
    </rdf:RDF>
  </metadata>
  <g
     inkscape:label="Ebene 1"
     inkscape:groupmode="layer"
     id="layer1">
    <path
       sodipodi:type="arc"
       style="fill:#ffffff;fill-opacity:1;fill-rule:nonzero;stroke:none"
       id="path3671"
       sodipodi:cx="75.382637"
       sodipodi:cy="76.355949"
       sodipodi:rx="35.481609"
       sodipodi:ry="35.481609"
       d="m 110.86425,76.355949 a 35.481609,35.481609 0 1 1 -70.963222,0 35.481609,35.481609 0 1 1 70.963222,0 z"
       transform="matrix(1.8037513,0,0,1.8037513,-71.971536,-73.727149)" />
    <g
       id="g3818"
       transform="matrix(0.92441905,0,0,0.92441905,4.8133269,4.8371789)">
      <path
         id="path3610"
         d="M 64,7.03125 C 32.63774,7.03125 7.0625,32.637742 7.0625,64 c -2e-7,31.362259 25.575243,56.96875 56.9375,56.96875 28.819929,0 52.74403,-21.627825 56.4375,-49.46875 l -15.15625,0 C 101.76115,91.137779 84.68144,105.96875 64,105.96875 40.753682,105.96875 22.03125,87.246314 22.03125,64 22.03125,40.753685 40.753685,22.03125 64,22.03125 c 20.681439,0 37.76115,14.830971 41.28125,34.46875 l 15.15625,0 C 116.74403,28.659076 92.819931,7.03125 64,7.03125 z"
         style="fill:#262729;fill-opacity:1;fill-rule:nonzero;stroke:none"
         inkscape:connector-curvature="0" />
      <path
         transform="matrix(0.3888889,0,0,0.3888889,34.555554,35.124998)"
         d="m 127.14286,74.25 c 0,28.40321 -23.02536,51.42857 -51.428573,51.42857 -28.403215,0 -51.42857,-23.02536 -51.42857,-51.42857 0,-28.403215 23.025355,-51.42857 51.42857,-51.42857 28.403213,0 51.428573,23.025355 51.428573,51.42857 z"
         sodipodi:ry="51.42857"
         sodipodi:rx="51.42857"
         sodipodi:cy="74.25"
         sodipodi:cx="75.714287"
         id="path3612"
         style="fill:none;stroke:#e04613;stroke-width:42.55234146;stroke-linejoin:miter;stroke-miterlimit:4;stroke-opacity:1;stroke-dasharray:none"
         sodipodi:type="arc" />
    </g>
  </g>
</svg>
