<?xml version="1.0" encoding="UTF-8" standalone="no"?>
<!-- Created with Inkscape (http://www.inkscape.org/) -->

<svg
   xmlns:dc="http://purl.org/dc/elements/1.1/"
   xmlns:cc="http://creativecommons.org/ns#"
   xmlns:rdf="http://www.w3.org/1999/02/22-rdf-syntax-ns#"
   xmlns:svg="http://www.w3.org/2000/svg"
   xmlns="http://www.w3.org/2000/svg"
   xmlns:sodipodi="http://sodipodi.sourceforge.net/DTD/sodipodi-0.dtd"
   xmlns:inkscape="http://www.inkscape.org/namespaces/inkscape"
   width="128"
   height="128"
   id="svg2"
   sodipodi:version="0.32"
   inkscape:version="0.48.3.1 r9886"
   version="1.0"
   sodipodi:docname="applications-science.svg"
   inkscape:output_extension="org.inkscape.output.svg.inkscape">
  <defs
     id="defs4" />
  <sodipodi:namedview
     id="base"
     pagecolor="#e0e0e0"
     bordercolor="#000000"
     borderopacity="1"
     inkscape:pageopacity="1"
     inkscape:pageshadow="2"
     inkscape:zoom="4"
     inkscape:cx="43.991382"
     inkscape:cy="64.904062"
     inkscape:document-units="px"
     inkscape:current-layer="layer2"
     width="128px"
     height="128px"
     showgrid="false"
     inkscape:window-width="1598"
     inkscape:window-height="879"
     inkscape:window-x="0"
     inkscape:window-y="0"
     showguides="true"
     inkscape:guide-bbox="true"
     inkscape:window-maximized="1"
     inkscape:snap-page="true"
     inkscape:snap-center="false"
     inkscape:snap-object-midpoints="true" />
  <metadata
     id="metadata7">
    <rdf:RDF>
      <cc:Work
         rdf:about="">
        <dc:format>image/svg+xml</dc:format>
        <dc:type
           rdf:resource="http://purl.org/dc/dcmitype/StillImage" />
        <dc:title />
      </cc:Work>
    </rdf:RDF>
  </metadata>
  <g
     inkscape:label="Background"
     inkscape:groupmode="layer"
     id="layer1">
    <g
       id="g3772">
      <path
         transform="matrix(1.0645625,0,0,1.0645625,0.18819005,-0.01455417)"
         d="m 79.903065,40.053593 a 40.039921,40.039921 0 1 1 -80.07984189,0 40.039921,40.039921 0 1 1 80.07984189,0 z"
         sodipodi:ry="40.039921"
         sodipodi:rx="40.039921"
         sodipodi:cy="40.053593"
         sodipodi:cx="39.863144"
         id="path2996"
         style="fill:#ffffff;fill-opacity:1;stroke:none"
         sodipodi:type="arc" />
      <path
         sodipodi:type="arc"
         style="fill:#ffffff;fill-opacity:1;stroke:none"
         id="path3766"
         sodipodi:cx="39.863144"
         sodipodi:cy="40.053593"
         sodipodi:rx="40.039921"
         sodipodi:ry="40.039921"
         d="m 79.903065,40.053593 a 40.039921,40.039921 0 1 1 -80.07984189,0 40.039921,40.039921 0 1 1 80.07984189,0 z"
         transform="matrix(1.0645625,0,0,1.0645625,42.896526,0.0271143)" />
      <path
         sodipodi:type="arc"
         style="fill:#ffffff;fill-opacity:1;stroke:none"
         id="path3768"
         sodipodi:cx="39.863144"
         sodipodi:cy="40.053593"
         sodipodi:rx="40.039921"
         sodipodi:ry="40.039921"
         d="m 79.903065,40.053593 a 40.039921,40.039921 0 1 1 -80.07984189,0 40.039921,40.039921 0 1 1 80.07984189,0 z"
         transform="matrix(1.0645625,0,0,1.0645625,0.18819005,42.735446)" />
      <path
         transform="matrix(1.0645626,0,0,1.0645626,42.896521,42.735441)"
         d="m 79.903065,40.053593 a 40.039921,40.039921 0 1 1 -80.07984189,0 40.039921,40.039921 0 1 1 80.07984189,0 z"
         sodipodi:ry="40.039921"
         sodipodi:rx="40.039921"
         sodipodi:cy="40.053593"
         sodipodi:cx="39.863144"
         id="path3770"
         style="fill:#ffffff;fill-opacity:1;stroke:none"
         sodipodi:type="arc" />
      <path
         transform="matrix(0.79920238,0,0,0.79920238,53.474615,10.65574)"
         d="m 79.903065,40.053593 a 40.039921,40.039921 0 1 1 -80.07984189,0 40.039921,40.039921 0 1 1 80.07984189,0 z"
         sodipodi:ry="40.039921"
         sodipodi:rx="40.039921"
         sodipodi:cy="40.053593"
         sodipodi:cx="39.863144"
         id="path3941"
         style="fill:#262729;fill-opacity:1;stroke:none"
         sodipodi:type="arc" />
      <path
         sodipodi:type="arc"
         style="fill:#262729;fill-opacity:1;stroke:none"
         id="path3943"
         sodipodi:cx="39.863144"
         sodipodi:cy="40.053593"
         sodipodi:rx="40.039921"
         sodipodi:ry="40.039921"
         d="m 79.903065,40.053593 a 40.039921,40.039921 0 1 1 -80.07984189,0 40.039921,40.039921 0 1 1 80.07984189,0 z"
         transform="matrix(0.79920238,0,0,0.79920238,10.766279,10.614072)" />
      <path
         sodipodi:type="arc"
         style="fill:#262729;fill-opacity:1;stroke:none"
         id="path3945"
         sodipodi:cx="39.863144"
         sodipodi:cy="40.053593"
         sodipodi:rx="40.039921"
         sodipodi:ry="40.039921"
         d="m 79.903065,40.053593 a 40.039921,40.039921 0 1 1 -80.07984189,0 40.039921,40.039921 0 1 1 80.07984189,0 z"
         transform="matrix(0.79920238,0,0,0.79920238,53.474614,53.364071)" />
      <path
         transform="matrix(0.79920238,0,0,0.79920238,10.766279,53.364072)"
         d="m 79.903065,40.053593 a 40.039921,40.039921 0 1 1 -80.07984189,0 40.039921,40.039921 0 1 1 80.07984189,0 z"
         sodipodi:ry="40.039921"
         sodipodi:rx="40.039921"
         sodipodi:cy="40.053593"
         sodipodi:cx="39.863144"
         id="path3947"
         style="fill:#262729;fill-opacity:1;stroke:none"
         sodipodi:type="arc" />
    </g>
  </g>
  <g
     inkscape:groupmode="layer"
     id="layer2"
     inkscape:label="Foreground">
    <g
       id="g3925"
       transform="matrix(0.88888889,0,0,0.88888889,7.1111113,7.1111113)">
      <path
         transform="matrix(1.0705677,0,0,1.0705677,1.4836861,1.483466)"
         d="m 63.999981,35.977673 c 0,15.476407 -12.546107,28.022514 -28.022514,28.022514 -15.476408,0 -28.0225148,-12.546107 -28.0225148,-28.022514 0,-15.476408 12.5461068,-28.0225148 28.0225148,-28.0225148 15.476407,0 28.022514,12.5461068 28.022514,28.0225148 z"
         sodipodi:ry="28.022514"
         sodipodi:rx="28.022514"
         sodipodi:cy="35.977673"
         sodipodi:cx="35.977467"
         id="path3780"
         style="fill:#c0c0c0;fill-opacity:1;stroke:none"
         sodipodi:type="arc" />
      <path
         id="path3790"
         d="m 40,22 c -9.941126,0 -18,8.058874 -18,18 0,9.941126 8.058874,18 18,18 9.941126,0 18,-8.058874 18,-18 0,-9.941126 -8.058874,-18 -18,-18 z m 0,12 c 3.313708,0 6,2.686292 6,6 0,3.313708 -2.686292,6 -6,6 -3.313708,0 -6,-2.686292 -6,-6 0,-3.313708 2.686292,-6 6,-6 z"
         style="fill:#6c9eab;fill-opacity:1;stroke:none"
         inkscape:connector-curvature="0" />
    </g>
    <g
       id="g3929"
       transform="matrix(0.88888889,0,0,0.88888889,7.1111113,7.1111113)">
      <path
         transform="matrix(1.0705677,0,0,1.0705677,49.483687,49.483466)"
         d="m 63.999981,35.977673 c 0,15.476407 -12.546107,28.022514 -28.022514,28.022514 -15.476408,0 -28.0225148,-12.546107 -28.0225148,-28.022514 0,-15.476408 12.5461068,-28.0225148 28.0225148,-28.0225148 15.476407,0 28.022514,12.5461068 28.022514,28.0225148 z"
         sodipodi:ry="28.022514"
         sodipodi:rx="28.022514"
         sodipodi:cy="35.977673"
         sodipodi:cx="35.977467"
         id="path3784"
         style="fill:#c0c0c0;fill-opacity:1;stroke:none"
         sodipodi:type="arc" />
      <path
         id="path3788"
         d="m 88,70 c -9.941126,0 -18,8.058874 -18,18 0,9.941126 8.058874,18 18,18 9.941126,0 18,-8.058874 18,-18 0,-9.941126 -8.058874,-18 -18,-18 z m 0.03125,11.96875 c 3.313708,0 6,2.686292 6,6 0,3.313708 -2.686292,6 -6,6 -3.313708,0 -6,-2.686292 -6,-6 0,-3.313708 2.686292,-6 6,-6 z"
         style="fill:#6c9eab;fill-opacity:1;stroke:none"
         inkscape:connector-curvature="0" />
    </g>
    <g
       id="g3933"
       transform="matrix(0.88888889,0,0,0.88888889,7.1111113,7.1111113)">
      <path
         sodipodi:type="arc"
         style="fill:#e04613;fill-opacity:1;stroke:none"
         id="path3782"
         sodipodi:cx="35.977467"
         sodipodi:cy="35.977673"
         sodipodi:rx="28.022514"
         sodipodi:ry="28.022514"
         d="m 63.999981,35.977673 c 0,15.476407 -12.546107,28.022514 -28.022514,28.022514 -15.476408,0 -28.0225148,-12.546107 -28.0225148,-28.022514 0,-15.476408 12.5461068,-28.0225148 28.0225148,-28.0225148 15.476407,0 28.022514,12.5461068 28.022514,28.0225148 z"
         transform="matrix(1.0705677,0,0,1.0705677,49.483687,1.483466)" />
      <path
         id="path3792"
         d="m 88,22 c -9.941126,0 -18,8.058874 -18,18 0,9.941126 8.058874,18 18,18 9.941126,0 18,-8.058874 18,-18 0,-9.941126 -8.058874,-18 -18,-18 z m 0,12 c 3.313708,0 6,2.686292 6,6 0,3.313708 -2.686292,6 -6,6 -3.313708,0 -6,-2.686292 -6,-6 0,-3.313708 2.686292,-6 6,-6 z"
         style="fill:#c0c0c0;fill-opacity:1;stroke:none"
         inkscape:connector-curvature="0" />
    </g>
    <g
       id="g3937"
       transform="matrix(0.88888889,0,0,0.88888889,7.1111113,7.1111113)">
      <path
         sodipodi:type="arc"
         style="fill:#e04613;fill-opacity:1;stroke:none"
         id="path3786"
         sodipodi:cx="35.977467"
         sodipodi:cy="35.977673"
         sodipodi:rx="28.022514"
         sodipodi:ry="28.022514"
         d="m 63.999981,35.977673 c 0,15.476407 -12.546107,28.022514 -28.022514,28.022514 -15.476408,0 -28.0225148,-12.546107 -28.0225148,-28.022514 0,-15.476408 12.5461068,-28.0225148 28.0225148,-28.0225148 15.476407,0 28.022514,12.5461068 28.022514,28.0225148 z"
         transform="matrix(1.0705677,0,0,1.0705677,1.4836861,49.483466)" />
      <path
         id="path3794"
         d="m 40,70 c -9.941126,0 -18,8.058874 -18,18 0,9.941126 8.058874,18 18,18 9.941126,0 18,-8.058874 18,-18 0,-9.941126 -8.058874,-18 -18,-18 z m 0,12 c 3.313708,0 6,2.686292 6,6 0,3.313708 -2.686292,6 -6,6 -3.313708,0 -6,-2.686292 -6,-6 0,-3.313708 2.686292,-6 6,-6 z"
         style="fill:#c0c0c0;fill-opacity:1;stroke:none"
         inkscape:connector-curvature="0" />
    </g>
    <path
       transform="matrix(0.35726906,0,0,0.35726906,75.146365,75.146291)"
       d="m 52.771532,35.977673 a 16.794065,16.794065 0 1 1 -33.588131,0 16.794065,16.794065 0 1 1 33.588131,0 z"
       sodipodi:ry="16.794065"
       sodipodi:rx="16.794065"
       sodipodi:cy="35.977673"
       sodipodi:cx="35.977467"
       id="path3805"
       style="fill:#c0c0c0;fill-opacity:0;stroke:none"
       sodipodi:type="arc" />
  </g>
</svg>
