<?xml version="1.0" encoding="UTF-8" standalone="no"?>
<!-- Generator: Adobe Illustrator 16.0.0, SVG Export Plug-In . SVG Version: 6.00 Build 0)  -->

<svg
   xmlns:dc="http://purl.org/dc/elements/1.1/"
   xmlns:cc="http://creativecommons.org/ns#"
   xmlns:rdf="http://www.w3.org/1999/02/22-rdf-syntax-ns#"
   xmlns:svg="http://www.w3.org/2000/svg"
   xmlns="http://www.w3.org/2000/svg"
   xmlns:sodipodi="http://sodipodi.sourceforge.net/DTD/sodipodi-0.dtd"
   xmlns:inkscape="http://www.inkscape.org/namespaces/inkscape"
   version="1.1"
   id="Layer_7"
   x="0px"
   y="0px"
   width="128"
   height="128"
   viewBox="0 0 128 128"
   enable-background="new 0 0 100 100"
   xml:space="preserve"
   inkscape:version="0.48.3.1 r9886"
   sodipodi:docname="call-start.svg"><metadata
   id="metadata9"><rdf:RDF><cc:Work
       rdf:about=""><dc:format>image/svg+xml</dc:format><dc:type
         rdf:resource="http://purl.org/dc/dcmitype/StillImage" /><dc:title></dc:title></cc:Work></rdf:RDF></metadata><defs
   id="defs7" /><sodipodi:namedview
   pagecolor="#c8c8c8"
   bordercolor="#666666"
   borderopacity="1"
   objecttolerance="10"
   gridtolerance="10"
   guidetolerance="10"
   inkscape:pageopacity="1"
   inkscape:pageshadow="2"
   inkscape:window-width="1598"
   inkscape:window-height="879"
   id="namedview5"
   showgrid="false"
   showguides="false"
   inkscape:guide-bbox="true"
   inkscape:zoom="1"
   inkscape:cx="53.032263"
   inkscape:cy="69.431298"
   inkscape:window-x="0"
   inkscape:window-y="0"
   inkscape:window-maximized="1"
   inkscape:current-layer="g2999"><sodipodi:guide
     orientation="1,0"
     position="4.0254237,104.13136"
     id="guide2996" /></sodipodi:namedview>
<g
   id="g2999"
   transform="matrix(0.76187121,-0.76187121,0.76187121,0.76187121,-29.239417,68.584461)"><path
     sodipodi:nodetypes="scccscscsccccccs"
     inkscape:connector-curvature="0"
     id="path2994"
     d="m 63.921538,106.53899 c 0.48595,1.10111 1.092851,2.11647 1.777063,3.01546 4.935146,5.09439 11.076527,6.59623 16.997794,6.31605 0,0 1.434671,-0.24609 5.959656,-1.78247 4.524984,-1.53639 14.106769,-7.57504 16.858129,-20.195988 C 108.26553,81.271101 104.67186,64.165311 89.640776,38.898505 75.217099,14.658459 61.352926,5.3210907 49.035572,4.3182298 37.451204,3.3750519 30.041693,9.720761 26.639947,13.052987 c -3.40174,3.332235 -5.813144,7.526097 -6.198508,12.176252 -0.399505,4.820786 1.657755,9.886318 3.647695,11.669245 l 12.677755,11.493285 c 3.447987,2.920609 11.990592,2.84373 19.283911,-0.672809 7.284225,8.35544 11.869188,16.826577 14.575881,24.746167 -6.296984,4.452051 -10.316656,11.489281 -9.689586,15.740021 l 2.006448,15.263622 c 0.136169,0.79706 0.492045,1.96911 0.977995,3.07022 z"
     style="fill:#ffffff" /><path
     inkscape:connector-curvature="0"
     id="path3"
     d="m 32.554915,18.459376 c 2.785462,-3.003319 22.739004,-21.7530464 50.232614,24.45198 28.980191,48.714847 10.170473,61.132824 2.095311,64.078304 l -0.0017,0.0107 c -0.12867,0.0464 -0.255599,0.0808 -0.385559,0.12584 -0.226066,0.0778 -0.438403,0.14541 -0.645262,0.20918 -0.08781,0.0251 -0.1812,0.0566 -0.270338,0.0817 -1.133656,0.33012 -1.851253,0.42579 -1.851253,0.42579 0,0 0.0061,-0.0212 0.01131,-0.0544 -5.310559,0.74132 -10.188594,-1.52016 -10.976484,-6.17822 L 69.460726,91.050038 c -0.941557,-5.55556 3.657057,-12.033145 10.270175,-14.473875 l 0.535106,-0.195586 C 77.227683,64.283942 70.735196,50.257126 57.507738,37.238243 l -1.034878,0.840519 c -5.473007,4.444982 -13.388597,5.088525 -17.686686,1.446513 L 31.256182,32.51075 c -4.190101,-3.55403 -3.817955,-9.618093 1.298769,-14.051314 z"
     style="fill:#e04613;fill-opacity:1" /></g>
</svg>