<?xml version="1.0" encoding="UTF-8" standalone="no"?>
<!-- Generator: Adobe Illustrator 9.0, SVG Export Plug-In  -->

<svg
   xmlns:dc="http://purl.org/dc/elements/1.1/"
   xmlns:cc="http://creativecommons.org/ns#"
   xmlns:rdf="http://www.w3.org/1999/02/22-rdf-syntax-ns#"
   xmlns:svg="http://www.w3.org/2000/svg"
   xmlns="http://www.w3.org/2000/svg"
   xmlns:sodipodi="http://sodipodi.sourceforge.net/DTD/sodipodi-0.dtd"
   xmlns:inkscape="http://www.inkscape.org/namespaces/inkscape"
   width="48"
   height="48"
   viewBox="0 0 48 48"
   xml:space="preserve"
   id="svg2"
   sodipodi:version="0.32"
   inkscape:version="0.48.3.1 r9886"
   sodipodi:docname="insert-object.svg"
   inkscape:output_extension="org.inkscape.output.svg.inkscape"
   version="1.0"><metadata
   id="metadata17"><rdf:RDF><cc:Work
       rdf:about=""><dc:format>image/svg+xml</dc:format><dc:type
         rdf:resource="http://purl.org/dc/dcmitype/StillImage" /></cc:Work></rdf:RDF></metadata><defs
   id="defs15"><inkscape:perspective
     sodipodi:type="inkscape:persp3d"
     inkscape:vp_x="0 : 24 : 1"
     inkscape:vp_y="0 : 1000 : 0"
     inkscape:vp_z="48 : 24 : 1"
     inkscape:persp3d-origin="24 : 16 : 1"
     id="perspective9" /></defs><sodipodi:namedview
   inkscape:window-height="879"
   inkscape:window-width="1598"
   inkscape:pageshadow="2"
   inkscape:pageopacity="0.0"
   guidetolerance="10.0"
   gridtolerance="10.0"
   objecttolerance="10.0"
   borderopacity="1.0"
   bordercolor="#666666"
   pagecolor="#ffffff"
   id="base"
   inkscape:zoom="6.7833333"
   inkscape:cx="30"
   inkscape:cy="30"
   inkscape:window-x="0"
   inkscape:window-y="0"
   inkscape:current-layer="svg2"
   width="48px"
   height="48px"
   showgrid="false"
   inkscape:window-maximized="1" />
	<g
   style="fill:#ffffff;stroke:none"
   id="g3178"
   transform="translate(4.2772395e-8,-2.2500001)"><path
     sodipodi:type="inkscape:offset"
     inkscape:radius="5.4914708"
     inkscape:original="M 15.5 35.5 L 24 44.5 L 32.5 35.5 L 15.5 35.5 z "
     style="fill:#ffffff;fill-opacity:1;fill-rule:nonzero;stroke:none;stroke-width:1.30303049;marker:none;visibility:visible;display:inline;overflow:visible"
     id="path3184"
     d="m 15.5,30 a 5.49202,5.49202 0 0 0 -4,9.28125 l 8.5,9 a 5.49202,5.49202 0 0 0 8,0 l 8.5,-9 A 5.49202,5.49202 0 0 0 32.5,30 l -17,0 z" /><path
     inkscape:connector-curvature="0"
     style="fill:#ffffff;fill-opacity:1;fill-rule:nonzero;stroke:none;stroke-width:1.30303049;marker:none;visibility:visible;display:inline;overflow:visible"
     d="m 15.500002,35.500004 17.00001,0 -8.500005,8.999992 -8.500005,-8.999992 z"
     id="path3180"
     sodipodi:nodetypes="cccc" /></g><g
   id="g3321"
   style="fill:#303030;stroke:#303030;stroke-opacity:1"
   transform="translate(4.2772395e-8,-2.2500001)"><path
     inkscape:connector-curvature="0"
     sodipodi:nodetypes="cccc"
     id="path3323"
     d="m 15.500002,35.500004 17.00001,0 -8.500005,8.999992 -8.500005,-8.999992 z"
     style="fill:#303030;fill-opacity:1;fill-rule:nonzero;stroke:#303030;stroke-width:1.30303049;stroke-linecap:round;stroke-linejoin:round;stroke-miterlimit:4;stroke-opacity:1;stroke-dashoffset:1.4;marker:none;visibility:visible;display:inline;overflow:visible" /><path
     inkscape:connector-curvature="0"
     style="fill:#303030;fill-opacity:1;fill-rule:nonzero;stroke:#303030;stroke-width:1.30303049;stroke-linecap:round;stroke-linejoin:round;stroke-miterlimit:4;stroke-opacity:1;stroke-dashoffset:1.4;marker:none;visibility:visible;display:inline;overflow:visible"
     d="m 15.500002,35.500004 17.00001,0 -8.500005,8.999992 -8.500005,-8.999992 z"
     id="path3174"
     sodipodi:nodetypes="cccc" /></g><g
   transform="matrix(0.9984818,0,0,1.00184,0.03581845,-8.04574)"
   style="fill:#ffffff;fill-opacity:1;fill-rule:nonzero;stroke:#303030;stroke-width:0.81759757;stroke-miterlimit:4"
   id="g2382">
		<g
   style="fill:#ffffff;fill-opacity:1;stroke-width:0.81759757"
   id="g2384">
			
			<path
   sodipodi:type="inkscape:offset"
   inkscape:radius="4.3318138"
   inkscape:original="M 14.5 12.59375 L 14.5 19.90625 C 14.1 21.10625 12.6875 21.5 11.6875 21 C 11.0875 19.1 9.80625 17.90625 8.40625 17.90625 C 6.3062504 17.90625 4.59375 20.69375 4.59375 24.09375 C 4.5937501 27.49375 6.30625 30.3125 8.40625 30.3125 C 9.7062504 30.312501 10.89375 29.10625 11.59375 27.40625 C 12.59375 26.90625 14.1 27.30625 14.5 28.40625 L 14.5 35.59375 L 14.6875 35.59375 L 33.40625 35.59375 L 33.59375 35.59375 L 33.59375 28.3125 C 33.993752 27.112501 35.40625 26.6875 36.40625 27.1875 C 37.006248 29.087499 38.2875 30.3125 39.6875 30.3125 C 41.787499 30.312501 43.5 27.49375 43.5 24.09375 C 43.5 20.69375 41.7875 17.90625 39.6875 17.90625 L 39.59375 17.90625 C 38.293752 17.90625 37.10625 19.1125 36.40625 20.8125 C 35.406248 21.312501 33.9 20.9125 33.5 19.8125 L 33.5 12.59375 L 33.3125 12.59375 L 14.6875 12.59375 L 14.5 12.59375 z "
   style="fill:#ffffff;fill-opacity:1;stroke:none"
   id="path2388"
   d="m 14.5,8.25 a 4.332247,4.332247 0 0 0 -4.34375,4.34375 l 0,1.3125 c -0.5645042,-0.150904 -1.114272,-0.34375 -1.75,-0.34375 -2.9666559,0 -5.1714639,1.951185 -6.375,3.90625 -1.20353608,1.955065 -1.78125,4.197722 -1.78125,6.625 7e-8,2.427277 0.58365202,4.697283 1.78125,6.65625 1.197598,1.958967 3.3868571,3.90625 6.375,3.90625 0.6550165,10e-7 1.1915618,-0.198011 1.75,-0.34375 l 0,1.28125 A 4.332247,4.332247 0 0 0 14.5,39.9375 l 0.1875,0 18.71875,0 0.1875,0 a 4.332247,4.332247 0 0 0 4.34375,-4.34375 l 0,-1.28125 c 0.563654,0.1496 1.11089,0.34375 1.75,0.34375 2.988145,10e-7 5.177402,-1.947283 6.375,-3.90625 1.197598,-1.958967 1.78125,-4.228972 1.78125,-6.65625 0,-2.427278 -0.577714,-4.669935 -1.78125,-6.625 -1.203536,-1.955065 -3.408344,-3.90625 -6.375,-3.90625 l -0.09375,0 c -0.655016,0 -1.191562,0.198011 -1.75,0.34375 l 0,-1.3125 A 4.332247,4.332247 0 0 0 33.5,8.25 l -0.1875,0 -18.625,0 -0.1875,0 z" />
		</g>
	</g><g
   id="Layer_x0020_3"
   style="fill:#303030;fill-opacity:1;fill-rule:nonzero;stroke:#303030;stroke-width:0.81759757;stroke-miterlimit:4"
   transform="matrix(0.9984818,0,0,1.00184,0.03581845,-8.04574)">
		<g
   id="g5"
   style="fill:#303030;fill-opacity:1;stroke-width:0.81759757">
			
			<path
   style="fill:#303030;fill-opacity:1;stroke:none"
   d="m 39.6,17.9 c -1.3,0 -2.5,1.2 -3.2,2.9 -1,0.5 -2.5,0.1 -2.9,-1 l 0,-7.2 -0.2,0 -18.6,0 -0.2,0 0,7.3 c -0.4,1.2 -1.8,1.6 -2.8,1.1 -0.6,-1.9 -1.9,-3.1 -3.3,-3.1 -2.1,0 -3.8,2.8 -3.8,6.2 0,3.4 1.7,6.2 3.8,6.2 1.3,0 2.5,-1.2 3.2,-2.9 1,-0.5 2.5,-0.1 2.9,1 l 0,7.2 0.2,0 18.7,0 0.2,0 0,-7.3 c 0.4,-1.2 1.8,-1.6 2.8,-1.1 0.6,1.9 1.9,3.1 3.3,3.1 2.1,0 3.8,-2.8 3.8,-6.2 0,-3.4 -1.7,-6.2 -3.8,-6.2 l -0.1,0 z"
   id="path9"
   inkscape:connector-curvature="0" />
		</g>
	</g>
	
</svg>