<?xml version="1.0" encoding="UTF-8" standalone="no"?>
<!-- Created with Inkscape (http://www.inkscape.org/) -->

<svg
   xmlns:dc="http://purl.org/dc/elements/1.1/"
   xmlns:cc="http://creativecommons.org/ns#"
   xmlns:rdf="http://www.w3.org/1999/02/22-rdf-syntax-ns#"
   xmlns:svg="http://www.w3.org/2000/svg"
   xmlns="http://www.w3.org/2000/svg"
   xmlns:sodipodi="http://sodipodi.sourceforge.net/DTD/sodipodi-0.dtd"
   xmlns:inkscape="http://www.inkscape.org/namespaces/inkscape"
   width="128"
   height="128"
   id="svg2"
   sodipodi:version="0.32"
   inkscape:version="0.48.3.1 r9886"
   version="1.0"
   sodipodi:docname="battery-100.svg"
   inkscape:output_extension="org.inkscape.output.svg.inkscape">
  <defs
     id="defs4" />
  <sodipodi:namedview
     id="base"
     pagecolor="#c8c8c8"
     bordercolor="#000000"
     borderopacity="1"
     inkscape:pageopacity="1"
     inkscape:pageshadow="2"
     inkscape:zoom="4"
     inkscape:cx="19.274603"
     inkscape:cy="78.531511"
     inkscape:document-units="px"
     inkscape:current-layer="layer1"
     width="128px"
     height="128px"
     showgrid="false"
     inkscape:window-width="1598"
     inkscape:window-height="879"
     inkscape:window-x="0"
     inkscape:window-y="0"
     inkscape:window-maximized="1"
     inkscape:snap-bbox="true"
     inkscape:bbox-nodes="true"
     inkscape:object-nodes="false"
     inkscape:snap-page="true"
     inkscape:snap-smooth-nodes="true"
     inkscape:bbox-paths="false"
     inkscape:snap-midpoints="false"
     showguides="false"
     inkscape:guide-bbox="true"
     inkscape:snap-bbox-edge-midpoints="true"
     inkscape:snap-grids="false">
    <inkscape:grid
       type="xygrid"
       id="grid3817"
       empspacing="5"
       visible="true"
       enabled="true"
       snapvisiblegridlinesonly="true" />
    <sodipodi:guide
       orientation="-0.70710678,0.70710678"
       position="86.749999,51"
       id="guide3821" />
    <sodipodi:guide
       orientation="0.70710678,0.70710678"
       position="90.749999,55"
       id="guide3825" />
    <sodipodi:guide
       orientation="-0.70710678,0.70710678"
       position="11.999999,59"
       id="guide3827" />
  </sodipodi:namedview>
  <metadata
     id="metadata7">
    <rdf:RDF>
      <cc:Work
         rdf:about="">
        <dc:format>image/svg+xml</dc:format>
        <dc:type
           rdf:resource="http://purl.org/dc/dcmitype/StillImage" />
        <dc:title />
      </cc:Work>
    </rdf:RDF>
  </metadata>
  <g
     inkscape:label="Ebene 1"
     inkscape:groupmode="layer"
     id="layer1">
    <path
       style="fill:#ffffff;fill-opacity:1;stroke:none"
       d="M 96,21 31.999999,21 C 14.272001,21 9.0500001e-7,35.610143 9.0500001e-7,53.758168 l 0,53.241832 C 96.014541,107 96,107 96,107 c 17.728,0 32,-14.619921 32,-32.767946 l 0,-20.473855 C 128,35.610173 113.728,21.000031 96,21.000031 z"
       id="rect2984"
       inkscape:connector-curvature="0"
       sodipodi:nodetypes="csscssssc" />
    <path
       style="fill:#e04613;fill-opacity:1;stroke:none"
       d="M 32,30.125 C 18.628888,30.125 8.125,40.63079 8.125,54 l 0,20 c 0,13.36921 10.503888,23.875 23.875,23.875 l 87.875,0 0,-43.875 C 119.875,40.63079 109.37111,30.125 96,30.125 z"
       id="path3790"
       inkscape:connector-curvature="0"
       sodipodi:nodetypes="sssscsss"
       transform="matrix(-0.93064877,0,0,0.94464945,123.56152,3.5424352)" />
    <path
       sodipodi:nodetypes="sssscsss"
       inkscape:connector-curvature="0"
       id="path3829"
       d="M 84.344517,40 C 95.3525,40 104,48.683753 104,59.734318 l 0,16.531364 C 104,87.316247 95.3525,96 84.344517,96 l -72.344518,0 0,-36.265682 C 11.999999,48.683753 20.647496,40 31.65548,40 z"
       style="fill:#6c9eab;fill-opacity:1;stroke:none" />
    <path
       style="fill:#2a6d7d;fill-opacity:1;stroke:none"
       d="M 27.3125,64.03125 C 19.00936,64.38708 12.366943,71.064087 12.03125,79.375 12.022583,79.589568 12,79.793019 12,80 l 0,16 16,0 20,0 C 54.221905,96 64,91.037856 64,80 64,68.962144 54.221905,64 48,64 l -20.029923,0 c -0.323383,0 -0.636627,0.03035 -0.657577,0.03125 z"
       id="path3799"
       inkscape:connector-curvature="0"
       sodipodi:nodetypes="sssccsssss" />
  </g>
</svg>
