<?xml version="1.0" encoding="UTF-8" standalone="no"?>
<!-- Created with Inkscape (http://www.inkscape.org/) -->

<svg
   xmlns:dc="http://purl.org/dc/elements/1.1/"
   xmlns:cc="http://creativecommons.org/ns#"
   xmlns:rdf="http://www.w3.org/1999/02/22-rdf-syntax-ns#"
   xmlns:svg="http://www.w3.org/2000/svg"
   xmlns="http://www.w3.org/2000/svg"
   xmlns:sodipodi="http://sodipodi.sourceforge.net/DTD/sodipodi-0.dtd"
   xmlns:inkscape="http://www.inkscape.org/namespaces/inkscape"
   width="128"
   height="128"
   id="svg2"
   sodipodi:version="0.32"
   inkscape:version="0.48.3.1 r9886"
   version="1.0"
   sodipodi:docname="battery-060.svg"
   inkscape:output_extension="org.inkscape.output.svg.inkscape">
  <defs
     id="defs4" />
  <sodipodi:namedview
     id="base"
     pagecolor="#c8c8c8"
     bordercolor="#000000"
     borderopacity="1"
     inkscape:pageopacity="1"
     inkscape:pageshadow="2"
     inkscape:zoom="4"
     inkscape:cx="19.274603"
     inkscape:cy="78.531511"
     inkscape:document-units="px"
     inkscape:current-layer="layer1"
     width="128px"
     height="128px"
     showgrid="false"
     inkscape:window-width="1598"
     inkscape:window-height="879"
     inkscape:window-x="0"
     inkscape:window-y="0"
     inkscape:window-maximized="1"
     inkscape:snap-bbox="true"
     inkscape:bbox-nodes="true"
     inkscape:object-nodes="false"
     inkscape:snap-page="true"
     inkscape:snap-smooth-nodes="true"
     inkscape:bbox-paths="false"
     inkscape:snap-midpoints="false"
     showguides="false"
     inkscape:guide-bbox="true"
     inkscape:snap-bbox-edge-midpoints="true"
     inkscape:snap-grids="false">
    <inkscape:grid
       type="xygrid"
       id="grid3817"
       empspacing="5"
       visible="true"
       enabled="true"
       snapvisiblegridlinesonly="true" />
    <sodipodi:guide
       orientation="-0.70710678,0.70710678"
       position="86.749999,51"
       id="guide3821" />
    <sodipodi:guide
       orientation="0.70710678,0.70710678"
       position="90.749999,55"
       id="guide3825" />
    <sodipodi:guide
       orientation="-0.70710678,0.70710678"
       position="11.999999,59"
       id="guide3827" />
  </sodipodi:namedview>
  <metadata
     id="metadata7">
    <rdf:RDF>
      <cc:Work
         rdf:about="">
        <dc:format>image/svg+xml</dc:format>
        <dc:type
           rdf:resource="http://purl.org/dc/dcmitype/StillImage" />
        <dc:title />
      </cc:Work>
    </rdf:RDF>
  </metadata>
  <g
     inkscape:label="Ebene 1"
     inkscape:groupmode="layer"
     id="layer1">
    <path
       sodipodi:nodetypes="csscssssc"
       inkscape:connector-curvature="0"
       id="path3882"
       d="M 96,21 31.999999,21 C 14.272001,21 9.0500001e-7,35.610143 9.0500001e-7,53.758168 l 0,53.241832 C 96.014541,107 96,107 96,107 c 17.728,0 32,-14.619921 32,-32.767946 l 0,-20.473855 C 128,35.610173 113.728,21.000031 96,21.000031 z"
       style="fill:#333333;fill-opacity:0.50246304;stroke:none" />
    <path
       style="fill:#ffffff;fill-opacity:1;stroke:none"
       d="M 32 21 C 14.272002 21 -4.7369516e-15 35.601975 0 53.75 L 0 107 L 96 107 C 113.728 107 128 92.366775 128 74.21875 L 128 53.75 C 128 35.601974 113.728 21 96 21 L 32 21 z M 34.21875 32 L 93.78125 32 C 106.22506 32 116 41.933283 116 54.5625 L 116 73.4375 C 116 86.066717 106.22506 96 93.78125 96 L 12 96 L 12 54.5625 C 12 41.933283 21.774943 32 34.21875 32 z "
       id="rect2984" />
    <path
       style="fill:#e04613;fill-opacity:1;stroke:none"
       d="m 67.936454,50.000001 c 8.9739,0 19.063544,9.92275 19.063545,18.999999 l 0,8 c 0,9.07725 -10.089645,19.000001 -19.063545,19.000001 l -55.936455,0 0,-27.000001 c 0,-9.077249 10.089644,-18.999999 19.063544,-18.999999 0,0 23.568589,0 36.872911,0 z"
       id="path3797"
       inkscape:connector-curvature="0"
       sodipodi:nodetypes="sssscsss" />
    <path
       style="fill:#6c9eab;fill-opacity:1;stroke:none"
       d="M 27.3125,64.03125 C 19.00936,64.38708 12.366943,71.064087 12.03125,79.375 12.022583,79.589568 12,79.793019 12,80 l 0,16 16,0 20,0 C 54.221905,96 64,91.037856 64,80 64,68.962144 54.221905,64 48,64 l -20.029923,0 c -0.323383,0 -0.636627,0.03035 -0.657577,0.03125 z"
       id="path3799"
       inkscape:connector-curvature="0"
       sodipodi:nodetypes="sssccsssss" />
  </g>
</svg>
