<?xml version="1.0" encoding="UTF-8" standalone="no"?>
<!-- Created with Inkscape (http://www.inkscape.org/) -->

<svg
   xmlns:dc="http://purl.org/dc/elements/1.1/"
   xmlns:cc="http://creativecommons.org/ns#"
   xmlns:rdf="http://www.w3.org/1999/02/22-rdf-syntax-ns#"
   xmlns:svg="http://www.w3.org/2000/svg"
   xmlns="http://www.w3.org/2000/svg"
   version="1.0"
   width="48"
   height="48"
   id="svg2">
  <metadata
     id="metadata7">
    <rdf:RDF>
      <cc:Work
         rdf:about="">
        <dc:format>image/svg+xml</dc:format>
        <dc:type
           rdf:resource="http://purl.org/dc/dcmitype/StillImage" />
        <dc:title></dc:title>
      </cc:Work>
    </rdf:RDF>
  </metadata>
  <defs
     id="defs5" />
  <path
     d="m 40.959678,14.977395 c -2.86723,0.06034 -5.737713,0.01143 -8.606277,0.02724 0,0.907835 0,1.81567 0,2.723505 -12.151649,-0.07122 -16.722323,3.21399 -16.722323,12.528125 -0.907835,0 -1.81567,0 -2.723505,0 0.03533,3.877706 -0.08839,7.763028 0.06004,11.635899 0.499099,3.531569 4.102004,6.187282 7.620551,5.739811 6.987302,-0.01765 13.976182,0.04705 20.962493,-0.01994 3.669056,-0.303864 6.539319,-4.003395 6.081354,-7.628055 -0.0396,-6.406816 0.09209,-12.820439 -0.05457,-19.222967 -0.441992,-3.179659 -3.431272,-5.724296 -6.61776,-5.783614 z m -22.74127,5.22913 c 8.034341,0 16.068682,0 24.103023,0 0.01119,7.37173 0.09775,14.743134 0.10894,22.114864 -8.034341,0 -16.068682,0 -24.103023,0 -0.01119,-7.371722 -0.09775,-14.743142 -0.10894,-22.114864 z"
     id="path3183"
     style="fill:#ffffff;fill-opacity:1;fill-rule:nonzero;stroke:none;stroke-width:2;marker:none;visibility:visible;display:inline;overflow:visible;enable-background:accumulate" />
  <path
     d="M 7.1337411,0.24323036 C 3.1745064,0.12702488 -0.23189876,4.0191516 0.24353256,7.9202286 c 0.0181612,6.3364304 -0.0484457,12.6745374 0.0207113,19.0099134 0.32046577,3.819602 4.23078346,6.695922 7.97218646,6.153577 2.7496897,-0.05288 5.5211157,0.149368 8.2565667,-0.116976 1.996868,-0.582432 2.129592,-2.90629 1.972815,-4.622882 -2.601213,-0.413846 -3.789208,-0.42373 -6.495145,-0.586098 C 9.7952527,27.700592 7.6211905,27.592127 5.4451678,27.55999 5.4343843,20.333511 5.347011,13.107365 5.3362275,5.8808866 13.625147,5.9038069 21.912913,6.0758467 30.201832,6.098767 c -0.01994,4.17945 0.05149,8.366966 -0.01834,12.54114 -0.04943,0.768481 -1.763554,2.348276 0.01925,1.909951 1.788976,0.143506 4.33906,0.139954 4.843274,-2.0558 0.312343,-1.938173 0.04564,-3.924139 0.13901,-5.883063 -0.05975,-2.391583 0.189966,-4.8169984 -0.193361,-7.1840978 -0.814249,-3.2793394 -4.246666,-5.58788786 -7.589884,-5.18366684 -6.756013,0 -13.512027,0 -20.2680399,0 z"
     id="path3176"
     style="fill:#ffffff;fill-opacity:1;fill-rule:nonzero;stroke:none;stroke-width:2;marker:none;visibility:visible;display:inline;overflow:visible;enable-background:accumulate" />
  <path
     d="m 9.0401949,9.3942086 c 0,4.8841534 0,9.7683054 0,14.6524594 2.1969611,0 4.3939221,0 6.5908831,0 0.01687,-0.816407 -0.03458,-1.638468 0.02723,-2.451155 -1.270969,0 -2.541939,0 -3.812908,0 0,-3.25005 0,-6.500099 0,-9.75015 3.713046,0 7.426092,0 11.139138,0 0,1.960924 0,3.921848 0,5.882772 0.93507,0 1.87014,0 2.80521,0 0,-2.777975 0,-5.555951 0,-8.3339264 -5.583186,0 -11.166372,0 -16.7495581,0 z"
     id="path3177"
     style="fill:#303030;fill-opacity:1;fill-rule:nonzero;stroke:none;stroke-width:2;marker:none;visibility:visible;display:inline;overflow:visible;enable-background:accumulate" />
  <path
     d="m 21.89514,23.992198 0,14.652459 16.749559,0 0,-14.652459 -16.749559,0 z m 2.805211,2.451154 11.139137,0 0,9.75015 -11.139137,0 0,-9.75015 z"
     id="rect5085"
     style="fill:#303030;fill-opacity:1;fill-rule:nonzero;stroke:none;stroke-width:2;marker:none;visibility:visible;display:inline;overflow:visible;enable-background:accumulate" />
  <path
     d="m 19.689101,17.728135 c -2.245127,0 -4.058023,1.785661 -4.058023,4.030788 l 0,19.091773 c 0,2.245127 1.812896,4.058023 4.058023,4.058023 l 21.161637,0 c 2.245127,0 4.058021,-1.812895 4.058023,-4.058023 l 0,-19.091773 c 0,-2.245127 -1.812896,-4.030788 -4.058023,-4.030788 l -21.161637,0 z m 1.416223,3.132031 18.301956,0 c 1.303622,0 2.36945,1.038593 2.36945,2.342215 l 0,16.204857 c -2e-6,1.303622 -1.065827,2.36945 -2.36945,2.36945 l -18.301956,0 c -1.303623,-2e-6 -2.342215,-1.065828 -2.342215,-2.36945 l 0,-16.204857 c 0,-1.303623 1.038593,-2.342215 2.342215,-2.342215 z"
     id="rect5081"
     style="fill:#303030;fill-opacity:1;fill-rule:nonzero;stroke:none;stroke-width:2;marker:none;visibility:visible;display:inline;overflow:visible;enable-background:accumulate" />
  <path
     d="m 7.1337411,3.075676 c -2.2451272,0 -4.0580231,1.8128958 -4.0580231,4.0580231 l 0,19.0917729 c 0,2.245127 1.8128959,4.030788 4.0580231,4.030788 l 8.4973369,0 0,-3.132031 -7.053879,0 c -1.3036225,0 -2.3694497,-1.038593 -2.3694497,-2.342215 l 0,-16.2048571 c 0,-1.3036224 1.0658275,-2.3694497 2.3694497,-2.3694497 l 18.301956,0 c 1.303623,0 2.342215,1.0658275 2.342215,2.3694497 l 0,9.1509781 3.132031,0 0,-10.5944359 c 0,-2.2451273 -1.812896,-4.0580231 -4.058023,-4.0580231 l -21.1616369,0 z"
     id="rect2161"
     style="fill:#303030;fill-opacity:1;fill-rule:nonzero;stroke:none;stroke-width:2;marker:none;visibility:visible;display:inline;overflow:visible;enable-background:accumulate" />
  <g
     transform="translate(-4.7044517,-3.8989984)"
     id="g2994">
    <path
       d="m 28.644051,12.385764 c -8.531365,0 -15.467407,6.939453 -15.467407,15.467407 0,8.527953 6.936042,15.437603 15.467407,15.437603 8.531361,2e-6 15.467404,-6.90965 15.467404,-15.437603 10e-7,-8.527954 -6.936042,-15.467407 -15.467404,-15.467407 z m -8.851291,12.606382 17.404556,0 0,5.394222 -17.404556,0 0,-5.394222 z"
       id="path4445"
       style="color:#303030;fill:#e04613;fill-opacity:1;fill-rule:nonzero;stroke:#ffffff;stroke-width:2.5;stroke-linecap:butt;stroke-miterlimit:4;stroke-opacity:1;stroke-dasharray:none;marker:none;visibility:visible;display:inline;overflow:visible" />
    <rect
       width="22.961576"
       height="6.9795923"
       x="17.28857"
       y="24.473137"
       id="rect3885"
       style="fill:#ffffff;fill-opacity:1;stroke:#e04613;stroke-width:1.64456952;stroke-miterlimit:4;stroke-opacity:1;stroke-dasharray:none" />
  </g>
</svg>
