<?xml version="1.0" encoding="UTF-8" standalone="no"?>
<!-- Created with Inkscape (http://www.inkscape.org/) -->

<svg
   xmlns:dc="http://purl.org/dc/elements/1.1/"
   xmlns:cc="http://creativecommons.org/ns#"
   xmlns:rdf="http://www.w3.org/1999/02/22-rdf-syntax-ns#"
   xmlns:svg="http://www.w3.org/2000/svg"
   xmlns="http://www.w3.org/2000/svg"
   version="1.1"
   width="48"
   height="48"
   id="svg3304">
  <defs
     id="defs3306" />
  <metadata
     id="metadata3309">
    <rdf:RDF>
      <cc:Work
         rdf:about="">
        <dc:format>image/svg+xml</dc:format>
        <dc:type
           rdf:resource="http://purl.org/dc/dcmitype/StillImage" />
        <dc:title></dc:title>
      </cc:Work>
    </rdf:RDF>
  </metadata>
  <g
     id="layer1">
    <path
       d="M 0,0.53125 A 3.458551,3.458551 0 0 0 -3.46875,4 l 0,7 A 3.458551,3.458551 0 0 0 0,14.46875 l 16,0 A 3.458551,3.458551 0 0 0 19.46875,11 l 0,-7 A 3.458551,3.458551 0 0 0 16,0.53125 l -16,0 z"
       transform="matrix(0.8463769,0,0,0.8463769,3.7013564,3.7181591)"
       id="path2416"
       style="fill:#ffffff;fill-opacity:1;fill-rule:nonzero;stroke:none;stroke-width:4;marker:none;visibility:visible;display:inline;overflow:visible;enable-background:accumulate" />
    <path
       d="M 20,0.53125 A 3.458551,3.458551 0 0 0 16.53125,4 l 0,7 A 3.458551,3.458551 0 0 0 20,14.46875 l 16,0 A 3.458551,3.458551 0 0 0 39.46875,11 l 0,-7 A 3.458551,3.458551 0 0 0 36,0.53125 l -16,0 z"
       transform="matrix(0.8463769,0,0,0.8463769,3.7013564,3.7181591)"
       id="path2418"
       style="fill:#ffffff;fill-opacity:1;fill-rule:nonzero;stroke:none;stroke-width:4;marker:none;visibility:visible;display:inline;overflow:visible;enable-background:accumulate" />
    <path
       d="M 40,0.5625 A 3.434862,3.434862 0 0 0 36.5625,4 l 0,7 A 3.434862,3.434862 0 0 0 40,14.4375 l 16,0 A 3.434862,3.434862 0 0 0 59.4375,11 l 0,-7 A 3.434862,3.434862 0 0 0 56,0.5625 l -16,0 z"
       transform="matrix(0.8463769,0,0,0.8463769,3.7013564,3.7181591)"
       id="path2420"
       style="fill:#ffffff;fill-opacity:1;fill-rule:nonzero;stroke:none;stroke-width:4;marker:none;visibility:visible;display:inline;overflow:visible;enable-background:accumulate" />
    <path
       d="M 31.6875,11.78125 A 3.2328114,3.2328114 0 0 0 28.78125,15 l 0,7 A 3.2328114,3.2328114 0 0 0 32,25.21875 l 16,0 A 3.2328114,3.2328114 0 0 0 51.21875,22 l 0,-7 A 3.2328114,3.2328114 0 0 0 48,11.78125 l -16,0 a 3.2328114,3.2328114 0 0 0 -0.3125,0 z"
       transform="matrix(0.8463769,0,0,0.8463769,3.7013564,3.7181591)"
       id="path2422"
       style="fill:#ffffff;fill-opacity:1;fill-rule:nonzero;stroke:none;stroke-width:4;marker:none;visibility:visible;display:inline;overflow:visible;enable-background:accumulate" />
    <path
       d="M 11.6875,11.78125 A 3.2328114,3.2328114 0 0 0 8.78125,15 l 0,7 A 3.2328114,3.2328114 0 0 0 12,25.21875 l 16,0 A 3.2328114,3.2328114 0 0 0 31.21875,22 l 0,-7 A 3.2328114,3.2328114 0 0 0 28,11.78125 l -16,0 a 3.2328114,3.2328114 0 0 0 -0.3125,0 z"
       transform="matrix(0.8463769,0,0,0.8463769,3.7013564,3.7181591)"
       id="path2424"
       style="fill:#ffffff;fill-opacity:1;fill-rule:nonzero;stroke:none;stroke-width:4;marker:none;visibility:visible;display:inline;overflow:visible;enable-background:accumulate" />
    <path
       d="M -8,11.75 A 3.2391194,3.2391194 0 0 0 -11.25,15 l 0,7 A 3.2391194,3.2391194 0 0 0 -8,25.25 l 16,0 A 3.2391194,3.2391194 0 0 0 11.25,22 l 0,-7 A 3.2391194,3.2391194 0 0 0 8,11.75 l -16,0 z"
       transform="matrix(0.8463769,0,0,0.8463769,3.7013564,3.7181591)"
       id="path2426"
       style="fill:#ffffff;fill-opacity:1;fill-rule:nonzero;stroke:none;stroke-width:4;marker:none;visibility:visible;display:inline;overflow:visible;enable-background:accumulate" />
    <path
       d="M -0.21875,23.90625 A 2.1094712,2.1094712 0 0 0 -2.09375,26 l 0,7 A 2.1094712,2.1094712 0 0 0 0,35.09375 l 16,0 A 2.1094712,2.1094712 0 0 0 18.09375,33 l 0,-7 A 2.1094712,2.1094712 0 0 0 16,23.90625 l -16,0 a 2.1094712,2.1094712 0 0 0 -0.21875,0 z"
       transform="matrix(0.8463769,0,0,0.8463769,3.7013564,3.7181591)"
       id="path2428"
       style="fill:#ffffff;fill-opacity:1;fill-rule:nonzero;stroke:none;stroke-width:4;marker:none;visibility:visible;display:inline;overflow:visible;enable-background:accumulate" />
    <path
       d="M 20,21.46875 A 4.5179913,4.5179913 0 0 0 15.46875,26 l 0,7 A 4.5179913,4.5179913 0 0 0 20,37.53125 l 16,0 A 4.5179913,4.5179913 0 0 0 40.53125,33 l 0,-7 A 4.5179913,4.5179913 0 0 0 36,21.46875 l -16,0 z"
       transform="matrix(0.8463769,0,0,0.8463769,3.7013564,3.7181591)"
       id="path2436"
       style="fill:#ffffff;fill-opacity:1;fill-rule:nonzero;stroke:none;stroke-width:4;marker:none;visibility:visible;display:inline;overflow:visible;enable-background:accumulate" />
    <path
       d="M 40,23.15625 A 2.8287099,2.8287099 0 0 0 37.15625,26 l 0,7 A 2.8287099,2.8287099 0 0 0 40,35.84375 l 16,0 A 2.8287099,2.8287099 0 0 0 58.84375,33 l 0,-7 A 2.8287099,2.8287099 0 0 0 56,23.15625 l -16,0 z"
       transform="matrix(0.8463769,0,0,0.8463769,3.7013564,3.7181591)"
       id="path2438"
       style="fill:#ffffff;fill-opacity:1;fill-rule:nonzero;stroke:none;stroke-width:4;marker:none;visibility:visible;display:inline;overflow:visible;enable-background:accumulate" />
    <path
       d="M 31.625,33.125 A 3.886523,3.886523 0 0 0 28.125,37 l 0,7 A 3.886523,3.886523 0 0 0 32,47.875 l 16,0 A 3.886523,3.886523 0 0 0 51.875,44 l 0,-7 A 3.886523,3.886523 0 0 0 48,33.125 l -16,0 a 3.886523,3.886523 0 0 0 -0.375,0 z"
       transform="matrix(0.8463769,0,0,0.8463769,3.7013564,3.7181591)"
       id="path2434"
       style="fill:#ffffff;fill-opacity:1;fill-rule:nonzero;stroke:none;stroke-width:4;marker:none;visibility:visible;display:inline;overflow:visible;enable-background:accumulate" />
    <path
       d="M 11.6875,33.78125 A 3.2328114,3.2328114 0 0 0 8.78125,37 l 0,7 A 3.2328114,3.2328114 0 0 0 12,47.21875 l 16,0 A 3.2328114,3.2328114 0 0 0 31.21875,44 l 0,-7 A 3.2328114,3.2328114 0 0 0 28,33.78125 l -16,0 a 3.2328114,3.2328114 0 0 0 -0.3125,0 z"
       transform="matrix(0.8463769,0,0,0.8463769,3.7013564,3.7181591)"
       id="path2432"
       style="fill:#ffffff;fill-opacity:1;fill-rule:nonzero;stroke:none;stroke-width:4;marker:none;visibility:visible;display:inline;overflow:visible;enable-background:accumulate" />
    <path
       d="M -8.3125,33.96875 A 3.0374882,3.0374882 0 0 0 -11.03125,37 l 0,7 A 3.0374882,3.0374882 0 0 0 -8,47.03125 l 16,0 A 3.0374882,3.0374882 0 0 0 11.03125,44 l 0,-7 A 3.0374882,3.0374882 0 0 0 8,33.96875 l -16,0 a 3.0374882,3.0374882 0 0 0 -0.3125,0 z"
       transform="matrix(0.8463769,0,0,0.8463769,3.7013564,3.7181591)"
       id="path2430"
       style="fill:#ffffff;fill-opacity:1;fill-rule:nonzero;stroke:none;stroke-width:4;marker:none;visibility:visible;display:inline;overflow:visible;enable-background:accumulate" />
    <rect
       width="13.5343"
       height="5.9246378"
       x="3.7013564"
       y="7.1036663"
       id="rect2158"
       style="fill:#e04613;fill-opacity:1;fill-rule:nonzero;stroke:none;stroke-width:4;marker:none;visibility:visible;display:inline;overflow:visible;enable-background:accumulate" />
    <rect
       width="13.5343"
       height="5.9246378"
       x="20.628893"
       y="7.1036663"
       id="rect2160"
       style="fill:#e04613;fill-opacity:1;fill-rule:nonzero;stroke:none;stroke-width:4;marker:none;visibility:visible;display:inline;overflow:visible;enable-background:accumulate" />
    <rect
       width="13.5343"
       height="5.9246378"
       x="37.556431"
       y="7.1036663"
       id="rect2162"
       style="fill:#e04613;fill-opacity:1;fill-rule:nonzero;stroke:none;stroke-width:4;marker:none;visibility:visible;display:inline;overflow:visible;enable-background:accumulate" />
    <rect
       width="13.5343"
       height="5.9246378"
       x="30.793144"
       y="16.413813"
       id="rect2164"
       style="fill:#e04613;fill-opacity:1;fill-rule:nonzero;stroke:none;stroke-width:4;marker:none;visibility:visible;display:inline;overflow:visible;enable-background:accumulate" />
    <rect
       width="13.5343"
       height="5.9246378"
       x="13.865608"
       y="16.413813"
       id="rect2166"
       style="fill:#e04613;fill-opacity:1;fill-rule:nonzero;stroke:none;stroke-width:4;marker:none;visibility:visible;display:inline;overflow:visible;enable-background:accumulate" />
    <rect
       width="13.5343"
       height="5.9246378"
       x="-3.061929"
       y="16.413813"
       id="rect2168"
       style="fill:#e04613;fill-opacity:1;fill-rule:nonzero;stroke:none;stroke-width:4;marker:none;visibility:visible;display:inline;overflow:visible;enable-background:accumulate" />
    <rect
       width="13.5343"
       height="5.9246378"
       x="3.7090859"
       y="25.723957"
       id="rect2172"
       style="fill:#e04613;fill-opacity:1;fill-rule:nonzero;stroke:none;stroke-width:4;marker:none;visibility:visible;display:inline;overflow:visible;enable-background:accumulate" />
    <rect
       width="13.5343"
       height="5.9246378"
       x="20.628893"
       y="25.723957"
       id="rect2174"
       style="fill:#e04613;fill-opacity:1;fill-rule:nonzero;stroke:none;stroke-width:4;marker:none;visibility:visible;display:inline;overflow:visible;enable-background:accumulate" />
    <rect
       width="13.5343"
       height="5.9246378"
       x="37.556431"
       y="25.723957"
       id="rect2176"
       style="fill:#e04613;fill-opacity:1;fill-rule:nonzero;stroke:none;stroke-width:4;marker:none;visibility:visible;display:inline;overflow:visible;enable-background:accumulate" />
    <rect
       width="13.5343"
       height="5.9246378"
       x="30.793144"
       y="35.034103"
       id="rect2178"
       style="fill:#e04613;fill-opacity:1;fill-rule:nonzero;stroke:none;stroke-width:4;marker:none;visibility:visible;display:inline;overflow:visible;enable-background:accumulate" />
    <rect
       width="13.5343"
       height="5.9246378"
       x="13.865608"
       y="35.034103"
       id="rect2180"
       style="fill:#e04613;fill-opacity:1;fill-rule:nonzero;stroke:none;stroke-width:4;marker:none;visibility:visible;display:inline;overflow:visible;enable-background:accumulate" />
    <rect
       width="13.5343"
       height="5.9246378"
       x="-3.061929"
       y="35.034103"
       id="rect2182"
       style="fill:#e04613;fill-opacity:1;fill-rule:nonzero;stroke:none;stroke-width:4;marker:none;visibility:visible;display:inline;overflow:visible;enable-background:accumulate" />
  </g>
</svg>
