<?xml version="1.0" encoding="UTF-8" standalone="no"?>
<!-- Created with Inkscape (http://www.inkscape.org/) -->

<svg
   xmlns:dc="http://purl.org/dc/elements/1.1/"
   xmlns:cc="http://creativecommons.org/ns#"
   xmlns:rdf="http://www.w3.org/1999/02/22-rdf-syntax-ns#"
   xmlns:svg="http://www.w3.org/2000/svg"
   xmlns="http://www.w3.org/2000/svg"
   xmlns:sodipodi="http://sodipodi.sourceforge.net/DTD/sodipodi-0.dtd"
   xmlns:inkscape="http://www.inkscape.org/namespaces/inkscape"
   width="128"
   height="128"
   id="svg2"
   sodipodi:version="0.32"
   inkscape:version="0.48.3.1 r9886"
   version="1.0"
   sodipodi:docname="software-update-urgent.svg"
   inkscape:output_extension="org.inkscape.output.svg.inkscape">
  <defs
     id="defs4" />
  <sodipodi:namedview
     id="base"
     pagecolor="#ffffff"
     bordercolor="#000000"
     borderopacity="1"
     inkscape:pageopacity="0.0"
     inkscape:pageshadow="2"
     inkscape:zoom="3.959798"
     inkscape:cx="-0.21186132"
     inkscape:cy="55.832974"
     inkscape:document-units="px"
     inkscape:current-layer="layer1"
     width="128px"
     height="128px"
     showgrid="true"
     inkscape:window-width="1598"
     inkscape:window-height="879"
     inkscape:window-x="0"
     inkscape:window-y="0"
     inkscape:window-maximized="1" />
  <metadata
     id="metadata7">
    <rdf:RDF>
      <cc:Work
         rdf:about="">
        <dc:format>image/svg+xml</dc:format>
        <dc:type
           rdf:resource="http://purl.org/dc/dcmitype/StillImage" />
      </cc:Work>
    </rdf:RDF>
  </metadata>
  <g
     inkscape:label="Ebene 1"
     inkscape:groupmode="layer"
     id="layer1">
    <path
       sodipodi:type="star"
       style="opacity:1;fill:#e04613;fill-opacity:1;fill-rule:nonzero;stroke:#ffffff;stroke-width:3.57579948000000014;stroke-linejoin:round;stroke-miterlimit:4;stroke-dasharray:none;stroke-opacity:1"
       id="path2277"
       sodipodi:sides="16"
       sodipodi:cx="62.881996"
       sodipodi:cy="62.845161"
       sodipodi:r1="44.05542"
       sodipodi:r2="34.067142"
       sodipodi:arg1="0.9032173"
       sodipodi:arg2="1.0995668"
       inkscape:flatsided="false"
       inkscape:rounded="0"
       inkscape:randomized="0"
       d="M 90.156114,97.442885 L 78.347871,93.199353 L 74.84002,105.24664 L 65.554555,96.807311 L 57.703425,106.59516 L 52.354367,95.244841 L 41.35522,101.28314 L 40.756914,88.749812 L 28.284272,90.11928 L 32.527805,78.311036 L 20.480514,74.803185 L 28.919846,65.51772 L 19.131997,57.66659 L 30.482317,52.317532 L 24.444021,41.318386 L 36.977345,40.720079 L 35.607878,28.247438 L 47.416122,32.49097 L 50.923972,20.443679 L 60.209437,28.883012 L 68.060567,19.095162 L 73.409626,30.445482 L 84.408772,24.407186 L 85.007078,36.94051 L 97.47972,35.571043 L 93.236187,47.379287 L 105.28348,50.887138 L 96.844146,60.172603 L 106.632,68.023733 L 95.281675,73.372791 L 101.31997,84.371937 L 88.786647,84.970243 L 90.156114,97.442885 z "
       transform="matrix(1.3982887,0,0,1.3982887,-23.927185,-23.875679)" />
    <path
       transform="matrix(0.80374176,0,0,0.80374176,13.459113,13.488719)"
       d="M 90.156114,97.442885 78.347871,93.199353 74.84002,105.24664 65.554555,96.807311 57.703425,106.59516 52.354367,95.244841 41.35522,101.28314 40.756914,88.749812 28.284272,90.11928 32.527805,78.311036 20.480514,74.803185 28.919846,65.51772 19.131997,57.66659 30.482317,52.317532 24.444021,41.318386 36.977345,40.720079 35.607878,28.247438 l 11.808244,4.243532 3.50785,-12.047291 9.285465,8.439333 7.85113,-9.78785 5.349059,11.35032 10.999146,-6.038296 0.598306,12.533324 12.472642,-1.369467 -4.243533,11.808244 12.047293,3.507851 -8.439334,9.285465 9.787854,7.85113 -11.350325,5.349058 6.038295,10.999146 -12.533323,0.598306 z"
       inkscape:randomized="0"
       inkscape:rounded="0"
       inkscape:flatsided="false"
       sodipodi:arg2="1.0995668"
       sodipodi:arg1="0.9032173"
       sodipodi:r2="34.067142"
       sodipodi:r1="44.05542"
       sodipodi:cy="62.845161"
       sodipodi:cx="62.881996"
       sodipodi:sides="16"
       id="path2983"
       style="fill:#262729;fill-opacity:1;fill-rule:nonzero;stroke:none"
       sodipodi:type="star" />
    <path
       sodipodi:type="arc"
       style="fill:#ffffff;fill-opacity:1;fill-rule:evenodd;stroke:none"
       id="path11873"
       sodipodi:cx="24"
       sodipodi:cy="36"
       sodipodi:rx="3"
       sodipodi:ry="3"
       d="m 27,36 a 3,3 0 1 1 -6,0 3,3 0 1 1 6,0 z"
       transform="matrix(1.4999999,0,0,1.5,28,25.555555)" />
    <path
       inkscape:connector-curvature="0"
       style="fill:#ffffff;fill-opacity:1;fill-rule:evenodd;stroke:none"
       d="m 70,51.407407 c 0,5.925926 -3.000001,22.222223 -6,22.222223 -2.999999,0 -6,-16.296297 -6,-22.222223 C 58,44.047406 62.5,44 64,44 c 1.5,0 6,0.0474 6,7.407407 z"
       id="path12748"
       sodipodi:nodetypes="csssc" />
  </g>
</svg>
