<?xml version="1.0" encoding="UTF-8" standalone="no"?>
<!-- Created with Inkscape (http://www.inkscape.org/) -->

<svg
   xmlns:dc="http://purl.org/dc/elements/1.1/"
   xmlns:cc="http://creativecommons.org/ns#"
   xmlns:rdf="http://www.w3.org/1999/02/22-rdf-syntax-ns#"
   xmlns:svg="http://www.w3.org/2000/svg"
   xmlns="http://www.w3.org/2000/svg"
   xmlns:sodipodi="http://sodipodi.sourceforge.net/DTD/sodipodi-0.dtd"
   xmlns:inkscape="http://www.inkscape.org/namespaces/inkscape"
   width="128"
   height="128"
   id="svg2"
   sodipodi:version="0.32"
   inkscape:version="0.48.3.1 r9886"
   version="1.0"
   sodipodi:docname="user-trash-full.svg"
   inkscape:output_extension="org.inkscape.output.svg.inkscape">
  <defs
     id="defs4" />
  <sodipodi:namedview
     id="base"
     pagecolor="#ffffff"
     bordercolor="#000000"
     borderopacity="1"
     inkscape:pageopacity="0.0"
     inkscape:pageshadow="2"
     inkscape:zoom="3.959798"
     inkscape:cx="87.202074"
     inkscape:cy="60.930511"
     inkscape:document-units="px"
     inkscape:current-layer="layer1"
     width="128px"
     height="128px"
     showgrid="true"
     inkscape:window-width="1598"
     inkscape:window-height="879"
     inkscape:window-x="0"
     inkscape:window-y="0"
     inkscape:window-maximized="1" />
  <metadata
     id="metadata7">
    <rdf:RDF>
      <cc:Work
         rdf:about="">
        <dc:format>image/svg+xml</dc:format>
        <dc:type
           rdf:resource="http://purl.org/dc/dcmitype/StillImage" />
      </cc:Work>
    </rdf:RDF>
  </metadata>
  <g
     inkscape:label="Ebene 1"
     inkscape:groupmode="layer"
     id="layer1">
    <g
       id="g3462"
       transform="matrix(1.169041,0,0,1.169041,58.095452,-43.548921)"
       style="fill:#ffffff;fill-opacity:1;stroke:none">
      <path
         sodipodi:nodetypes="csssssc"
         id="path3454"
         d="m -1.5385194,56.492149 c 0,4.411073 -0.98643,-0.968392 -3.879197,1.924375 -2.892768,2.89277 -4.209733,-1.477946 -8.6208036,-1.477946 -4.411071,0 -6.531607,2.942144 -9.424374,0.04937 -2.892768,-2.892767 -10.039911,3.915269 -10.039911,-0.495804 0,-8.822143 7.16,-15.982143 15.982143,-15.982143 8.8221416,0 15.9821426,7.16 15.9821426,15.982143 z"
         style="fill:#ffffff;fill-opacity:1;fill-rule:nonzero;stroke:none"
         inkscape:connector-curvature="0" />
      <path
         sodipodi:nodetypes="csssc"
         id="path3456"
         d="m 41.015047,59.97429 c -6.42857,-2.874284 -9.74928,-3.035713 -18.57143,-3.035713 -8.822138,0 -13.3928534,11.857857 -13.3928534,3.035713 0,-8.822143 7.1600004,-15.982143 15.9821434,-15.982143 8.82214,0 15.98214,7.16 15.98214,15.982143 z"
         style="fill:#ffffff;fill-opacity:1;fill-rule:nonzero;stroke:none"
         inkscape:connector-curvature="0" />
      <path
         sodipodi:nodetypes="cscsssc"
         id="path3458"
         d="m 24.057747,58.362816 c 0,5.384365 -4.67877,-1.986591 -8.051985,0.28177 -3.373214,2.268361 -7.7712614,3.620892 -10.8252364,14.176039 -0.838679,-3.409265 -5.24231202,-10.897526 -8.9312,-13.165887 -3.688888,-2.268361 -11.2087156,4.092443 -11.2087156,-1.291922 0,-10.768732 8.7398396,-19.508572 19.5085706,-19.508572 10.7687324,0 19.5085664,8.73984 19.5085664,19.508572 z"
         style="fill:#ffffff;fill-opacity:1;fill-rule:nonzero;stroke:none"
         inkscape:connector-curvature="0" />
      <path
         id="path3460"
         d="m -27.07588,143.42399 c -2.80002,-0.86218 -6.222283,-3.02028 -8.66822,-5.46621 -7.01864,-7.01863 -7.205138,-8.34255 -7.205138,-51.147979 l 0,-37.821861 13.318498,0 c 16.50095,0 21.8193096,1.373102 27.5622796,7.11607 2.25788998,2.257888 4.62962,5.855453 5.27052,7.99459 0.64091,2.139137 1.47282,3.88934 1.8487,3.88934 0.37589,0 1.2078,-1.750203 1.8487,-3.88934 0.6409,-2.139137 3.01264,-5.736702 5.2705304,-7.99459 5.74296,-5.742968 11.061327,-7.11607 27.562267,-7.11607 l 13.318506,0 0,37.821861 c 0,42.793669 -0.18814,44.130979 -7.194016,51.136859 -6.48907,6.48906 -9.8216,7.05246 -41.2374874,6.97162 C -15.81004,144.86571 -23.58403,144.4992 -27.07588,143.42399 z M 30.796277,132.4498 c 4.7503,-1.9848 7.02196,-4.08928 9.36089,-8.67202 1.73377,-3.397 1.8936,-6.24574 1.8936,-33.750002 l 0,-30.039838 -11.28812,0 c -9.71987,0 -11.90687,0.312589 -15.741927,2.25 -3.84126,1.940545 -7.3414804,5.681 -9.4026004,10.047935 -0.44182,0.936087 -0.69289,0.936087 -1.13471,0 -2.06112,-4.366935 -5.56135,-8.10739 -9.40261,-10.047935 -3.83505,-1.937411 -6.0220596,-2.25 -15.7419296,-2.25 l -11.28811,0 0,30.039838 c 0,27.504262 0.15984,30.353002 1.89359,33.750002 2.29847,4.50345 4.56577,6.64432 9.13617,8.62669 5.11694,2.21942 46.425747,2.25563 51.715757,0.0453 z"
         style="fill:#ffffff;fill-opacity:1;stroke:none"
         inkscape:connector-curvature="0" />
    </g>
    <path
       style="fill:#6c9eab;fill-opacity:1;fill-rule:nonzero;stroke:none;stroke-width:15.39999962;stroke-linejoin:miter;stroke-miterlimit:4;stroke-opacity:1"
       d="M 57.796514,28.333939 C 57.796514,32.745012 56.810085,27.365547 53.917317,30.258314 C 51.02455,33.151084 49.707585,28.780368 45.296514,28.780368 C 40.885442,28.780368 38.764907,31.722512 35.872139,28.829743 C 32.979372,25.936976 25.832228,32.745012 25.832228,28.333939 C 25.832228,19.511796 32.992229,12.351796 41.814371,12.351796 C 50.636514,12.351796 57.796514,19.511796 57.796514,28.333939 z "
       id="path4648"
       sodipodi:nodetypes="csssssc" />
    <path
       style="fill:#6c9eab;fill-opacity:1;fill-rule:nonzero;stroke:none;stroke-width:15.39999962;stroke-linejoin:miter;stroke-miterlimit:4;stroke-opacity:1"
       d="M 100.35008,31.81608 C 93.921512,28.941796 90.600798,28.780367 81.778655,28.780367 C 72.956513,28.780367 68.385798,40.638225 68.385798,31.81608 C 68.385798,22.993938 75.545798,15.833937 84.36794,15.833937 C 93.190083,15.833937 100.35008,22.993938 100.35008,31.81608 z "
       id="path4656"
       sodipodi:nodetypes="csssc" />
    <path
       style="fill:#6c9eab;fill-opacity:1;fill-rule:nonzero;stroke:none;stroke-width:15.39999962;stroke-linejoin:miter;stroke-miterlimit:4;stroke-opacity:1"
       d="M 83.392783,30.204606 C 83.392783,35.588971 78.71401,28.218015 75.340796,30.486376 C 71.967582,32.754737 67.569535,34.107268 64.51556,44.662415 C 63.676881,41.25315 59.273248,33.764889 55.58436,31.496528 C 51.895472,29.228167 44.375644,35.588971 44.375644,30.204606 C 44.375644,19.435874 53.115484,10.696034 63.884215,10.696034 C 74.652947,10.696034 83.392783,19.435874 83.392783,30.204606 z "
       id="path4645"
       sodipodi:nodetypes="cscsssc" />
    <path
       style="fill:#262729;fill-opacity:1;stroke:#ffffff;stroke-opacity:1"
       d="M 32.259154,115.26578 C 29.459134,114.4036 26.036871,112.2455 23.590934,109.79957 C 16.572295,102.78094 16.385797,101.45702 16.385797,58.651591 L 16.385797,20.82973 L 29.704294,20.82973 C 46.205244,20.82973 51.523604,22.202832 57.266574,27.9458 C 59.524464,30.203688 61.896194,33.801253 62.537094,35.94039 C 63.178004,38.079527 64.009914,39.82973 64.385794,39.82973 C 64.761684,39.82973 65.593594,38.079527 66.234494,35.94039 C 66.875394,33.801253 69.247134,30.203688 71.505024,27.9458 C 77.247984,22.202832 82.566354,20.82973 99.067294,20.82973 L 112.3858,20.82973 L 112.3858,58.651591 C 112.3858,101.44526 112.19766,102.78257 105.19178,109.78845 C 98.702714,116.27751 95.370184,116.84091 63.954294,116.76007 C 43.524994,116.7075 35.751004,116.34099 32.259154,115.26578 z M 90.131314,104.29159 C 94.881614,102.30679 97.153274,100.20231 99.492204,95.619567 C 101.22597,92.222567 101.3858,89.373827 101.3858,61.869568 L 101.3858,31.82973 L 90.097684,31.82973 C 80.377814,31.82973 78.190814,32.142319 74.355754,34.07973 C 70.514494,36.020275 67.014274,39.76073 64.953154,44.127665 C 64.511334,45.063752 64.260264,45.063752 63.818444,44.127665 C 61.757324,39.76073 58.257094,36.020275 54.415834,34.07973 C 50.580784,32.142319 48.393774,31.82973 38.673904,31.82973 L 27.385794,31.82973 L 27.385794,61.869568 C 27.385794,89.373827 27.545634,92.222567 29.279384,95.619567 C 31.577854,100.12302 33.845154,102.26389 38.415554,104.24626 C 43.532494,106.46568 84.841304,106.50189 90.131314,104.29159 z "
       id="path4009" />
    <path
       style="fill:#6b6b6b;fill-opacity:1;stroke:none;stroke-opacity:1"
       d="M 42.069045,101.07688 C 40.124013,100.47797 37.74674,98.978854 36.047671,97.279787 C 31.172178,92.404292 31.042628,91.484631 31.042628,61.74987 L 31.042628,35.476939 L 40.294313,35.476939 C 51.756687,35.476939 55.451082,36.430764 59.440433,40.420113 C 61.008875,41.988553 62.656395,44.487599 63.101596,45.973549 C 63.546804,47.459499 64.124689,48.675277 64.385794,48.675277 C 64.646906,48.675277 65.224792,47.459499 65.669992,45.973549 C 66.115193,44.487599 67.762721,41.988553 69.331161,40.420113 C 73.320504,36.430764 77.014906,35.476939 88.477276,35.476939 L 97.728966,35.476939 L 97.728966,61.74987 C 97.728966,91.476462 97.598276,92.405424 92.731646,97.272062 C 88.224016,101.77968 85.909076,102.17105 64.086053,102.11489 C 49.894853,102.07837 44.494656,101.82378 42.069045,101.07688 z M 82.269901,93.453664 C 85.569696,92.074924 87.147696,90.613048 88.772436,87.429651 C 89.976796,85.069927 90.087826,83.091051 90.087826,63.985236 L 90.087826,43.118082 L 82.24654,43.118082 C 75.494638,43.118082 73.97544,43.335222 71.311418,44.681043 C 68.64309,46.029041 66.211666,48.627346 64.77991,51.660835 C 64.473001,52.311087 64.298595,52.311087 63.991685,51.660835 C 62.559929,48.627346 60.128497,46.029041 57.460168,44.681043 C 54.796153,43.335222 53.276948,43.118082 46.525047,43.118082 L 38.683768,43.118082 L 38.683768,63.985236 C 38.683768,83.091051 38.794801,85.069927 39.99915,87.429651 C 41.59578,90.557969 43.170759,92.045123 46.345584,93.422175 C 49.900063,94.963902 78.595199,94.989055 82.269901,93.453664 z "
       id="path3716" />
  </g>
</svg>
