<?xml version="1.0" encoding="UTF-8" standalone="no"?>
<!-- Created with Inkscape (http://www.inkscape.org/) -->

<svg
   xmlns:dc="http://purl.org/dc/elements/1.1/"
   xmlns:cc="http://creativecommons.org/ns#"
   xmlns:rdf="http://www.w3.org/1999/02/22-rdf-syntax-ns#"
   xmlns:svg="http://www.w3.org/2000/svg"
   xmlns="http://www.w3.org/2000/svg"
   xmlns:sodipodi="http://sodipodi.sourceforge.net/DTD/sodipodi-0.dtd"
   xmlns:inkscape="http://www.inkscape.org/namespaces/inkscape"
   width="48px"
   height="48px"
   id="svg1306"
   sodipodi:version="0.32"
   inkscape:version="0.48.3.1 r9886"
   sodipodi:docname="weather-overcast.svg"
   inkscape:output_extension="org.inkscape.output.svg.inkscape"
   version="1.1">
  <defs
     id="defs1308">
    <inkscape:perspective
       sodipodi:type="inkscape:persp3d"
       inkscape:vp_x="0 : 24 : 1"
       inkscape:vp_y="0 : 1000 : 0"
       inkscape:vp_z="48 : 24 : 1"
       inkscape:persp3d-origin="24 : 16 : 1"
       id="perspective12" />
    <linearGradient
       id="linearGradient3389">
      <stop
         style="stop-color:white;stop-opacity:1"
         offset="0"
         id="stop3391" />
      <stop
         id="stop3397"
         offset="0.26506025"
         style="stop-color:white;stop-opacity:1;" />
      <stop
         style="stop-color:#babdb6;stop-opacity:1"
         offset="1"
         id="stop3393" />
    </linearGradient>
  </defs>
  <sodipodi:namedview
     id="base"
     pagecolor="#ededed"
     bordercolor="#666"
     borderopacity="1"
     inkscape:pageopacity="1"
     inkscape:pageshadow="2"
     inkscape:zoom="11.313708"
     inkscape:cx="23.429221"
     inkscape:cy="20.170578"
     inkscape:current-layer="layer1"
     showgrid="true"
     inkscape:grid-bbox="true"
     inkscape:document-units="px"
     inkscape:window-width="1051"
     inkscape:window-height="879"
     inkscape:window-x="227"
     inkscape:window-y="0"
     inkscape:showpageshadow="false"
     showborder="true"
     showguides="true"
     inkscape:guide-bbox="true"
     inkscape:window-maximized="0" />
  <metadata
     id="metadata1311">
    <rdf:RDF>
      <cc:Work
         rdf:about="">
        <dc:format>image/svg+xml</dc:format>
        <dc:type
           rdf:resource="http://purl.org/dc/dcmitype/StillImage" />
        <cc:license
           rdf:resource="" />
      </cc:Work>
    </rdf:RDF>
  </metadata>
  <g
     id="layer1"
     inkscape:label="Layer 1"
     inkscape:groupmode="layer">
    <path
       transform="matrix(0.9166223,0,0,0.9166223,2.3980406,3.1763102)"
       d="m 26.875,6.71875 c -2.318816,0 -4.259616,1.459813 -5.125,3.46875 -2.223221,0.604456 -4.21119,1.769788 -5.75,3.40625 -0.107191,-0.0262 -0.226651,-0.04248 -0.34375,-0.0625 C 14.789737,12.441091 13.650905,11.5 12.03125,11.5 c -2.8427064,0 -5.1875,2.344726 -5.1875,5.1875 0,0.406257 0.2155278,0.699742 0.3125,1.0625 C 6.3300267,18.044554 5.6310577,18.437993 5,18.96875 4.6193738,18.879096 4.3288484,18.65625 3.90625,18.65625 0.80887557,18.656248 -1.75,21.215706 -1.75,24.3125 -1.7499999,27.409293 0.78336041,30 3.90625,30 4.3542896,29.999999 4.6145374,29.786976 5,29.6875 c 1.1274677,0.943311 2.4834375,1.718749 4.1875,1.71875 0.4304013,-1e-6 0.7390397,-0.172899 1.125,-0.25 1.438485,1.508056 3.286571,2.65625 5.5625,2.65625 1.384615,-10e-7 2.551376,-0.47975 3.59375,-1.0625 1.639788,0.86545 3.450219,1.53125 5.5,1.53125 2.805992,-10e-7 5.178562,-1.171666 7.1875,-2.71875 0.998343,0.461174 2.077853,0.8125 3.3125,0.8125 1.575404,0 2.904329,-0.56776 4.09375,-1.28125 0.449052,0.165068 0.995331,0.3125 1.65625,0.3125 1.096066,-1e-6 2.009775,-0.354208 2.8125,-0.78125 0.351444,0.09092 0.613833,0.3125 1,0.3125 2.591742,0 4.718756,-2.126261 4.71875,-4.71875 -2e-6,-1.872789 -1.18518,-3.330827 -2.6875,-4.0625 -0.968545,-2.157011 -2.969922,-3.753198 -5.46875,-3.90625 -0.472253,-0.509365 -0.982534,-0.934771 -1.5625,-1.3125 -0.365946,-3.035303 -2.889212,-5.4375 -6,-5.4375 -0.596475,0 -1.111248,0.148605 -1.625,0.3125 C 32.105426,8.9887934 29.772403,6.71875 26.875,6.71875 z"
       id="path2989"
       style="fill:#ffffff;fill-opacity:1;stroke:none"
       inkscape:original="M 26.875 9 C 25.125412 9 23.698255 10.354474 23.53125 12.0625 C 20.713099 12.470161 18.276121 14.011853 16.71875 16.25 C 16.131804 16.004743 15.570954 15.6875 14.90625 15.6875 C 14.768986 15.6875 14.688019 15.736445 14.5625 15.75 C 14.140472 14.658854 13.26331 13.78125 12.03125 13.78125 C 10.435285 13.78125 9.125 15.091477 9.125 16.6875 C 9.1249999 17.680189 9.7278224 18.437924 10.5 18.96875 C 10.401392 19.243818 10.328863 19.515824 10.28125 19.8125 C 9.906454 19.71396 9.5965789 19.5 9.1875 19.5 C 7.6784592 19.499999 6.4448065 20.315349 5.5625 21.40625 C 5.0649221 21.123978 4.5120241 20.9375 3.90625 20.9375 C 2.046271 20.937499 0.53125 22.453024 0.53125 24.3125 C 0.53125007 26.171974 2.0462709 27.71875 3.90625 27.71875 C 4.5170316 27.718749 5.0621042 27.505389 5.5625 27.21875 C 6.4448067 28.30965 7.6784604 29.124999 9.1875 29.125 C 9.8474344 29.124999 10.433692 28.960139 11 28.71875 C 12.009328 30.375312 13.791252 31.53125 15.875 31.53125 C 17.226436 31.531249 18.399012 30.962294 19.375 30.1875 C 20.986547 31.277758 22.880519 32 24.96875 32 C 27.75024 31.999999 30.172373 30.761861 32 28.9375 C 33.002178 29.625799 34.159618 30.09375 35.46875 30.09375 C 37.002544 30.09375 38.354022 29.445479 39.4375 28.53125 C 40.000412 28.803431 40.546801 29.125 41.21875 29.125 C 42.16805 29.124999 42.975293 28.737616 43.6875 28.21875 C 44.079399 28.486222 44.527761 28.65625 45.03125 28.65625 C 46.363203 28.65625 47.468753 27.551323 47.46875 26.21875 C 47.468749 25.021162 46.522268 24.129653 45.375 23.9375 C 44.96006 21.973826 43.301724 20.46875 41.21875 20.46875 C 41.010868 20.46875 40.824043 20.533958 40.625 20.5625 C 39.935342 19.496151 38.96853 18.707665 37.78125 18.21875 C 37.818059 18.016079 37.90625 17.8442 37.90625 17.625 C 37.906252 15.502066 36.155237 13.78125 34.03125 13.78125 C 33.145171 13.78125 32.380293 14.14848 31.71875 14.65625 C 31.17227 14.158241 30.578924 13.71196 29.9375 13.34375 C 30.038889 13.015328 30.25 12.728819 30.25 12.375 C 30.25 10.515522 28.734976 9 26.875 9 z "
       inkscape:radius="2.2779515"
       sodipodi:type="inkscape:offset" />
    <path
       sodipodi:type="inkscape:offset"
       inkscape:radius="2.2779515"
       inkscape:original="M 26.875 9 C 25.125412 9 23.698255 10.354474 23.53125 12.0625 C 20.713099 12.470161 18.276121 14.011853 16.71875 16.25 C 16.131804 16.004743 15.570954 15.6875 14.90625 15.6875 C 14.768986 15.6875 14.688019 15.736445 14.5625 15.75 C 14.140472 14.658854 13.26331 13.78125 12.03125 13.78125 C 10.435285 13.78125 9.125 15.091477 9.125 16.6875 C 9.1249999 17.680189 9.7278224 18.437924 10.5 18.96875 C 10.401392 19.243818 10.328863 19.515824 10.28125 19.8125 C 9.906454 19.71396 9.5965789 19.5 9.1875 19.5 C 7.6784592 19.499999 6.4448065 20.315349 5.5625 21.40625 C 5.0649221 21.123978 4.5120241 20.9375 3.90625 20.9375 C 2.046271 20.937499 0.53125 22.453024 0.53125 24.3125 C 0.53125007 26.171974 2.0462709 27.71875 3.90625 27.71875 C 4.5170316 27.718749 5.0621042 27.505389 5.5625 27.21875 C 6.4448067 28.30965 7.6784604 29.124999 9.1875 29.125 C 9.8474344 29.124999 10.433692 28.960139 11 28.71875 C 12.009328 30.375312 13.791252 31.53125 15.875 31.53125 C 17.226436 31.531249 18.399012 30.962294 19.375 30.1875 C 20.986547 31.277758 22.880519 32 24.96875 32 C 27.75024 31.999999 30.172373 30.761861 32 28.9375 C 33.002178 29.625799 34.159618 30.09375 35.46875 30.09375 C 37.002544 30.09375 38.354022 29.445479 39.4375 28.53125 C 40.000412 28.803431 40.546801 29.125 41.21875 29.125 C 42.16805 29.124999 42.975293 28.737616 43.6875 28.21875 C 44.079399 28.486222 44.527761 28.65625 45.03125 28.65625 C 46.363203 28.65625 47.468753 27.551323 47.46875 26.21875 C 47.468749 25.021162 46.522268 24.129653 45.375 23.9375 C 44.96006 21.973826 43.301724 20.46875 41.21875 20.46875 C 41.010868 20.46875 40.824043 20.533958 40.625 20.5625 C 39.935342 19.496151 38.96853 18.707665 37.78125 18.21875 C 37.818059 18.016079 37.90625 17.8442 37.90625 17.625 C 37.906252 15.502066 36.155237 13.78125 34.03125 13.78125 C 33.145171 13.78125 32.380293 14.14848 31.71875 14.65625 C 31.17227 14.158241 30.578924 13.71196 29.9375 13.34375 C 30.038889 13.015328 30.25 12.728819 30.25 12.375 C 30.25 10.515522 28.734976 9 26.875 9 z "
       style="fill:#ffffff;fill-opacity:1;stroke:none"
       id="path2387"
       d="m 26.875,6.71875 c -2.318816,0 -4.259616,1.459813 -5.125,3.46875 -2.223221,0.604456 -4.21119,1.769788 -5.75,3.40625 -0.107191,-0.0262 -0.226651,-0.04248 -0.34375,-0.0625 C 14.789737,12.441091 13.650905,11.5 12.03125,11.5 c -2.8427064,0 -5.1875,2.344726 -5.1875,5.1875 0,0.406257 0.2155278,0.699742 0.3125,1.0625 C 6.3300267,18.044554 5.6310577,18.437993 5,18.96875 4.6193738,18.879096 4.3288484,18.65625 3.90625,18.65625 0.80887557,18.656248 -1.75,21.215706 -1.75,24.3125 -1.7499999,27.409293 0.78336041,30 3.90625,30 4.3542896,29.999999 4.6145374,29.786976 5,29.6875 c 1.1274677,0.943311 2.4834375,1.718749 4.1875,1.71875 0.4304013,-1e-6 0.7390397,-0.172899 1.125,-0.25 1.438485,1.508056 3.286571,2.65625 5.5625,2.65625 1.384615,-10e-7 2.551376,-0.47975 3.59375,-1.0625 1.639788,0.86545 3.450219,1.53125 5.5,1.53125 2.805992,-10e-7 5.178562,-1.171666 7.1875,-2.71875 0.998343,0.461174 2.077853,0.8125 3.3125,0.8125 1.575404,0 2.904329,-0.56776 4.09375,-1.28125 0.449052,0.165068 0.995331,0.3125 1.65625,0.3125 1.096066,-1e-6 2.009775,-0.354208 2.8125,-0.78125 0.351444,0.09092 0.613833,0.3125 1,0.3125 2.591742,0 4.718756,-2.126261 4.71875,-4.71875 -2e-6,-1.872789 -1.18518,-3.330827 -2.6875,-4.0625 -0.968545,-2.157011 -2.969922,-3.753198 -5.46875,-3.90625 -0.472253,-0.509365 -0.982534,-0.934771 -1.5625,-1.3125 -0.365946,-3.035303 -2.889212,-5.4375 -6,-5.4375 -0.596475,0 -1.111248,0.148605 -1.625,0.3125 C 32.105426,8.9887934 29.772403,6.71875 26.875,6.71875 z"
       transform="matrix(0.9166223,0,0,0.9166223,1.6040886,7.2421755)" />
    <path
       style="fill:#808080;fill-opacity:1;stroke:none"
       d="m 26.238314,15.491777 c -1.603711,0 -2.911875,1.241541 -3.064956,2.807156 -2.58318,0.373671 -4.816968,1.786821 -6.244489,3.838356 -0.538008,-0.224808 -1.052096,-0.5156 -1.661378,-0.5156 -0.12582,0 -0.200036,0.04486 -0.315089,0.05729 -0.38684,-1.000169 -1.190867,-1.8046 -2.3202,-1.8046 -1.462898,0 -2.6639354,1.200983 -2.6639354,2.663933 0,0.909921 0.5525614,1.604478 1.2603574,2.091045 -0.09039,0.252134 -0.156868,0.50146 -0.200512,0.7734 -0.343546,-0.09032 -0.627584,-0.286444 -1.002555,-0.286444 -1.3832224,-1e-6 -2.5140154,0.747367 -3.3227574,1.747311 -0.456091,-0.258737 -0.96289,-0.429667 -1.518156,-0.429667 -1.704898,-1e-6 -3.0936,1.389163 -3.0936,3.093601 0,1.704435 1.388702,3.122244 3.0936,3.122244 0.559856,-1e-6 1.059482,-0.195571 1.518156,-0.458311 0.808742,0.999944 1.939536,1.747311 3.3227574,1.747312 0.60491,-10e-7 1.142287,-0.151116 1.661378,-0.372378 0.925172,1.518441 2.558524,2.578 4.468534,2.578 1.238756,-10e-7 2.313565,-0.521518 3.208178,-1.231711 1.47718,0.999355 3.213237,1.661378 5.127356,1.661378 2.549576,-10e-7 4.769757,-1.134906 6.445001,-2.807156 0.918618,0.63091 1.979554,1.059844 3.179533,1.059844 1.40591,0 2.644705,-0.594219 3.637844,-1.432222 0.515978,0.249487 1.01681,0.544245 1.632734,0.544245 0.870149,-10e-7 1.610086,-0.355085 2.262911,-0.830689 0.359223,0.24517 0.770202,0.401022 1.231711,0.401022 1.220898,0 2.23427,-1.012801 2.234267,-2.234267 -10e-7,-1.097736 -0.867566,-1.914913 -1.919178,-2.091045 -0.380343,-1.799947 -1.900411,-3.179533 -3.809711,-3.179533 -0.19055,0 -0.361798,0.05977 -0.544245,0.08593 -0.632156,-0.977439 -1.518357,-1.700183 -2.606644,-2.148334 0.03374,-0.185772 0.114578,-0.343321 0.114578,-0.544244 2e-6,-1.945929 -1.605017,-3.523267 -3.551911,-3.523267 -0.8122,0 -1.513304,0.336611 -2.119689,0.802044 -0.500916,-0.456486 -1.04479,-0.865557 -1.632734,-1.203067 0.09294,-0.301038 0.286445,-0.563659 0.286445,-0.887977 0,-1.704439 -1.388705,-3.093601 -3.093601,-3.093601 z"
       id="path2077"
       sodipodi:nodetypes="cccscssccscssscscscscscscsscsccssccsc"
       inkscape:connector-curvature="0" />
    <path
       sodipodi:nodetypes="cccscssccscssscscscscscscsscsccssccsc"
       id="path2991"
       d="m 27.032265,11.425906 c -1.603711,0 -2.911875,1.241544 -3.064956,2.807166 -2.58318,0.373672 -4.816968,1.786829 -6.244489,3.838369 -0.538008,-0.224808 -1.052096,-0.5156 -1.661378,-0.5156 -0.12582,0 -0.200036,0.04486 -0.315089,0.05729 -0.38684,-1.000171 -1.190867,-1.804606 -2.3202,-1.804606 -1.462898,0 -2.663934,1.200988 -2.663934,2.663939 0,0.909921 0.55256,1.604478 1.260356,2.091045 -0.09039,0.252134 -0.156868,0.50146 -0.200512,0.7734 -0.343546,-0.09032 -0.627584,-0.286444 -1.002555,-0.286444 -1.3832206,-10e-7 -2.5140142,0.747367 -3.322756,1.747311 -0.456091,-0.258738 -0.9628897,-0.429668 -1.5181558,-0.429668 -1.7048982,-1e-6 -3.0936003,1.389163 -3.0936003,3.093601 1e-7,1.704435 1.388702,3.122244 3.0936003,3.122244 0.5598561,-1e-6 1.0594818,-0.195571 1.5181558,-0.458311 0.808742,0.999944 1.9395365,1.747311 3.322756,1.747312 0.60491,-1e-6 1.142287,-0.151116 1.661378,-0.372378 0.925172,1.518441 2.558524,2.578 4.468534,2.578 1.238756,-10e-7 2.313565,-0.521518 3.208178,-1.231711 1.47718,0.999355 3.213237,1.661378 5.127356,1.661378 2.549576,-10e-7 4.769757,-1.134906 6.445001,-2.807156 0.918618,0.63091 1.979554,1.059844 3.179533,1.059844 1.40591,0 2.644705,-0.594219 3.637845,-1.432222 0.515978,0.249487 1.01681,0.544245 1.632734,0.544245 0.870149,-1e-6 1.610086,-0.355085 2.262911,-0.830689 0.359223,0.24517 0.770202,0.401022 1.231711,0.401022 1.220898,0 2.23427,-1.012801 2.234267,-2.234267 -1e-6,-1.097736 -0.867566,-1.914913 -1.919178,-2.091045 -0.380343,-1.799947 -1.900411,-3.179533 -3.809711,-3.179533 -0.19055,0 -0.361798,0.05977 -0.544245,0.08593 -0.632156,-0.977439 -1.518357,-1.700183 -2.606645,-2.148334 0.03374,-0.185772 0.114578,-0.343321 0.114578,-0.544244 2e-6,-1.945929 -1.605017,-3.523273 -3.551911,-3.523273 -0.8122,0 -1.513304,0.336612 -2.119689,0.802048 -0.500916,-0.456488 -1.04479,-0.865561 -1.632734,-1.203073 0.09294,-0.301039 0.286445,-0.563661 0.286445,-0.887981 0,-1.704447 -1.388705,-3.093612 -3.093601,-3.093612 z"
       style="fill:#808080;fill-opacity:1;stroke:#ffffff;stroke-width:1;stroke-linecap:butt;stroke-linejoin:miter;stroke-miterlimit:4;stroke-opacity:1;stroke-dasharray:none"
       inkscape:connector-curvature="0" />
  </g>
</svg>
